G04 #@! TF.GenerationSoftware,KiCad,Pcbnew,(5.1.4)-1*
G04 #@! TF.CreationDate,2020-03-23T23:33:49-05:00*
G04 #@! TF.ProjectId,ExOneMicrorocessor,45784f6e-654d-4696-9372-6f726f636573,rev?*
G04 #@! TF.SameCoordinates,Original*
G04 #@! TF.FileFunction,Soldermask,Bot*
G04 #@! TF.FilePolarity,Negative*
%FSLAX46Y46*%
G04 Gerber Fmt 4.6, Leading zero omitted, Abs format (unit mm)*
G04 Created by KiCad (PCBNEW (5.1.4)-1) date 2020-03-23 23:33:49*
%MOMM*%
%LPD*%
G04 APERTURE LIST*
%ADD10C,0.100000*%
G04 APERTURE END LIST*
D10*
G36*
X157225300Y-125856300D02*
G01*
X155423300Y-125856300D01*
X155423300Y-124054300D01*
X157225300Y-124054300D01*
X157225300Y-125856300D01*
X157225300Y-125856300D01*
G37*
G36*
X153894743Y-124060819D02*
G01*
X153960927Y-124067337D01*
X154130766Y-124118857D01*
X154287291Y-124202522D01*
X154323029Y-124231852D01*
X154424486Y-124315114D01*
X154507748Y-124416571D01*
X154537078Y-124452309D01*
X154620743Y-124608834D01*
X154672263Y-124778673D01*
X154689659Y-124955300D01*
X154672263Y-125131927D01*
X154620743Y-125301766D01*
X154537078Y-125458291D01*
X154507748Y-125494029D01*
X154424486Y-125595486D01*
X154323029Y-125678748D01*
X154287291Y-125708078D01*
X154130766Y-125791743D01*
X153960927Y-125843263D01*
X153894743Y-125849781D01*
X153828560Y-125856300D01*
X153740040Y-125856300D01*
X153673857Y-125849781D01*
X153607673Y-125843263D01*
X153437834Y-125791743D01*
X153281309Y-125708078D01*
X153245571Y-125678748D01*
X153144114Y-125595486D01*
X153060852Y-125494029D01*
X153031522Y-125458291D01*
X152947857Y-125301766D01*
X152896337Y-125131927D01*
X152878941Y-124955300D01*
X152896337Y-124778673D01*
X152947857Y-124608834D01*
X153031522Y-124452309D01*
X153060852Y-124416571D01*
X153144114Y-124315114D01*
X153245571Y-124231852D01*
X153281309Y-124202522D01*
X153437834Y-124118857D01*
X153607673Y-124067337D01*
X153673857Y-124060819D01*
X153740040Y-124054300D01*
X153828560Y-124054300D01*
X153894743Y-124060819D01*
X153894743Y-124060819D01*
G37*
G36*
X147636800Y-125843600D02*
G01*
X145834800Y-125843600D01*
X145834800Y-124041600D01*
X147636800Y-124041600D01*
X147636800Y-125843600D01*
X147636800Y-125843600D01*
G37*
G36*
X144306242Y-124048118D02*
G01*
X144372427Y-124054637D01*
X144542266Y-124106157D01*
X144698791Y-124189822D01*
X144734529Y-124219152D01*
X144835986Y-124302414D01*
X144919248Y-124403871D01*
X144948578Y-124439609D01*
X145032243Y-124596134D01*
X145083763Y-124765973D01*
X145101159Y-124942600D01*
X145083763Y-125119227D01*
X145032243Y-125289066D01*
X144948578Y-125445591D01*
X144938157Y-125458289D01*
X144835986Y-125582786D01*
X144734529Y-125666048D01*
X144698791Y-125695378D01*
X144542266Y-125779043D01*
X144372427Y-125830563D01*
X144306242Y-125837082D01*
X144240060Y-125843600D01*
X144151540Y-125843600D01*
X144085358Y-125837082D01*
X144019173Y-125830563D01*
X143849334Y-125779043D01*
X143692809Y-125695378D01*
X143657071Y-125666048D01*
X143555614Y-125582786D01*
X143453443Y-125458289D01*
X143443022Y-125445591D01*
X143359357Y-125289066D01*
X143307837Y-125119227D01*
X143290441Y-124942600D01*
X143307837Y-124765973D01*
X143359357Y-124596134D01*
X143443022Y-124439609D01*
X143472352Y-124403871D01*
X143555614Y-124302414D01*
X143657071Y-124219152D01*
X143692809Y-124189822D01*
X143849334Y-124106157D01*
X144019173Y-124054637D01*
X144085358Y-124048118D01*
X144151540Y-124041600D01*
X144240060Y-124041600D01*
X144306242Y-124048118D01*
X144306242Y-124048118D01*
G37*
G36*
X169985642Y-122016118D02*
G01*
X170051827Y-122022637D01*
X170221666Y-122074157D01*
X170378191Y-122157822D01*
X170413929Y-122187152D01*
X170515386Y-122270414D01*
X170598648Y-122371871D01*
X170627978Y-122407609D01*
X170711643Y-122564134D01*
X170763163Y-122733973D01*
X170780559Y-122910600D01*
X170763163Y-123087227D01*
X170711643Y-123257066D01*
X170627978Y-123413591D01*
X170598648Y-123449329D01*
X170515386Y-123550786D01*
X170413929Y-123634048D01*
X170378191Y-123663378D01*
X170221666Y-123747043D01*
X170051827Y-123798563D01*
X169985643Y-123805081D01*
X169919460Y-123811600D01*
X169830940Y-123811600D01*
X169764757Y-123805081D01*
X169698573Y-123798563D01*
X169528734Y-123747043D01*
X169372209Y-123663378D01*
X169336471Y-123634048D01*
X169235014Y-123550786D01*
X169151752Y-123449329D01*
X169122422Y-123413591D01*
X169038757Y-123257066D01*
X168987237Y-123087227D01*
X168969841Y-122910600D01*
X168987237Y-122733973D01*
X169038757Y-122564134D01*
X169122422Y-122407609D01*
X169151752Y-122371871D01*
X169235014Y-122270414D01*
X169336471Y-122187152D01*
X169372209Y-122157822D01*
X169528734Y-122074157D01*
X169698573Y-122022637D01*
X169764758Y-122016118D01*
X169830940Y-122009600D01*
X169919460Y-122009600D01*
X169985642Y-122016118D01*
X169985642Y-122016118D01*
G37*
G36*
X140470842Y-121990718D02*
G01*
X140537027Y-121997237D01*
X140706866Y-122048757D01*
X140863391Y-122132422D01*
X140894341Y-122157822D01*
X141000586Y-122245014D01*
X141083848Y-122346471D01*
X141113178Y-122382209D01*
X141196843Y-122538734D01*
X141248363Y-122708573D01*
X141265759Y-122885200D01*
X141248363Y-123061827D01*
X141196843Y-123231666D01*
X141113178Y-123388191D01*
X141083848Y-123423929D01*
X141000586Y-123525386D01*
X140899129Y-123608648D01*
X140863391Y-123637978D01*
X140706866Y-123721643D01*
X140537027Y-123773163D01*
X140470842Y-123779682D01*
X140404660Y-123786200D01*
X140316140Y-123786200D01*
X140249958Y-123779682D01*
X140183773Y-123773163D01*
X140013934Y-123721643D01*
X139857409Y-123637978D01*
X139821671Y-123608648D01*
X139720214Y-123525386D01*
X139636952Y-123423929D01*
X139607622Y-123388191D01*
X139523957Y-123231666D01*
X139472437Y-123061827D01*
X139455041Y-122885200D01*
X139472437Y-122708573D01*
X139523957Y-122538734D01*
X139607622Y-122382209D01*
X139636952Y-122346471D01*
X139720214Y-122245014D01*
X139826459Y-122157822D01*
X139857409Y-122132422D01*
X140013934Y-122048757D01*
X140183773Y-121997237D01*
X140249958Y-121990718D01*
X140316140Y-121984200D01*
X140404660Y-121984200D01*
X140470842Y-121990718D01*
X140470842Y-121990718D01*
G37*
G36*
X153894742Y-121520818D02*
G01*
X153960927Y-121527337D01*
X154130766Y-121578857D01*
X154287291Y-121662522D01*
X154323029Y-121691852D01*
X154424486Y-121775114D01*
X154507748Y-121876571D01*
X154537078Y-121912309D01*
X154620743Y-122068834D01*
X154672263Y-122238673D01*
X154689659Y-122415300D01*
X154672263Y-122591927D01*
X154620743Y-122761766D01*
X154537078Y-122918291D01*
X154507748Y-122954029D01*
X154424486Y-123055486D01*
X154323029Y-123138748D01*
X154287291Y-123168078D01*
X154130766Y-123251743D01*
X153960927Y-123303263D01*
X153894742Y-123309782D01*
X153828560Y-123316300D01*
X153740040Y-123316300D01*
X153673858Y-123309782D01*
X153607673Y-123303263D01*
X153437834Y-123251743D01*
X153281309Y-123168078D01*
X153245571Y-123138748D01*
X153144114Y-123055486D01*
X153060852Y-122954029D01*
X153031522Y-122918291D01*
X152947857Y-122761766D01*
X152896337Y-122591927D01*
X152878941Y-122415300D01*
X152896337Y-122238673D01*
X152947857Y-122068834D01*
X153031522Y-121912309D01*
X153060852Y-121876571D01*
X153144114Y-121775114D01*
X153245571Y-121691852D01*
X153281309Y-121662522D01*
X153437834Y-121578857D01*
X153607673Y-121527337D01*
X153673858Y-121520818D01*
X153740040Y-121514300D01*
X153828560Y-121514300D01*
X153894742Y-121520818D01*
X153894742Y-121520818D01*
G37*
G36*
X156434742Y-121520818D02*
G01*
X156500927Y-121527337D01*
X156670766Y-121578857D01*
X156827291Y-121662522D01*
X156863029Y-121691852D01*
X156964486Y-121775114D01*
X157047748Y-121876571D01*
X157077078Y-121912309D01*
X157160743Y-122068834D01*
X157212263Y-122238673D01*
X157229659Y-122415300D01*
X157212263Y-122591927D01*
X157160743Y-122761766D01*
X157077078Y-122918291D01*
X157047748Y-122954029D01*
X156964486Y-123055486D01*
X156863029Y-123138748D01*
X156827291Y-123168078D01*
X156670766Y-123251743D01*
X156500927Y-123303263D01*
X156434742Y-123309782D01*
X156368560Y-123316300D01*
X156280040Y-123316300D01*
X156213858Y-123309782D01*
X156147673Y-123303263D01*
X155977834Y-123251743D01*
X155821309Y-123168078D01*
X155785571Y-123138748D01*
X155684114Y-123055486D01*
X155600852Y-122954029D01*
X155571522Y-122918291D01*
X155487857Y-122761766D01*
X155436337Y-122591927D01*
X155418941Y-122415300D01*
X155436337Y-122238673D01*
X155487857Y-122068834D01*
X155571522Y-121912309D01*
X155600852Y-121876571D01*
X155684114Y-121775114D01*
X155785571Y-121691852D01*
X155821309Y-121662522D01*
X155977834Y-121578857D01*
X156147673Y-121527337D01*
X156213858Y-121520818D01*
X156280040Y-121514300D01*
X156368560Y-121514300D01*
X156434742Y-121520818D01*
X156434742Y-121520818D01*
G37*
G36*
X169985642Y-119476118D02*
G01*
X170051827Y-119482637D01*
X170221666Y-119534157D01*
X170378191Y-119617822D01*
X170413929Y-119647152D01*
X170515386Y-119730414D01*
X170598648Y-119831871D01*
X170627978Y-119867609D01*
X170711643Y-120024134D01*
X170763163Y-120193973D01*
X170780559Y-120370600D01*
X170763163Y-120547227D01*
X170711643Y-120717066D01*
X170627978Y-120873591D01*
X170598648Y-120909329D01*
X170515386Y-121010786D01*
X170413929Y-121094048D01*
X170378191Y-121123378D01*
X170221666Y-121207043D01*
X170051827Y-121258563D01*
X169985642Y-121265082D01*
X169919460Y-121271600D01*
X169830940Y-121271600D01*
X169764758Y-121265082D01*
X169698573Y-121258563D01*
X169528734Y-121207043D01*
X169372209Y-121123378D01*
X169336471Y-121094048D01*
X169235014Y-121010786D01*
X169151752Y-120909329D01*
X169122422Y-120873591D01*
X169038757Y-120717066D01*
X168987237Y-120547227D01*
X168969841Y-120370600D01*
X168987237Y-120193973D01*
X169038757Y-120024134D01*
X169122422Y-119867609D01*
X169151752Y-119831871D01*
X169235014Y-119730414D01*
X169336471Y-119647152D01*
X169372209Y-119617822D01*
X169528734Y-119534157D01*
X169698573Y-119482637D01*
X169764758Y-119476118D01*
X169830940Y-119469600D01*
X169919460Y-119469600D01*
X169985642Y-119476118D01*
X169985642Y-119476118D01*
G37*
G36*
X140470843Y-119450719D02*
G01*
X140537027Y-119457237D01*
X140706866Y-119508757D01*
X140863391Y-119592422D01*
X140894341Y-119617822D01*
X141000586Y-119705014D01*
X141083848Y-119806471D01*
X141113178Y-119842209D01*
X141196843Y-119998734D01*
X141248363Y-120168573D01*
X141265759Y-120345200D01*
X141248363Y-120521827D01*
X141196843Y-120691666D01*
X141113178Y-120848191D01*
X141083848Y-120883929D01*
X141000586Y-120985386D01*
X140899129Y-121068648D01*
X140863391Y-121097978D01*
X140706866Y-121181643D01*
X140537027Y-121233163D01*
X140470842Y-121239682D01*
X140404660Y-121246200D01*
X140316140Y-121246200D01*
X140249958Y-121239682D01*
X140183773Y-121233163D01*
X140013934Y-121181643D01*
X139857409Y-121097978D01*
X139821671Y-121068648D01*
X139720214Y-120985386D01*
X139636952Y-120883929D01*
X139607622Y-120848191D01*
X139523957Y-120691666D01*
X139472437Y-120521827D01*
X139455041Y-120345200D01*
X139472437Y-120168573D01*
X139523957Y-119998734D01*
X139607622Y-119842209D01*
X139636952Y-119806471D01*
X139720214Y-119705014D01*
X139826459Y-119617822D01*
X139857409Y-119592422D01*
X140013934Y-119508757D01*
X140183773Y-119457237D01*
X140249957Y-119450719D01*
X140316140Y-119444200D01*
X140404660Y-119444200D01*
X140470843Y-119450719D01*
X140470843Y-119450719D01*
G37*
G36*
X156434743Y-118980819D02*
G01*
X156500927Y-118987337D01*
X156670766Y-119038857D01*
X156827291Y-119122522D01*
X156863029Y-119151852D01*
X156964486Y-119235114D01*
X157047748Y-119336571D01*
X157077078Y-119372309D01*
X157160743Y-119528834D01*
X157212263Y-119698673D01*
X157229659Y-119875300D01*
X157212263Y-120051927D01*
X157160743Y-120221766D01*
X157077078Y-120378291D01*
X157047748Y-120414029D01*
X156964486Y-120515486D01*
X156863029Y-120598748D01*
X156827291Y-120628078D01*
X156670766Y-120711743D01*
X156500927Y-120763263D01*
X156434743Y-120769781D01*
X156368560Y-120776300D01*
X156280040Y-120776300D01*
X156213857Y-120769781D01*
X156147673Y-120763263D01*
X155977834Y-120711743D01*
X155821309Y-120628078D01*
X155785571Y-120598748D01*
X155684114Y-120515486D01*
X155600852Y-120414029D01*
X155571522Y-120378291D01*
X155487857Y-120221766D01*
X155436337Y-120051927D01*
X155418941Y-119875300D01*
X155436337Y-119698673D01*
X155487857Y-119528834D01*
X155571522Y-119372309D01*
X155600852Y-119336571D01*
X155684114Y-119235114D01*
X155785571Y-119151852D01*
X155821309Y-119122522D01*
X155977834Y-119038857D01*
X156147673Y-118987337D01*
X156213857Y-118980819D01*
X156280040Y-118974300D01*
X156368560Y-118974300D01*
X156434743Y-118980819D01*
X156434743Y-118980819D01*
G37*
G36*
X153894743Y-118980819D02*
G01*
X153960927Y-118987337D01*
X154130766Y-119038857D01*
X154287291Y-119122522D01*
X154323029Y-119151852D01*
X154424486Y-119235114D01*
X154507748Y-119336571D01*
X154537078Y-119372309D01*
X154620743Y-119528834D01*
X154672263Y-119698673D01*
X154689659Y-119875300D01*
X154672263Y-120051927D01*
X154620743Y-120221766D01*
X154537078Y-120378291D01*
X154507748Y-120414029D01*
X154424486Y-120515486D01*
X154323029Y-120598748D01*
X154287291Y-120628078D01*
X154130766Y-120711743D01*
X153960927Y-120763263D01*
X153894743Y-120769781D01*
X153828560Y-120776300D01*
X153740040Y-120776300D01*
X153673857Y-120769781D01*
X153607673Y-120763263D01*
X153437834Y-120711743D01*
X153281309Y-120628078D01*
X153245571Y-120598748D01*
X153144114Y-120515486D01*
X153060852Y-120414029D01*
X153031522Y-120378291D01*
X152947857Y-120221766D01*
X152896337Y-120051927D01*
X152878941Y-119875300D01*
X152896337Y-119698673D01*
X152947857Y-119528834D01*
X153031522Y-119372309D01*
X153060852Y-119336571D01*
X153144114Y-119235114D01*
X153245571Y-119151852D01*
X153281309Y-119122522D01*
X153437834Y-119038857D01*
X153607673Y-118987337D01*
X153673857Y-118980819D01*
X153740040Y-118974300D01*
X153828560Y-118974300D01*
X153894743Y-118980819D01*
X153894743Y-118980819D01*
G37*
G36*
X169985643Y-116936119D02*
G01*
X170051827Y-116942637D01*
X170221666Y-116994157D01*
X170378191Y-117077822D01*
X170413929Y-117107152D01*
X170515386Y-117190414D01*
X170598648Y-117291871D01*
X170627978Y-117327609D01*
X170711643Y-117484134D01*
X170763163Y-117653973D01*
X170780559Y-117830600D01*
X170763163Y-118007227D01*
X170711643Y-118177066D01*
X170627978Y-118333591D01*
X170598648Y-118369329D01*
X170515386Y-118470786D01*
X170413929Y-118554048D01*
X170378191Y-118583378D01*
X170221666Y-118667043D01*
X170051827Y-118718563D01*
X169985643Y-118725081D01*
X169919460Y-118731600D01*
X169830940Y-118731600D01*
X169764757Y-118725081D01*
X169698573Y-118718563D01*
X169528734Y-118667043D01*
X169372209Y-118583378D01*
X169336471Y-118554048D01*
X169235014Y-118470786D01*
X169151752Y-118369329D01*
X169122422Y-118333591D01*
X169038757Y-118177066D01*
X168987237Y-118007227D01*
X168969841Y-117830600D01*
X168987237Y-117653973D01*
X169038757Y-117484134D01*
X169122422Y-117327609D01*
X169151752Y-117291871D01*
X169235014Y-117190414D01*
X169336471Y-117107152D01*
X169372209Y-117077822D01*
X169528734Y-116994157D01*
X169698573Y-116942637D01*
X169764757Y-116936119D01*
X169830940Y-116929600D01*
X169919460Y-116929600D01*
X169985643Y-116936119D01*
X169985643Y-116936119D01*
G37*
G36*
X140470842Y-116910718D02*
G01*
X140537027Y-116917237D01*
X140706866Y-116968757D01*
X140863391Y-117052422D01*
X140894341Y-117077822D01*
X141000586Y-117165014D01*
X141083848Y-117266471D01*
X141113178Y-117302209D01*
X141196843Y-117458734D01*
X141248363Y-117628573D01*
X141265759Y-117805200D01*
X141248363Y-117981827D01*
X141196843Y-118151666D01*
X141113178Y-118308191D01*
X141083848Y-118343929D01*
X141000586Y-118445386D01*
X140899129Y-118528648D01*
X140863391Y-118557978D01*
X140706866Y-118641643D01*
X140537027Y-118693163D01*
X140470842Y-118699682D01*
X140404660Y-118706200D01*
X140316140Y-118706200D01*
X140249958Y-118699682D01*
X140183773Y-118693163D01*
X140013934Y-118641643D01*
X139857409Y-118557978D01*
X139821671Y-118528648D01*
X139720214Y-118445386D01*
X139636952Y-118343929D01*
X139607622Y-118308191D01*
X139523957Y-118151666D01*
X139472437Y-117981827D01*
X139455041Y-117805200D01*
X139472437Y-117628573D01*
X139523957Y-117458734D01*
X139607622Y-117302209D01*
X139636952Y-117266471D01*
X139720214Y-117165014D01*
X139826459Y-117077822D01*
X139857409Y-117052422D01*
X140013934Y-116968757D01*
X140183773Y-116917237D01*
X140249958Y-116910718D01*
X140316140Y-116904200D01*
X140404660Y-116904200D01*
X140470842Y-116910718D01*
X140470842Y-116910718D01*
G37*
G36*
X169985642Y-114396118D02*
G01*
X170051827Y-114402637D01*
X170221666Y-114454157D01*
X170378191Y-114537822D01*
X170413929Y-114567152D01*
X170515386Y-114650414D01*
X170598648Y-114751871D01*
X170627978Y-114787609D01*
X170711643Y-114944134D01*
X170763163Y-115113973D01*
X170780559Y-115290600D01*
X170763163Y-115467227D01*
X170711643Y-115637066D01*
X170627978Y-115793591D01*
X170598648Y-115829329D01*
X170515386Y-115930786D01*
X170413929Y-116014048D01*
X170378191Y-116043378D01*
X170221666Y-116127043D01*
X170051827Y-116178563D01*
X169985643Y-116185081D01*
X169919460Y-116191600D01*
X169830940Y-116191600D01*
X169764757Y-116185081D01*
X169698573Y-116178563D01*
X169528734Y-116127043D01*
X169372209Y-116043378D01*
X169336471Y-116014048D01*
X169235014Y-115930786D01*
X169151752Y-115829329D01*
X169122422Y-115793591D01*
X169038757Y-115637066D01*
X168987237Y-115467227D01*
X168969841Y-115290600D01*
X168987237Y-115113973D01*
X169038757Y-114944134D01*
X169122422Y-114787609D01*
X169151752Y-114751871D01*
X169235014Y-114650414D01*
X169336471Y-114567152D01*
X169372209Y-114537822D01*
X169528734Y-114454157D01*
X169698573Y-114402637D01*
X169764758Y-114396118D01*
X169830940Y-114389600D01*
X169919460Y-114389600D01*
X169985642Y-114396118D01*
X169985642Y-114396118D01*
G37*
G36*
X140470843Y-114370719D02*
G01*
X140537027Y-114377237D01*
X140706866Y-114428757D01*
X140863391Y-114512422D01*
X140894341Y-114537822D01*
X141000586Y-114625014D01*
X141083848Y-114726471D01*
X141113178Y-114762209D01*
X141196843Y-114918734D01*
X141248363Y-115088573D01*
X141265759Y-115265200D01*
X141248363Y-115441827D01*
X141196843Y-115611666D01*
X141113178Y-115768191D01*
X141083848Y-115803929D01*
X141000586Y-115905386D01*
X140899129Y-115988648D01*
X140863391Y-116017978D01*
X140706866Y-116101643D01*
X140537027Y-116153163D01*
X140470843Y-116159681D01*
X140404660Y-116166200D01*
X140316140Y-116166200D01*
X140249957Y-116159681D01*
X140183773Y-116153163D01*
X140013934Y-116101643D01*
X139857409Y-116017978D01*
X139821671Y-115988648D01*
X139720214Y-115905386D01*
X139636952Y-115803929D01*
X139607622Y-115768191D01*
X139523957Y-115611666D01*
X139472437Y-115441827D01*
X139455041Y-115265200D01*
X139472437Y-115088573D01*
X139523957Y-114918734D01*
X139607622Y-114762209D01*
X139636952Y-114726471D01*
X139720214Y-114625014D01*
X139826459Y-114537822D01*
X139857409Y-114512422D01*
X140013934Y-114428757D01*
X140183773Y-114377237D01*
X140249957Y-114370719D01*
X140316140Y-114364200D01*
X140404660Y-114364200D01*
X140470843Y-114370719D01*
X140470843Y-114370719D01*
G37*
G36*
X169985642Y-111856118D02*
G01*
X170051827Y-111862637D01*
X170221666Y-111914157D01*
X170378191Y-111997822D01*
X170413929Y-112027152D01*
X170515386Y-112110414D01*
X170598648Y-112211871D01*
X170627978Y-112247609D01*
X170711643Y-112404134D01*
X170763163Y-112573973D01*
X170780559Y-112750600D01*
X170763163Y-112927227D01*
X170711643Y-113097066D01*
X170627978Y-113253591D01*
X170598648Y-113289329D01*
X170515386Y-113390786D01*
X170413929Y-113474048D01*
X170378191Y-113503378D01*
X170221666Y-113587043D01*
X170051827Y-113638563D01*
X169985642Y-113645082D01*
X169919460Y-113651600D01*
X169830940Y-113651600D01*
X169764758Y-113645082D01*
X169698573Y-113638563D01*
X169528734Y-113587043D01*
X169372209Y-113503378D01*
X169336471Y-113474048D01*
X169235014Y-113390786D01*
X169151752Y-113289329D01*
X169122422Y-113253591D01*
X169038757Y-113097066D01*
X168987237Y-112927227D01*
X168969841Y-112750600D01*
X168987237Y-112573973D01*
X169038757Y-112404134D01*
X169122422Y-112247609D01*
X169151752Y-112211871D01*
X169235014Y-112110414D01*
X169336471Y-112027152D01*
X169372209Y-111997822D01*
X169528734Y-111914157D01*
X169698573Y-111862637D01*
X169764758Y-111856118D01*
X169830940Y-111849600D01*
X169919460Y-111849600D01*
X169985642Y-111856118D01*
X169985642Y-111856118D01*
G37*
G36*
X140470843Y-111830719D02*
G01*
X140537027Y-111837237D01*
X140706866Y-111888757D01*
X140863391Y-111972422D01*
X140894341Y-111997822D01*
X141000586Y-112085014D01*
X141083848Y-112186471D01*
X141113178Y-112222209D01*
X141196843Y-112378734D01*
X141248363Y-112548573D01*
X141265759Y-112725200D01*
X141248363Y-112901827D01*
X141196843Y-113071666D01*
X141113178Y-113228191D01*
X141083848Y-113263929D01*
X141000586Y-113365386D01*
X140899129Y-113448648D01*
X140863391Y-113477978D01*
X140706866Y-113561643D01*
X140537027Y-113613163D01*
X140470843Y-113619681D01*
X140404660Y-113626200D01*
X140316140Y-113626200D01*
X140249957Y-113619681D01*
X140183773Y-113613163D01*
X140013934Y-113561643D01*
X139857409Y-113477978D01*
X139821671Y-113448648D01*
X139720214Y-113365386D01*
X139636952Y-113263929D01*
X139607622Y-113228191D01*
X139523957Y-113071666D01*
X139472437Y-112901827D01*
X139455041Y-112725200D01*
X139472437Y-112548573D01*
X139523957Y-112378734D01*
X139607622Y-112222209D01*
X139636952Y-112186471D01*
X139720214Y-112085014D01*
X139826459Y-111997822D01*
X139857409Y-111972422D01*
X140013934Y-111888757D01*
X140183773Y-111837237D01*
X140249957Y-111830719D01*
X140316140Y-111824200D01*
X140404660Y-111824200D01*
X140470843Y-111830719D01*
X140470843Y-111830719D01*
G37*
G36*
X169985643Y-109316119D02*
G01*
X170051827Y-109322637D01*
X170221666Y-109374157D01*
X170378191Y-109457822D01*
X170413929Y-109487152D01*
X170515386Y-109570414D01*
X170598648Y-109671871D01*
X170627978Y-109707609D01*
X170711643Y-109864134D01*
X170763163Y-110033973D01*
X170780559Y-110210600D01*
X170763163Y-110387227D01*
X170711643Y-110557066D01*
X170627978Y-110713591D01*
X170598648Y-110749329D01*
X170515386Y-110850786D01*
X170413929Y-110934048D01*
X170378191Y-110963378D01*
X170221666Y-111047043D01*
X170051827Y-111098563D01*
X169985642Y-111105082D01*
X169919460Y-111111600D01*
X169830940Y-111111600D01*
X169764758Y-111105082D01*
X169698573Y-111098563D01*
X169528734Y-111047043D01*
X169372209Y-110963378D01*
X169336471Y-110934048D01*
X169235014Y-110850786D01*
X169151752Y-110749329D01*
X169122422Y-110713591D01*
X169038757Y-110557066D01*
X168987237Y-110387227D01*
X168969841Y-110210600D01*
X168987237Y-110033973D01*
X169038757Y-109864134D01*
X169122422Y-109707609D01*
X169151752Y-109671871D01*
X169235014Y-109570414D01*
X169336471Y-109487152D01*
X169372209Y-109457822D01*
X169528734Y-109374157D01*
X169698573Y-109322637D01*
X169764757Y-109316119D01*
X169830940Y-109309600D01*
X169919460Y-109309600D01*
X169985643Y-109316119D01*
X169985643Y-109316119D01*
G37*
G36*
X140470843Y-109290719D02*
G01*
X140537027Y-109297237D01*
X140706866Y-109348757D01*
X140863391Y-109432422D01*
X140894341Y-109457822D01*
X141000586Y-109545014D01*
X141083848Y-109646471D01*
X141113178Y-109682209D01*
X141196843Y-109838734D01*
X141248363Y-110008573D01*
X141265759Y-110185200D01*
X141248363Y-110361827D01*
X141196843Y-110531666D01*
X141113178Y-110688191D01*
X141083848Y-110723929D01*
X141000586Y-110825386D01*
X140899129Y-110908648D01*
X140863391Y-110937978D01*
X140706866Y-111021643D01*
X140537027Y-111073163D01*
X140470842Y-111079682D01*
X140404660Y-111086200D01*
X140316140Y-111086200D01*
X140249958Y-111079682D01*
X140183773Y-111073163D01*
X140013934Y-111021643D01*
X139857409Y-110937978D01*
X139821671Y-110908648D01*
X139720214Y-110825386D01*
X139636952Y-110723929D01*
X139607622Y-110688191D01*
X139523957Y-110531666D01*
X139472437Y-110361827D01*
X139455041Y-110185200D01*
X139472437Y-110008573D01*
X139523957Y-109838734D01*
X139607622Y-109682209D01*
X139636952Y-109646471D01*
X139720214Y-109545014D01*
X139826459Y-109457822D01*
X139857409Y-109432422D01*
X140013934Y-109348757D01*
X140183773Y-109297237D01*
X140249957Y-109290719D01*
X140316140Y-109284200D01*
X140404660Y-109284200D01*
X140470843Y-109290719D01*
X140470843Y-109290719D01*
G37*
G36*
X169985643Y-106776119D02*
G01*
X170051827Y-106782637D01*
X170221666Y-106834157D01*
X170378191Y-106917822D01*
X170413929Y-106947152D01*
X170515386Y-107030414D01*
X170598648Y-107131871D01*
X170627978Y-107167609D01*
X170711643Y-107324134D01*
X170763163Y-107493973D01*
X170780559Y-107670600D01*
X170763163Y-107847227D01*
X170711643Y-108017066D01*
X170627978Y-108173591D01*
X170598648Y-108209329D01*
X170515386Y-108310786D01*
X170413929Y-108394048D01*
X170378191Y-108423378D01*
X170221666Y-108507043D01*
X170051827Y-108558563D01*
X169985642Y-108565082D01*
X169919460Y-108571600D01*
X169830940Y-108571600D01*
X169764758Y-108565082D01*
X169698573Y-108558563D01*
X169528734Y-108507043D01*
X169372209Y-108423378D01*
X169336471Y-108394048D01*
X169235014Y-108310786D01*
X169151752Y-108209329D01*
X169122422Y-108173591D01*
X169038757Y-108017066D01*
X168987237Y-107847227D01*
X168969841Y-107670600D01*
X168987237Y-107493973D01*
X169038757Y-107324134D01*
X169122422Y-107167609D01*
X169151752Y-107131871D01*
X169235014Y-107030414D01*
X169336471Y-106947152D01*
X169372209Y-106917822D01*
X169528734Y-106834157D01*
X169698573Y-106782637D01*
X169764757Y-106776119D01*
X169830940Y-106769600D01*
X169919460Y-106769600D01*
X169985643Y-106776119D01*
X169985643Y-106776119D01*
G37*
G36*
X140470842Y-106750718D02*
G01*
X140537027Y-106757237D01*
X140706866Y-106808757D01*
X140863391Y-106892422D01*
X140894341Y-106917822D01*
X141000586Y-107005014D01*
X141083848Y-107106471D01*
X141113178Y-107142209D01*
X141196843Y-107298734D01*
X141248363Y-107468573D01*
X141265759Y-107645200D01*
X141248363Y-107821827D01*
X141196843Y-107991666D01*
X141113178Y-108148191D01*
X141083848Y-108183929D01*
X141000586Y-108285386D01*
X140899129Y-108368648D01*
X140863391Y-108397978D01*
X140706866Y-108481643D01*
X140537027Y-108533163D01*
X140470843Y-108539681D01*
X140404660Y-108546200D01*
X140316140Y-108546200D01*
X140249957Y-108539681D01*
X140183773Y-108533163D01*
X140013934Y-108481643D01*
X139857409Y-108397978D01*
X139821671Y-108368648D01*
X139720214Y-108285386D01*
X139636952Y-108183929D01*
X139607622Y-108148191D01*
X139523957Y-107991666D01*
X139472437Y-107821827D01*
X139455041Y-107645200D01*
X139472437Y-107468573D01*
X139523957Y-107298734D01*
X139607622Y-107142209D01*
X139636952Y-107106471D01*
X139720214Y-107005014D01*
X139826459Y-106917822D01*
X139857409Y-106892422D01*
X140013934Y-106808757D01*
X140183773Y-106757237D01*
X140249958Y-106750718D01*
X140316140Y-106744200D01*
X140404660Y-106744200D01*
X140470842Y-106750718D01*
X140470842Y-106750718D01*
G37*
G36*
X169985642Y-104236118D02*
G01*
X170051827Y-104242637D01*
X170221666Y-104294157D01*
X170378191Y-104377822D01*
X170413929Y-104407152D01*
X170515386Y-104490414D01*
X170598648Y-104591871D01*
X170627978Y-104627609D01*
X170711643Y-104784134D01*
X170763163Y-104953973D01*
X170780559Y-105130600D01*
X170763163Y-105307227D01*
X170711643Y-105477066D01*
X170627978Y-105633591D01*
X170598648Y-105669329D01*
X170515386Y-105770786D01*
X170413929Y-105854048D01*
X170378191Y-105883378D01*
X170221666Y-105967043D01*
X170051827Y-106018563D01*
X169985643Y-106025081D01*
X169919460Y-106031600D01*
X169830940Y-106031600D01*
X169764757Y-106025081D01*
X169698573Y-106018563D01*
X169528734Y-105967043D01*
X169372209Y-105883378D01*
X169336471Y-105854048D01*
X169235014Y-105770786D01*
X169151752Y-105669329D01*
X169122422Y-105633591D01*
X169038757Y-105477066D01*
X168987237Y-105307227D01*
X168969841Y-105130600D01*
X168987237Y-104953973D01*
X169038757Y-104784134D01*
X169122422Y-104627609D01*
X169151752Y-104591871D01*
X169235014Y-104490414D01*
X169336471Y-104407152D01*
X169372209Y-104377822D01*
X169528734Y-104294157D01*
X169698573Y-104242637D01*
X169764758Y-104236118D01*
X169830940Y-104229600D01*
X169919460Y-104229600D01*
X169985642Y-104236118D01*
X169985642Y-104236118D01*
G37*
G36*
X140470842Y-104210718D02*
G01*
X140537027Y-104217237D01*
X140706866Y-104268757D01*
X140863391Y-104352422D01*
X140894341Y-104377822D01*
X141000586Y-104465014D01*
X141083848Y-104566471D01*
X141113178Y-104602209D01*
X141196843Y-104758734D01*
X141248363Y-104928573D01*
X141265759Y-105105200D01*
X141248363Y-105281827D01*
X141196843Y-105451666D01*
X141113178Y-105608191D01*
X141083848Y-105643929D01*
X141000586Y-105745386D01*
X140899129Y-105828648D01*
X140863391Y-105857978D01*
X140706866Y-105941643D01*
X140537027Y-105993163D01*
X140470843Y-105999681D01*
X140404660Y-106006200D01*
X140316140Y-106006200D01*
X140249957Y-105999681D01*
X140183773Y-105993163D01*
X140013934Y-105941643D01*
X139857409Y-105857978D01*
X139821671Y-105828648D01*
X139720214Y-105745386D01*
X139636952Y-105643929D01*
X139607622Y-105608191D01*
X139523957Y-105451666D01*
X139472437Y-105281827D01*
X139455041Y-105105200D01*
X139472437Y-104928573D01*
X139523957Y-104758734D01*
X139607622Y-104602209D01*
X139636952Y-104566471D01*
X139720214Y-104465014D01*
X139826459Y-104377822D01*
X139857409Y-104352422D01*
X140013934Y-104268757D01*
X140183773Y-104217237D01*
X140249958Y-104210718D01*
X140316140Y-104204200D01*
X140404660Y-104204200D01*
X140470842Y-104210718D01*
X140470842Y-104210718D01*
G37*
G36*
X169985642Y-101696118D02*
G01*
X170051827Y-101702637D01*
X170221666Y-101754157D01*
X170378191Y-101837822D01*
X170413929Y-101867152D01*
X170515386Y-101950414D01*
X170598648Y-102051871D01*
X170627978Y-102087609D01*
X170711643Y-102244134D01*
X170763163Y-102413973D01*
X170780559Y-102590600D01*
X170763163Y-102767227D01*
X170711643Y-102937066D01*
X170627978Y-103093591D01*
X170598648Y-103129329D01*
X170515386Y-103230786D01*
X170413929Y-103314048D01*
X170378191Y-103343378D01*
X170221666Y-103427043D01*
X170051827Y-103478563D01*
X169985643Y-103485081D01*
X169919460Y-103491600D01*
X169830940Y-103491600D01*
X169764757Y-103485081D01*
X169698573Y-103478563D01*
X169528734Y-103427043D01*
X169372209Y-103343378D01*
X169336471Y-103314048D01*
X169235014Y-103230786D01*
X169151752Y-103129329D01*
X169122422Y-103093591D01*
X169038757Y-102937066D01*
X168987237Y-102767227D01*
X168969841Y-102590600D01*
X168987237Y-102413973D01*
X169038757Y-102244134D01*
X169122422Y-102087609D01*
X169151752Y-102051871D01*
X169235014Y-101950414D01*
X169336471Y-101867152D01*
X169372209Y-101837822D01*
X169528734Y-101754157D01*
X169698573Y-101702637D01*
X169764757Y-101696119D01*
X169830940Y-101689600D01*
X169919460Y-101689600D01*
X169985642Y-101696118D01*
X169985642Y-101696118D01*
G37*
G36*
X140470842Y-101670718D02*
G01*
X140537027Y-101677237D01*
X140706866Y-101728757D01*
X140863391Y-101812422D01*
X140894341Y-101837822D01*
X141000586Y-101925014D01*
X141083848Y-102026471D01*
X141113178Y-102062209D01*
X141196843Y-102218734D01*
X141248363Y-102388573D01*
X141265759Y-102565200D01*
X141248363Y-102741827D01*
X141196843Y-102911666D01*
X141113178Y-103068191D01*
X141083848Y-103103929D01*
X141000586Y-103205386D01*
X140899129Y-103288648D01*
X140863391Y-103317978D01*
X140706866Y-103401643D01*
X140537027Y-103453163D01*
X140470842Y-103459682D01*
X140404660Y-103466200D01*
X140316140Y-103466200D01*
X140249958Y-103459682D01*
X140183773Y-103453163D01*
X140013934Y-103401643D01*
X139857409Y-103317978D01*
X139821671Y-103288648D01*
X139720214Y-103205386D01*
X139636952Y-103103929D01*
X139607622Y-103068191D01*
X139523957Y-102911666D01*
X139472437Y-102741827D01*
X139455041Y-102565200D01*
X139472437Y-102388573D01*
X139523957Y-102218734D01*
X139607622Y-102062209D01*
X139636952Y-102026471D01*
X139720214Y-101925014D01*
X139826459Y-101837822D01*
X139857409Y-101812422D01*
X140013934Y-101728757D01*
X140183773Y-101677237D01*
X140249958Y-101670718D01*
X140316140Y-101664200D01*
X140404660Y-101664200D01*
X140470842Y-101670718D01*
X140470842Y-101670718D01*
G37*
G36*
X169985643Y-99156119D02*
G01*
X170051827Y-99162637D01*
X170221666Y-99214157D01*
X170378191Y-99297822D01*
X170413929Y-99327152D01*
X170515386Y-99410414D01*
X170598648Y-99511871D01*
X170627978Y-99547609D01*
X170711643Y-99704134D01*
X170763163Y-99873973D01*
X170780559Y-100050600D01*
X170763163Y-100227227D01*
X170711643Y-100397066D01*
X170627978Y-100553591D01*
X170598648Y-100589329D01*
X170515386Y-100690786D01*
X170413929Y-100774048D01*
X170378191Y-100803378D01*
X170221666Y-100887043D01*
X170051827Y-100938563D01*
X169985642Y-100945082D01*
X169919460Y-100951600D01*
X169830940Y-100951600D01*
X169764758Y-100945082D01*
X169698573Y-100938563D01*
X169528734Y-100887043D01*
X169372209Y-100803378D01*
X169336471Y-100774048D01*
X169235014Y-100690786D01*
X169151752Y-100589329D01*
X169122422Y-100553591D01*
X169038757Y-100397066D01*
X168987237Y-100227227D01*
X168969841Y-100050600D01*
X168987237Y-99873973D01*
X169038757Y-99704134D01*
X169122422Y-99547609D01*
X169151752Y-99511871D01*
X169235014Y-99410414D01*
X169336471Y-99327152D01*
X169372209Y-99297822D01*
X169528734Y-99214157D01*
X169698573Y-99162637D01*
X169764758Y-99156118D01*
X169830940Y-99149600D01*
X169919460Y-99149600D01*
X169985643Y-99156119D01*
X169985643Y-99156119D01*
G37*
G36*
X154521100Y-100949200D02*
G01*
X146544100Y-100949200D01*
X146544100Y-98847200D01*
X154521100Y-98847200D01*
X154521100Y-100949200D01*
X154521100Y-100949200D01*
G37*
G36*
X166396100Y-100949200D02*
G01*
X158419100Y-100949200D01*
X158419100Y-98847200D01*
X166396100Y-98847200D01*
X166396100Y-100949200D01*
X166396100Y-100949200D01*
G37*
G36*
X140470842Y-99130718D02*
G01*
X140537027Y-99137237D01*
X140706866Y-99188757D01*
X140863391Y-99272422D01*
X140894341Y-99297822D01*
X141000586Y-99385014D01*
X141083848Y-99486471D01*
X141113178Y-99522209D01*
X141196843Y-99678734D01*
X141248363Y-99848573D01*
X141265759Y-100025200D01*
X141248363Y-100201827D01*
X141196843Y-100371666D01*
X141113178Y-100528191D01*
X141083848Y-100563929D01*
X141000586Y-100665386D01*
X140899129Y-100748648D01*
X140863391Y-100777978D01*
X140706866Y-100861643D01*
X140537027Y-100913163D01*
X140470842Y-100919682D01*
X140404660Y-100926200D01*
X140316140Y-100926200D01*
X140249958Y-100919682D01*
X140183773Y-100913163D01*
X140013934Y-100861643D01*
X139857409Y-100777978D01*
X139821671Y-100748648D01*
X139720214Y-100665386D01*
X139636952Y-100563929D01*
X139607622Y-100528191D01*
X139523957Y-100371666D01*
X139472437Y-100201827D01*
X139455041Y-100025200D01*
X139472437Y-99848573D01*
X139523957Y-99678734D01*
X139607622Y-99522209D01*
X139636952Y-99486471D01*
X139720214Y-99385014D01*
X139826459Y-99297822D01*
X139857409Y-99272422D01*
X140013934Y-99188757D01*
X140183773Y-99137237D01*
X140249957Y-99130719D01*
X140316140Y-99124200D01*
X140404660Y-99124200D01*
X140470842Y-99130718D01*
X140470842Y-99130718D01*
G37*
G36*
X169985643Y-96616119D02*
G01*
X170051827Y-96622637D01*
X170221666Y-96674157D01*
X170378191Y-96757822D01*
X170406733Y-96781246D01*
X170515386Y-96870414D01*
X170562464Y-96927780D01*
X170627978Y-97007609D01*
X170711643Y-97164134D01*
X170763163Y-97333973D01*
X170780559Y-97510600D01*
X170763163Y-97687227D01*
X170711643Y-97857066D01*
X170627978Y-98013591D01*
X170598648Y-98049329D01*
X170515386Y-98150786D01*
X170413929Y-98234048D01*
X170378191Y-98263378D01*
X170221666Y-98347043D01*
X170051827Y-98398563D01*
X169985642Y-98405082D01*
X169919460Y-98411600D01*
X169830940Y-98411600D01*
X169764757Y-98405081D01*
X169698573Y-98398563D01*
X169528734Y-98347043D01*
X169372209Y-98263378D01*
X169336471Y-98234048D01*
X169235014Y-98150786D01*
X169151752Y-98049329D01*
X169122422Y-98013591D01*
X169038757Y-97857066D01*
X168987237Y-97687227D01*
X168969841Y-97510600D01*
X168987237Y-97333973D01*
X169038757Y-97164134D01*
X169122422Y-97007609D01*
X169187936Y-96927780D01*
X169235014Y-96870414D01*
X169343667Y-96781246D01*
X169372209Y-96757822D01*
X169528734Y-96674157D01*
X169698573Y-96622637D01*
X169764757Y-96616119D01*
X169830940Y-96609600D01*
X169919460Y-96609600D01*
X169985643Y-96616119D01*
X169985643Y-96616119D01*
G37*
G36*
X140470843Y-96590719D02*
G01*
X140537027Y-96597237D01*
X140706866Y-96648757D01*
X140863391Y-96732422D01*
X140894341Y-96757822D01*
X141000586Y-96845014D01*
X141056500Y-96913147D01*
X141113178Y-96982209D01*
X141196843Y-97138734D01*
X141248363Y-97308573D01*
X141265759Y-97485200D01*
X141248363Y-97661827D01*
X141196843Y-97831666D01*
X141113178Y-97988191D01*
X141083848Y-98023929D01*
X141000586Y-98125386D01*
X140899129Y-98208648D01*
X140863391Y-98237978D01*
X140706866Y-98321643D01*
X140537027Y-98373163D01*
X140470842Y-98379682D01*
X140404660Y-98386200D01*
X140316140Y-98386200D01*
X140249957Y-98379681D01*
X140183773Y-98373163D01*
X140013934Y-98321643D01*
X139857409Y-98237978D01*
X139821671Y-98208648D01*
X139720214Y-98125386D01*
X139636952Y-98023929D01*
X139607622Y-97988191D01*
X139523957Y-97831666D01*
X139472437Y-97661827D01*
X139455041Y-97485200D01*
X139472437Y-97308573D01*
X139523957Y-97138734D01*
X139607622Y-96982209D01*
X139664300Y-96913147D01*
X139720214Y-96845014D01*
X139826459Y-96757822D01*
X139857409Y-96732422D01*
X140013934Y-96648757D01*
X140183773Y-96597237D01*
X140249957Y-96590719D01*
X140316140Y-96584200D01*
X140404660Y-96584200D01*
X140470843Y-96590719D01*
X140470843Y-96590719D01*
G37*
G36*
X150910299Y-95796045D02*
G01*
X150947795Y-95807420D01*
X150982354Y-95825892D01*
X151012647Y-95850753D01*
X151037508Y-95881046D01*
X151055980Y-95915605D01*
X151067355Y-95953101D01*
X151071800Y-95998238D01*
X151071800Y-96736962D01*
X151067355Y-96782099D01*
X151055980Y-96819595D01*
X151037508Y-96854154D01*
X151012647Y-96884447D01*
X150982354Y-96909308D01*
X150947795Y-96927780D01*
X150910299Y-96939155D01*
X150865162Y-96943600D01*
X150226438Y-96943600D01*
X150181301Y-96939155D01*
X150143805Y-96927780D01*
X150109246Y-96909308D01*
X150078953Y-96884447D01*
X150054092Y-96854154D01*
X150035620Y-96819595D01*
X150024245Y-96782099D01*
X150019800Y-96736962D01*
X150019800Y-95998238D01*
X150024245Y-95953101D01*
X150035620Y-95915605D01*
X150054092Y-95881046D01*
X150078953Y-95850753D01*
X150109246Y-95825892D01*
X150143805Y-95807420D01*
X150181301Y-95796045D01*
X150226438Y-95791600D01*
X150865162Y-95791600D01*
X150910299Y-95796045D01*
X150910299Y-95796045D01*
G37*
G36*
X162772099Y-95770645D02*
G01*
X162809595Y-95782020D01*
X162844154Y-95800492D01*
X162874447Y-95825353D01*
X162899308Y-95855646D01*
X162917780Y-95890205D01*
X162929155Y-95927701D01*
X162933600Y-95972838D01*
X162933600Y-96711562D01*
X162929155Y-96756699D01*
X162917780Y-96794195D01*
X162899308Y-96828754D01*
X162874447Y-96859047D01*
X162844154Y-96883908D01*
X162809595Y-96902380D01*
X162772099Y-96913755D01*
X162726962Y-96918200D01*
X162088238Y-96918200D01*
X162043101Y-96913755D01*
X162005605Y-96902380D01*
X161971046Y-96883908D01*
X161940753Y-96859047D01*
X161915892Y-96828754D01*
X161897420Y-96794195D01*
X161886045Y-96756699D01*
X161881600Y-96711562D01*
X161881600Y-95972838D01*
X161886045Y-95927701D01*
X161897420Y-95890205D01*
X161915892Y-95855646D01*
X161940753Y-95825353D01*
X161971046Y-95800492D01*
X162005605Y-95782020D01*
X162043101Y-95770645D01*
X162088238Y-95766200D01*
X162726962Y-95766200D01*
X162772099Y-95770645D01*
X162772099Y-95770645D01*
G37*
G36*
X169977870Y-94075353D02*
G01*
X170051827Y-94082637D01*
X170221666Y-94134157D01*
X170378191Y-94217822D01*
X170390460Y-94227891D01*
X170515386Y-94330414D01*
X170598648Y-94431871D01*
X170627978Y-94467609D01*
X170711643Y-94624134D01*
X170763163Y-94793973D01*
X170780559Y-94970600D01*
X170763163Y-95147227D01*
X170711643Y-95317066D01*
X170627978Y-95473591D01*
X170598648Y-95509329D01*
X170515386Y-95610786D01*
X170413929Y-95694048D01*
X170378191Y-95723378D01*
X170221666Y-95807043D01*
X170051827Y-95858563D01*
X169985642Y-95865082D01*
X169919460Y-95871600D01*
X169830940Y-95871600D01*
X169764758Y-95865082D01*
X169698573Y-95858563D01*
X169528734Y-95807043D01*
X169372209Y-95723378D01*
X169336471Y-95694048D01*
X169235014Y-95610786D01*
X169151752Y-95509329D01*
X169122422Y-95473591D01*
X169038757Y-95317066D01*
X168987237Y-95147227D01*
X168969841Y-94970600D01*
X168987237Y-94793973D01*
X169038757Y-94624134D01*
X169122422Y-94467609D01*
X169151752Y-94431871D01*
X169235014Y-94330414D01*
X169359940Y-94227891D01*
X169372209Y-94217822D01*
X169528734Y-94134157D01*
X169698573Y-94082637D01*
X169772530Y-94075353D01*
X169830940Y-94069600D01*
X169919460Y-94069600D01*
X169977870Y-94075353D01*
X169977870Y-94075353D01*
G37*
G36*
X140468543Y-94050492D02*
G01*
X140537027Y-94057237D01*
X140706866Y-94108757D01*
X140706868Y-94108758D01*
X140752380Y-94133085D01*
X140863391Y-94192422D01*
X140894341Y-94217822D01*
X141000586Y-94305014D01*
X141083848Y-94406471D01*
X141113178Y-94442209D01*
X141196843Y-94598734D01*
X141248363Y-94768573D01*
X141265759Y-94945200D01*
X141248363Y-95121827D01*
X141196843Y-95291666D01*
X141113178Y-95448191D01*
X141083848Y-95483929D01*
X141000586Y-95585386D01*
X140899129Y-95668648D01*
X140863391Y-95697978D01*
X140706866Y-95781643D01*
X140537027Y-95833163D01*
X140470843Y-95839681D01*
X140404660Y-95846200D01*
X140316140Y-95846200D01*
X140249957Y-95839681D01*
X140183773Y-95833163D01*
X140013934Y-95781643D01*
X139857409Y-95697978D01*
X139821671Y-95668648D01*
X139720214Y-95585386D01*
X139636952Y-95483929D01*
X139607622Y-95448191D01*
X139523957Y-95291666D01*
X139472437Y-95121827D01*
X139455041Y-94945200D01*
X139472437Y-94768573D01*
X139523957Y-94598734D01*
X139607622Y-94442209D01*
X139636952Y-94406471D01*
X139720214Y-94305014D01*
X139826459Y-94217822D01*
X139857409Y-94192422D01*
X139968420Y-94133085D01*
X140013932Y-94108758D01*
X140013934Y-94108757D01*
X140183773Y-94057237D01*
X140252257Y-94050492D01*
X140316140Y-94044200D01*
X140404660Y-94044200D01*
X140468543Y-94050492D01*
X140468543Y-94050492D01*
G37*
G36*
X150910299Y-94046045D02*
G01*
X150947795Y-94057420D01*
X150982354Y-94075892D01*
X151012647Y-94100753D01*
X151037508Y-94131046D01*
X151055980Y-94165605D01*
X151067355Y-94203101D01*
X151071800Y-94248238D01*
X151071800Y-94986962D01*
X151067355Y-95032099D01*
X151055980Y-95069595D01*
X151037508Y-95104154D01*
X151012647Y-95134447D01*
X150982354Y-95159308D01*
X150947795Y-95177780D01*
X150910299Y-95189155D01*
X150865162Y-95193600D01*
X150226438Y-95193600D01*
X150181301Y-95189155D01*
X150143805Y-95177780D01*
X150109246Y-95159308D01*
X150078953Y-95134447D01*
X150054092Y-95104154D01*
X150035620Y-95069595D01*
X150024245Y-95032099D01*
X150019800Y-94986962D01*
X150019800Y-94248238D01*
X150024245Y-94203101D01*
X150035620Y-94165605D01*
X150054092Y-94131046D01*
X150078953Y-94100753D01*
X150109246Y-94075892D01*
X150143805Y-94057420D01*
X150181301Y-94046045D01*
X150226438Y-94041600D01*
X150865162Y-94041600D01*
X150910299Y-94046045D01*
X150910299Y-94046045D01*
G37*
G36*
X162772099Y-94020645D02*
G01*
X162809595Y-94032020D01*
X162844154Y-94050492D01*
X162874447Y-94075353D01*
X162899308Y-94105646D01*
X162917780Y-94140205D01*
X162929155Y-94177701D01*
X162933600Y-94222838D01*
X162933600Y-94961562D01*
X162929155Y-95006699D01*
X162917780Y-95044195D01*
X162899308Y-95078754D01*
X162874447Y-95109047D01*
X162844154Y-95133908D01*
X162809595Y-95152380D01*
X162772099Y-95163755D01*
X162726962Y-95168200D01*
X162088238Y-95168200D01*
X162043101Y-95163755D01*
X162005605Y-95152380D01*
X161971046Y-95133908D01*
X161940753Y-95109047D01*
X161915892Y-95078754D01*
X161897420Y-95044195D01*
X161886045Y-95006699D01*
X161881600Y-94961562D01*
X161881600Y-94222838D01*
X161886045Y-94177701D01*
X161897420Y-94140205D01*
X161915892Y-94105646D01*
X161940753Y-94075353D01*
X161971046Y-94050492D01*
X162005605Y-94032020D01*
X162043101Y-94020645D01*
X162088238Y-94016200D01*
X162726962Y-94016200D01*
X162772099Y-94020645D01*
X162772099Y-94020645D01*
G37*
G36*
X169985643Y-91536119D02*
G01*
X170051827Y-91542637D01*
X170221666Y-91594157D01*
X170378191Y-91677822D01*
X170413929Y-91707152D01*
X170515386Y-91790414D01*
X170598648Y-91891871D01*
X170627978Y-91927609D01*
X170711643Y-92084134D01*
X170763163Y-92253973D01*
X170780559Y-92430600D01*
X170763163Y-92607227D01*
X170711643Y-92777066D01*
X170627978Y-92933591D01*
X170598648Y-92969329D01*
X170515386Y-93070786D01*
X170413929Y-93154048D01*
X170378191Y-93183378D01*
X170221666Y-93267043D01*
X170051827Y-93318563D01*
X169985642Y-93325082D01*
X169919460Y-93331600D01*
X169830940Y-93331600D01*
X169764757Y-93325081D01*
X169698573Y-93318563D01*
X169528734Y-93267043D01*
X169372209Y-93183378D01*
X169336471Y-93154048D01*
X169235014Y-93070786D01*
X169151752Y-92969329D01*
X169122422Y-92933591D01*
X169038757Y-92777066D01*
X168987237Y-92607227D01*
X168969841Y-92430600D01*
X168987237Y-92253973D01*
X169038757Y-92084134D01*
X169122422Y-91927609D01*
X169151752Y-91891871D01*
X169235014Y-91790414D01*
X169336471Y-91707152D01*
X169372209Y-91677822D01*
X169528734Y-91594157D01*
X169698573Y-91542637D01*
X169764757Y-91536119D01*
X169830940Y-91529600D01*
X169919460Y-91529600D01*
X169985643Y-91536119D01*
X169985643Y-91536119D01*
G37*
G36*
X140470842Y-91510718D02*
G01*
X140537027Y-91517237D01*
X140706866Y-91568757D01*
X140863391Y-91652422D01*
X140894341Y-91677822D01*
X141000586Y-91765014D01*
X141083848Y-91866471D01*
X141113178Y-91902209D01*
X141196843Y-92058734D01*
X141248363Y-92228573D01*
X141265759Y-92405200D01*
X141248363Y-92581827D01*
X141196843Y-92751666D01*
X141113178Y-92908191D01*
X141083848Y-92943929D01*
X141000586Y-93045386D01*
X140899129Y-93128648D01*
X140863391Y-93157978D01*
X140706866Y-93241643D01*
X140537027Y-93293163D01*
X140470842Y-93299682D01*
X140404660Y-93306200D01*
X140316140Y-93306200D01*
X140249958Y-93299682D01*
X140183773Y-93293163D01*
X140013934Y-93241643D01*
X139857409Y-93157978D01*
X139821671Y-93128648D01*
X139720214Y-93045386D01*
X139636952Y-92943929D01*
X139607622Y-92908191D01*
X139523957Y-92751666D01*
X139472437Y-92581827D01*
X139455041Y-92405200D01*
X139472437Y-92228573D01*
X139523957Y-92058734D01*
X139607622Y-91902209D01*
X139636952Y-91866471D01*
X139720214Y-91765014D01*
X139826459Y-91677822D01*
X139857409Y-91652422D01*
X140013934Y-91568757D01*
X140183773Y-91517237D01*
X140249958Y-91510718D01*
X140316140Y-91504200D01*
X140404660Y-91504200D01*
X140470842Y-91510718D01*
X140470842Y-91510718D01*
G37*
G36*
X169985643Y-88996119D02*
G01*
X170051827Y-89002637D01*
X170221666Y-89054157D01*
X170378191Y-89137822D01*
X170413929Y-89167152D01*
X170515386Y-89250414D01*
X170598648Y-89351871D01*
X170627978Y-89387609D01*
X170711643Y-89544134D01*
X170763163Y-89713973D01*
X170780559Y-89890600D01*
X170763163Y-90067227D01*
X170711643Y-90237066D01*
X170627978Y-90393591D01*
X170598648Y-90429329D01*
X170515386Y-90530786D01*
X170413929Y-90614048D01*
X170378191Y-90643378D01*
X170221666Y-90727043D01*
X170051827Y-90778563D01*
X169985643Y-90785081D01*
X169919460Y-90791600D01*
X169830940Y-90791600D01*
X169764758Y-90785082D01*
X169698573Y-90778563D01*
X169528734Y-90727043D01*
X169372209Y-90643378D01*
X169336471Y-90614048D01*
X169235014Y-90530786D01*
X169151752Y-90429329D01*
X169122422Y-90393591D01*
X169038757Y-90237066D01*
X168987237Y-90067227D01*
X168969841Y-89890600D01*
X168987237Y-89713973D01*
X169038757Y-89544134D01*
X169122422Y-89387609D01*
X169151752Y-89351871D01*
X169235014Y-89250414D01*
X169336471Y-89167152D01*
X169372209Y-89137822D01*
X169528734Y-89054157D01*
X169698573Y-89002637D01*
X169764757Y-88996119D01*
X169830940Y-88989600D01*
X169919460Y-88989600D01*
X169985643Y-88996119D01*
X169985643Y-88996119D01*
G37*
G36*
X140470843Y-88970719D02*
G01*
X140537027Y-88977237D01*
X140706866Y-89028757D01*
X140863391Y-89112422D01*
X140894341Y-89137822D01*
X141000586Y-89225014D01*
X141083848Y-89326471D01*
X141113178Y-89362209D01*
X141196843Y-89518734D01*
X141248363Y-89688573D01*
X141265759Y-89865200D01*
X141248363Y-90041827D01*
X141196843Y-90211666D01*
X141113178Y-90368191D01*
X141083848Y-90403929D01*
X141000586Y-90505386D01*
X140899129Y-90588648D01*
X140863391Y-90617978D01*
X140706866Y-90701643D01*
X140537027Y-90753163D01*
X140470842Y-90759682D01*
X140404660Y-90766200D01*
X140316140Y-90766200D01*
X140249958Y-90759682D01*
X140183773Y-90753163D01*
X140013934Y-90701643D01*
X139857409Y-90617978D01*
X139821671Y-90588648D01*
X139720214Y-90505386D01*
X139636952Y-90403929D01*
X139607622Y-90368191D01*
X139523957Y-90211666D01*
X139472437Y-90041827D01*
X139455041Y-89865200D01*
X139472437Y-89688573D01*
X139523957Y-89518734D01*
X139607622Y-89362209D01*
X139636952Y-89326471D01*
X139720214Y-89225014D01*
X139826459Y-89137822D01*
X139857409Y-89112422D01*
X140013934Y-89028757D01*
X140183773Y-88977237D01*
X140249957Y-88970719D01*
X140316140Y-88964200D01*
X140404660Y-88964200D01*
X140470843Y-88970719D01*
X140470843Y-88970719D01*
G37*
G36*
X169985643Y-86456119D02*
G01*
X170051827Y-86462637D01*
X170221666Y-86514157D01*
X170378191Y-86597822D01*
X170413929Y-86627152D01*
X170515386Y-86710414D01*
X170598648Y-86811871D01*
X170627978Y-86847609D01*
X170711643Y-87004134D01*
X170763163Y-87173973D01*
X170780559Y-87350600D01*
X170763163Y-87527227D01*
X170711643Y-87697066D01*
X170627978Y-87853591D01*
X170598648Y-87889329D01*
X170515386Y-87990786D01*
X170413929Y-88074048D01*
X170378191Y-88103378D01*
X170221666Y-88187043D01*
X170051827Y-88238563D01*
X169985643Y-88245081D01*
X169919460Y-88251600D01*
X169830940Y-88251600D01*
X169764757Y-88245081D01*
X169698573Y-88238563D01*
X169528734Y-88187043D01*
X169372209Y-88103378D01*
X169336471Y-88074048D01*
X169235014Y-87990786D01*
X169151752Y-87889329D01*
X169122422Y-87853591D01*
X169038757Y-87697066D01*
X168987237Y-87527227D01*
X168969841Y-87350600D01*
X168987237Y-87173973D01*
X169038757Y-87004134D01*
X169122422Y-86847609D01*
X169151752Y-86811871D01*
X169235014Y-86710414D01*
X169336471Y-86627152D01*
X169372209Y-86597822D01*
X169528734Y-86514157D01*
X169698573Y-86462637D01*
X169764757Y-86456119D01*
X169830940Y-86449600D01*
X169919460Y-86449600D01*
X169985643Y-86456119D01*
X169985643Y-86456119D01*
G37*
G36*
X140470842Y-86430718D02*
G01*
X140537027Y-86437237D01*
X140706866Y-86488757D01*
X140863391Y-86572422D01*
X140894341Y-86597822D01*
X141000586Y-86685014D01*
X141083848Y-86786471D01*
X141113178Y-86822209D01*
X141196843Y-86978734D01*
X141248363Y-87148573D01*
X141265759Y-87325200D01*
X141248363Y-87501827D01*
X141196843Y-87671666D01*
X141113178Y-87828191D01*
X141083848Y-87863929D01*
X141000586Y-87965386D01*
X140899129Y-88048648D01*
X140863391Y-88077978D01*
X140706866Y-88161643D01*
X140537027Y-88213163D01*
X140470843Y-88219681D01*
X140404660Y-88226200D01*
X140316140Y-88226200D01*
X140249957Y-88219681D01*
X140183773Y-88213163D01*
X140013934Y-88161643D01*
X139857409Y-88077978D01*
X139821671Y-88048648D01*
X139720214Y-87965386D01*
X139636952Y-87863929D01*
X139607622Y-87828191D01*
X139523957Y-87671666D01*
X139472437Y-87501827D01*
X139455041Y-87325200D01*
X139472437Y-87148573D01*
X139523957Y-86978734D01*
X139607622Y-86822209D01*
X139636952Y-86786471D01*
X139720214Y-86685014D01*
X139826459Y-86597822D01*
X139857409Y-86572422D01*
X140013934Y-86488757D01*
X140183773Y-86437237D01*
X140249958Y-86430718D01*
X140316140Y-86424200D01*
X140404660Y-86424200D01*
X140470842Y-86430718D01*
X140470842Y-86430718D01*
G37*
G36*
X169985642Y-83916118D02*
G01*
X170051827Y-83922637D01*
X170221666Y-83974157D01*
X170378191Y-84057822D01*
X170413929Y-84087152D01*
X170515386Y-84170414D01*
X170598648Y-84271871D01*
X170627978Y-84307609D01*
X170711643Y-84464134D01*
X170763163Y-84633973D01*
X170780559Y-84810600D01*
X170763163Y-84987227D01*
X170711643Y-85157066D01*
X170627978Y-85313591D01*
X170598648Y-85349329D01*
X170515386Y-85450786D01*
X170413929Y-85534048D01*
X170378191Y-85563378D01*
X170221666Y-85647043D01*
X170051827Y-85698563D01*
X169985642Y-85705082D01*
X169919460Y-85711600D01*
X169830940Y-85711600D01*
X169764758Y-85705082D01*
X169698573Y-85698563D01*
X169528734Y-85647043D01*
X169372209Y-85563378D01*
X169336471Y-85534048D01*
X169235014Y-85450786D01*
X169151752Y-85349329D01*
X169122422Y-85313591D01*
X169038757Y-85157066D01*
X168987237Y-84987227D01*
X168969841Y-84810600D01*
X168987237Y-84633973D01*
X169038757Y-84464134D01*
X169122422Y-84307609D01*
X169151752Y-84271871D01*
X169235014Y-84170414D01*
X169336471Y-84087152D01*
X169372209Y-84057822D01*
X169528734Y-83974157D01*
X169698573Y-83922637D01*
X169764758Y-83916118D01*
X169830940Y-83909600D01*
X169919460Y-83909600D01*
X169985642Y-83916118D01*
X169985642Y-83916118D01*
G37*
G36*
X140470843Y-83890719D02*
G01*
X140537027Y-83897237D01*
X140706866Y-83948757D01*
X140863391Y-84032422D01*
X140894341Y-84057822D01*
X141000586Y-84145014D01*
X141083848Y-84246471D01*
X141113178Y-84282209D01*
X141196843Y-84438734D01*
X141248363Y-84608573D01*
X141265759Y-84785200D01*
X141248363Y-84961827D01*
X141196843Y-85131666D01*
X141113178Y-85288191D01*
X141083848Y-85323929D01*
X141000586Y-85425386D01*
X140899129Y-85508648D01*
X140863391Y-85537978D01*
X140706866Y-85621643D01*
X140537027Y-85673163D01*
X140470843Y-85679681D01*
X140404660Y-85686200D01*
X140316140Y-85686200D01*
X140249957Y-85679681D01*
X140183773Y-85673163D01*
X140013934Y-85621643D01*
X139857409Y-85537978D01*
X139821671Y-85508648D01*
X139720214Y-85425386D01*
X139636952Y-85323929D01*
X139607622Y-85288191D01*
X139523957Y-85131666D01*
X139472437Y-84961827D01*
X139455041Y-84785200D01*
X139472437Y-84608573D01*
X139523957Y-84438734D01*
X139607622Y-84282209D01*
X139636952Y-84246471D01*
X139720214Y-84145014D01*
X139826459Y-84057822D01*
X139857409Y-84032422D01*
X140013934Y-83948757D01*
X140183773Y-83897237D01*
X140249957Y-83890719D01*
X140316140Y-83884200D01*
X140404660Y-83884200D01*
X140470843Y-83890719D01*
X140470843Y-83890719D01*
G37*
G36*
X170776200Y-83171600D02*
G01*
X168974200Y-83171600D01*
X168974200Y-81369600D01*
X170776200Y-81369600D01*
X170776200Y-83171600D01*
X170776200Y-83171600D01*
G37*
G36*
X141261400Y-83146200D02*
G01*
X139459400Y-83146200D01*
X139459400Y-81344200D01*
X141261400Y-81344200D01*
X141261400Y-83146200D01*
X141261400Y-83146200D01*
G37*
G36*
X152792940Y-70493526D02*
G01*
X152841336Y-70503153D01*
X152879102Y-70518796D01*
X152932511Y-70540919D01*
X152932512Y-70540920D01*
X153014569Y-70595748D01*
X153084352Y-70665531D01*
X153084353Y-70665533D01*
X153139181Y-70747589D01*
X153176947Y-70838765D01*
X153196200Y-70935555D01*
X153196200Y-71034245D01*
X153176947Y-71131035D01*
X153139181Y-71222211D01*
X153139180Y-71222212D01*
X153084352Y-71304269D01*
X153014569Y-71374052D01*
X152973262Y-71401652D01*
X152932511Y-71428881D01*
X152879102Y-71451004D01*
X152841336Y-71466647D01*
X152792940Y-71476274D01*
X152744545Y-71485900D01*
X152645855Y-71485900D01*
X152597460Y-71476274D01*
X152549064Y-71466647D01*
X152511298Y-71451004D01*
X152457889Y-71428881D01*
X152417138Y-71401652D01*
X152375831Y-71374052D01*
X152306048Y-71304269D01*
X152251220Y-71222212D01*
X152251219Y-71222211D01*
X152213453Y-71131035D01*
X152194200Y-71034245D01*
X152194200Y-70935555D01*
X152213453Y-70838765D01*
X152251219Y-70747589D01*
X152306047Y-70665533D01*
X152306048Y-70665531D01*
X152375831Y-70595748D01*
X152457888Y-70540920D01*
X152457889Y-70540919D01*
X152511298Y-70518796D01*
X152549064Y-70503153D01*
X152597460Y-70493526D01*
X152645855Y-70483900D01*
X152744545Y-70483900D01*
X152792940Y-70493526D01*
X152792940Y-70493526D01*
G37*
G36*
X148392940Y-70493526D02*
G01*
X148441336Y-70503153D01*
X148479102Y-70518796D01*
X148532511Y-70540919D01*
X148532512Y-70540920D01*
X148614569Y-70595748D01*
X148684352Y-70665531D01*
X148684353Y-70665533D01*
X148739181Y-70747589D01*
X148776947Y-70838765D01*
X148796200Y-70935555D01*
X148796200Y-71034245D01*
X148776947Y-71131035D01*
X148739181Y-71222211D01*
X148739180Y-71222212D01*
X148684352Y-71304269D01*
X148614569Y-71374052D01*
X148573262Y-71401652D01*
X148532511Y-71428881D01*
X148479102Y-71451004D01*
X148441336Y-71466647D01*
X148392940Y-71476274D01*
X148344545Y-71485900D01*
X148245855Y-71485900D01*
X148197460Y-71476274D01*
X148149064Y-71466647D01*
X148111298Y-71451004D01*
X148057889Y-71428881D01*
X148017138Y-71401652D01*
X147975831Y-71374052D01*
X147906048Y-71304269D01*
X147851220Y-71222212D01*
X147851219Y-71222211D01*
X147813453Y-71131035D01*
X147794200Y-71034245D01*
X147794200Y-70935555D01*
X147813453Y-70838765D01*
X147851219Y-70747589D01*
X147906047Y-70665533D01*
X147906048Y-70665531D01*
X147975831Y-70595748D01*
X148057888Y-70540920D01*
X148057889Y-70540919D01*
X148111298Y-70518796D01*
X148149064Y-70503153D01*
X148197460Y-70493526D01*
X148245855Y-70483900D01*
X148344545Y-70483900D01*
X148392940Y-70493526D01*
X148392940Y-70493526D01*
G37*
G36*
X162876326Y-66551437D02*
G01*
X163046165Y-66602957D01*
X163046167Y-66602958D01*
X163202689Y-66686621D01*
X163339886Y-66799214D01*
X163423148Y-66900671D01*
X163452478Y-66936409D01*
X163536143Y-67092934D01*
X163587663Y-67262773D01*
X163600700Y-67395142D01*
X163600700Y-67783657D01*
X163587663Y-67916026D01*
X163536143Y-68085866D01*
X163452478Y-68242391D01*
X163423148Y-68278129D01*
X163339886Y-68379586D01*
X163244950Y-68457497D01*
X163202691Y-68492178D01*
X163046166Y-68575843D01*
X162876327Y-68627363D01*
X162699700Y-68644759D01*
X162523074Y-68627363D01*
X162353235Y-68575843D01*
X162196710Y-68492178D01*
X162059515Y-68379585D01*
X161946922Y-68242391D01*
X161863257Y-68085866D01*
X161811737Y-67916027D01*
X161798700Y-67783658D01*
X161798700Y-67395143D01*
X161811737Y-67262774D01*
X161863257Y-67092935D01*
X161946922Y-66936410D01*
X161946923Y-66936409D01*
X162059514Y-66799214D01*
X162160971Y-66715952D01*
X162196709Y-66686622D01*
X162353234Y-66602957D01*
X162523073Y-66551437D01*
X162699700Y-66534041D01*
X162876326Y-66551437D01*
X162876326Y-66551437D01*
G37*
G36*
X160958300Y-66542389D02*
G01*
X160991352Y-66552415D01*
X161021803Y-66568692D01*
X161048499Y-66590601D01*
X161070408Y-66617297D01*
X161086685Y-66647748D01*
X161096711Y-66680800D01*
X161100700Y-66721303D01*
X161100700Y-68457497D01*
X161096711Y-68498000D01*
X161086685Y-68531052D01*
X161070408Y-68561503D01*
X161048499Y-68588199D01*
X161021803Y-68610108D01*
X160991352Y-68626385D01*
X160958300Y-68636411D01*
X160917797Y-68640400D01*
X159481603Y-68640400D01*
X159441100Y-68636411D01*
X159408048Y-68626385D01*
X159377597Y-68610108D01*
X159350901Y-68588199D01*
X159328992Y-68561503D01*
X159312715Y-68531052D01*
X159302689Y-68498000D01*
X159298700Y-68457497D01*
X159298700Y-66721303D01*
X159302689Y-66680800D01*
X159312715Y-66647748D01*
X159328992Y-66617297D01*
X159350901Y-66590601D01*
X159377597Y-66568692D01*
X159408048Y-66552415D01*
X159441100Y-66542389D01*
X159481603Y-66538400D01*
X160917797Y-66538400D01*
X160958300Y-66542389D01*
X160958300Y-66542389D01*
G37*
M02*
