G04 #@! TF.GenerationSoftware,KiCad,Pcbnew,(5.1.4)-1*
G04 #@! TF.CreationDate,2020-03-23T23:33:49-05:00*
G04 #@! TF.ProjectId,ExOneMicrorocessor,45784f6e-654d-4696-9372-6f726f636573,rev?*
G04 #@! TF.SameCoordinates,Original*
G04 #@! TF.FileFunction,Other,User*
%FSLAX46Y46*%
G04 Gerber Fmt 4.6, Leading zero omitted, Abs format (unit mm)*
G04 Created by KiCad (PCBNEW (5.1.4)-1) date 2020-03-23 23:33:49*
%MOMM*%
%LPD*%
G04 APERTURE LIST*
%ADD10C,0.050000*%
G04 APERTURE END LIST*
D10*
X138560400Y-80445200D02*
X142160400Y-80445200D01*
X138560400Y-124695200D02*
X138560400Y-80445200D01*
X142160400Y-124695200D02*
X138560400Y-124695200D01*
X142160400Y-80445200D02*
X142160400Y-124695200D01*
X168075200Y-80470600D02*
X171675200Y-80470600D01*
X168075200Y-124720600D02*
X168075200Y-80470600D01*
X171675200Y-124720600D02*
X168075200Y-124720600D01*
X171675200Y-80470600D02*
X171675200Y-124720600D01*
X146270100Y-97298200D02*
X166670100Y-97298200D01*
X146270100Y-102498200D02*
X146270100Y-97298200D01*
X166670100Y-102498200D02*
X146270100Y-102498200D01*
X166670100Y-97298200D02*
X166670100Y-102498200D01*
X151275800Y-97142600D02*
X151275800Y-93842600D01*
X149815800Y-97142600D02*
X151275800Y-97142600D01*
X149815800Y-93842600D02*
X149815800Y-97142600D01*
X151275800Y-93842600D02*
X149815800Y-93842600D01*
X163137600Y-97117200D02*
X163137600Y-93817200D01*
X161677600Y-97117200D02*
X163137600Y-97117200D01*
X161677600Y-93817200D02*
X161677600Y-97117200D01*
X163137600Y-93817200D02*
X161677600Y-93817200D01*
M02*
