G04 #@! TF.GenerationSoftware,KiCad,Pcbnew,(5.1.4)-1*
G04 #@! TF.CreationDate,2020-03-23T23:33:49-05:00*
G04 #@! TF.ProjectId,ExOneMicrorocessor,45784f6e-654d-4696-9372-6f726f636573,rev?*
G04 #@! TF.SameCoordinates,Original*
G04 #@! TF.FileFunction,Legend,Bot*
G04 #@! TF.FilePolarity,Positive*
%FSLAX46Y46*%
G04 Gerber Fmt 4.6, Leading zero omitted, Abs format (unit mm)*
G04 Created by KiCad (PCBNEW (5.1.4)-1) date 2020-03-23 23:33:49*
%MOMM*%
%LPD*%
G04 APERTURE LIST*
%ADD10C,0.120000*%
%ADD11C,0.150000*%
G04 APERTURE END LIST*
D10*
X141690400Y-80915200D02*
X140360400Y-80915200D01*
X141690400Y-82245200D02*
X141690400Y-80915200D01*
X141690400Y-83515200D02*
X139030400Y-83515200D01*
X139030400Y-83515200D02*
X139030400Y-124215200D01*
X141690400Y-83515200D02*
X141690400Y-124215200D01*
X141690400Y-124215200D02*
X139030400Y-124215200D01*
X171205200Y-80940600D02*
X169875200Y-80940600D01*
X171205200Y-82270600D02*
X171205200Y-80940600D01*
X171205200Y-83540600D02*
X168545200Y-83540600D01*
X168545200Y-83540600D02*
X168545200Y-124240600D01*
X171205200Y-83540600D02*
X171205200Y-124240600D01*
X171205200Y-124240600D02*
X168545200Y-124240600D01*
X166545100Y-102448200D02*
X150570100Y-102448200D01*
X166545100Y-97348200D02*
X166545100Y-102448200D01*
X150570100Y-97348200D02*
X166545100Y-97348200D01*
X151055800Y-95321333D02*
X151055800Y-95663867D01*
X150035800Y-95321333D02*
X150035800Y-95663867D01*
X162917600Y-95295933D02*
X162917600Y-95638467D01*
X161897600Y-95295933D02*
X161897600Y-95638467D01*
D11*
X140998533Y-79233780D02*
X140998533Y-79948066D01*
X141046152Y-80090923D01*
X141141390Y-80186161D01*
X141284247Y-80233780D01*
X141379485Y-80233780D01*
X140046152Y-79233780D02*
X140522342Y-79233780D01*
X140569961Y-79709971D01*
X140522342Y-79662352D01*
X140427104Y-79614733D01*
X140189009Y-79614733D01*
X140093771Y-79662352D01*
X140046152Y-79709971D01*
X139998533Y-79805209D01*
X139998533Y-80043304D01*
X140046152Y-80138542D01*
X140093771Y-80186161D01*
X140189009Y-80233780D01*
X140427104Y-80233780D01*
X140522342Y-80186161D01*
X140569961Y-80138542D01*
X170208533Y-79233780D02*
X170208533Y-79948066D01*
X170256152Y-80090923D01*
X170351390Y-80186161D01*
X170494247Y-80233780D01*
X170589485Y-80233780D01*
X169303771Y-79567114D02*
X169303771Y-80233780D01*
X169541866Y-79186161D02*
X169779961Y-79900447D01*
X169160914Y-79900447D01*
X156946290Y-96324390D02*
X156946290Y-96800580D01*
X157279623Y-95800580D02*
X156946290Y-96324390D01*
X156612957Y-95800580D01*
X156327242Y-95895819D02*
X156279623Y-95848200D01*
X156184385Y-95800580D01*
X155946290Y-95800580D01*
X155851052Y-95848200D01*
X155803433Y-95895819D01*
X155755814Y-95991057D01*
X155755814Y-96086295D01*
X155803433Y-96229152D01*
X156374861Y-96800580D01*
X155755814Y-96800580D01*
X149472942Y-95325933D02*
X149520561Y-95278314D01*
X149568180Y-95135457D01*
X149568180Y-95040219D01*
X149520561Y-94897361D01*
X149425323Y-94802123D01*
X149330085Y-94754504D01*
X149139609Y-94706885D01*
X148996752Y-94706885D01*
X148806276Y-94754504D01*
X148711038Y-94802123D01*
X148615800Y-94897361D01*
X148568180Y-95040219D01*
X148568180Y-95135457D01*
X148615800Y-95278314D01*
X148663419Y-95325933D01*
X148996752Y-95897361D02*
X148949133Y-95802123D01*
X148901514Y-95754504D01*
X148806276Y-95706885D01*
X148758657Y-95706885D01*
X148663419Y-95754504D01*
X148615800Y-95802123D01*
X148568180Y-95897361D01*
X148568180Y-96087838D01*
X148615800Y-96183076D01*
X148663419Y-96230695D01*
X148758657Y-96278314D01*
X148806276Y-96278314D01*
X148901514Y-96230695D01*
X148949133Y-96183076D01*
X148996752Y-96087838D01*
X148996752Y-95897361D01*
X149044371Y-95802123D01*
X149091990Y-95754504D01*
X149187228Y-95706885D01*
X149377704Y-95706885D01*
X149472942Y-95754504D01*
X149520561Y-95802123D01*
X149568180Y-95897361D01*
X149568180Y-96087838D01*
X149520561Y-96183076D01*
X149472942Y-96230695D01*
X149377704Y-96278314D01*
X149187228Y-96278314D01*
X149091990Y-96230695D01*
X149044371Y-96183076D01*
X148996752Y-96087838D01*
X164187142Y-95339933D02*
X164234761Y-95292314D01*
X164282380Y-95149457D01*
X164282380Y-95054219D01*
X164234761Y-94911361D01*
X164139523Y-94816123D01*
X164044285Y-94768504D01*
X163853809Y-94720885D01*
X163710952Y-94720885D01*
X163520476Y-94768504D01*
X163425238Y-94816123D01*
X163330000Y-94911361D01*
X163282380Y-95054219D01*
X163282380Y-95149457D01*
X163330000Y-95292314D01*
X163377619Y-95339933D01*
X163282380Y-95673266D02*
X163282380Y-96339933D01*
X164282380Y-95911361D01*
M02*
