G04 #@! TF.GenerationSoftware,KiCad,Pcbnew,(5.1.4)-1*
G04 #@! TF.CreationDate,2020-03-23T23:33:49-05:00*
G04 #@! TF.ProjectId,ExOneMicrorocessor,45784f6e-654d-4696-9372-6f726f636573,rev?*
G04 #@! TF.SameCoordinates,Original*
G04 #@! TF.FileFunction,Other,Fab,Bot*
%FSLAX46Y46*%
G04 Gerber Fmt 4.6, Leading zero omitted, Abs format (unit mm)*
G04 Created by KiCad (PCBNEW (5.1.4)-1) date 2020-03-23 23:33:49*
%MOMM*%
%LPD*%
G04 APERTURE LIST*
%ADD10C,0.100000*%
%ADD11C,0.150000*%
%ADD12C,0.060000*%
G04 APERTURE END LIST*
D10*
X141630400Y-81610200D02*
X140995400Y-80975200D01*
X141630400Y-124155200D02*
X141630400Y-81610200D01*
X139090400Y-124155200D02*
X141630400Y-124155200D01*
X139090400Y-80975200D02*
X139090400Y-124155200D01*
X140995400Y-80975200D02*
X139090400Y-80975200D01*
X171145200Y-81635600D02*
X170510200Y-81000600D01*
X171145200Y-124180600D02*
X171145200Y-81635600D01*
X168605200Y-124180600D02*
X171145200Y-124180600D01*
X168605200Y-81000600D02*
X168605200Y-124180600D01*
X170510200Y-81000600D02*
X168605200Y-81000600D01*
X153455100Y-102013200D02*
G75*
G02X153455100Y-97783200I0J2115000D01*
G01*
X159485100Y-102013200D02*
G75*
G03X159485100Y-97783200I0J2115000D01*
G01*
X159485100Y-102013200D02*
X153455100Y-102013200D01*
X159485100Y-97783200D02*
X153455100Y-97783200D01*
X150770100Y-97548200D02*
X162170100Y-97548200D01*
X150770100Y-102248200D02*
X150770100Y-97548200D01*
X162170100Y-102248200D02*
X150770100Y-102248200D01*
X162170100Y-97548200D02*
X162170100Y-102248200D01*
X150945800Y-96292600D02*
X150945800Y-94692600D01*
X150145800Y-96292600D02*
X150945800Y-96292600D01*
X150145800Y-94692600D02*
X150145800Y-96292600D01*
X150945800Y-94692600D02*
X150145800Y-94692600D01*
X162807600Y-96267200D02*
X162807600Y-94667200D01*
X162007600Y-96267200D02*
X162807600Y-96267200D01*
X162007600Y-94667200D02*
X162007600Y-96267200D01*
X162807600Y-94667200D02*
X162007600Y-94667200D01*
D11*
X144098495Y-125572342D02*
X144146114Y-125619961D01*
X144288971Y-125667580D01*
X144384209Y-125667580D01*
X144527066Y-125619961D01*
X144622304Y-125524723D01*
X144669923Y-125429485D01*
X144717542Y-125239009D01*
X144717542Y-125096152D01*
X144669923Y-124905676D01*
X144622304Y-124810438D01*
X144527066Y-124715200D01*
X144384209Y-124667580D01*
X144288971Y-124667580D01*
X144146114Y-124715200D01*
X144098495Y-124762819D01*
X143527066Y-125667580D02*
X143622304Y-125619961D01*
X143669923Y-125572342D01*
X143717542Y-125477104D01*
X143717542Y-125191390D01*
X143669923Y-125096152D01*
X143622304Y-125048533D01*
X143527066Y-125000914D01*
X143384209Y-125000914D01*
X143288971Y-125048533D01*
X143241352Y-125096152D01*
X143193733Y-125191390D01*
X143193733Y-125477104D01*
X143241352Y-125572342D01*
X143288971Y-125619961D01*
X143384209Y-125667580D01*
X143527066Y-125667580D01*
X142765161Y-125000914D02*
X142765161Y-125667580D01*
X142765161Y-125096152D02*
X142717542Y-125048533D01*
X142622304Y-125000914D01*
X142479447Y-125000914D01*
X142384209Y-125048533D01*
X142336590Y-125143771D01*
X142336590Y-125667580D01*
X141860400Y-125000914D02*
X141860400Y-125667580D01*
X141860400Y-125096152D02*
X141812780Y-125048533D01*
X141717542Y-125000914D01*
X141574685Y-125000914D01*
X141479447Y-125048533D01*
X141431828Y-125143771D01*
X141431828Y-125667580D01*
X141193733Y-125762819D02*
X140431828Y-125762819D01*
X140003257Y-124667580D02*
X139908019Y-124667580D01*
X139812780Y-124715200D01*
X139765161Y-124762819D01*
X139717542Y-124858057D01*
X139669923Y-125048533D01*
X139669923Y-125286628D01*
X139717542Y-125477104D01*
X139765161Y-125572342D01*
X139812780Y-125619961D01*
X139908019Y-125667580D01*
X140003257Y-125667580D01*
X140098495Y-125619961D01*
X140146114Y-125572342D01*
X140193733Y-125477104D01*
X140241352Y-125286628D01*
X140241352Y-125048533D01*
X140193733Y-124858057D01*
X140146114Y-124762819D01*
X140098495Y-124715200D01*
X140003257Y-124667580D01*
X138717542Y-125667580D02*
X139288971Y-125667580D01*
X139003257Y-125667580D02*
X139003257Y-124667580D01*
X139098495Y-124810438D01*
X139193733Y-124905676D01*
X139288971Y-124953295D01*
X138384209Y-125667580D02*
X137860400Y-125000914D01*
X138384209Y-125000914D02*
X137860400Y-125667580D01*
X136955638Y-125667580D02*
X137527066Y-125667580D01*
X137241352Y-125667580D02*
X137241352Y-124667580D01*
X137336590Y-124810438D01*
X137431828Y-124905676D01*
X137527066Y-124953295D01*
X136622304Y-124667580D02*
X135955638Y-124667580D01*
X136384209Y-125667580D01*
X139812780Y-102231866D02*
X140527066Y-102231866D01*
X140669923Y-102184247D01*
X140765161Y-102089009D01*
X140812780Y-101946152D01*
X140812780Y-101850914D01*
X139812780Y-103184247D02*
X139812780Y-102708057D01*
X140288971Y-102660438D01*
X140241352Y-102708057D01*
X140193733Y-102803295D01*
X140193733Y-103041390D01*
X140241352Y-103136628D01*
X140288971Y-103184247D01*
X140384209Y-103231866D01*
X140622304Y-103231866D01*
X140717542Y-103184247D01*
X140765161Y-103136628D01*
X140812780Y-103041390D01*
X140812780Y-102803295D01*
X140765161Y-102708057D01*
X140717542Y-102660438D01*
X173613295Y-125597742D02*
X173660914Y-125645361D01*
X173803771Y-125692980D01*
X173899009Y-125692980D01*
X174041866Y-125645361D01*
X174137104Y-125550123D01*
X174184723Y-125454885D01*
X174232342Y-125264409D01*
X174232342Y-125121552D01*
X174184723Y-124931076D01*
X174137104Y-124835838D01*
X174041866Y-124740600D01*
X173899009Y-124692980D01*
X173803771Y-124692980D01*
X173660914Y-124740600D01*
X173613295Y-124788219D01*
X173041866Y-125692980D02*
X173137104Y-125645361D01*
X173184723Y-125597742D01*
X173232342Y-125502504D01*
X173232342Y-125216790D01*
X173184723Y-125121552D01*
X173137104Y-125073933D01*
X173041866Y-125026314D01*
X172899009Y-125026314D01*
X172803771Y-125073933D01*
X172756152Y-125121552D01*
X172708533Y-125216790D01*
X172708533Y-125502504D01*
X172756152Y-125597742D01*
X172803771Y-125645361D01*
X172899009Y-125692980D01*
X173041866Y-125692980D01*
X172279961Y-125026314D02*
X172279961Y-125692980D01*
X172279961Y-125121552D02*
X172232342Y-125073933D01*
X172137104Y-125026314D01*
X171994247Y-125026314D01*
X171899009Y-125073933D01*
X171851390Y-125169171D01*
X171851390Y-125692980D01*
X171375200Y-125026314D02*
X171375200Y-125692980D01*
X171375200Y-125121552D02*
X171327580Y-125073933D01*
X171232342Y-125026314D01*
X171089485Y-125026314D01*
X170994247Y-125073933D01*
X170946628Y-125169171D01*
X170946628Y-125692980D01*
X170708533Y-125788219D02*
X169946628Y-125788219D01*
X169518057Y-124692980D02*
X169422819Y-124692980D01*
X169327580Y-124740600D01*
X169279961Y-124788219D01*
X169232342Y-124883457D01*
X169184723Y-125073933D01*
X169184723Y-125312028D01*
X169232342Y-125502504D01*
X169279961Y-125597742D01*
X169327580Y-125645361D01*
X169422819Y-125692980D01*
X169518057Y-125692980D01*
X169613295Y-125645361D01*
X169660914Y-125597742D01*
X169708533Y-125502504D01*
X169756152Y-125312028D01*
X169756152Y-125073933D01*
X169708533Y-124883457D01*
X169660914Y-124788219D01*
X169613295Y-124740600D01*
X169518057Y-124692980D01*
X168232342Y-125692980D02*
X168803771Y-125692980D01*
X168518057Y-125692980D02*
X168518057Y-124692980D01*
X168613295Y-124835838D01*
X168708533Y-124931076D01*
X168803771Y-124978695D01*
X167899009Y-125692980D02*
X167375200Y-125026314D01*
X167899009Y-125026314D02*
X167375200Y-125692980D01*
X166470438Y-125692980D02*
X167041866Y-125692980D01*
X166756152Y-125692980D02*
X166756152Y-124692980D01*
X166851390Y-124835838D01*
X166946628Y-124931076D01*
X167041866Y-124978695D01*
X166137104Y-124692980D02*
X165470438Y-124692980D01*
X165899009Y-125692980D01*
X169327580Y-102257266D02*
X170041866Y-102257266D01*
X170184723Y-102209647D01*
X170279961Y-102114409D01*
X170327580Y-101971552D01*
X170327580Y-101876314D01*
X169660914Y-103162028D02*
X170327580Y-103162028D01*
X169279961Y-102923933D02*
X169994247Y-102685838D01*
X169994247Y-103304885D01*
X145720890Y-97543952D02*
X145816128Y-97496333D01*
X145863747Y-97448714D01*
X145911366Y-97353476D01*
X145911366Y-97305857D01*
X145863747Y-97210619D01*
X145816128Y-97163000D01*
X145720890Y-97115380D01*
X145530414Y-97115380D01*
X145435176Y-97163000D01*
X145387557Y-97210619D01*
X145339938Y-97305857D01*
X145339938Y-97353476D01*
X145387557Y-97448714D01*
X145435176Y-97496333D01*
X145530414Y-97543952D01*
X145720890Y-97543952D01*
X145816128Y-97591571D01*
X145863747Y-97639190D01*
X145911366Y-97734428D01*
X145911366Y-97924904D01*
X145863747Y-98020142D01*
X145816128Y-98067761D01*
X145720890Y-98115380D01*
X145530414Y-98115380D01*
X145435176Y-98067761D01*
X145387557Y-98020142D01*
X145339938Y-97924904D01*
X145339938Y-97734428D01*
X145387557Y-97639190D01*
X145435176Y-97591571D01*
X145530414Y-97543952D01*
X144149461Y-98115380D02*
X144149461Y-97115380D01*
X143816128Y-97829666D01*
X143482795Y-97115380D01*
X143482795Y-98115380D01*
X143006604Y-98115380D02*
X143006604Y-97115380D01*
X143006604Y-97591571D02*
X142435176Y-97591571D01*
X142435176Y-98115380D02*
X142435176Y-97115380D01*
X142054223Y-97448714D02*
X141530414Y-97448714D01*
X142054223Y-98115380D01*
X141530414Y-98115380D01*
X156946290Y-99874390D02*
X156946290Y-100350580D01*
X157279623Y-99350580D02*
X156946290Y-99874390D01*
X156612957Y-99350580D01*
X156327242Y-99445819D02*
X156279623Y-99398200D01*
X156184385Y-99350580D01*
X155946290Y-99350580D01*
X155851052Y-99398200D01*
X155803433Y-99445819D01*
X155755814Y-99541057D01*
X155755814Y-99636295D01*
X155803433Y-99779152D01*
X156374861Y-100350580D01*
X155755814Y-100350580D01*
X151523419Y-93468790D02*
X151475800Y-93516409D01*
X151428180Y-93611647D01*
X151428180Y-93849742D01*
X151475800Y-93944980D01*
X151523419Y-93992600D01*
X151618657Y-94040219D01*
X151713895Y-94040219D01*
X151856752Y-93992600D01*
X152428180Y-93421171D01*
X152428180Y-94040219D01*
X151428180Y-94659266D02*
X151428180Y-94754504D01*
X151475800Y-94849742D01*
X151523419Y-94897361D01*
X151618657Y-94944980D01*
X151809133Y-94992600D01*
X152047228Y-94992600D01*
X152237704Y-94944980D01*
X152332942Y-94897361D01*
X152380561Y-94849742D01*
X152428180Y-94754504D01*
X152428180Y-94659266D01*
X152380561Y-94564028D01*
X152332942Y-94516409D01*
X152237704Y-94468790D01*
X152047228Y-94421171D01*
X151809133Y-94421171D01*
X151618657Y-94468790D01*
X151523419Y-94516409D01*
X151475800Y-94564028D01*
X151428180Y-94659266D01*
X151761514Y-96183076D02*
X152761514Y-96183076D01*
X151809133Y-96183076D02*
X151761514Y-96278314D01*
X151761514Y-96468790D01*
X151809133Y-96564028D01*
X151856752Y-96611647D01*
X151951990Y-96659266D01*
X152237704Y-96659266D01*
X152332942Y-96611647D01*
X152380561Y-96564028D01*
X152428180Y-96468790D01*
X152428180Y-96278314D01*
X152380561Y-96183076D01*
X151904371Y-97421171D02*
X151904371Y-97087838D01*
X152428180Y-97087838D02*
X151428180Y-97087838D01*
X151428180Y-97564028D01*
D12*
X150688657Y-95425933D02*
X150707704Y-95406885D01*
X150726752Y-95349742D01*
X150726752Y-95311647D01*
X150707704Y-95254504D01*
X150669609Y-95216409D01*
X150631514Y-95197361D01*
X150555323Y-95178314D01*
X150498180Y-95178314D01*
X150421990Y-95197361D01*
X150383895Y-95216409D01*
X150345800Y-95254504D01*
X150326752Y-95311647D01*
X150326752Y-95349742D01*
X150345800Y-95406885D01*
X150364847Y-95425933D01*
X150498180Y-95654504D02*
X150479133Y-95616409D01*
X150460085Y-95597361D01*
X150421990Y-95578314D01*
X150402942Y-95578314D01*
X150364847Y-95597361D01*
X150345800Y-95616409D01*
X150326752Y-95654504D01*
X150326752Y-95730695D01*
X150345800Y-95768790D01*
X150364847Y-95787838D01*
X150402942Y-95806885D01*
X150421990Y-95806885D01*
X150460085Y-95787838D01*
X150479133Y-95768790D01*
X150498180Y-95730695D01*
X150498180Y-95654504D01*
X150517228Y-95616409D01*
X150536276Y-95597361D01*
X150574371Y-95578314D01*
X150650561Y-95578314D01*
X150688657Y-95597361D01*
X150707704Y-95616409D01*
X150726752Y-95654504D01*
X150726752Y-95730695D01*
X150707704Y-95768790D01*
X150688657Y-95787838D01*
X150650561Y-95806885D01*
X150574371Y-95806885D01*
X150536276Y-95787838D01*
X150517228Y-95768790D01*
X150498180Y-95730695D01*
D11*
X146016409Y-97975219D02*
X145968790Y-97927600D01*
X145873552Y-97879980D01*
X145635457Y-97879980D01*
X145540219Y-97927600D01*
X145492600Y-97975219D01*
X145444980Y-98070457D01*
X145444980Y-98165695D01*
X145492600Y-98308552D01*
X146064028Y-98879980D01*
X145444980Y-98879980D01*
X144825933Y-97879980D02*
X144730695Y-97879980D01*
X144635457Y-97927600D01*
X144587838Y-97975219D01*
X144540219Y-98070457D01*
X144492600Y-98260933D01*
X144492600Y-98499028D01*
X144540219Y-98689504D01*
X144587838Y-98784742D01*
X144635457Y-98832361D01*
X144730695Y-98879980D01*
X144825933Y-98879980D01*
X144921171Y-98832361D01*
X144968790Y-98784742D01*
X145016409Y-98689504D01*
X145064028Y-98499028D01*
X145064028Y-98260933D01*
X145016409Y-98070457D01*
X144968790Y-97975219D01*
X144921171Y-97927600D01*
X144825933Y-97879980D01*
X143302123Y-98213314D02*
X143302123Y-99213314D01*
X143302123Y-98260933D02*
X143206885Y-98213314D01*
X143016409Y-98213314D01*
X142921171Y-98260933D01*
X142873552Y-98308552D01*
X142825933Y-98403790D01*
X142825933Y-98689504D01*
X142873552Y-98784742D01*
X142921171Y-98832361D01*
X143016409Y-98879980D01*
X143206885Y-98879980D01*
X143302123Y-98832361D01*
X142064028Y-98356171D02*
X142397361Y-98356171D01*
X142397361Y-98879980D02*
X142397361Y-97879980D01*
X141921171Y-97879980D01*
D12*
X162550457Y-95400533D02*
X162569504Y-95381485D01*
X162588552Y-95324342D01*
X162588552Y-95286247D01*
X162569504Y-95229104D01*
X162531409Y-95191009D01*
X162493314Y-95171961D01*
X162417123Y-95152914D01*
X162359980Y-95152914D01*
X162283790Y-95171961D01*
X162245695Y-95191009D01*
X162207600Y-95229104D01*
X162188552Y-95286247D01*
X162188552Y-95324342D01*
X162207600Y-95381485D01*
X162226647Y-95400533D01*
X162188552Y-95533866D02*
X162188552Y-95800533D01*
X162588552Y-95629104D01*
M02*
