G04 #@! TF.GenerationSoftware,KiCad,Pcbnew,(5.1.4)-1*
G04 #@! TF.CreationDate,2020-03-25T13:11:36-05:00*
G04 #@! TF.ProjectId,ExOneMicrorocessor,45784f6e-654d-4696-9372-6f726f636573,rev?*
G04 #@! TF.SameCoordinates,Original*
G04 #@! TF.FileFunction,Soldermask,Top*
G04 #@! TF.FilePolarity,Negative*
%FSLAX46Y46*%
G04 Gerber Fmt 4.6, Leading zero omitted, Abs format (unit mm)*
G04 Created by KiCad (PCBNEW (5.1.4)-1) date 2020-03-25 13:11:36*
%MOMM*%
%LPD*%
G04 APERTURE LIST*
%ADD10C,0.100000*%
G04 APERTURE END LIST*
D10*
G36*
X157225300Y-125856300D02*
G01*
X155423300Y-125856300D01*
X155423300Y-124054300D01*
X157225300Y-124054300D01*
X157225300Y-125856300D01*
X157225300Y-125856300D01*
G37*
G36*
X153894743Y-124060819D02*
G01*
X153960927Y-124067337D01*
X154130766Y-124118857D01*
X154287291Y-124202522D01*
X154323029Y-124231852D01*
X154424486Y-124315114D01*
X154507748Y-124416571D01*
X154537078Y-124452309D01*
X154620743Y-124608834D01*
X154672263Y-124778673D01*
X154689659Y-124955300D01*
X154672263Y-125131927D01*
X154620743Y-125301766D01*
X154537078Y-125458291D01*
X154507748Y-125494029D01*
X154424486Y-125595486D01*
X154323029Y-125678748D01*
X154287291Y-125708078D01*
X154130766Y-125791743D01*
X153960927Y-125843263D01*
X153894743Y-125849781D01*
X153828560Y-125856300D01*
X153740040Y-125856300D01*
X153673857Y-125849781D01*
X153607673Y-125843263D01*
X153437834Y-125791743D01*
X153281309Y-125708078D01*
X153245571Y-125678748D01*
X153144114Y-125595486D01*
X153060852Y-125494029D01*
X153031522Y-125458291D01*
X152947857Y-125301766D01*
X152896337Y-125131927D01*
X152878941Y-124955300D01*
X152896337Y-124778673D01*
X152947857Y-124608834D01*
X153031522Y-124452309D01*
X153060852Y-124416571D01*
X153144114Y-124315114D01*
X153245571Y-124231852D01*
X153281309Y-124202522D01*
X153437834Y-124118857D01*
X153607673Y-124067337D01*
X153673857Y-124060819D01*
X153740040Y-124054300D01*
X153828560Y-124054300D01*
X153894743Y-124060819D01*
X153894743Y-124060819D01*
G37*
G36*
X147636800Y-125843600D02*
G01*
X145834800Y-125843600D01*
X145834800Y-124041600D01*
X147636800Y-124041600D01*
X147636800Y-125843600D01*
X147636800Y-125843600D01*
G37*
G36*
X144306242Y-124048118D02*
G01*
X144372427Y-124054637D01*
X144542266Y-124106157D01*
X144698791Y-124189822D01*
X144734529Y-124219152D01*
X144835986Y-124302414D01*
X144919248Y-124403871D01*
X144948578Y-124439609D01*
X145032243Y-124596134D01*
X145083763Y-124765973D01*
X145101159Y-124942600D01*
X145083763Y-125119227D01*
X145032243Y-125289066D01*
X144948578Y-125445591D01*
X144938157Y-125458289D01*
X144835986Y-125582786D01*
X144734529Y-125666048D01*
X144698791Y-125695378D01*
X144542266Y-125779043D01*
X144372427Y-125830563D01*
X144306242Y-125837082D01*
X144240060Y-125843600D01*
X144151540Y-125843600D01*
X144085358Y-125837082D01*
X144019173Y-125830563D01*
X143849334Y-125779043D01*
X143692809Y-125695378D01*
X143657071Y-125666048D01*
X143555614Y-125582786D01*
X143453443Y-125458289D01*
X143443022Y-125445591D01*
X143359357Y-125289066D01*
X143307837Y-125119227D01*
X143290441Y-124942600D01*
X143307837Y-124765973D01*
X143359357Y-124596134D01*
X143443022Y-124439609D01*
X143472352Y-124403871D01*
X143555614Y-124302414D01*
X143657071Y-124219152D01*
X143692809Y-124189822D01*
X143849334Y-124106157D01*
X144019173Y-124054637D01*
X144085358Y-124048118D01*
X144151540Y-124041600D01*
X144240060Y-124041600D01*
X144306242Y-124048118D01*
X144306242Y-124048118D01*
G37*
G36*
X169985642Y-122016118D02*
G01*
X170051827Y-122022637D01*
X170221666Y-122074157D01*
X170378191Y-122157822D01*
X170413929Y-122187152D01*
X170515386Y-122270414D01*
X170598648Y-122371871D01*
X170627978Y-122407609D01*
X170711643Y-122564134D01*
X170763163Y-122733973D01*
X170780559Y-122910600D01*
X170763163Y-123087227D01*
X170711643Y-123257066D01*
X170627978Y-123413591D01*
X170598648Y-123449329D01*
X170515386Y-123550786D01*
X170413929Y-123634048D01*
X170378191Y-123663378D01*
X170221666Y-123747043D01*
X170051827Y-123798563D01*
X169985643Y-123805081D01*
X169919460Y-123811600D01*
X169830940Y-123811600D01*
X169764757Y-123805081D01*
X169698573Y-123798563D01*
X169528734Y-123747043D01*
X169372209Y-123663378D01*
X169336471Y-123634048D01*
X169235014Y-123550786D01*
X169151752Y-123449329D01*
X169122422Y-123413591D01*
X169038757Y-123257066D01*
X168987237Y-123087227D01*
X168969841Y-122910600D01*
X168987237Y-122733973D01*
X169038757Y-122564134D01*
X169122422Y-122407609D01*
X169151752Y-122371871D01*
X169235014Y-122270414D01*
X169336471Y-122187152D01*
X169372209Y-122157822D01*
X169528734Y-122074157D01*
X169698573Y-122022637D01*
X169764758Y-122016118D01*
X169830940Y-122009600D01*
X169919460Y-122009600D01*
X169985642Y-122016118D01*
X169985642Y-122016118D01*
G37*
G36*
X140470842Y-121990718D02*
G01*
X140537027Y-121997237D01*
X140706866Y-122048757D01*
X140863391Y-122132422D01*
X140894341Y-122157822D01*
X141000586Y-122245014D01*
X141083848Y-122346471D01*
X141113178Y-122382209D01*
X141196843Y-122538734D01*
X141248363Y-122708573D01*
X141265759Y-122885200D01*
X141248363Y-123061827D01*
X141196843Y-123231666D01*
X141113178Y-123388191D01*
X141083848Y-123423929D01*
X141000586Y-123525386D01*
X140899129Y-123608648D01*
X140863391Y-123637978D01*
X140706866Y-123721643D01*
X140537027Y-123773163D01*
X140470842Y-123779682D01*
X140404660Y-123786200D01*
X140316140Y-123786200D01*
X140249958Y-123779682D01*
X140183773Y-123773163D01*
X140013934Y-123721643D01*
X139857409Y-123637978D01*
X139821671Y-123608648D01*
X139720214Y-123525386D01*
X139636952Y-123423929D01*
X139607622Y-123388191D01*
X139523957Y-123231666D01*
X139472437Y-123061827D01*
X139455041Y-122885200D01*
X139472437Y-122708573D01*
X139523957Y-122538734D01*
X139607622Y-122382209D01*
X139636952Y-122346471D01*
X139720214Y-122245014D01*
X139826459Y-122157822D01*
X139857409Y-122132422D01*
X140013934Y-122048757D01*
X140183773Y-121997237D01*
X140249958Y-121990718D01*
X140316140Y-121984200D01*
X140404660Y-121984200D01*
X140470842Y-121990718D01*
X140470842Y-121990718D01*
G37*
G36*
X153894742Y-121520818D02*
G01*
X153960927Y-121527337D01*
X154130766Y-121578857D01*
X154287291Y-121662522D01*
X154323029Y-121691852D01*
X154424486Y-121775114D01*
X154493782Y-121859553D01*
X154537078Y-121912309D01*
X154537079Y-121912311D01*
X154617839Y-122063400D01*
X154620743Y-122068834D01*
X154672263Y-122238673D01*
X154689659Y-122415300D01*
X154672263Y-122591927D01*
X154620743Y-122761766D01*
X154537078Y-122918291D01*
X154524426Y-122933707D01*
X154424486Y-123055486D01*
X154323029Y-123138748D01*
X154287291Y-123168078D01*
X154130766Y-123251743D01*
X153960927Y-123303263D01*
X153894742Y-123309782D01*
X153828560Y-123316300D01*
X153740040Y-123316300D01*
X153673858Y-123309782D01*
X153607673Y-123303263D01*
X153437834Y-123251743D01*
X153281309Y-123168078D01*
X153245571Y-123138748D01*
X153144114Y-123055486D01*
X153044174Y-122933707D01*
X153031522Y-122918291D01*
X152947857Y-122761766D01*
X152896337Y-122591927D01*
X152878941Y-122415300D01*
X152896337Y-122238673D01*
X152947857Y-122068834D01*
X152950762Y-122063400D01*
X153031521Y-121912311D01*
X153031522Y-121912309D01*
X153074818Y-121859553D01*
X153144114Y-121775114D01*
X153245571Y-121691852D01*
X153281309Y-121662522D01*
X153437834Y-121578857D01*
X153607673Y-121527337D01*
X153673858Y-121520818D01*
X153740040Y-121514300D01*
X153828560Y-121514300D01*
X153894742Y-121520818D01*
X153894742Y-121520818D01*
G37*
G36*
X156434742Y-121520818D02*
G01*
X156500927Y-121527337D01*
X156670766Y-121578857D01*
X156827291Y-121662522D01*
X156863029Y-121691852D01*
X156964486Y-121775114D01*
X157033782Y-121859553D01*
X157077078Y-121912309D01*
X157077079Y-121912311D01*
X157157839Y-122063400D01*
X157160743Y-122068834D01*
X157212263Y-122238673D01*
X157229659Y-122415300D01*
X157212263Y-122591927D01*
X157160743Y-122761766D01*
X157077078Y-122918291D01*
X157064426Y-122933707D01*
X156964486Y-123055486D01*
X156863029Y-123138748D01*
X156827291Y-123168078D01*
X156670766Y-123251743D01*
X156500927Y-123303263D01*
X156434742Y-123309782D01*
X156368560Y-123316300D01*
X156280040Y-123316300D01*
X156213858Y-123309782D01*
X156147673Y-123303263D01*
X155977834Y-123251743D01*
X155821309Y-123168078D01*
X155785571Y-123138748D01*
X155684114Y-123055486D01*
X155584174Y-122933707D01*
X155571522Y-122918291D01*
X155487857Y-122761766D01*
X155436337Y-122591927D01*
X155418941Y-122415300D01*
X155436337Y-122238673D01*
X155487857Y-122068834D01*
X155490762Y-122063400D01*
X155571521Y-121912311D01*
X155571522Y-121912309D01*
X155614818Y-121859553D01*
X155684114Y-121775114D01*
X155785571Y-121691852D01*
X155821309Y-121662522D01*
X155977834Y-121578857D01*
X156147673Y-121527337D01*
X156213858Y-121520818D01*
X156280040Y-121514300D01*
X156368560Y-121514300D01*
X156434742Y-121520818D01*
X156434742Y-121520818D01*
G37*
G36*
X161727299Y-121891205D02*
G01*
X161764795Y-121902580D01*
X161799354Y-121921052D01*
X161829647Y-121945913D01*
X161854508Y-121976206D01*
X161872980Y-122010765D01*
X161884355Y-122048261D01*
X161888800Y-122093398D01*
X161888800Y-122732122D01*
X161884355Y-122777259D01*
X161872980Y-122814755D01*
X161854508Y-122849314D01*
X161829647Y-122879607D01*
X161799354Y-122904468D01*
X161764795Y-122922940D01*
X161727299Y-122934315D01*
X161682162Y-122938760D01*
X160943438Y-122938760D01*
X160898301Y-122934315D01*
X160860805Y-122922940D01*
X160826246Y-122904468D01*
X160795953Y-122879607D01*
X160771092Y-122849314D01*
X160752620Y-122814755D01*
X160741245Y-122777259D01*
X160736800Y-122732122D01*
X160736800Y-122093398D01*
X160741245Y-122048261D01*
X160752620Y-122010765D01*
X160771092Y-121976206D01*
X160795953Y-121945913D01*
X160826246Y-121921052D01*
X160860805Y-121902580D01*
X160898301Y-121891205D01*
X160943438Y-121886760D01*
X161682162Y-121886760D01*
X161727299Y-121891205D01*
X161727299Y-121891205D01*
G37*
G36*
X159977299Y-121891205D02*
G01*
X160014795Y-121902580D01*
X160049354Y-121921052D01*
X160079647Y-121945913D01*
X160104508Y-121976206D01*
X160122980Y-122010765D01*
X160134355Y-122048261D01*
X160138800Y-122093398D01*
X160138800Y-122732122D01*
X160134355Y-122777259D01*
X160122980Y-122814755D01*
X160104508Y-122849314D01*
X160079647Y-122879607D01*
X160049354Y-122904468D01*
X160014795Y-122922940D01*
X159977299Y-122934315D01*
X159932162Y-122938760D01*
X159193438Y-122938760D01*
X159148301Y-122934315D01*
X159110805Y-122922940D01*
X159076246Y-122904468D01*
X159045953Y-122879607D01*
X159021092Y-122849314D01*
X159002620Y-122814755D01*
X158991245Y-122777259D01*
X158986800Y-122732122D01*
X158986800Y-122093398D01*
X158991245Y-122048261D01*
X159002620Y-122010765D01*
X159021092Y-121976206D01*
X159045953Y-121945913D01*
X159076246Y-121921052D01*
X159110805Y-121902580D01*
X159148301Y-121891205D01*
X159193438Y-121886760D01*
X159932162Y-121886760D01*
X159977299Y-121891205D01*
X159977299Y-121891205D01*
G37*
G36*
X149154419Y-121804845D02*
G01*
X149191915Y-121816220D01*
X149226474Y-121834692D01*
X149256767Y-121859553D01*
X149281628Y-121889846D01*
X149300100Y-121924405D01*
X149311475Y-121961901D01*
X149315920Y-122007038D01*
X149315920Y-122645762D01*
X149311475Y-122690899D01*
X149300100Y-122728395D01*
X149281628Y-122762954D01*
X149256767Y-122793247D01*
X149226474Y-122818108D01*
X149191915Y-122836580D01*
X149154419Y-122847955D01*
X149109282Y-122852400D01*
X148370558Y-122852400D01*
X148325421Y-122847955D01*
X148287925Y-122836580D01*
X148253366Y-122818108D01*
X148223073Y-122793247D01*
X148198212Y-122762954D01*
X148179740Y-122728395D01*
X148168365Y-122690899D01*
X148163920Y-122645762D01*
X148163920Y-122007038D01*
X148168365Y-121961901D01*
X148179740Y-121924405D01*
X148198212Y-121889846D01*
X148223073Y-121859553D01*
X148253366Y-121834692D01*
X148287925Y-121816220D01*
X148325421Y-121804845D01*
X148370558Y-121800400D01*
X149109282Y-121800400D01*
X149154419Y-121804845D01*
X149154419Y-121804845D01*
G37*
G36*
X150904419Y-121804845D02*
G01*
X150941915Y-121816220D01*
X150976474Y-121834692D01*
X151006767Y-121859553D01*
X151031628Y-121889846D01*
X151050100Y-121924405D01*
X151061475Y-121961901D01*
X151065920Y-122007038D01*
X151065920Y-122645762D01*
X151061475Y-122690899D01*
X151050100Y-122728395D01*
X151031628Y-122762954D01*
X151006767Y-122793247D01*
X150976474Y-122818108D01*
X150941915Y-122836580D01*
X150904419Y-122847955D01*
X150859282Y-122852400D01*
X150120558Y-122852400D01*
X150075421Y-122847955D01*
X150037925Y-122836580D01*
X150003366Y-122818108D01*
X149973073Y-122793247D01*
X149948212Y-122762954D01*
X149929740Y-122728395D01*
X149918365Y-122690899D01*
X149913920Y-122645762D01*
X149913920Y-122007038D01*
X149918365Y-121961901D01*
X149929740Y-121924405D01*
X149948212Y-121889846D01*
X149973073Y-121859553D01*
X150003366Y-121834692D01*
X150037925Y-121816220D01*
X150075421Y-121804845D01*
X150120558Y-121800400D01*
X150859282Y-121800400D01*
X150904419Y-121804845D01*
X150904419Y-121804845D01*
G37*
G36*
X169985642Y-119476118D02*
G01*
X170051827Y-119482637D01*
X170221666Y-119534157D01*
X170378191Y-119617822D01*
X170413929Y-119647152D01*
X170515386Y-119730414D01*
X170598648Y-119831871D01*
X170627978Y-119867609D01*
X170711643Y-120024134D01*
X170763163Y-120193973D01*
X170780559Y-120370600D01*
X170763163Y-120547227D01*
X170711643Y-120717066D01*
X170627978Y-120873591D01*
X170598648Y-120909329D01*
X170515386Y-121010786D01*
X170413929Y-121094048D01*
X170378191Y-121123378D01*
X170221666Y-121207043D01*
X170051827Y-121258563D01*
X169985642Y-121265082D01*
X169919460Y-121271600D01*
X169830940Y-121271600D01*
X169764758Y-121265082D01*
X169698573Y-121258563D01*
X169528734Y-121207043D01*
X169372209Y-121123378D01*
X169336471Y-121094048D01*
X169235014Y-121010786D01*
X169151752Y-120909329D01*
X169122422Y-120873591D01*
X169038757Y-120717066D01*
X168987237Y-120547227D01*
X168969841Y-120370600D01*
X168987237Y-120193973D01*
X169038757Y-120024134D01*
X169122422Y-119867609D01*
X169151752Y-119831871D01*
X169235014Y-119730414D01*
X169336471Y-119647152D01*
X169372209Y-119617822D01*
X169528734Y-119534157D01*
X169698573Y-119482637D01*
X169764758Y-119476118D01*
X169830940Y-119469600D01*
X169919460Y-119469600D01*
X169985642Y-119476118D01*
X169985642Y-119476118D01*
G37*
G36*
X140470843Y-119450719D02*
G01*
X140537027Y-119457237D01*
X140706866Y-119508757D01*
X140863391Y-119592422D01*
X140894341Y-119617822D01*
X141000586Y-119705014D01*
X141083848Y-119806471D01*
X141113178Y-119842209D01*
X141196843Y-119998734D01*
X141248363Y-120168573D01*
X141265759Y-120345200D01*
X141248363Y-120521827D01*
X141196843Y-120691666D01*
X141113178Y-120848191D01*
X141083848Y-120883929D01*
X141000586Y-120985386D01*
X140899129Y-121068648D01*
X140863391Y-121097978D01*
X140706866Y-121181643D01*
X140537027Y-121233163D01*
X140470842Y-121239682D01*
X140404660Y-121246200D01*
X140316140Y-121246200D01*
X140249958Y-121239682D01*
X140183773Y-121233163D01*
X140013934Y-121181643D01*
X139857409Y-121097978D01*
X139821671Y-121068648D01*
X139720214Y-120985386D01*
X139636952Y-120883929D01*
X139607622Y-120848191D01*
X139523957Y-120691666D01*
X139472437Y-120521827D01*
X139455041Y-120345200D01*
X139472437Y-120168573D01*
X139523957Y-119998734D01*
X139607622Y-119842209D01*
X139636952Y-119806471D01*
X139720214Y-119705014D01*
X139826459Y-119617822D01*
X139857409Y-119592422D01*
X140013934Y-119508757D01*
X140183773Y-119457237D01*
X140249957Y-119450719D01*
X140316140Y-119444200D01*
X140404660Y-119444200D01*
X140470843Y-119450719D01*
X140470843Y-119450719D01*
G37*
G36*
X156434743Y-118980819D02*
G01*
X156500927Y-118987337D01*
X156670766Y-119038857D01*
X156827291Y-119122522D01*
X156863029Y-119151852D01*
X156964486Y-119235114D01*
X157047748Y-119336571D01*
X157077078Y-119372309D01*
X157160743Y-119528834D01*
X157212263Y-119698673D01*
X157229659Y-119875300D01*
X157212263Y-120051927D01*
X157160743Y-120221766D01*
X157077078Y-120378291D01*
X157047748Y-120414029D01*
X156964486Y-120515486D01*
X156863029Y-120598748D01*
X156827291Y-120628078D01*
X156670766Y-120711743D01*
X156500927Y-120763263D01*
X156434743Y-120769781D01*
X156368560Y-120776300D01*
X156280040Y-120776300D01*
X156213857Y-120769781D01*
X156147673Y-120763263D01*
X155977834Y-120711743D01*
X155821309Y-120628078D01*
X155785571Y-120598748D01*
X155684114Y-120515486D01*
X155600852Y-120414029D01*
X155571522Y-120378291D01*
X155487857Y-120221766D01*
X155436337Y-120051927D01*
X155418941Y-119875300D01*
X155436337Y-119698673D01*
X155487857Y-119528834D01*
X155571522Y-119372309D01*
X155600852Y-119336571D01*
X155684114Y-119235114D01*
X155785571Y-119151852D01*
X155821309Y-119122522D01*
X155977834Y-119038857D01*
X156147673Y-118987337D01*
X156213857Y-118980819D01*
X156280040Y-118974300D01*
X156368560Y-118974300D01*
X156434743Y-118980819D01*
X156434743Y-118980819D01*
G37*
G36*
X153894743Y-118980819D02*
G01*
X153960927Y-118987337D01*
X154130766Y-119038857D01*
X154287291Y-119122522D01*
X154323029Y-119151852D01*
X154424486Y-119235114D01*
X154507748Y-119336571D01*
X154537078Y-119372309D01*
X154620743Y-119528834D01*
X154672263Y-119698673D01*
X154689659Y-119875300D01*
X154672263Y-120051927D01*
X154620743Y-120221766D01*
X154537078Y-120378291D01*
X154507748Y-120414029D01*
X154424486Y-120515486D01*
X154323029Y-120598748D01*
X154287291Y-120628078D01*
X154130766Y-120711743D01*
X153960927Y-120763263D01*
X153894743Y-120769781D01*
X153828560Y-120776300D01*
X153740040Y-120776300D01*
X153673857Y-120769781D01*
X153607673Y-120763263D01*
X153437834Y-120711743D01*
X153281309Y-120628078D01*
X153245571Y-120598748D01*
X153144114Y-120515486D01*
X153060852Y-120414029D01*
X153031522Y-120378291D01*
X152947857Y-120221766D01*
X152896337Y-120051927D01*
X152878941Y-119875300D01*
X152896337Y-119698673D01*
X152947857Y-119528834D01*
X153031522Y-119372309D01*
X153060852Y-119336571D01*
X153144114Y-119235114D01*
X153245571Y-119151852D01*
X153281309Y-119122522D01*
X153437834Y-119038857D01*
X153607673Y-118987337D01*
X153673857Y-118980819D01*
X153740040Y-118974300D01*
X153828560Y-118974300D01*
X153894743Y-118980819D01*
X153894743Y-118980819D01*
G37*
G36*
X169985643Y-116936119D02*
G01*
X170051827Y-116942637D01*
X170221666Y-116994157D01*
X170378191Y-117077822D01*
X170413929Y-117107152D01*
X170515386Y-117190414D01*
X170598648Y-117291871D01*
X170627978Y-117327609D01*
X170711643Y-117484134D01*
X170763163Y-117653973D01*
X170780559Y-117830600D01*
X170763163Y-118007227D01*
X170711643Y-118177066D01*
X170627978Y-118333591D01*
X170598648Y-118369329D01*
X170515386Y-118470786D01*
X170413929Y-118554048D01*
X170378191Y-118583378D01*
X170221666Y-118667043D01*
X170051827Y-118718563D01*
X169985643Y-118725081D01*
X169919460Y-118731600D01*
X169830940Y-118731600D01*
X169764757Y-118725081D01*
X169698573Y-118718563D01*
X169528734Y-118667043D01*
X169372209Y-118583378D01*
X169336471Y-118554048D01*
X169235014Y-118470786D01*
X169151752Y-118369329D01*
X169122422Y-118333591D01*
X169038757Y-118177066D01*
X168987237Y-118007227D01*
X168969841Y-117830600D01*
X168987237Y-117653973D01*
X169038757Y-117484134D01*
X169122422Y-117327609D01*
X169151752Y-117291871D01*
X169235014Y-117190414D01*
X169336471Y-117107152D01*
X169372209Y-117077822D01*
X169528734Y-116994157D01*
X169698573Y-116942637D01*
X169764757Y-116936119D01*
X169830940Y-116929600D01*
X169919460Y-116929600D01*
X169985643Y-116936119D01*
X169985643Y-116936119D01*
G37*
G36*
X140470842Y-116910718D02*
G01*
X140537027Y-116917237D01*
X140706866Y-116968757D01*
X140863391Y-117052422D01*
X140894341Y-117077822D01*
X141000586Y-117165014D01*
X141083848Y-117266471D01*
X141113178Y-117302209D01*
X141196843Y-117458734D01*
X141248363Y-117628573D01*
X141265759Y-117805200D01*
X141248363Y-117981827D01*
X141196843Y-118151666D01*
X141113178Y-118308191D01*
X141083848Y-118343929D01*
X141000586Y-118445386D01*
X140899129Y-118528648D01*
X140863391Y-118557978D01*
X140706866Y-118641643D01*
X140537027Y-118693163D01*
X140470842Y-118699682D01*
X140404660Y-118706200D01*
X140316140Y-118706200D01*
X140249958Y-118699682D01*
X140183773Y-118693163D01*
X140013934Y-118641643D01*
X139857409Y-118557978D01*
X139821671Y-118528648D01*
X139720214Y-118445386D01*
X139636952Y-118343929D01*
X139607622Y-118308191D01*
X139523957Y-118151666D01*
X139472437Y-117981827D01*
X139455041Y-117805200D01*
X139472437Y-117628573D01*
X139523957Y-117458734D01*
X139607622Y-117302209D01*
X139636952Y-117266471D01*
X139720214Y-117165014D01*
X139826459Y-117077822D01*
X139857409Y-117052422D01*
X140013934Y-116968757D01*
X140183773Y-116917237D01*
X140249958Y-116910718D01*
X140316140Y-116904200D01*
X140404660Y-116904200D01*
X140470842Y-116910718D01*
X140470842Y-116910718D01*
G37*
G36*
X162894960Y-116421200D02*
G01*
X157012960Y-116421200D01*
X157012960Y-114829200D01*
X162894960Y-114829200D01*
X162894960Y-116421200D01*
X162894960Y-116421200D01*
G37*
G36*
X169985642Y-114396118D02*
G01*
X170051827Y-114402637D01*
X170221666Y-114454157D01*
X170378191Y-114537822D01*
X170413929Y-114567152D01*
X170515386Y-114650414D01*
X170598648Y-114751871D01*
X170627978Y-114787609D01*
X170711643Y-114944134D01*
X170763163Y-115113973D01*
X170780559Y-115290600D01*
X170763163Y-115467227D01*
X170711643Y-115637066D01*
X170627978Y-115793591D01*
X170598648Y-115829329D01*
X170515386Y-115930786D01*
X170413929Y-116014048D01*
X170378191Y-116043378D01*
X170221666Y-116127043D01*
X170051827Y-116178563D01*
X169985643Y-116185081D01*
X169919460Y-116191600D01*
X169830940Y-116191600D01*
X169764757Y-116185081D01*
X169698573Y-116178563D01*
X169528734Y-116127043D01*
X169372209Y-116043378D01*
X169336471Y-116014048D01*
X169235014Y-115930786D01*
X169151752Y-115829329D01*
X169122422Y-115793591D01*
X169038757Y-115637066D01*
X168987237Y-115467227D01*
X168969841Y-115290600D01*
X168987237Y-115113973D01*
X169038757Y-114944134D01*
X169122422Y-114787609D01*
X169151752Y-114751871D01*
X169235014Y-114650414D01*
X169336471Y-114567152D01*
X169372209Y-114537822D01*
X169528734Y-114454157D01*
X169698573Y-114402637D01*
X169764758Y-114396118D01*
X169830940Y-114389600D01*
X169919460Y-114389600D01*
X169985642Y-114396118D01*
X169985642Y-114396118D01*
G37*
G36*
X140470843Y-114370719D02*
G01*
X140537027Y-114377237D01*
X140706866Y-114428757D01*
X140863391Y-114512422D01*
X140894341Y-114537822D01*
X141000586Y-114625014D01*
X141083848Y-114726471D01*
X141113178Y-114762209D01*
X141196843Y-114918734D01*
X141248363Y-115088573D01*
X141265759Y-115265200D01*
X141248363Y-115441827D01*
X141196843Y-115611666D01*
X141113178Y-115768191D01*
X141083848Y-115803929D01*
X141000586Y-115905386D01*
X140899129Y-115988648D01*
X140863391Y-116017978D01*
X140706866Y-116101643D01*
X140537027Y-116153163D01*
X140470843Y-116159681D01*
X140404660Y-116166200D01*
X140316140Y-116166200D01*
X140249957Y-116159681D01*
X140183773Y-116153163D01*
X140013934Y-116101643D01*
X139857409Y-116017978D01*
X139821671Y-115988648D01*
X139720214Y-115905386D01*
X139636952Y-115803929D01*
X139607622Y-115768191D01*
X139523957Y-115611666D01*
X139472437Y-115441827D01*
X139455041Y-115265200D01*
X139472437Y-115088573D01*
X139523957Y-114918734D01*
X139607622Y-114762209D01*
X139636952Y-114726471D01*
X139720214Y-114625014D01*
X139826459Y-114537822D01*
X139857409Y-114512422D01*
X140013934Y-114428757D01*
X140183773Y-114377237D01*
X140249957Y-114370719D01*
X140316140Y-114364200D01*
X140404660Y-114364200D01*
X140470843Y-114370719D01*
X140470843Y-114370719D01*
G37*
G36*
X151477800Y-114863200D02*
G01*
X150375800Y-114863200D01*
X150375800Y-113511200D01*
X151477800Y-113511200D01*
X151477800Y-114863200D01*
X151477800Y-114863200D01*
G37*
G36*
X164919960Y-114396200D02*
G01*
X163327960Y-114396200D01*
X163327960Y-108514200D01*
X164919960Y-108514200D01*
X164919960Y-114396200D01*
X164919960Y-114396200D01*
G37*
G36*
X156579960Y-114396200D02*
G01*
X154987960Y-114396200D01*
X154987960Y-108514200D01*
X156579960Y-108514200D01*
X156579960Y-114396200D01*
X156579960Y-114396200D01*
G37*
G36*
X169985642Y-111856118D02*
G01*
X170051827Y-111862637D01*
X170221666Y-111914157D01*
X170378191Y-111997822D01*
X170413929Y-112027152D01*
X170515386Y-112110414D01*
X170598648Y-112211871D01*
X170627978Y-112247609D01*
X170711643Y-112404134D01*
X170763163Y-112573973D01*
X170780559Y-112750600D01*
X170763163Y-112927227D01*
X170711643Y-113097066D01*
X170627978Y-113253591D01*
X170598648Y-113289329D01*
X170515386Y-113390786D01*
X170413929Y-113474048D01*
X170378191Y-113503378D01*
X170221666Y-113587043D01*
X170051827Y-113638563D01*
X169985642Y-113645082D01*
X169919460Y-113651600D01*
X169830940Y-113651600D01*
X169764758Y-113645082D01*
X169698573Y-113638563D01*
X169528734Y-113587043D01*
X169372209Y-113503378D01*
X169336471Y-113474048D01*
X169235014Y-113390786D01*
X169151752Y-113289329D01*
X169122422Y-113253591D01*
X169038757Y-113097066D01*
X168987237Y-112927227D01*
X168969841Y-112750600D01*
X168987237Y-112573973D01*
X169038757Y-112404134D01*
X169122422Y-112247609D01*
X169151752Y-112211871D01*
X169235014Y-112110414D01*
X169336471Y-112027152D01*
X169372209Y-111997822D01*
X169528734Y-111914157D01*
X169698573Y-111862637D01*
X169764758Y-111856118D01*
X169830940Y-111849600D01*
X169919460Y-111849600D01*
X169985642Y-111856118D01*
X169985642Y-111856118D01*
G37*
G36*
X140470843Y-111830719D02*
G01*
X140537027Y-111837237D01*
X140706866Y-111888757D01*
X140863391Y-111972422D01*
X140894341Y-111997822D01*
X141000586Y-112085014D01*
X141083848Y-112186471D01*
X141113178Y-112222209D01*
X141196843Y-112378734D01*
X141248363Y-112548573D01*
X141265759Y-112725200D01*
X141248363Y-112901827D01*
X141196843Y-113071666D01*
X141113178Y-113228191D01*
X141083848Y-113263929D01*
X141000586Y-113365386D01*
X140899129Y-113448648D01*
X140863391Y-113477978D01*
X140706866Y-113561643D01*
X140537027Y-113613163D01*
X140470843Y-113619681D01*
X140404660Y-113626200D01*
X140316140Y-113626200D01*
X140249957Y-113619681D01*
X140183773Y-113613163D01*
X140013934Y-113561643D01*
X139857409Y-113477978D01*
X139821671Y-113448648D01*
X139720214Y-113365386D01*
X139636952Y-113263929D01*
X139607622Y-113228191D01*
X139523957Y-113071666D01*
X139472437Y-112901827D01*
X139455041Y-112725200D01*
X139472437Y-112548573D01*
X139523957Y-112378734D01*
X139607622Y-112222209D01*
X139636952Y-112186471D01*
X139720214Y-112085014D01*
X139826459Y-111997822D01*
X139857409Y-111972422D01*
X140013934Y-111888757D01*
X140183773Y-111837237D01*
X140249957Y-111830719D01*
X140316140Y-111824200D01*
X140404660Y-111824200D01*
X140470843Y-111830719D01*
X140470843Y-111830719D01*
G37*
G36*
X169985643Y-109316119D02*
G01*
X170051827Y-109322637D01*
X170221666Y-109374157D01*
X170378191Y-109457822D01*
X170413929Y-109487152D01*
X170515386Y-109570414D01*
X170598648Y-109671871D01*
X170627978Y-109707609D01*
X170711643Y-109864134D01*
X170763163Y-110033973D01*
X170780559Y-110210600D01*
X170763163Y-110387227D01*
X170711643Y-110557066D01*
X170627978Y-110713591D01*
X170598648Y-110749329D01*
X170515386Y-110850786D01*
X170413929Y-110934048D01*
X170378191Y-110963378D01*
X170221666Y-111047043D01*
X170051827Y-111098563D01*
X169985642Y-111105082D01*
X169919460Y-111111600D01*
X169830940Y-111111600D01*
X169764758Y-111105082D01*
X169698573Y-111098563D01*
X169528734Y-111047043D01*
X169372209Y-110963378D01*
X169336471Y-110934048D01*
X169235014Y-110850786D01*
X169151752Y-110749329D01*
X169122422Y-110713591D01*
X169038757Y-110557066D01*
X168987237Y-110387227D01*
X168969841Y-110210600D01*
X168987237Y-110033973D01*
X169038757Y-109864134D01*
X169122422Y-109707609D01*
X169151752Y-109671871D01*
X169235014Y-109570414D01*
X169336471Y-109487152D01*
X169372209Y-109457822D01*
X169528734Y-109374157D01*
X169698573Y-109322637D01*
X169764757Y-109316119D01*
X169830940Y-109309600D01*
X169919460Y-109309600D01*
X169985643Y-109316119D01*
X169985643Y-109316119D01*
G37*
G36*
X140470843Y-109290719D02*
G01*
X140537027Y-109297237D01*
X140706866Y-109348757D01*
X140863391Y-109432422D01*
X140894341Y-109457822D01*
X141000586Y-109545014D01*
X141083848Y-109646471D01*
X141113178Y-109682209D01*
X141196843Y-109838734D01*
X141248363Y-110008573D01*
X141265759Y-110185200D01*
X141248363Y-110361827D01*
X141196843Y-110531666D01*
X141113178Y-110688191D01*
X141083848Y-110723929D01*
X141000586Y-110825386D01*
X140899129Y-110908648D01*
X140863391Y-110937978D01*
X140706866Y-111021643D01*
X140537027Y-111073163D01*
X140470842Y-111079682D01*
X140404660Y-111086200D01*
X140316140Y-111086200D01*
X140249958Y-111079682D01*
X140183773Y-111073163D01*
X140013934Y-111021643D01*
X139857409Y-110937978D01*
X139821671Y-110908648D01*
X139720214Y-110825386D01*
X139636952Y-110723929D01*
X139607622Y-110688191D01*
X139523957Y-110531666D01*
X139472437Y-110361827D01*
X139455041Y-110185200D01*
X139472437Y-110008573D01*
X139523957Y-109838734D01*
X139607622Y-109682209D01*
X139636952Y-109646471D01*
X139720214Y-109545014D01*
X139826459Y-109457822D01*
X139857409Y-109432422D01*
X140013934Y-109348757D01*
X140183773Y-109297237D01*
X140249957Y-109290719D01*
X140316140Y-109284200D01*
X140404660Y-109284200D01*
X140470843Y-109290719D01*
X140470843Y-109290719D01*
G37*
G36*
X169985643Y-106776119D02*
G01*
X170051827Y-106782637D01*
X170221666Y-106834157D01*
X170378191Y-106917822D01*
X170413929Y-106947152D01*
X170515386Y-107030414D01*
X170598648Y-107131871D01*
X170627978Y-107167609D01*
X170711643Y-107324134D01*
X170763163Y-107493973D01*
X170780559Y-107670600D01*
X170763163Y-107847227D01*
X170711643Y-108017066D01*
X170627978Y-108173591D01*
X170598648Y-108209329D01*
X170515386Y-108310786D01*
X170413929Y-108394048D01*
X170378191Y-108423378D01*
X170221666Y-108507043D01*
X170051827Y-108558563D01*
X169985642Y-108565082D01*
X169919460Y-108571600D01*
X169830940Y-108571600D01*
X169764758Y-108565082D01*
X169698573Y-108558563D01*
X169528734Y-108507043D01*
X169372209Y-108423378D01*
X169336471Y-108394048D01*
X169235014Y-108310786D01*
X169151752Y-108209329D01*
X169122422Y-108173591D01*
X169038757Y-108017066D01*
X168987237Y-107847227D01*
X168969841Y-107670600D01*
X168987237Y-107493973D01*
X169038757Y-107324134D01*
X169122422Y-107167609D01*
X169151752Y-107131871D01*
X169235014Y-107030414D01*
X169336471Y-106947152D01*
X169372209Y-106917822D01*
X169528734Y-106834157D01*
X169698573Y-106782637D01*
X169764757Y-106776119D01*
X169830940Y-106769600D01*
X169919460Y-106769600D01*
X169985643Y-106776119D01*
X169985643Y-106776119D01*
G37*
G36*
X140470842Y-106750718D02*
G01*
X140537027Y-106757237D01*
X140706866Y-106808757D01*
X140863391Y-106892422D01*
X140894341Y-106917822D01*
X141000586Y-107005014D01*
X141083848Y-107106471D01*
X141113178Y-107142209D01*
X141196843Y-107298734D01*
X141248363Y-107468573D01*
X141265759Y-107645200D01*
X141248363Y-107821827D01*
X141196843Y-107991666D01*
X141113178Y-108148191D01*
X141083848Y-108183929D01*
X141000586Y-108285386D01*
X140899129Y-108368648D01*
X140863391Y-108397978D01*
X140706866Y-108481643D01*
X140537027Y-108533163D01*
X140470843Y-108539681D01*
X140404660Y-108546200D01*
X140316140Y-108546200D01*
X140249957Y-108539681D01*
X140183773Y-108533163D01*
X140013934Y-108481643D01*
X139857409Y-108397978D01*
X139821671Y-108368648D01*
X139720214Y-108285386D01*
X139636952Y-108183929D01*
X139607622Y-108148191D01*
X139523957Y-107991666D01*
X139472437Y-107821827D01*
X139455041Y-107645200D01*
X139472437Y-107468573D01*
X139523957Y-107298734D01*
X139607622Y-107142209D01*
X139636952Y-107106471D01*
X139720214Y-107005014D01*
X139826459Y-106917822D01*
X139857409Y-106892422D01*
X140013934Y-106808757D01*
X140183773Y-106757237D01*
X140249958Y-106750718D01*
X140316140Y-106744200D01*
X140404660Y-106744200D01*
X140470842Y-106750718D01*
X140470842Y-106750718D01*
G37*
G36*
X162894960Y-108081200D02*
G01*
X157012960Y-108081200D01*
X157012960Y-106489200D01*
X162894960Y-106489200D01*
X162894960Y-108081200D01*
X162894960Y-108081200D01*
G37*
G36*
X151477800Y-107113200D02*
G01*
X150375800Y-107113200D01*
X150375800Y-105761200D01*
X151477800Y-105761200D01*
X151477800Y-107113200D01*
X151477800Y-107113200D01*
G37*
G36*
X169985642Y-104236118D02*
G01*
X170051827Y-104242637D01*
X170221666Y-104294157D01*
X170221668Y-104294158D01*
X170269977Y-104319980D01*
X170378191Y-104377822D01*
X170413929Y-104407152D01*
X170515386Y-104490414D01*
X170598648Y-104591871D01*
X170627978Y-104627609D01*
X170711643Y-104784134D01*
X170763163Y-104953973D01*
X170780559Y-105130600D01*
X170763163Y-105307227D01*
X170711643Y-105477066D01*
X170627978Y-105633591D01*
X170598648Y-105669329D01*
X170515386Y-105770786D01*
X170413929Y-105854048D01*
X170378191Y-105883378D01*
X170221666Y-105967043D01*
X170051827Y-106018563D01*
X169985643Y-106025081D01*
X169919460Y-106031600D01*
X169830940Y-106031600D01*
X169764757Y-106025081D01*
X169698573Y-106018563D01*
X169528734Y-105967043D01*
X169372209Y-105883378D01*
X169336471Y-105854048D01*
X169235014Y-105770786D01*
X169151752Y-105669329D01*
X169122422Y-105633591D01*
X169038757Y-105477066D01*
X168987237Y-105307227D01*
X168969841Y-105130600D01*
X168987237Y-104953973D01*
X169038757Y-104784134D01*
X169122422Y-104627609D01*
X169151752Y-104591871D01*
X169235014Y-104490414D01*
X169336471Y-104407152D01*
X169372209Y-104377822D01*
X169480423Y-104319980D01*
X169528732Y-104294158D01*
X169528734Y-104294157D01*
X169698573Y-104242637D01*
X169764758Y-104236118D01*
X169830940Y-104229600D01*
X169919460Y-104229600D01*
X169985642Y-104236118D01*
X169985642Y-104236118D01*
G37*
G36*
X140470842Y-104210718D02*
G01*
X140537027Y-104217237D01*
X140706866Y-104268757D01*
X140863391Y-104352422D01*
X140894341Y-104377822D01*
X141000586Y-104465014D01*
X141083848Y-104566471D01*
X141113178Y-104602209D01*
X141196843Y-104758734D01*
X141248363Y-104928573D01*
X141265759Y-105105200D01*
X141248363Y-105281827D01*
X141196843Y-105451666D01*
X141113178Y-105608191D01*
X141083848Y-105643929D01*
X141000586Y-105745386D01*
X140906505Y-105822595D01*
X140863391Y-105857978D01*
X140706866Y-105941643D01*
X140537027Y-105993163D01*
X140470843Y-105999681D01*
X140404660Y-106006200D01*
X140316140Y-106006200D01*
X140249957Y-105999681D01*
X140183773Y-105993163D01*
X140013934Y-105941643D01*
X139857409Y-105857978D01*
X139814295Y-105822595D01*
X139720214Y-105745386D01*
X139636952Y-105643929D01*
X139607622Y-105608191D01*
X139523957Y-105451666D01*
X139472437Y-105281827D01*
X139455041Y-105105200D01*
X139472437Y-104928573D01*
X139523957Y-104758734D01*
X139607622Y-104602209D01*
X139636952Y-104566471D01*
X139720214Y-104465014D01*
X139826459Y-104377822D01*
X139857409Y-104352422D01*
X140013934Y-104268757D01*
X140183773Y-104217237D01*
X140249958Y-104210718D01*
X140316140Y-104204200D01*
X140404660Y-104204200D01*
X140470842Y-104210718D01*
X140470842Y-104210718D01*
G37*
G36*
X146897099Y-104799045D02*
G01*
X146934595Y-104810420D01*
X146969154Y-104828892D01*
X146999447Y-104853753D01*
X147024308Y-104884046D01*
X147042780Y-104918605D01*
X147054155Y-104956101D01*
X147058600Y-105001238D01*
X147058600Y-105739962D01*
X147054155Y-105785099D01*
X147042780Y-105822595D01*
X147024308Y-105857154D01*
X146999447Y-105887447D01*
X146969154Y-105912308D01*
X146934595Y-105930780D01*
X146897099Y-105942155D01*
X146851962Y-105946600D01*
X146213238Y-105946600D01*
X146168101Y-105942155D01*
X146130605Y-105930780D01*
X146096046Y-105912308D01*
X146065753Y-105887447D01*
X146040892Y-105857154D01*
X146022420Y-105822595D01*
X146011045Y-105785099D01*
X146006600Y-105739962D01*
X146006600Y-105001238D01*
X146011045Y-104956101D01*
X146022420Y-104918605D01*
X146040892Y-104884046D01*
X146065753Y-104853753D01*
X146096046Y-104828892D01*
X146130605Y-104810420D01*
X146168101Y-104799045D01*
X146213238Y-104794600D01*
X146851962Y-104794600D01*
X146897099Y-104799045D01*
X146897099Y-104799045D01*
G37*
G36*
X163690440Y-104786200D02*
G01*
X162588440Y-104786200D01*
X162588440Y-102884200D01*
X163690440Y-102884200D01*
X163690440Y-104786200D01*
X163690440Y-104786200D01*
G37*
G36*
X161190440Y-104786200D02*
G01*
X160088440Y-104786200D01*
X160088440Y-102884200D01*
X161190440Y-102884200D01*
X161190440Y-104786200D01*
X161190440Y-104786200D01*
G37*
G36*
X156195299Y-103288245D02*
G01*
X156232795Y-103299620D01*
X156267354Y-103318092D01*
X156297647Y-103342953D01*
X156322508Y-103373246D01*
X156340980Y-103407805D01*
X156352355Y-103445301D01*
X156356800Y-103490438D01*
X156356800Y-104129162D01*
X156352355Y-104174299D01*
X156340980Y-104211795D01*
X156322508Y-104246354D01*
X156297647Y-104276647D01*
X156267354Y-104301508D01*
X156232795Y-104319980D01*
X156195299Y-104331355D01*
X156150162Y-104335800D01*
X155411438Y-104335800D01*
X155366301Y-104331355D01*
X155328805Y-104319980D01*
X155294246Y-104301508D01*
X155263953Y-104276647D01*
X155239092Y-104246354D01*
X155220620Y-104211795D01*
X155209245Y-104174299D01*
X155204800Y-104129162D01*
X155204800Y-103490438D01*
X155209245Y-103445301D01*
X155220620Y-103407805D01*
X155239092Y-103373246D01*
X155263953Y-103342953D01*
X155294246Y-103318092D01*
X155328805Y-103299620D01*
X155366301Y-103288245D01*
X155411438Y-103283800D01*
X156150162Y-103283800D01*
X156195299Y-103288245D01*
X156195299Y-103288245D01*
G37*
G36*
X157945299Y-103288245D02*
G01*
X157982795Y-103299620D01*
X158017354Y-103318092D01*
X158047647Y-103342953D01*
X158072508Y-103373246D01*
X158090980Y-103407805D01*
X158102355Y-103445301D01*
X158106800Y-103490438D01*
X158106800Y-104129162D01*
X158102355Y-104174299D01*
X158090980Y-104211795D01*
X158072508Y-104246354D01*
X158047647Y-104276647D01*
X158017354Y-104301508D01*
X157982795Y-104319980D01*
X157945299Y-104331355D01*
X157900162Y-104335800D01*
X157161438Y-104335800D01*
X157116301Y-104331355D01*
X157078805Y-104319980D01*
X157044246Y-104301508D01*
X157013953Y-104276647D01*
X156989092Y-104246354D01*
X156970620Y-104211795D01*
X156959245Y-104174299D01*
X156954800Y-104129162D01*
X156954800Y-103490438D01*
X156959245Y-103445301D01*
X156970620Y-103407805D01*
X156989092Y-103373246D01*
X157013953Y-103342953D01*
X157044246Y-103318092D01*
X157078805Y-103299620D01*
X157116301Y-103288245D01*
X157161438Y-103283800D01*
X157900162Y-103283800D01*
X157945299Y-103288245D01*
X157945299Y-103288245D01*
G37*
G36*
X146897099Y-103049045D02*
G01*
X146934595Y-103060420D01*
X146969154Y-103078892D01*
X146999447Y-103103753D01*
X147024308Y-103134046D01*
X147042780Y-103168605D01*
X147054155Y-103206101D01*
X147058600Y-103251238D01*
X147058600Y-103989962D01*
X147054155Y-104035099D01*
X147042780Y-104072595D01*
X147024308Y-104107154D01*
X146999447Y-104137447D01*
X146969154Y-104162308D01*
X146934595Y-104180780D01*
X146897099Y-104192155D01*
X146851962Y-104196600D01*
X146213238Y-104196600D01*
X146168101Y-104192155D01*
X146130605Y-104180780D01*
X146096046Y-104162308D01*
X146065753Y-104137447D01*
X146040892Y-104107154D01*
X146022420Y-104072595D01*
X146011045Y-104035099D01*
X146006600Y-103989962D01*
X146006600Y-103251238D01*
X146011045Y-103206101D01*
X146022420Y-103168605D01*
X146040892Y-103134046D01*
X146065753Y-103103753D01*
X146096046Y-103078892D01*
X146130605Y-103060420D01*
X146168101Y-103049045D01*
X146213238Y-103044600D01*
X146851962Y-103044600D01*
X146897099Y-103049045D01*
X146897099Y-103049045D01*
G37*
G36*
X169985642Y-101696118D02*
G01*
X170051827Y-101702637D01*
X170221666Y-101754157D01*
X170378191Y-101837822D01*
X170413929Y-101867152D01*
X170515386Y-101950414D01*
X170571447Y-102018726D01*
X170627978Y-102087609D01*
X170711643Y-102244134D01*
X170763163Y-102413973D01*
X170780559Y-102590600D01*
X170763163Y-102767227D01*
X170711643Y-102937066D01*
X170627978Y-103093591D01*
X170619638Y-103103753D01*
X170515386Y-103230786D01*
X170431510Y-103299620D01*
X170378191Y-103343378D01*
X170378189Y-103343379D01*
X170257658Y-103407805D01*
X170221666Y-103427043D01*
X170051827Y-103478563D01*
X169985643Y-103485081D01*
X169919460Y-103491600D01*
X169830940Y-103491600D01*
X169764757Y-103485081D01*
X169698573Y-103478563D01*
X169528734Y-103427043D01*
X169492743Y-103407805D01*
X169372211Y-103343379D01*
X169372209Y-103343378D01*
X169318890Y-103299620D01*
X169235014Y-103230786D01*
X169130762Y-103103753D01*
X169122422Y-103093591D01*
X169038757Y-102937066D01*
X168987237Y-102767227D01*
X168969841Y-102590600D01*
X168987237Y-102413973D01*
X169038757Y-102244134D01*
X169122422Y-102087609D01*
X169178953Y-102018726D01*
X169235014Y-101950414D01*
X169336471Y-101867152D01*
X169372209Y-101837822D01*
X169528734Y-101754157D01*
X169698573Y-101702637D01*
X169764757Y-101696119D01*
X169830940Y-101689600D01*
X169919460Y-101689600D01*
X169985642Y-101696118D01*
X169985642Y-101696118D01*
G37*
G36*
X140470842Y-101670718D02*
G01*
X140537027Y-101677237D01*
X140706866Y-101728757D01*
X140863391Y-101812422D01*
X140894341Y-101837822D01*
X141000586Y-101925014D01*
X141077492Y-102018726D01*
X141113178Y-102062209D01*
X141196843Y-102218734D01*
X141248363Y-102388573D01*
X141265759Y-102565200D01*
X141248363Y-102741827D01*
X141196843Y-102911666D01*
X141113178Y-103068191D01*
X141083993Y-103103753D01*
X141000586Y-103205386D01*
X140905037Y-103283800D01*
X140863391Y-103317978D01*
X140706866Y-103401643D01*
X140537027Y-103453163D01*
X140470842Y-103459682D01*
X140404660Y-103466200D01*
X140316140Y-103466200D01*
X140249958Y-103459682D01*
X140183773Y-103453163D01*
X140013934Y-103401643D01*
X139857409Y-103317978D01*
X139815763Y-103283800D01*
X139720214Y-103205386D01*
X139636807Y-103103753D01*
X139607622Y-103068191D01*
X139523957Y-102911666D01*
X139472437Y-102741827D01*
X139455041Y-102565200D01*
X139472437Y-102388573D01*
X139523957Y-102218734D01*
X139607622Y-102062209D01*
X139643308Y-102018726D01*
X139720214Y-101925014D01*
X139826459Y-101837822D01*
X139857409Y-101812422D01*
X140013934Y-101728757D01*
X140183773Y-101677237D01*
X140249958Y-101670718D01*
X140316140Y-101664200D01*
X140404660Y-101664200D01*
X140470842Y-101670718D01*
X140470842Y-101670718D01*
G37*
G36*
X156195299Y-101611845D02*
G01*
X156232795Y-101623220D01*
X156267354Y-101641692D01*
X156297647Y-101666553D01*
X156322508Y-101696846D01*
X156340980Y-101731405D01*
X156352355Y-101768901D01*
X156356800Y-101814038D01*
X156356800Y-102452762D01*
X156352355Y-102497899D01*
X156340980Y-102535395D01*
X156322508Y-102569954D01*
X156297647Y-102600247D01*
X156267354Y-102625108D01*
X156232795Y-102643580D01*
X156195299Y-102654955D01*
X156150162Y-102659400D01*
X155411438Y-102659400D01*
X155366301Y-102654955D01*
X155328805Y-102643580D01*
X155294246Y-102625108D01*
X155263953Y-102600247D01*
X155239092Y-102569954D01*
X155220620Y-102535395D01*
X155209245Y-102497899D01*
X155204800Y-102452762D01*
X155204800Y-101814038D01*
X155209245Y-101768901D01*
X155220620Y-101731405D01*
X155239092Y-101696846D01*
X155263953Y-101666553D01*
X155294246Y-101641692D01*
X155328805Y-101623220D01*
X155366301Y-101611845D01*
X155411438Y-101607400D01*
X156150162Y-101607400D01*
X156195299Y-101611845D01*
X156195299Y-101611845D01*
G37*
G36*
X157945299Y-101611845D02*
G01*
X157982795Y-101623220D01*
X158017354Y-101641692D01*
X158047647Y-101666553D01*
X158072508Y-101696846D01*
X158090980Y-101731405D01*
X158102355Y-101768901D01*
X158106800Y-101814038D01*
X158106800Y-102452762D01*
X158102355Y-102497899D01*
X158090980Y-102535395D01*
X158072508Y-102569954D01*
X158047647Y-102600247D01*
X158017354Y-102625108D01*
X157982795Y-102643580D01*
X157945299Y-102654955D01*
X157900162Y-102659400D01*
X157161438Y-102659400D01*
X157116301Y-102654955D01*
X157078805Y-102643580D01*
X157044246Y-102625108D01*
X157013953Y-102600247D01*
X156989092Y-102569954D01*
X156970620Y-102535395D01*
X156959245Y-102497899D01*
X156954800Y-102452762D01*
X156954800Y-101814038D01*
X156959245Y-101768901D01*
X156970620Y-101731405D01*
X156989092Y-101696846D01*
X157013953Y-101666553D01*
X157044246Y-101641692D01*
X157078805Y-101623220D01*
X157116301Y-101611845D01*
X157161438Y-101607400D01*
X157900162Y-101607400D01*
X157945299Y-101611845D01*
X157945299Y-101611845D01*
G37*
G36*
X161004259Y-101038605D02*
G01*
X161041755Y-101049980D01*
X161076314Y-101068452D01*
X161106607Y-101093313D01*
X161131468Y-101123606D01*
X161149940Y-101158165D01*
X161161315Y-101195661D01*
X161165760Y-101240798D01*
X161165760Y-101979522D01*
X161161315Y-102024659D01*
X161149940Y-102062155D01*
X161131468Y-102096714D01*
X161106607Y-102127007D01*
X161076314Y-102151868D01*
X161041755Y-102170340D01*
X161004259Y-102181715D01*
X160959122Y-102186160D01*
X160320398Y-102186160D01*
X160275261Y-102181715D01*
X160237765Y-102170340D01*
X160203206Y-102151868D01*
X160172913Y-102127007D01*
X160148052Y-102096714D01*
X160129580Y-102062155D01*
X160118205Y-102024659D01*
X160113760Y-101979522D01*
X160113760Y-101240798D01*
X160118205Y-101195661D01*
X160129580Y-101158165D01*
X160148052Y-101123606D01*
X160172913Y-101093313D01*
X160203206Y-101068452D01*
X160237765Y-101049980D01*
X160275261Y-101038605D01*
X160320398Y-101034160D01*
X160959122Y-101034160D01*
X161004259Y-101038605D01*
X161004259Y-101038605D01*
G37*
G36*
X163503619Y-101033525D02*
G01*
X163541115Y-101044900D01*
X163575674Y-101063372D01*
X163605967Y-101088233D01*
X163630828Y-101118526D01*
X163649300Y-101153085D01*
X163660675Y-101190581D01*
X163665120Y-101235718D01*
X163665120Y-101974442D01*
X163660675Y-102019579D01*
X163649300Y-102057075D01*
X163630828Y-102091634D01*
X163605967Y-102121927D01*
X163575674Y-102146788D01*
X163541115Y-102165260D01*
X163503619Y-102176635D01*
X163458482Y-102181080D01*
X162819758Y-102181080D01*
X162774621Y-102176635D01*
X162737125Y-102165260D01*
X162702566Y-102146788D01*
X162672273Y-102121927D01*
X162647412Y-102091634D01*
X162628940Y-102057075D01*
X162617565Y-102019579D01*
X162613120Y-101974442D01*
X162613120Y-101235718D01*
X162617565Y-101190581D01*
X162628940Y-101153085D01*
X162647412Y-101118526D01*
X162672273Y-101088233D01*
X162702566Y-101063372D01*
X162737125Y-101044900D01*
X162774621Y-101033525D01*
X162819758Y-101029080D01*
X163458482Y-101029080D01*
X163503619Y-101033525D01*
X163503619Y-101033525D01*
G37*
G36*
X169985643Y-99156119D02*
G01*
X170051827Y-99162637D01*
X170221666Y-99214157D01*
X170378191Y-99297822D01*
X170409361Y-99323403D01*
X170515386Y-99410414D01*
X170577185Y-99485718D01*
X170627978Y-99547609D01*
X170711643Y-99704134D01*
X170763163Y-99873973D01*
X170780559Y-100050600D01*
X170763163Y-100227227D01*
X170711643Y-100397066D01*
X170627978Y-100553591D01*
X170598648Y-100589329D01*
X170515386Y-100690786D01*
X170413929Y-100774048D01*
X170378191Y-100803378D01*
X170221666Y-100887043D01*
X170051827Y-100938563D01*
X169985642Y-100945082D01*
X169919460Y-100951600D01*
X169830940Y-100951600D01*
X169764758Y-100945082D01*
X169698573Y-100938563D01*
X169528734Y-100887043D01*
X169372209Y-100803378D01*
X169336471Y-100774048D01*
X169235014Y-100690786D01*
X169151752Y-100589329D01*
X169122422Y-100553591D01*
X169038757Y-100397066D01*
X168987237Y-100227227D01*
X168969841Y-100050600D01*
X168987237Y-99873973D01*
X169038757Y-99704134D01*
X169122422Y-99547609D01*
X169173215Y-99485718D01*
X169235014Y-99410414D01*
X169341039Y-99323403D01*
X169372209Y-99297822D01*
X169528734Y-99214157D01*
X169698573Y-99162637D01*
X169764758Y-99156118D01*
X169830940Y-99149600D01*
X169919460Y-99149600D01*
X169985643Y-99156119D01*
X169985643Y-99156119D01*
G37*
G36*
X140470842Y-99130718D02*
G01*
X140537027Y-99137237D01*
X140706866Y-99188757D01*
X140863391Y-99272422D01*
X140894341Y-99297822D01*
X141000586Y-99385014D01*
X141083230Y-99485718D01*
X141113178Y-99522209D01*
X141196843Y-99678734D01*
X141248363Y-99848573D01*
X141265759Y-100025200D01*
X141248363Y-100201827D01*
X141205953Y-100341634D01*
X141196842Y-100371668D01*
X141193988Y-100377007D01*
X141113178Y-100528191D01*
X141083848Y-100563929D01*
X141000586Y-100665386D01*
X140899129Y-100748648D01*
X140863391Y-100777978D01*
X140706866Y-100861643D01*
X140537027Y-100913163D01*
X140470842Y-100919682D01*
X140404660Y-100926200D01*
X140316140Y-100926200D01*
X140249958Y-100919682D01*
X140183773Y-100913163D01*
X140013934Y-100861643D01*
X139857409Y-100777978D01*
X139821671Y-100748648D01*
X139720214Y-100665386D01*
X139636952Y-100563929D01*
X139607622Y-100528191D01*
X139526812Y-100377007D01*
X139523958Y-100371668D01*
X139514847Y-100341634D01*
X139472437Y-100201827D01*
X139455041Y-100025200D01*
X139472437Y-99848573D01*
X139523957Y-99678734D01*
X139607622Y-99522209D01*
X139637570Y-99485718D01*
X139720214Y-99385014D01*
X139826459Y-99297822D01*
X139857409Y-99272422D01*
X140013934Y-99188757D01*
X140183773Y-99137237D01*
X140249957Y-99130719D01*
X140316140Y-99124200D01*
X140404660Y-99124200D01*
X140470842Y-99130718D01*
X140470842Y-99130718D01*
G37*
G36*
X161004259Y-99288605D02*
G01*
X161041755Y-99299980D01*
X161076314Y-99318452D01*
X161106607Y-99343313D01*
X161131468Y-99373606D01*
X161149940Y-99408165D01*
X161161315Y-99445661D01*
X161165760Y-99490798D01*
X161165760Y-100229522D01*
X161161315Y-100274659D01*
X161149940Y-100312155D01*
X161131468Y-100346714D01*
X161106607Y-100377007D01*
X161076314Y-100401868D01*
X161041755Y-100420340D01*
X161004259Y-100431715D01*
X160959122Y-100436160D01*
X160320398Y-100436160D01*
X160275261Y-100431715D01*
X160237765Y-100420340D01*
X160203206Y-100401868D01*
X160172913Y-100377007D01*
X160148052Y-100346714D01*
X160129580Y-100312155D01*
X160118205Y-100274659D01*
X160113760Y-100229522D01*
X160113760Y-99490798D01*
X160118205Y-99445661D01*
X160129580Y-99408165D01*
X160148052Y-99373606D01*
X160172913Y-99343313D01*
X160203206Y-99318452D01*
X160237765Y-99299980D01*
X160275261Y-99288605D01*
X160320398Y-99284160D01*
X160959122Y-99284160D01*
X161004259Y-99288605D01*
X161004259Y-99288605D01*
G37*
G36*
X163503619Y-99283525D02*
G01*
X163541115Y-99294900D01*
X163575674Y-99313372D01*
X163605967Y-99338233D01*
X163630828Y-99368526D01*
X163649300Y-99403085D01*
X163660675Y-99440581D01*
X163665120Y-99485718D01*
X163665120Y-100224442D01*
X163660675Y-100269579D01*
X163649300Y-100307075D01*
X163630828Y-100341634D01*
X163605967Y-100371927D01*
X163575674Y-100396788D01*
X163541115Y-100415260D01*
X163503619Y-100426635D01*
X163458482Y-100431080D01*
X162819758Y-100431080D01*
X162774621Y-100426635D01*
X162737125Y-100415260D01*
X162702566Y-100396788D01*
X162672273Y-100371927D01*
X162647412Y-100341634D01*
X162628940Y-100307075D01*
X162617565Y-100269579D01*
X162613120Y-100224442D01*
X162613120Y-99485718D01*
X162617565Y-99440581D01*
X162628940Y-99403085D01*
X162647412Y-99368526D01*
X162672273Y-99338233D01*
X162702566Y-99313372D01*
X162737125Y-99294900D01*
X162774621Y-99283525D01*
X162819758Y-99279080D01*
X163458482Y-99279080D01*
X163503619Y-99283525D01*
X163503619Y-99283525D01*
G37*
G36*
X169985643Y-96616119D02*
G01*
X170051827Y-96622637D01*
X170221666Y-96674157D01*
X170221668Y-96674158D01*
X170299929Y-96715990D01*
X170378191Y-96757822D01*
X170413929Y-96787152D01*
X170515386Y-96870414D01*
X170598648Y-96971871D01*
X170627978Y-97007609D01*
X170711643Y-97164134D01*
X170763163Y-97333973D01*
X170780559Y-97510600D01*
X170763163Y-97687227D01*
X170711643Y-97857066D01*
X170627978Y-98013591D01*
X170598648Y-98049329D01*
X170515386Y-98150786D01*
X170430390Y-98220539D01*
X170378191Y-98263378D01*
X170221666Y-98347043D01*
X170051827Y-98398563D01*
X169985642Y-98405082D01*
X169919460Y-98411600D01*
X169830940Y-98411600D01*
X169764757Y-98405081D01*
X169698573Y-98398563D01*
X169528734Y-98347043D01*
X169372209Y-98263378D01*
X169320010Y-98220539D01*
X169235014Y-98150786D01*
X169151752Y-98049329D01*
X169122422Y-98013591D01*
X169038757Y-97857066D01*
X168987237Y-97687227D01*
X168969841Y-97510600D01*
X168987237Y-97333973D01*
X169038757Y-97164134D01*
X169122422Y-97007609D01*
X169151752Y-96971871D01*
X169235014Y-96870414D01*
X169336471Y-96787152D01*
X169372209Y-96757822D01*
X169450471Y-96715990D01*
X169528732Y-96674158D01*
X169528734Y-96674157D01*
X169698573Y-96622637D01*
X169764757Y-96616119D01*
X169830940Y-96609600D01*
X169919460Y-96609600D01*
X169985643Y-96616119D01*
X169985643Y-96616119D01*
G37*
G36*
X140470843Y-96590719D02*
G01*
X140537027Y-96597237D01*
X140706866Y-96648757D01*
X140863391Y-96732422D01*
X140894341Y-96757822D01*
X141000586Y-96845014D01*
X141083848Y-96946471D01*
X141113178Y-96982209D01*
X141196843Y-97138734D01*
X141248363Y-97308573D01*
X141265759Y-97485200D01*
X141248363Y-97661827D01*
X141196843Y-97831666D01*
X141113178Y-97988191D01*
X141083848Y-98023929D01*
X141000586Y-98125386D01*
X140939640Y-98175402D01*
X140863391Y-98237978D01*
X140706866Y-98321643D01*
X140537027Y-98373163D01*
X140492027Y-98377595D01*
X140404660Y-98386200D01*
X140316140Y-98386200D01*
X140228773Y-98377595D01*
X140183773Y-98373163D01*
X140013934Y-98321643D01*
X139857409Y-98237978D01*
X139781160Y-98175402D01*
X139720214Y-98125386D01*
X139636952Y-98023929D01*
X139607622Y-97988191D01*
X139523957Y-97831666D01*
X139472437Y-97661827D01*
X139455041Y-97485200D01*
X139472437Y-97308573D01*
X139523957Y-97138734D01*
X139607622Y-96982209D01*
X139636952Y-96946471D01*
X139720214Y-96845014D01*
X139826459Y-96757822D01*
X139857409Y-96732422D01*
X140013934Y-96648757D01*
X140183773Y-96597237D01*
X140249957Y-96590719D01*
X140316140Y-96584200D01*
X140404660Y-96584200D01*
X140470843Y-96590719D01*
X140470843Y-96590719D01*
G37*
G36*
X159708059Y-97334485D02*
G01*
X159745555Y-97345860D01*
X159780114Y-97364332D01*
X159810407Y-97389193D01*
X159835268Y-97419486D01*
X159853740Y-97454045D01*
X159865115Y-97491541D01*
X159869560Y-97536678D01*
X159869560Y-98175402D01*
X159865115Y-98220539D01*
X159853740Y-98258035D01*
X159835268Y-98292594D01*
X159810407Y-98322887D01*
X159780114Y-98347748D01*
X159745555Y-98366220D01*
X159708059Y-98377595D01*
X159662922Y-98382040D01*
X158924198Y-98382040D01*
X158879061Y-98377595D01*
X158841565Y-98366220D01*
X158807006Y-98347748D01*
X158776713Y-98322887D01*
X158751852Y-98292594D01*
X158733380Y-98258035D01*
X158722005Y-98220539D01*
X158717560Y-98175402D01*
X158717560Y-97536678D01*
X158722005Y-97491541D01*
X158733380Y-97454045D01*
X158751852Y-97419486D01*
X158776713Y-97389193D01*
X158807006Y-97364332D01*
X158841565Y-97345860D01*
X158879061Y-97334485D01*
X158924198Y-97330040D01*
X159662922Y-97330040D01*
X159708059Y-97334485D01*
X159708059Y-97334485D01*
G37*
G36*
X157958059Y-97334485D02*
G01*
X157995555Y-97345860D01*
X158030114Y-97364332D01*
X158060407Y-97389193D01*
X158085268Y-97419486D01*
X158103740Y-97454045D01*
X158115115Y-97491541D01*
X158119560Y-97536678D01*
X158119560Y-98175402D01*
X158115115Y-98220539D01*
X158103740Y-98258035D01*
X158085268Y-98292594D01*
X158060407Y-98322887D01*
X158030114Y-98347748D01*
X157995555Y-98366220D01*
X157958059Y-98377595D01*
X157912922Y-98382040D01*
X157174198Y-98382040D01*
X157129061Y-98377595D01*
X157091565Y-98366220D01*
X157057006Y-98347748D01*
X157026713Y-98322887D01*
X157001852Y-98292594D01*
X156983380Y-98258035D01*
X156972005Y-98220539D01*
X156967560Y-98175402D01*
X156967560Y-97536678D01*
X156972005Y-97491541D01*
X156983380Y-97454045D01*
X157001852Y-97419486D01*
X157026713Y-97389193D01*
X157057006Y-97364332D01*
X157091565Y-97345860D01*
X157129061Y-97334485D01*
X157174198Y-97330040D01*
X157912922Y-97330040D01*
X157958059Y-97334485D01*
X157958059Y-97334485D01*
G37*
G36*
X161440339Y-97329405D02*
G01*
X161477835Y-97340780D01*
X161512394Y-97359252D01*
X161542687Y-97384113D01*
X161567548Y-97414406D01*
X161586020Y-97448965D01*
X161597395Y-97486461D01*
X161601840Y-97531598D01*
X161601840Y-98170322D01*
X161597395Y-98215459D01*
X161586020Y-98252955D01*
X161567548Y-98287514D01*
X161542687Y-98317807D01*
X161512394Y-98342668D01*
X161477835Y-98361140D01*
X161440339Y-98372515D01*
X161395202Y-98376960D01*
X160656478Y-98376960D01*
X160611341Y-98372515D01*
X160573845Y-98361140D01*
X160539286Y-98342668D01*
X160508993Y-98317807D01*
X160484132Y-98287514D01*
X160465660Y-98252955D01*
X160454285Y-98215459D01*
X160449840Y-98170322D01*
X160449840Y-97531598D01*
X160454285Y-97486461D01*
X160465660Y-97448965D01*
X160484132Y-97414406D01*
X160508993Y-97384113D01*
X160539286Y-97359252D01*
X160573845Y-97340780D01*
X160611341Y-97329405D01*
X160656478Y-97324960D01*
X161395202Y-97324960D01*
X161440339Y-97329405D01*
X161440339Y-97329405D01*
G37*
G36*
X163190339Y-97329405D02*
G01*
X163227835Y-97340780D01*
X163262394Y-97359252D01*
X163292687Y-97384113D01*
X163317548Y-97414406D01*
X163336020Y-97448965D01*
X163347395Y-97486461D01*
X163351840Y-97531598D01*
X163351840Y-98170322D01*
X163347395Y-98215459D01*
X163336020Y-98252955D01*
X163317548Y-98287514D01*
X163292687Y-98317807D01*
X163262394Y-98342668D01*
X163227835Y-98361140D01*
X163190339Y-98372515D01*
X163145202Y-98376960D01*
X162406478Y-98376960D01*
X162361341Y-98372515D01*
X162323845Y-98361140D01*
X162289286Y-98342668D01*
X162258993Y-98317807D01*
X162234132Y-98287514D01*
X162215660Y-98252955D01*
X162204285Y-98215459D01*
X162199840Y-98170322D01*
X162199840Y-97531598D01*
X162204285Y-97486461D01*
X162215660Y-97448965D01*
X162234132Y-97414406D01*
X162258993Y-97384113D01*
X162289286Y-97359252D01*
X162323845Y-97340780D01*
X162361341Y-97329405D01*
X162406478Y-97324960D01*
X163145202Y-97324960D01*
X163190339Y-97329405D01*
X163190339Y-97329405D01*
G37*
G36*
X163187859Y-95632685D02*
G01*
X163225355Y-95644060D01*
X163259914Y-95662532D01*
X163290207Y-95687393D01*
X163315068Y-95717686D01*
X163333540Y-95752245D01*
X163344915Y-95789741D01*
X163349360Y-95834878D01*
X163349360Y-96473602D01*
X163344915Y-96518739D01*
X163333540Y-96556235D01*
X163315068Y-96590794D01*
X163290207Y-96621087D01*
X163259914Y-96645948D01*
X163225355Y-96664420D01*
X163187859Y-96675795D01*
X163142722Y-96680240D01*
X162403998Y-96680240D01*
X162358861Y-96675795D01*
X162321365Y-96664420D01*
X162286806Y-96645948D01*
X162256513Y-96621087D01*
X162231652Y-96590794D01*
X162213180Y-96556235D01*
X162201805Y-96518739D01*
X162197360Y-96473602D01*
X162197360Y-95834878D01*
X162201805Y-95789741D01*
X162213180Y-95752245D01*
X162231652Y-95717686D01*
X162256513Y-95687393D01*
X162286806Y-95662532D01*
X162321365Y-95644060D01*
X162358861Y-95632685D01*
X162403998Y-95628240D01*
X163142722Y-95628240D01*
X163187859Y-95632685D01*
X163187859Y-95632685D01*
G37*
G36*
X161437859Y-95632685D02*
G01*
X161475355Y-95644060D01*
X161509914Y-95662532D01*
X161540207Y-95687393D01*
X161565068Y-95717686D01*
X161583540Y-95752245D01*
X161594915Y-95789741D01*
X161599360Y-95834878D01*
X161599360Y-96473602D01*
X161594915Y-96518739D01*
X161583540Y-96556235D01*
X161565068Y-96590794D01*
X161540207Y-96621087D01*
X161509914Y-96645948D01*
X161475355Y-96664420D01*
X161437859Y-96675795D01*
X161392722Y-96680240D01*
X160653998Y-96680240D01*
X160608861Y-96675795D01*
X160571365Y-96664420D01*
X160536806Y-96645948D01*
X160506513Y-96621087D01*
X160481652Y-96590794D01*
X160463180Y-96556235D01*
X160451805Y-96518739D01*
X160447360Y-96473602D01*
X160447360Y-95834878D01*
X160451805Y-95789741D01*
X160463180Y-95752245D01*
X160481652Y-95717686D01*
X160506513Y-95687393D01*
X160536806Y-95662532D01*
X160571365Y-95644060D01*
X160608861Y-95632685D01*
X160653998Y-95628240D01*
X161392722Y-95628240D01*
X161437859Y-95632685D01*
X161437859Y-95632685D01*
G37*
G36*
X157963139Y-95622525D02*
G01*
X158000635Y-95633900D01*
X158035194Y-95652372D01*
X158065487Y-95677233D01*
X158090348Y-95707526D01*
X158108820Y-95742085D01*
X158120195Y-95779581D01*
X158124640Y-95824718D01*
X158124640Y-96463442D01*
X158120195Y-96508579D01*
X158108820Y-96546075D01*
X158090348Y-96580634D01*
X158065487Y-96610927D01*
X158035194Y-96635788D01*
X158000635Y-96654260D01*
X157963139Y-96665635D01*
X157918002Y-96670080D01*
X157179278Y-96670080D01*
X157134141Y-96665635D01*
X157096645Y-96654260D01*
X157062086Y-96635788D01*
X157031793Y-96610927D01*
X157006932Y-96580634D01*
X156988460Y-96546075D01*
X156977085Y-96508579D01*
X156972640Y-96463442D01*
X156972640Y-95824718D01*
X156977085Y-95779581D01*
X156988460Y-95742085D01*
X157006932Y-95707526D01*
X157031793Y-95677233D01*
X157062086Y-95652372D01*
X157096645Y-95633900D01*
X157134141Y-95622525D01*
X157179278Y-95618080D01*
X157918002Y-95618080D01*
X157963139Y-95622525D01*
X157963139Y-95622525D01*
G37*
G36*
X159713139Y-95622525D02*
G01*
X159750635Y-95633900D01*
X159785194Y-95652372D01*
X159815487Y-95677233D01*
X159840348Y-95707526D01*
X159858820Y-95742085D01*
X159870195Y-95779581D01*
X159874640Y-95824718D01*
X159874640Y-96463442D01*
X159870195Y-96508579D01*
X159858820Y-96546075D01*
X159840348Y-96580634D01*
X159815487Y-96610927D01*
X159785194Y-96635788D01*
X159750635Y-96654260D01*
X159713139Y-96665635D01*
X159668002Y-96670080D01*
X158929278Y-96670080D01*
X158884141Y-96665635D01*
X158846645Y-96654260D01*
X158812086Y-96635788D01*
X158781793Y-96610927D01*
X158756932Y-96580634D01*
X158738460Y-96546075D01*
X158727085Y-96508579D01*
X158722640Y-96463442D01*
X158722640Y-95824718D01*
X158727085Y-95779581D01*
X158738460Y-95742085D01*
X158756932Y-95707526D01*
X158781793Y-95677233D01*
X158812086Y-95652372D01*
X158846645Y-95633900D01*
X158884141Y-95622525D01*
X158929278Y-95618080D01*
X159668002Y-95618080D01*
X159713139Y-95622525D01*
X159713139Y-95622525D01*
G37*
G36*
X169985642Y-94076118D02*
G01*
X170051827Y-94082637D01*
X170221666Y-94134157D01*
X170378191Y-94217822D01*
X170413929Y-94247152D01*
X170515386Y-94330414D01*
X170598648Y-94431871D01*
X170627978Y-94467609D01*
X170711643Y-94624134D01*
X170763163Y-94793973D01*
X170780559Y-94970600D01*
X170763163Y-95147227D01*
X170711643Y-95317066D01*
X170627978Y-95473591D01*
X170598648Y-95509329D01*
X170515386Y-95610786D01*
X170422039Y-95687393D01*
X170378191Y-95723378D01*
X170221666Y-95807043D01*
X170051827Y-95858563D01*
X169985642Y-95865082D01*
X169919460Y-95871600D01*
X169830940Y-95871600D01*
X169764758Y-95865082D01*
X169698573Y-95858563D01*
X169528734Y-95807043D01*
X169372209Y-95723378D01*
X169328361Y-95687393D01*
X169235014Y-95610786D01*
X169151752Y-95509329D01*
X169122422Y-95473591D01*
X169038757Y-95317066D01*
X168987237Y-95147227D01*
X168969841Y-94970600D01*
X168987237Y-94793973D01*
X169038757Y-94624134D01*
X169122422Y-94467609D01*
X169151752Y-94431871D01*
X169235014Y-94330414D01*
X169336471Y-94247152D01*
X169372209Y-94217822D01*
X169528734Y-94134157D01*
X169698573Y-94082637D01*
X169764757Y-94076119D01*
X169830940Y-94069600D01*
X169919460Y-94069600D01*
X169985642Y-94076118D01*
X169985642Y-94076118D01*
G37*
G36*
X140470843Y-94050719D02*
G01*
X140537027Y-94057237D01*
X140706866Y-94108757D01*
X140863391Y-94192422D01*
X140894341Y-94217822D01*
X141000586Y-94305014D01*
X141083848Y-94406471D01*
X141113178Y-94442209D01*
X141196843Y-94598734D01*
X141248363Y-94768573D01*
X141265759Y-94945200D01*
X141248363Y-95121827D01*
X141196843Y-95291666D01*
X141113178Y-95448191D01*
X141083848Y-95483929D01*
X141000586Y-95585386D01*
X140918962Y-95652372D01*
X140863391Y-95697978D01*
X140706866Y-95781643D01*
X140537027Y-95833163D01*
X140470843Y-95839681D01*
X140404660Y-95846200D01*
X140316140Y-95846200D01*
X140249957Y-95839681D01*
X140183773Y-95833163D01*
X140013934Y-95781643D01*
X139857409Y-95697978D01*
X139801838Y-95652372D01*
X139720214Y-95585386D01*
X139636952Y-95483929D01*
X139607622Y-95448191D01*
X139523957Y-95291666D01*
X139472437Y-95121827D01*
X139455041Y-94945200D01*
X139472437Y-94768573D01*
X139523957Y-94598734D01*
X139607622Y-94442209D01*
X139636952Y-94406471D01*
X139720214Y-94305014D01*
X139826459Y-94217822D01*
X139857409Y-94192422D01*
X140013934Y-94108757D01*
X140183773Y-94057237D01*
X140249957Y-94050719D01*
X140316140Y-94044200D01*
X140404660Y-94044200D01*
X140470843Y-94050719D01*
X140470843Y-94050719D01*
G37*
G36*
X161512699Y-93725145D02*
G01*
X161550195Y-93736520D01*
X161584754Y-93754992D01*
X161615047Y-93779853D01*
X161639908Y-93810146D01*
X161658380Y-93844705D01*
X161669755Y-93882201D01*
X161674200Y-93927338D01*
X161674200Y-94566062D01*
X161669755Y-94611199D01*
X161658380Y-94648695D01*
X161639908Y-94683254D01*
X161615047Y-94713547D01*
X161584754Y-94738408D01*
X161550195Y-94756880D01*
X161512699Y-94768255D01*
X161467562Y-94772700D01*
X160728838Y-94772700D01*
X160683701Y-94768255D01*
X160646205Y-94756880D01*
X160611646Y-94738408D01*
X160581353Y-94713547D01*
X160556492Y-94683254D01*
X160538020Y-94648695D01*
X160526645Y-94611199D01*
X160522200Y-94566062D01*
X160522200Y-93927338D01*
X160526645Y-93882201D01*
X160538020Y-93844705D01*
X160556492Y-93810146D01*
X160581353Y-93779853D01*
X160611646Y-93754992D01*
X160646205Y-93736520D01*
X160683701Y-93725145D01*
X160728838Y-93720700D01*
X161467562Y-93720700D01*
X161512699Y-93725145D01*
X161512699Y-93725145D01*
G37*
G36*
X159762699Y-93725145D02*
G01*
X159800195Y-93736520D01*
X159834754Y-93754992D01*
X159865047Y-93779853D01*
X159889908Y-93810146D01*
X159908380Y-93844705D01*
X159919755Y-93882201D01*
X159924200Y-93927338D01*
X159924200Y-94566062D01*
X159919755Y-94611199D01*
X159908380Y-94648695D01*
X159889908Y-94683254D01*
X159865047Y-94713547D01*
X159834754Y-94738408D01*
X159800195Y-94756880D01*
X159762699Y-94768255D01*
X159717562Y-94772700D01*
X158978838Y-94772700D01*
X158933701Y-94768255D01*
X158896205Y-94756880D01*
X158861646Y-94738408D01*
X158831353Y-94713547D01*
X158806492Y-94683254D01*
X158788020Y-94648695D01*
X158776645Y-94611199D01*
X158772200Y-94566062D01*
X158772200Y-93927338D01*
X158776645Y-93882201D01*
X158788020Y-93844705D01*
X158806492Y-93810146D01*
X158831353Y-93779853D01*
X158861646Y-93754992D01*
X158896205Y-93736520D01*
X158933701Y-93725145D01*
X158978838Y-93720700D01*
X159717562Y-93720700D01*
X159762699Y-93725145D01*
X159762699Y-93725145D01*
G37*
G36*
X169985643Y-91536119D02*
G01*
X170051827Y-91542637D01*
X170221666Y-91594157D01*
X170378191Y-91677822D01*
X170400342Y-91696001D01*
X170515386Y-91790414D01*
X170598648Y-91891871D01*
X170627978Y-91927609D01*
X170711643Y-92084134D01*
X170763163Y-92253973D01*
X170780559Y-92430600D01*
X170763163Y-92607227D01*
X170711643Y-92777066D01*
X170627978Y-92933591D01*
X170616063Y-92948109D01*
X170515386Y-93070786D01*
X170413929Y-93154048D01*
X170378191Y-93183378D01*
X170221666Y-93267043D01*
X170051827Y-93318563D01*
X169985642Y-93325082D01*
X169919460Y-93331600D01*
X169830940Y-93331600D01*
X169764757Y-93325081D01*
X169698573Y-93318563D01*
X169528734Y-93267043D01*
X169372209Y-93183378D01*
X169336471Y-93154048D01*
X169235014Y-93070786D01*
X169134337Y-92948109D01*
X169122422Y-92933591D01*
X169038757Y-92777066D01*
X168987237Y-92607227D01*
X168969841Y-92430600D01*
X168987237Y-92253973D01*
X169038757Y-92084134D01*
X169122422Y-91927609D01*
X169151752Y-91891871D01*
X169235014Y-91790414D01*
X169350058Y-91696001D01*
X169372209Y-91677822D01*
X169528734Y-91594157D01*
X169698573Y-91542637D01*
X169764757Y-91536119D01*
X169830940Y-91529600D01*
X169919460Y-91529600D01*
X169985643Y-91536119D01*
X169985643Y-91536119D01*
G37*
G36*
X140470842Y-91510718D02*
G01*
X140537027Y-91517237D01*
X140706866Y-91568757D01*
X140706868Y-91568758D01*
X140725698Y-91578823D01*
X140863391Y-91652422D01*
X140894341Y-91677822D01*
X141000586Y-91765014D01*
X141083848Y-91866471D01*
X141113178Y-91902209D01*
X141196843Y-92058734D01*
X141248363Y-92228573D01*
X141265759Y-92405200D01*
X141248363Y-92581827D01*
X141196843Y-92751666D01*
X141113178Y-92908191D01*
X141083848Y-92943929D01*
X141000586Y-93045386D01*
X140902956Y-93125508D01*
X140863391Y-93157978D01*
X140706866Y-93241643D01*
X140537027Y-93293163D01*
X140470842Y-93299682D01*
X140404660Y-93306200D01*
X140316140Y-93306200D01*
X140249958Y-93299682D01*
X140183773Y-93293163D01*
X140013934Y-93241643D01*
X139857409Y-93157978D01*
X139817844Y-93125508D01*
X139720214Y-93045386D01*
X139636952Y-92943929D01*
X139607622Y-92908191D01*
X139523957Y-92751666D01*
X139472437Y-92581827D01*
X139455041Y-92405200D01*
X139472437Y-92228573D01*
X139523957Y-92058734D01*
X139607622Y-91902209D01*
X139636952Y-91866471D01*
X139720214Y-91765014D01*
X139826459Y-91677822D01*
X139857409Y-91652422D01*
X139995102Y-91578823D01*
X140013932Y-91568758D01*
X140013934Y-91568757D01*
X140183773Y-91517237D01*
X140249958Y-91510718D01*
X140316140Y-91504200D01*
X140404660Y-91504200D01*
X140470842Y-91510718D01*
X140470842Y-91510718D01*
G37*
G36*
X159751299Y-92112245D02*
G01*
X159788795Y-92123620D01*
X159823354Y-92142092D01*
X159853647Y-92166953D01*
X159878508Y-92197246D01*
X159896980Y-92231805D01*
X159908355Y-92269301D01*
X159912800Y-92314438D01*
X159912800Y-92953162D01*
X159908355Y-92998299D01*
X159896980Y-93035795D01*
X159878508Y-93070354D01*
X159853647Y-93100647D01*
X159823354Y-93125508D01*
X159788795Y-93143980D01*
X159751299Y-93155355D01*
X159706162Y-93159800D01*
X158967438Y-93159800D01*
X158922301Y-93155355D01*
X158884805Y-93143980D01*
X158850246Y-93125508D01*
X158819953Y-93100647D01*
X158795092Y-93070354D01*
X158776620Y-93035795D01*
X158765245Y-92998299D01*
X158760800Y-92953162D01*
X158760800Y-92314438D01*
X158765245Y-92269301D01*
X158776620Y-92231805D01*
X158795092Y-92197246D01*
X158819953Y-92166953D01*
X158850246Y-92142092D01*
X158884805Y-92123620D01*
X158922301Y-92112245D01*
X158967438Y-92107800D01*
X159706162Y-92107800D01*
X159751299Y-92112245D01*
X159751299Y-92112245D01*
G37*
G36*
X161501299Y-92112245D02*
G01*
X161538795Y-92123620D01*
X161573354Y-92142092D01*
X161603647Y-92166953D01*
X161628508Y-92197246D01*
X161646980Y-92231805D01*
X161658355Y-92269301D01*
X161662800Y-92314438D01*
X161662800Y-92953162D01*
X161658355Y-92998299D01*
X161646980Y-93035795D01*
X161628508Y-93070354D01*
X161603647Y-93100647D01*
X161573354Y-93125508D01*
X161538795Y-93143980D01*
X161501299Y-93155355D01*
X161456162Y-93159800D01*
X160717438Y-93159800D01*
X160672301Y-93155355D01*
X160634805Y-93143980D01*
X160600246Y-93125508D01*
X160569953Y-93100647D01*
X160545092Y-93070354D01*
X160526620Y-93035795D01*
X160515245Y-92998299D01*
X160510800Y-92953162D01*
X160510800Y-92314438D01*
X160515245Y-92269301D01*
X160526620Y-92231805D01*
X160545092Y-92197246D01*
X160569953Y-92166953D01*
X160600246Y-92142092D01*
X160634805Y-92123620D01*
X160672301Y-92112245D01*
X160717438Y-92107800D01*
X161456162Y-92107800D01*
X161501299Y-92112245D01*
X161501299Y-92112245D01*
G37*
G36*
X154567899Y-91538945D02*
G01*
X154605395Y-91550320D01*
X154639954Y-91568792D01*
X154670247Y-91593653D01*
X154695108Y-91623946D01*
X154713580Y-91658505D01*
X154724955Y-91696001D01*
X154729400Y-91741138D01*
X154729400Y-92479862D01*
X154724955Y-92524999D01*
X154713580Y-92562495D01*
X154695108Y-92597054D01*
X154670247Y-92627347D01*
X154639954Y-92652208D01*
X154605395Y-92670680D01*
X154567899Y-92682055D01*
X154522762Y-92686500D01*
X153884038Y-92686500D01*
X153838901Y-92682055D01*
X153801405Y-92670680D01*
X153766846Y-92652208D01*
X153736553Y-92627347D01*
X153711692Y-92597054D01*
X153693220Y-92562495D01*
X153681845Y-92524999D01*
X153677400Y-92479862D01*
X153677400Y-91741138D01*
X153681845Y-91696001D01*
X153693220Y-91658505D01*
X153711692Y-91623946D01*
X153736553Y-91593653D01*
X153766846Y-91568792D01*
X153801405Y-91550320D01*
X153838901Y-91538945D01*
X153884038Y-91534500D01*
X154522762Y-91534500D01*
X154567899Y-91538945D01*
X154567899Y-91538945D01*
G37*
G36*
X152700200Y-91466700D02*
G01*
X151072200Y-91466700D01*
X151072200Y-86485700D01*
X152700200Y-86485700D01*
X152700200Y-91466700D01*
X152700200Y-91466700D01*
G37*
G36*
X147276200Y-91466700D02*
G01*
X145648200Y-91466700D01*
X145648200Y-86485700D01*
X147276200Y-86485700D01*
X147276200Y-91466700D01*
X147276200Y-91466700D01*
G37*
G36*
X161475899Y-90245345D02*
G01*
X161513395Y-90256720D01*
X161547954Y-90275192D01*
X161578247Y-90300053D01*
X161603108Y-90330346D01*
X161621580Y-90364905D01*
X161632955Y-90402401D01*
X161637400Y-90447538D01*
X161637400Y-91086262D01*
X161632955Y-91131399D01*
X161621580Y-91168895D01*
X161603108Y-91203454D01*
X161578247Y-91233747D01*
X161547954Y-91258608D01*
X161513395Y-91277080D01*
X161475899Y-91288455D01*
X161430762Y-91292900D01*
X160692038Y-91292900D01*
X160646901Y-91288455D01*
X160609405Y-91277080D01*
X160574846Y-91258608D01*
X160544553Y-91233747D01*
X160519692Y-91203454D01*
X160501220Y-91168895D01*
X160489845Y-91131399D01*
X160485400Y-91086262D01*
X160485400Y-90447538D01*
X160489845Y-90402401D01*
X160501220Y-90364905D01*
X160519692Y-90330346D01*
X160544553Y-90300053D01*
X160574846Y-90275192D01*
X160609405Y-90256720D01*
X160646901Y-90245345D01*
X160692038Y-90240900D01*
X161430762Y-90240900D01*
X161475899Y-90245345D01*
X161475899Y-90245345D01*
G37*
G36*
X163225899Y-90245345D02*
G01*
X163263395Y-90256720D01*
X163297954Y-90275192D01*
X163328247Y-90300053D01*
X163353108Y-90330346D01*
X163371580Y-90364905D01*
X163382955Y-90402401D01*
X163387400Y-90447538D01*
X163387400Y-91086262D01*
X163382955Y-91131399D01*
X163371580Y-91168895D01*
X163353108Y-91203454D01*
X163328247Y-91233747D01*
X163297954Y-91258608D01*
X163263395Y-91277080D01*
X163225899Y-91288455D01*
X163180762Y-91292900D01*
X162442038Y-91292900D01*
X162396901Y-91288455D01*
X162359405Y-91277080D01*
X162324846Y-91258608D01*
X162294553Y-91233747D01*
X162269692Y-91203454D01*
X162251220Y-91168895D01*
X162239845Y-91131399D01*
X162235400Y-91086262D01*
X162235400Y-90447538D01*
X162239845Y-90402401D01*
X162251220Y-90364905D01*
X162269692Y-90330346D01*
X162294553Y-90300053D01*
X162324846Y-90275192D01*
X162359405Y-90256720D01*
X162396901Y-90245345D01*
X162442038Y-90240900D01*
X163180762Y-90240900D01*
X163225899Y-90245345D01*
X163225899Y-90245345D01*
G37*
G36*
X154567899Y-89788945D02*
G01*
X154605395Y-89800320D01*
X154639954Y-89818792D01*
X154670247Y-89843653D01*
X154695108Y-89873946D01*
X154713580Y-89908505D01*
X154724955Y-89946001D01*
X154729400Y-89991138D01*
X154729400Y-90729862D01*
X154724955Y-90774999D01*
X154713580Y-90812495D01*
X154695108Y-90847054D01*
X154670247Y-90877347D01*
X154639954Y-90902208D01*
X154605395Y-90920680D01*
X154567899Y-90932055D01*
X154522762Y-90936500D01*
X153884038Y-90936500D01*
X153838901Y-90932055D01*
X153801405Y-90920680D01*
X153766846Y-90902208D01*
X153736553Y-90877347D01*
X153711692Y-90847054D01*
X153693220Y-90812495D01*
X153681845Y-90774999D01*
X153677400Y-90729862D01*
X153677400Y-89991138D01*
X153681845Y-89946001D01*
X153693220Y-89908505D01*
X153711692Y-89873946D01*
X153736553Y-89843653D01*
X153766846Y-89818792D01*
X153801405Y-89800320D01*
X153838901Y-89788945D01*
X153884038Y-89784500D01*
X154522762Y-89784500D01*
X154567899Y-89788945D01*
X154567899Y-89788945D01*
G37*
G36*
X169985643Y-88996119D02*
G01*
X170051827Y-89002637D01*
X170221666Y-89054157D01*
X170378191Y-89137822D01*
X170413929Y-89167152D01*
X170515386Y-89250414D01*
X170598648Y-89351871D01*
X170627978Y-89387609D01*
X170711643Y-89544134D01*
X170763163Y-89713973D01*
X170780559Y-89890600D01*
X170763163Y-90067227D01*
X170719348Y-90211666D01*
X170711642Y-90237068D01*
X170669810Y-90315329D01*
X170627978Y-90393591D01*
X170598648Y-90429329D01*
X170515386Y-90530786D01*
X170413929Y-90614048D01*
X170378191Y-90643378D01*
X170378189Y-90643379D01*
X170225846Y-90724809D01*
X170221666Y-90727043D01*
X170051827Y-90778563D01*
X169985643Y-90785081D01*
X169919460Y-90791600D01*
X169830940Y-90791600D01*
X169764758Y-90785082D01*
X169698573Y-90778563D01*
X169528734Y-90727043D01*
X169524555Y-90724809D01*
X169372211Y-90643379D01*
X169372209Y-90643378D01*
X169336471Y-90614048D01*
X169235014Y-90530786D01*
X169151752Y-90429329D01*
X169122422Y-90393591D01*
X169080589Y-90315328D01*
X169038758Y-90237068D01*
X169031052Y-90211666D01*
X168987237Y-90067227D01*
X168969841Y-89890600D01*
X168987237Y-89713973D01*
X169038757Y-89544134D01*
X169122422Y-89387609D01*
X169151752Y-89351871D01*
X169235014Y-89250414D01*
X169336471Y-89167152D01*
X169372209Y-89137822D01*
X169528734Y-89054157D01*
X169698573Y-89002637D01*
X169764757Y-88996119D01*
X169830940Y-88989600D01*
X169919460Y-88989600D01*
X169985643Y-88996119D01*
X169985643Y-88996119D01*
G37*
G36*
X140470843Y-88970719D02*
G01*
X140537027Y-88977237D01*
X140706866Y-89028757D01*
X140706868Y-89028758D01*
X140754386Y-89054157D01*
X140863391Y-89112422D01*
X140894341Y-89137822D01*
X141000586Y-89225014D01*
X141064758Y-89303209D01*
X141113178Y-89362209D01*
X141113179Y-89362211D01*
X141163176Y-89455747D01*
X141196843Y-89518734D01*
X141248363Y-89688573D01*
X141265759Y-89865200D01*
X141248363Y-90041827D01*
X141196843Y-90211666D01*
X141113178Y-90368191D01*
X141085102Y-90402401D01*
X141000586Y-90505386D01*
X140899129Y-90588648D01*
X140863391Y-90617978D01*
X140706866Y-90701643D01*
X140537027Y-90753163D01*
X140470842Y-90759682D01*
X140404660Y-90766200D01*
X140316140Y-90766200D01*
X140249958Y-90759682D01*
X140183773Y-90753163D01*
X140013934Y-90701643D01*
X139857409Y-90617978D01*
X139821671Y-90588648D01*
X139720214Y-90505386D01*
X139635698Y-90402401D01*
X139607622Y-90368191D01*
X139523957Y-90211666D01*
X139472437Y-90041827D01*
X139455041Y-89865200D01*
X139472437Y-89688573D01*
X139523957Y-89518734D01*
X139557625Y-89455747D01*
X139607621Y-89362211D01*
X139607622Y-89362209D01*
X139656042Y-89303209D01*
X139720214Y-89225014D01*
X139826459Y-89137822D01*
X139857409Y-89112422D01*
X139966414Y-89054157D01*
X140013932Y-89028758D01*
X140013934Y-89028757D01*
X140183773Y-88977237D01*
X140249957Y-88970719D01*
X140316140Y-88964200D01*
X140404660Y-88964200D01*
X140470843Y-88970719D01*
X140470843Y-88970719D01*
G37*
G36*
X161474599Y-88467345D02*
G01*
X161512095Y-88478720D01*
X161546654Y-88497192D01*
X161576947Y-88522053D01*
X161601808Y-88552346D01*
X161620280Y-88586905D01*
X161631655Y-88624401D01*
X161636100Y-88669538D01*
X161636100Y-89308262D01*
X161631655Y-89353399D01*
X161620280Y-89390895D01*
X161601808Y-89425454D01*
X161576947Y-89455747D01*
X161546654Y-89480608D01*
X161512095Y-89499080D01*
X161474599Y-89510455D01*
X161429462Y-89514900D01*
X160690738Y-89514900D01*
X160645601Y-89510455D01*
X160608105Y-89499080D01*
X160573546Y-89480608D01*
X160543253Y-89455747D01*
X160518392Y-89425454D01*
X160499920Y-89390895D01*
X160488545Y-89353399D01*
X160484100Y-89308262D01*
X160484100Y-88669538D01*
X160488545Y-88624401D01*
X160499920Y-88586905D01*
X160518392Y-88552346D01*
X160543253Y-88522053D01*
X160573546Y-88497192D01*
X160608105Y-88478720D01*
X160645601Y-88467345D01*
X160690738Y-88462900D01*
X161429462Y-88462900D01*
X161474599Y-88467345D01*
X161474599Y-88467345D01*
G37*
G36*
X159724599Y-88467345D02*
G01*
X159762095Y-88478720D01*
X159796654Y-88497192D01*
X159826947Y-88522053D01*
X159851808Y-88552346D01*
X159870280Y-88586905D01*
X159881655Y-88624401D01*
X159886100Y-88669538D01*
X159886100Y-89308262D01*
X159881655Y-89353399D01*
X159870280Y-89390895D01*
X159851808Y-89425454D01*
X159826947Y-89455747D01*
X159796654Y-89480608D01*
X159762095Y-89499080D01*
X159724599Y-89510455D01*
X159679462Y-89514900D01*
X158940738Y-89514900D01*
X158895601Y-89510455D01*
X158858105Y-89499080D01*
X158823546Y-89480608D01*
X158793253Y-89455747D01*
X158768392Y-89425454D01*
X158749920Y-89390895D01*
X158738545Y-89353399D01*
X158734100Y-89308262D01*
X158734100Y-88669538D01*
X158738545Y-88624401D01*
X158749920Y-88586905D01*
X158768392Y-88552346D01*
X158793253Y-88522053D01*
X158823546Y-88497192D01*
X158858105Y-88478720D01*
X158895601Y-88467345D01*
X158940738Y-88462900D01*
X159679462Y-88462900D01*
X159724599Y-88467345D01*
X159724599Y-88467345D01*
G37*
G36*
X156256999Y-88098545D02*
G01*
X156294495Y-88109920D01*
X156329054Y-88128392D01*
X156359347Y-88153253D01*
X156384208Y-88183546D01*
X156402680Y-88218105D01*
X156414055Y-88255601D01*
X156418500Y-88300738D01*
X156418500Y-89039462D01*
X156414055Y-89084599D01*
X156402680Y-89122095D01*
X156384208Y-89156654D01*
X156359347Y-89186947D01*
X156329054Y-89211808D01*
X156294495Y-89230280D01*
X156256999Y-89241655D01*
X156211862Y-89246100D01*
X155573138Y-89246100D01*
X155528001Y-89241655D01*
X155490505Y-89230280D01*
X155455946Y-89211808D01*
X155425653Y-89186947D01*
X155400792Y-89156654D01*
X155382320Y-89122095D01*
X155370945Y-89084599D01*
X155366500Y-89039462D01*
X155366500Y-88300738D01*
X155370945Y-88255601D01*
X155382320Y-88218105D01*
X155400792Y-88183546D01*
X155425653Y-88153253D01*
X155455946Y-88128392D01*
X155490505Y-88109920D01*
X155528001Y-88098545D01*
X155573138Y-88094100D01*
X156211862Y-88094100D01*
X156256999Y-88098545D01*
X156256999Y-88098545D01*
G37*
G36*
X154567899Y-88097245D02*
G01*
X154605395Y-88108620D01*
X154639954Y-88127092D01*
X154670247Y-88151953D01*
X154695108Y-88182246D01*
X154713580Y-88216805D01*
X154724955Y-88254301D01*
X154729400Y-88299438D01*
X154729400Y-89038162D01*
X154724955Y-89083299D01*
X154713580Y-89120795D01*
X154695108Y-89155354D01*
X154670247Y-89185647D01*
X154639954Y-89210508D01*
X154605395Y-89228980D01*
X154567899Y-89240355D01*
X154522762Y-89244800D01*
X153884038Y-89244800D01*
X153838901Y-89240355D01*
X153801405Y-89228980D01*
X153766846Y-89210508D01*
X153736553Y-89185647D01*
X153711692Y-89155354D01*
X153693220Y-89120795D01*
X153681845Y-89083299D01*
X153677400Y-89038162D01*
X153677400Y-88299438D01*
X153681845Y-88254301D01*
X153693220Y-88216805D01*
X153711692Y-88182246D01*
X153736553Y-88151953D01*
X153766846Y-88127092D01*
X153801405Y-88108620D01*
X153838901Y-88097245D01*
X153884038Y-88092800D01*
X154522762Y-88092800D01*
X154567899Y-88097245D01*
X154567899Y-88097245D01*
G37*
G36*
X169985643Y-86456119D02*
G01*
X170051827Y-86462637D01*
X170221666Y-86514157D01*
X170378191Y-86597822D01*
X170387912Y-86605800D01*
X170515386Y-86710414D01*
X170598648Y-86811871D01*
X170627978Y-86847609D01*
X170711643Y-87004134D01*
X170763163Y-87173973D01*
X170780559Y-87350600D01*
X170763163Y-87527227D01*
X170711643Y-87697066D01*
X170627978Y-87853591D01*
X170598648Y-87889329D01*
X170515386Y-87990786D01*
X170413929Y-88074048D01*
X170378191Y-88103378D01*
X170378189Y-88103379D01*
X170230641Y-88182246D01*
X170221666Y-88187043D01*
X170051827Y-88238563D01*
X169985643Y-88245081D01*
X169919460Y-88251600D01*
X169830940Y-88251600D01*
X169764757Y-88245081D01*
X169698573Y-88238563D01*
X169528734Y-88187043D01*
X169519760Y-88182246D01*
X169372211Y-88103379D01*
X169372209Y-88103378D01*
X169336471Y-88074048D01*
X169235014Y-87990786D01*
X169151752Y-87889329D01*
X169122422Y-87853591D01*
X169038757Y-87697066D01*
X168987237Y-87527227D01*
X168969841Y-87350600D01*
X168987237Y-87173973D01*
X169038757Y-87004134D01*
X169122422Y-86847609D01*
X169151752Y-86811871D01*
X169235014Y-86710414D01*
X169362488Y-86605800D01*
X169372209Y-86597822D01*
X169528734Y-86514157D01*
X169698573Y-86462637D01*
X169764757Y-86456119D01*
X169830940Y-86449600D01*
X169919460Y-86449600D01*
X169985643Y-86456119D01*
X169985643Y-86456119D01*
G37*
G36*
X140470842Y-86430718D02*
G01*
X140537027Y-86437237D01*
X140706866Y-86488757D01*
X140863391Y-86572422D01*
X140894341Y-86597822D01*
X141000586Y-86685014D01*
X141083848Y-86786471D01*
X141113178Y-86822209D01*
X141196843Y-86978734D01*
X141248363Y-87148573D01*
X141265759Y-87325200D01*
X141248363Y-87501827D01*
X141196843Y-87671666D01*
X141113178Y-87828191D01*
X141083848Y-87863929D01*
X141000586Y-87965386D01*
X140899129Y-88048648D01*
X140863391Y-88077978D01*
X140863389Y-88077979D01*
X140722563Y-88153253D01*
X140706866Y-88161643D01*
X140537027Y-88213163D01*
X140486849Y-88218105D01*
X140404660Y-88226200D01*
X140316140Y-88226200D01*
X140233951Y-88218105D01*
X140183773Y-88213163D01*
X140013934Y-88161643D01*
X139998238Y-88153253D01*
X139857411Y-88077979D01*
X139857409Y-88077978D01*
X139821671Y-88048648D01*
X139720214Y-87965386D01*
X139636952Y-87863929D01*
X139607622Y-87828191D01*
X139523957Y-87671666D01*
X139472437Y-87501827D01*
X139455041Y-87325200D01*
X139472437Y-87148573D01*
X139523957Y-86978734D01*
X139607622Y-86822209D01*
X139636952Y-86786471D01*
X139720214Y-86685014D01*
X139826459Y-86597822D01*
X139857409Y-86572422D01*
X140013934Y-86488757D01*
X140183773Y-86437237D01*
X140249958Y-86430718D01*
X140316140Y-86424200D01*
X140404660Y-86424200D01*
X140470842Y-86430718D01*
X140470842Y-86430718D01*
G37*
G36*
X163931800Y-87604800D02*
G01*
X163271000Y-87604800D01*
X163271000Y-85521600D01*
X163931800Y-85521600D01*
X163931800Y-87604800D01*
X163931800Y-87604800D01*
G37*
G36*
X162661800Y-87604800D02*
G01*
X162001000Y-87604800D01*
X162001000Y-85521600D01*
X162661800Y-85521600D01*
X162661800Y-87604800D01*
X162661800Y-87604800D01*
G37*
G36*
X161391800Y-87604800D02*
G01*
X160731000Y-87604800D01*
X160731000Y-85521600D01*
X161391800Y-85521600D01*
X161391800Y-87604800D01*
X161391800Y-87604800D01*
G37*
G36*
X160121800Y-87604800D02*
G01*
X159461000Y-87604800D01*
X159461000Y-85521600D01*
X160121800Y-85521600D01*
X160121800Y-87604800D01*
X160121800Y-87604800D01*
G37*
G36*
X156256999Y-86348545D02*
G01*
X156294495Y-86359920D01*
X156329054Y-86378392D01*
X156359347Y-86403253D01*
X156384208Y-86433546D01*
X156402680Y-86468105D01*
X156414055Y-86505601D01*
X156418500Y-86550738D01*
X156418500Y-87289462D01*
X156414055Y-87334599D01*
X156402680Y-87372095D01*
X156384208Y-87406654D01*
X156359347Y-87436947D01*
X156329054Y-87461808D01*
X156294495Y-87480280D01*
X156256999Y-87491655D01*
X156211862Y-87496100D01*
X155573138Y-87496100D01*
X155528001Y-87491655D01*
X155490505Y-87480280D01*
X155455946Y-87461808D01*
X155425653Y-87436947D01*
X155400792Y-87406654D01*
X155382320Y-87372095D01*
X155370945Y-87334599D01*
X155366500Y-87289462D01*
X155366500Y-86550738D01*
X155370945Y-86505601D01*
X155382320Y-86468105D01*
X155400792Y-86433546D01*
X155425653Y-86403253D01*
X155455946Y-86378392D01*
X155490505Y-86359920D01*
X155528001Y-86348545D01*
X155573138Y-86344100D01*
X156211862Y-86344100D01*
X156256999Y-86348545D01*
X156256999Y-86348545D01*
G37*
G36*
X154567899Y-86347245D02*
G01*
X154605395Y-86358620D01*
X154639954Y-86377092D01*
X154670247Y-86401953D01*
X154695108Y-86432246D01*
X154713580Y-86466805D01*
X154724955Y-86504301D01*
X154729400Y-86549438D01*
X154729400Y-87288162D01*
X154724955Y-87333299D01*
X154713580Y-87370795D01*
X154695108Y-87405354D01*
X154670247Y-87435647D01*
X154639954Y-87460508D01*
X154605395Y-87478980D01*
X154567899Y-87490355D01*
X154522762Y-87494800D01*
X153884038Y-87494800D01*
X153838901Y-87490355D01*
X153801405Y-87478980D01*
X153766846Y-87460508D01*
X153736553Y-87435647D01*
X153711692Y-87405354D01*
X153693220Y-87370795D01*
X153681845Y-87333299D01*
X153677400Y-87288162D01*
X153677400Y-86549438D01*
X153681845Y-86504301D01*
X153693220Y-86466805D01*
X153711692Y-86432246D01*
X153736553Y-86401953D01*
X153766846Y-86377092D01*
X153801405Y-86358620D01*
X153838901Y-86347245D01*
X153884038Y-86342800D01*
X154522762Y-86342800D01*
X154567899Y-86347245D01*
X154567899Y-86347245D01*
G37*
G36*
X169985642Y-83916118D02*
G01*
X170051827Y-83922637D01*
X170221666Y-83974157D01*
X170378191Y-84057822D01*
X170413929Y-84087152D01*
X170515386Y-84170414D01*
X170598648Y-84271871D01*
X170627978Y-84307609D01*
X170711643Y-84464134D01*
X170763163Y-84633973D01*
X170780559Y-84810600D01*
X170763163Y-84987227D01*
X170711643Y-85157066D01*
X170627978Y-85313591D01*
X170598648Y-85349329D01*
X170515386Y-85450786D01*
X170413929Y-85534048D01*
X170378191Y-85563378D01*
X170221666Y-85647043D01*
X170051827Y-85698563D01*
X169985642Y-85705082D01*
X169919460Y-85711600D01*
X169830940Y-85711600D01*
X169764758Y-85705082D01*
X169698573Y-85698563D01*
X169528734Y-85647043D01*
X169372209Y-85563378D01*
X169336471Y-85534048D01*
X169235014Y-85450786D01*
X169151752Y-85349329D01*
X169122422Y-85313591D01*
X169038757Y-85157066D01*
X168987237Y-84987227D01*
X168969841Y-84810600D01*
X168987237Y-84633973D01*
X169038757Y-84464134D01*
X169122422Y-84307609D01*
X169151752Y-84271871D01*
X169235014Y-84170414D01*
X169336471Y-84087152D01*
X169372209Y-84057822D01*
X169528734Y-83974157D01*
X169698573Y-83922637D01*
X169764758Y-83916118D01*
X169830940Y-83909600D01*
X169919460Y-83909600D01*
X169985642Y-83916118D01*
X169985642Y-83916118D01*
G37*
G36*
X140470843Y-83890719D02*
G01*
X140537027Y-83897237D01*
X140706866Y-83948757D01*
X140863391Y-84032422D01*
X140894341Y-84057822D01*
X141000586Y-84145014D01*
X141072390Y-84232509D01*
X141113178Y-84282209D01*
X141113179Y-84282211D01*
X141192004Y-84429680D01*
X141196843Y-84438734D01*
X141248363Y-84608573D01*
X141265759Y-84785200D01*
X141248363Y-84961827D01*
X141196843Y-85131666D01*
X141113178Y-85288191D01*
X141083848Y-85323929D01*
X141000586Y-85425386D01*
X140899129Y-85508648D01*
X140863391Y-85537978D01*
X140706866Y-85621643D01*
X140537027Y-85673163D01*
X140470843Y-85679681D01*
X140404660Y-85686200D01*
X140316140Y-85686200D01*
X140249957Y-85679681D01*
X140183773Y-85673163D01*
X140013934Y-85621643D01*
X139857409Y-85537978D01*
X139821671Y-85508648D01*
X139720214Y-85425386D01*
X139636952Y-85323929D01*
X139607622Y-85288191D01*
X139523957Y-85131666D01*
X139472437Y-84961827D01*
X139455041Y-84785200D01*
X139472437Y-84608573D01*
X139523957Y-84438734D01*
X139528797Y-84429680D01*
X139607621Y-84282211D01*
X139607622Y-84282209D01*
X139648410Y-84232509D01*
X139720214Y-84145014D01*
X139826459Y-84057822D01*
X139857409Y-84032422D01*
X140013934Y-83948757D01*
X140183773Y-83897237D01*
X140249957Y-83890719D01*
X140316140Y-83884200D01*
X140404660Y-83884200D01*
X140470843Y-83890719D01*
X140470843Y-83890719D01*
G37*
G36*
X149602199Y-83297945D02*
G01*
X149639695Y-83309320D01*
X149674254Y-83327792D01*
X149704547Y-83352653D01*
X149729408Y-83382946D01*
X149747880Y-83417505D01*
X149759255Y-83455001D01*
X149763700Y-83500138D01*
X149763700Y-84238862D01*
X149759255Y-84283999D01*
X149747880Y-84321495D01*
X149729408Y-84356054D01*
X149704547Y-84386347D01*
X149674254Y-84411208D01*
X149639695Y-84429680D01*
X149602199Y-84441055D01*
X149557062Y-84445500D01*
X148918338Y-84445500D01*
X148873201Y-84441055D01*
X148835705Y-84429680D01*
X148801146Y-84411208D01*
X148770853Y-84386347D01*
X148745992Y-84356054D01*
X148727520Y-84321495D01*
X148716145Y-84283999D01*
X148711700Y-84238862D01*
X148711700Y-83500138D01*
X148716145Y-83455001D01*
X148727520Y-83417505D01*
X148745992Y-83382946D01*
X148770853Y-83352653D01*
X148801146Y-83327792D01*
X148835705Y-83309320D01*
X148873201Y-83297945D01*
X148918338Y-83293500D01*
X149557062Y-83293500D01*
X149602199Y-83297945D01*
X149602199Y-83297945D01*
G37*
G36*
X148040099Y-83296645D02*
G01*
X148077595Y-83308020D01*
X148112154Y-83326492D01*
X148142447Y-83351353D01*
X148167308Y-83381646D01*
X148185780Y-83416205D01*
X148197155Y-83453701D01*
X148201600Y-83498838D01*
X148201600Y-84237562D01*
X148197155Y-84282699D01*
X148185780Y-84320195D01*
X148167308Y-84354754D01*
X148142447Y-84385047D01*
X148112154Y-84409908D01*
X148077595Y-84428380D01*
X148040099Y-84439755D01*
X147994962Y-84444200D01*
X147356238Y-84444200D01*
X147311101Y-84439755D01*
X147273605Y-84428380D01*
X147239046Y-84409908D01*
X147208753Y-84385047D01*
X147183892Y-84354754D01*
X147165420Y-84320195D01*
X147154045Y-84282699D01*
X147149600Y-84237562D01*
X147149600Y-83498838D01*
X147154045Y-83453701D01*
X147165420Y-83416205D01*
X147183892Y-83381646D01*
X147208753Y-83351353D01*
X147239046Y-83326492D01*
X147273605Y-83308020D01*
X147311101Y-83296645D01*
X147356238Y-83292200D01*
X147994962Y-83292200D01*
X148040099Y-83296645D01*
X148040099Y-83296645D01*
G37*
G36*
X170776200Y-83171600D02*
G01*
X168974200Y-83171600D01*
X168974200Y-81369600D01*
X170776200Y-81369600D01*
X170776200Y-83171600D01*
X170776200Y-83171600D01*
G37*
G36*
X141261400Y-83146200D02*
G01*
X139459400Y-83146200D01*
X139459400Y-81344200D01*
X141261400Y-81344200D01*
X141261400Y-83146200D01*
X141261400Y-83146200D01*
G37*
G36*
X149602199Y-81547945D02*
G01*
X149639695Y-81559320D01*
X149674254Y-81577792D01*
X149704547Y-81602653D01*
X149729408Y-81632946D01*
X149747880Y-81667505D01*
X149759255Y-81705001D01*
X149763700Y-81750138D01*
X149763700Y-82488862D01*
X149759255Y-82533999D01*
X149747880Y-82571495D01*
X149729408Y-82606054D01*
X149704547Y-82636347D01*
X149674254Y-82661208D01*
X149639695Y-82679680D01*
X149602199Y-82691055D01*
X149557062Y-82695500D01*
X148918338Y-82695500D01*
X148873201Y-82691055D01*
X148835705Y-82679680D01*
X148801146Y-82661208D01*
X148770853Y-82636347D01*
X148745992Y-82606054D01*
X148727520Y-82571495D01*
X148716145Y-82533999D01*
X148711700Y-82488862D01*
X148711700Y-81750138D01*
X148716145Y-81705001D01*
X148727520Y-81667505D01*
X148745992Y-81632946D01*
X148770853Y-81602653D01*
X148801146Y-81577792D01*
X148835705Y-81559320D01*
X148873201Y-81547945D01*
X148918338Y-81543500D01*
X149557062Y-81543500D01*
X149602199Y-81547945D01*
X149602199Y-81547945D01*
G37*
G36*
X148040099Y-81546645D02*
G01*
X148077595Y-81558020D01*
X148112154Y-81576492D01*
X148142447Y-81601353D01*
X148167308Y-81631646D01*
X148185780Y-81666205D01*
X148197155Y-81703701D01*
X148201600Y-81748838D01*
X148201600Y-82487562D01*
X148197155Y-82532699D01*
X148185780Y-82570195D01*
X148167308Y-82604754D01*
X148142447Y-82635047D01*
X148112154Y-82659908D01*
X148077595Y-82678380D01*
X148040099Y-82689755D01*
X147994962Y-82694200D01*
X147356238Y-82694200D01*
X147311101Y-82689755D01*
X147273605Y-82678380D01*
X147239046Y-82659908D01*
X147208753Y-82635047D01*
X147183892Y-82604754D01*
X147165420Y-82570195D01*
X147154045Y-82532699D01*
X147149600Y-82487562D01*
X147149600Y-81748838D01*
X147154045Y-81703701D01*
X147165420Y-81666205D01*
X147183892Y-81631646D01*
X147208753Y-81601353D01*
X147239046Y-81576492D01*
X147273605Y-81558020D01*
X147311101Y-81546645D01*
X147356238Y-81542200D01*
X147994962Y-81542200D01*
X148040099Y-81546645D01*
X148040099Y-81546645D01*
G37*
G36*
X163931800Y-82677200D02*
G01*
X163271000Y-82677200D01*
X163271000Y-80594000D01*
X163931800Y-80594000D01*
X163931800Y-82677200D01*
X163931800Y-82677200D01*
G37*
G36*
X162661800Y-82677200D02*
G01*
X162001000Y-82677200D01*
X162001000Y-80594000D01*
X162661800Y-80594000D01*
X162661800Y-82677200D01*
X162661800Y-82677200D01*
G37*
G36*
X161391800Y-82677200D02*
G01*
X160731000Y-82677200D01*
X160731000Y-80594000D01*
X161391800Y-80594000D01*
X161391800Y-82677200D01*
X161391800Y-82677200D01*
G37*
G36*
X160121800Y-82677200D02*
G01*
X159461000Y-82677200D01*
X159461000Y-80594000D01*
X160121800Y-80594000D01*
X160121800Y-82677200D01*
X160121800Y-82677200D01*
G37*
G36*
X146299399Y-79793245D02*
G01*
X146336895Y-79804620D01*
X146371454Y-79823092D01*
X146401747Y-79847953D01*
X146426608Y-79878246D01*
X146445080Y-79912805D01*
X146456455Y-79950301D01*
X146460900Y-79995438D01*
X146460900Y-80634162D01*
X146456455Y-80679299D01*
X146445080Y-80716795D01*
X146426608Y-80751354D01*
X146401747Y-80781647D01*
X146371454Y-80806508D01*
X146336895Y-80824980D01*
X146299399Y-80836355D01*
X146254262Y-80840800D01*
X145515538Y-80840800D01*
X145470401Y-80836355D01*
X145432905Y-80824980D01*
X145398346Y-80806508D01*
X145368053Y-80781647D01*
X145343192Y-80751354D01*
X145324720Y-80716795D01*
X145313345Y-80679299D01*
X145308900Y-80634162D01*
X145308900Y-79995438D01*
X145313345Y-79950301D01*
X145324720Y-79912805D01*
X145343192Y-79878246D01*
X145368053Y-79847953D01*
X145398346Y-79823092D01*
X145432905Y-79804620D01*
X145470401Y-79793245D01*
X145515538Y-79788800D01*
X146254262Y-79788800D01*
X146299399Y-79793245D01*
X146299399Y-79793245D01*
G37*
G36*
X149702999Y-79793245D02*
G01*
X149740495Y-79804620D01*
X149775054Y-79823092D01*
X149805347Y-79847953D01*
X149830208Y-79878246D01*
X149848680Y-79912805D01*
X149860055Y-79950301D01*
X149864500Y-79995438D01*
X149864500Y-80634162D01*
X149860055Y-80679299D01*
X149848680Y-80716795D01*
X149830208Y-80751354D01*
X149805347Y-80781647D01*
X149775054Y-80806508D01*
X149740495Y-80824980D01*
X149702999Y-80836355D01*
X149657862Y-80840800D01*
X148919138Y-80840800D01*
X148874001Y-80836355D01*
X148836505Y-80824980D01*
X148801946Y-80806508D01*
X148771653Y-80781647D01*
X148746792Y-80751354D01*
X148728320Y-80716795D01*
X148716945Y-80679299D01*
X148712500Y-80634162D01*
X148712500Y-79995438D01*
X148716945Y-79950301D01*
X148728320Y-79912805D01*
X148746792Y-79878246D01*
X148771653Y-79847953D01*
X148801946Y-79823092D01*
X148836505Y-79804620D01*
X148874001Y-79793245D01*
X148919138Y-79788800D01*
X149657862Y-79788800D01*
X149702999Y-79793245D01*
X149702999Y-79793245D01*
G37*
G36*
X148049399Y-79793245D02*
G01*
X148086895Y-79804620D01*
X148121454Y-79823092D01*
X148151747Y-79847953D01*
X148176608Y-79878246D01*
X148195080Y-79912805D01*
X148206455Y-79950301D01*
X148210900Y-79995438D01*
X148210900Y-80634162D01*
X148206455Y-80679299D01*
X148195080Y-80716795D01*
X148176608Y-80751354D01*
X148151747Y-80781647D01*
X148121454Y-80806508D01*
X148086895Y-80824980D01*
X148049399Y-80836355D01*
X148004262Y-80840800D01*
X147265538Y-80840800D01*
X147220401Y-80836355D01*
X147182905Y-80824980D01*
X147148346Y-80806508D01*
X147118053Y-80781647D01*
X147093192Y-80751354D01*
X147074720Y-80716795D01*
X147063345Y-80679299D01*
X147058900Y-80634162D01*
X147058900Y-79995438D01*
X147063345Y-79950301D01*
X147074720Y-79912805D01*
X147093192Y-79878246D01*
X147118053Y-79847953D01*
X147148346Y-79823092D01*
X147182905Y-79804620D01*
X147220401Y-79793245D01*
X147265538Y-79788800D01*
X148004262Y-79788800D01*
X148049399Y-79793245D01*
X148049399Y-79793245D01*
G37*
G36*
X151452999Y-79793245D02*
G01*
X151490495Y-79804620D01*
X151525054Y-79823092D01*
X151555347Y-79847953D01*
X151580208Y-79878246D01*
X151598680Y-79912805D01*
X151610055Y-79950301D01*
X151614500Y-79995438D01*
X151614500Y-80634162D01*
X151610055Y-80679299D01*
X151598680Y-80716795D01*
X151580208Y-80751354D01*
X151555347Y-80781647D01*
X151525054Y-80806508D01*
X151490495Y-80824980D01*
X151452999Y-80836355D01*
X151407862Y-80840800D01*
X150669138Y-80840800D01*
X150624001Y-80836355D01*
X150586505Y-80824980D01*
X150551946Y-80806508D01*
X150521653Y-80781647D01*
X150496792Y-80751354D01*
X150478320Y-80716795D01*
X150466945Y-80679299D01*
X150462500Y-80634162D01*
X150462500Y-79995438D01*
X150466945Y-79950301D01*
X150478320Y-79912805D01*
X150496792Y-79878246D01*
X150521653Y-79847953D01*
X150551946Y-79823092D01*
X150586505Y-79804620D01*
X150624001Y-79793245D01*
X150669138Y-79788800D01*
X151407862Y-79788800D01*
X151452999Y-79793245D01*
X151452999Y-79793245D01*
G37*
G36*
X161681699Y-78078745D02*
G01*
X161719195Y-78090120D01*
X161753754Y-78108592D01*
X161784047Y-78133453D01*
X161808908Y-78163746D01*
X161827380Y-78198305D01*
X161838755Y-78235801D01*
X161843200Y-78280938D01*
X161843200Y-78919662D01*
X161838755Y-78964799D01*
X161827380Y-79002295D01*
X161808908Y-79036854D01*
X161784047Y-79067147D01*
X161753754Y-79092008D01*
X161719195Y-79110480D01*
X161681699Y-79121855D01*
X161636562Y-79126300D01*
X160897838Y-79126300D01*
X160852701Y-79121855D01*
X160815205Y-79110480D01*
X160780646Y-79092008D01*
X160750353Y-79067147D01*
X160725492Y-79036854D01*
X160707020Y-79002295D01*
X160695645Y-78964799D01*
X160691200Y-78919662D01*
X160691200Y-78280938D01*
X160695645Y-78235801D01*
X160707020Y-78198305D01*
X160725492Y-78163746D01*
X160750353Y-78133453D01*
X160780646Y-78108592D01*
X160815205Y-78090120D01*
X160852701Y-78078745D01*
X160897838Y-78074300D01*
X161636562Y-78074300D01*
X161681699Y-78078745D01*
X161681699Y-78078745D01*
G37*
G36*
X163431699Y-78078745D02*
G01*
X163469195Y-78090120D01*
X163503754Y-78108592D01*
X163534047Y-78133453D01*
X163558908Y-78163746D01*
X163577380Y-78198305D01*
X163588755Y-78235801D01*
X163593200Y-78280938D01*
X163593200Y-78919662D01*
X163588755Y-78964799D01*
X163577380Y-79002295D01*
X163558908Y-79036854D01*
X163534047Y-79067147D01*
X163503754Y-79092008D01*
X163469195Y-79110480D01*
X163431699Y-79121855D01*
X163386562Y-79126300D01*
X162647838Y-79126300D01*
X162602701Y-79121855D01*
X162565205Y-79110480D01*
X162530646Y-79092008D01*
X162500353Y-79067147D01*
X162475492Y-79036854D01*
X162457020Y-79002295D01*
X162445645Y-78964799D01*
X162441200Y-78919662D01*
X162441200Y-78280938D01*
X162445645Y-78235801D01*
X162457020Y-78198305D01*
X162475492Y-78163746D01*
X162500353Y-78133453D01*
X162530646Y-78108592D01*
X162565205Y-78090120D01*
X162602701Y-78078745D01*
X162647838Y-78074300D01*
X163386562Y-78074300D01*
X163431699Y-78078745D01*
X163431699Y-78078745D01*
G37*
G36*
X153843199Y-76529345D02*
G01*
X153880695Y-76540720D01*
X153915254Y-76559192D01*
X153945547Y-76584053D01*
X153970408Y-76614346D01*
X153988880Y-76648905D01*
X154000255Y-76686401D01*
X154004700Y-76731538D01*
X154004700Y-77370262D01*
X154000255Y-77415399D01*
X153988880Y-77452895D01*
X153970408Y-77487454D01*
X153945547Y-77517747D01*
X153915254Y-77542608D01*
X153880695Y-77561080D01*
X153843199Y-77572455D01*
X153798062Y-77576900D01*
X153059338Y-77576900D01*
X153014201Y-77572455D01*
X152976705Y-77561080D01*
X152942146Y-77542608D01*
X152911853Y-77517747D01*
X152886992Y-77487454D01*
X152868520Y-77452895D01*
X152857145Y-77415399D01*
X152852700Y-77370262D01*
X152852700Y-76731538D01*
X152857145Y-76686401D01*
X152868520Y-76648905D01*
X152886992Y-76614346D01*
X152911853Y-76584053D01*
X152942146Y-76559192D01*
X152976705Y-76540720D01*
X153014201Y-76529345D01*
X153059338Y-76524900D01*
X153798062Y-76524900D01*
X153843199Y-76529345D01*
X153843199Y-76529345D01*
G37*
G36*
X152093199Y-76529345D02*
G01*
X152130695Y-76540720D01*
X152165254Y-76559192D01*
X152195547Y-76584053D01*
X152220408Y-76614346D01*
X152238880Y-76648905D01*
X152250255Y-76686401D01*
X152254700Y-76731538D01*
X152254700Y-77370262D01*
X152250255Y-77415399D01*
X152238880Y-77452895D01*
X152220408Y-77487454D01*
X152195547Y-77517747D01*
X152165254Y-77542608D01*
X152130695Y-77561080D01*
X152093199Y-77572455D01*
X152048062Y-77576900D01*
X151309338Y-77576900D01*
X151264201Y-77572455D01*
X151226705Y-77561080D01*
X151192146Y-77542608D01*
X151161853Y-77517747D01*
X151136992Y-77487454D01*
X151118520Y-77452895D01*
X151107145Y-77415399D01*
X151102700Y-77370262D01*
X151102700Y-76731538D01*
X151107145Y-76686401D01*
X151118520Y-76648905D01*
X151136992Y-76614346D01*
X151161853Y-76584053D01*
X151192146Y-76559192D01*
X151226705Y-76540720D01*
X151264201Y-76529345D01*
X151309338Y-76524900D01*
X152048062Y-76524900D01*
X152093199Y-76529345D01*
X152093199Y-76529345D01*
G37*
G36*
X163780062Y-76024881D02*
G01*
X163814981Y-76035474D01*
X163847163Y-76052676D01*
X163875373Y-76075827D01*
X163898524Y-76104037D01*
X163915726Y-76136219D01*
X163926319Y-76171138D01*
X163930500Y-76213595D01*
X163930500Y-77354805D01*
X163926319Y-77397262D01*
X163915726Y-77432181D01*
X163898524Y-77464363D01*
X163875373Y-77492573D01*
X163847163Y-77515724D01*
X163814981Y-77532926D01*
X163780062Y-77543519D01*
X163737605Y-77547700D01*
X162271395Y-77547700D01*
X162228938Y-77543519D01*
X162194019Y-77532926D01*
X162161837Y-77515724D01*
X162133627Y-77492573D01*
X162110476Y-77464363D01*
X162093274Y-77432181D01*
X162082681Y-77397262D01*
X162078500Y-77354805D01*
X162078500Y-76213595D01*
X162082681Y-76171138D01*
X162093274Y-76136219D01*
X162110476Y-76104037D01*
X162133627Y-76075827D01*
X162161837Y-76052676D01*
X162194019Y-76035474D01*
X162228938Y-76024881D01*
X162271395Y-76020700D01*
X163737605Y-76020700D01*
X163780062Y-76024881D01*
X163780062Y-76024881D01*
G37*
G36*
X156006200Y-74795900D02*
G01*
X153904200Y-74795900D01*
X153904200Y-72193900D01*
X156006200Y-72193900D01*
X156006200Y-74795900D01*
X156006200Y-74795900D01*
G37*
G36*
X152396200Y-74795900D02*
G01*
X148594200Y-74795900D01*
X148594200Y-72193900D01*
X152396200Y-72193900D01*
X152396200Y-74795900D01*
X152396200Y-74795900D01*
G37*
G36*
X147086200Y-74795900D02*
G01*
X144984200Y-74795900D01*
X144984200Y-72193900D01*
X147086200Y-72193900D01*
X147086200Y-74795900D01*
X147086200Y-74795900D01*
G37*
G36*
X163780062Y-73049881D02*
G01*
X163814981Y-73060474D01*
X163847163Y-73077676D01*
X163875373Y-73100827D01*
X163898524Y-73129037D01*
X163915726Y-73161219D01*
X163926319Y-73196138D01*
X163930500Y-73238595D01*
X163930500Y-74379805D01*
X163926319Y-74422262D01*
X163915726Y-74457181D01*
X163898524Y-74489363D01*
X163875373Y-74517573D01*
X163847163Y-74540724D01*
X163814981Y-74557926D01*
X163780062Y-74568519D01*
X163737605Y-74572700D01*
X162271395Y-74572700D01*
X162228938Y-74568519D01*
X162194019Y-74557926D01*
X162161837Y-74540724D01*
X162133627Y-74517573D01*
X162110476Y-74489363D01*
X162093274Y-74457181D01*
X162082681Y-74422262D01*
X162078500Y-74379805D01*
X162078500Y-73238595D01*
X162082681Y-73196138D01*
X162093274Y-73161219D01*
X162110476Y-73129037D01*
X162133627Y-73100827D01*
X162161837Y-73077676D01*
X162194019Y-73060474D01*
X162228938Y-73049881D01*
X162271395Y-73045700D01*
X163737605Y-73045700D01*
X163780062Y-73049881D01*
X163780062Y-73049881D01*
G37*
G36*
X163505500Y-72177400D02*
G01*
X162503500Y-72177400D01*
X162503500Y-70875400D01*
X163505500Y-70875400D01*
X163505500Y-72177400D01*
X163505500Y-72177400D01*
G37*
G36*
X160205500Y-72177400D02*
G01*
X159203500Y-72177400D01*
X159203500Y-70875400D01*
X160205500Y-70875400D01*
X160205500Y-72177400D01*
X160205500Y-72177400D01*
G37*
G36*
X152792940Y-70493526D02*
G01*
X152841336Y-70503153D01*
X152879102Y-70518796D01*
X152932511Y-70540919D01*
X152932512Y-70540920D01*
X153014569Y-70595748D01*
X153084352Y-70665531D01*
X153084353Y-70665533D01*
X153139181Y-70747589D01*
X153176947Y-70838765D01*
X153196200Y-70935555D01*
X153196200Y-71034245D01*
X153176947Y-71131035D01*
X153139181Y-71222211D01*
X153139180Y-71222212D01*
X153084352Y-71304269D01*
X153014569Y-71374052D01*
X152973262Y-71401652D01*
X152932511Y-71428881D01*
X152879102Y-71451004D01*
X152841336Y-71466647D01*
X152792940Y-71476274D01*
X152744545Y-71485900D01*
X152645855Y-71485900D01*
X152597460Y-71476274D01*
X152549064Y-71466647D01*
X152511298Y-71451004D01*
X152457889Y-71428881D01*
X152417138Y-71401652D01*
X152375831Y-71374052D01*
X152306048Y-71304269D01*
X152251220Y-71222212D01*
X152251219Y-71222211D01*
X152213453Y-71131035D01*
X152194200Y-71034245D01*
X152194200Y-70935555D01*
X152213453Y-70838765D01*
X152251219Y-70747589D01*
X152306047Y-70665533D01*
X152306048Y-70665531D01*
X152375831Y-70595748D01*
X152457888Y-70540920D01*
X152457889Y-70540919D01*
X152511298Y-70518796D01*
X152549064Y-70503153D01*
X152597460Y-70493526D01*
X152645855Y-70483900D01*
X152744545Y-70483900D01*
X152792940Y-70493526D01*
X152792940Y-70493526D01*
G37*
G36*
X148392940Y-70493526D02*
G01*
X148441336Y-70503153D01*
X148479102Y-70518796D01*
X148532511Y-70540919D01*
X148532512Y-70540920D01*
X148614569Y-70595748D01*
X148684352Y-70665531D01*
X148684353Y-70665533D01*
X148739181Y-70747589D01*
X148776947Y-70838765D01*
X148796200Y-70935555D01*
X148796200Y-71034245D01*
X148776947Y-71131035D01*
X148739181Y-71222211D01*
X148739180Y-71222212D01*
X148684352Y-71304269D01*
X148614569Y-71374052D01*
X148573262Y-71401652D01*
X148532511Y-71428881D01*
X148479102Y-71451004D01*
X148441336Y-71466647D01*
X148392940Y-71476274D01*
X148344545Y-71485900D01*
X148245855Y-71485900D01*
X148197460Y-71476274D01*
X148149064Y-71466647D01*
X148111298Y-71451004D01*
X148057889Y-71428881D01*
X148017138Y-71401652D01*
X147975831Y-71374052D01*
X147906048Y-71304269D01*
X147851220Y-71222212D01*
X147851219Y-71222211D01*
X147813453Y-71131035D01*
X147794200Y-71034245D01*
X147794200Y-70935555D01*
X147813453Y-70838765D01*
X147851219Y-70747589D01*
X147906047Y-70665533D01*
X147906048Y-70665531D01*
X147975831Y-70595748D01*
X148057888Y-70540920D01*
X148057889Y-70540919D01*
X148111298Y-70518796D01*
X148149064Y-70503153D01*
X148197460Y-70493526D01*
X148245855Y-70483900D01*
X148344545Y-70483900D01*
X148392940Y-70493526D01*
X148392940Y-70493526D01*
G37*
G36*
X156006200Y-69315900D02*
G01*
X153904200Y-69315900D01*
X153904200Y-66713900D01*
X156006200Y-66713900D01*
X156006200Y-69315900D01*
X156006200Y-69315900D01*
G37*
G36*
X147086200Y-69315900D02*
G01*
X144984200Y-69315900D01*
X144984200Y-66713900D01*
X147086200Y-66713900D01*
X147086200Y-69315900D01*
X147086200Y-69315900D01*
G37*
G36*
X162876326Y-66551437D02*
G01*
X163046165Y-66602957D01*
X163046167Y-66602958D01*
X163202689Y-66686621D01*
X163339886Y-66799214D01*
X163423148Y-66900671D01*
X163452478Y-66936409D01*
X163536143Y-67092934D01*
X163587663Y-67262773D01*
X163600700Y-67395142D01*
X163600700Y-67783657D01*
X163587663Y-67916026D01*
X163536143Y-68085866D01*
X163452478Y-68242391D01*
X163423148Y-68278129D01*
X163339886Y-68379586D01*
X163244950Y-68457497D01*
X163202691Y-68492178D01*
X163046166Y-68575843D01*
X162876327Y-68627363D01*
X162699700Y-68644759D01*
X162523074Y-68627363D01*
X162353235Y-68575843D01*
X162196710Y-68492178D01*
X162059515Y-68379585D01*
X161946922Y-68242391D01*
X161863257Y-68085866D01*
X161811737Y-67916027D01*
X161798700Y-67783658D01*
X161798700Y-67395143D01*
X161811737Y-67262774D01*
X161863257Y-67092935D01*
X161946922Y-66936410D01*
X161946923Y-66936409D01*
X162059514Y-66799214D01*
X162163471Y-66713900D01*
X162196709Y-66686622D01*
X162353234Y-66602957D01*
X162523073Y-66551437D01*
X162699700Y-66534041D01*
X162876326Y-66551437D01*
X162876326Y-66551437D01*
G37*
G36*
X160958300Y-66542389D02*
G01*
X160991352Y-66552415D01*
X161021803Y-66568692D01*
X161048499Y-66590601D01*
X161070408Y-66617297D01*
X161086685Y-66647748D01*
X161096711Y-66680800D01*
X161100700Y-66721303D01*
X161100700Y-68457497D01*
X161096711Y-68498000D01*
X161086685Y-68531052D01*
X161070408Y-68561503D01*
X161048499Y-68588199D01*
X161021803Y-68610108D01*
X160991352Y-68626385D01*
X160958300Y-68636411D01*
X160917797Y-68640400D01*
X159481603Y-68640400D01*
X159441100Y-68636411D01*
X159408048Y-68626385D01*
X159377597Y-68610108D01*
X159350901Y-68588199D01*
X159328992Y-68561503D01*
X159312715Y-68531052D01*
X159302689Y-68498000D01*
X159298700Y-68457497D01*
X159298700Y-66721303D01*
X159302689Y-66680800D01*
X159312715Y-66647748D01*
X159328992Y-66617297D01*
X159350901Y-66590601D01*
X159377597Y-66568692D01*
X159408048Y-66552415D01*
X159441100Y-66542389D01*
X159481603Y-66538400D01*
X160917797Y-66538400D01*
X160958300Y-66542389D01*
X160958300Y-66542389D01*
G37*
M02*
