G04 #@! TF.GenerationSoftware,KiCad,Pcbnew,(5.1.4)-1*
G04 #@! TF.CreationDate,2020-03-25T13:11:37-05:00*
G04 #@! TF.ProjectId,ExOneMicrorocessor,45784f6e-654d-4696-9372-6f726f636573,rev?*
G04 #@! TF.SameCoordinates,Original*
G04 #@! TF.FileFunction,Other,Fab,Top*
%FSLAX46Y46*%
G04 Gerber Fmt 4.6, Leading zero omitted, Abs format (unit mm)*
G04 Created by KiCad (PCBNEW (5.1.4)-1) date 2020-03-25 13:11:37*
%MOMM*%
%LPD*%
G04 APERTURE LIST*
%ADD10C,0.100000*%
%ADD11C,0.200000*%
%ADD12C,0.160000*%
%ADD13C,0.127000*%
%ADD14C,0.152400*%
%ADD15C,0.150000*%
%ADD16C,0.254000*%
%ADD17C,0.015000*%
%ADD18C,0.060000*%
%ADD19C,0.120000*%
G04 APERTURE END LIST*
D10*
X147370800Y-123672600D02*
X148005800Y-124307600D01*
X142925800Y-123672600D02*
X147370800Y-123672600D01*
X142925800Y-126212600D02*
X142925800Y-123672600D01*
X148005800Y-126212600D02*
X142925800Y-126212600D01*
X148005800Y-124307600D02*
X148005800Y-126212600D01*
D11*
X149076800Y-113362200D02*
X152776800Y-113362200D01*
X149076800Y-107262200D02*
X149076800Y-113362200D01*
X152776800Y-107262200D02*
X149076800Y-107262200D01*
X152776800Y-113362200D02*
X152776800Y-107262200D01*
D12*
X152175200Y-73644900D02*
G75*
G03X152175200Y-73644900I-80000J0D01*
G01*
D13*
X154355200Y-65044900D02*
X154355200Y-74244900D01*
X146635200Y-65044900D02*
X154355200Y-65044900D01*
X146635200Y-65644900D02*
X146635200Y-65044900D01*
X146635200Y-74244900D02*
X146635200Y-65644900D01*
X154355200Y-74244900D02*
X146635200Y-74244900D01*
X156403960Y-107905200D02*
X163503960Y-107905200D01*
X156403960Y-115005200D02*
X163503960Y-115005200D01*
X163503960Y-115005200D02*
X163503960Y-107905200D01*
X156403960Y-115005200D02*
X156403960Y-107905200D01*
D11*
X162803960Y-105595200D02*
G75*
G03X162803960Y-105595200I-100000J0D01*
G01*
D10*
X160289440Y-104585200D02*
X163489440Y-104585200D01*
X160289440Y-103085200D02*
X163489440Y-103085200D01*
X163489440Y-103085200D02*
X163489440Y-104585200D01*
X160289440Y-103085200D02*
X160289440Y-104585200D01*
X164185600Y-84404200D02*
G75*
G02X164185600Y-83794600I0J304800D01*
G01*
D14*
X164185600Y-82092800D02*
X159207200Y-82092800D01*
X164185600Y-83794600D02*
X164185600Y-82092800D01*
X164185600Y-84404200D02*
X164185600Y-83794600D01*
X164185600Y-86106000D02*
X164185600Y-84404200D01*
X159207200Y-86106000D02*
X164185600Y-86106000D01*
X159207200Y-82092800D02*
X159207200Y-86106000D01*
X163855400Y-87198200D02*
X163855400Y-86106000D01*
X163347400Y-87198200D02*
X163855400Y-87198200D01*
X163347400Y-86106000D02*
X163347400Y-87198200D01*
X163855400Y-86106000D02*
X163347400Y-86106000D01*
X162585400Y-87198200D02*
X162585400Y-86106000D01*
X162077400Y-87198200D02*
X162585400Y-87198200D01*
X162077400Y-86106000D02*
X162077400Y-87198200D01*
X162585400Y-86106000D02*
X162077400Y-86106000D01*
X161315400Y-87198200D02*
X161315400Y-86106000D01*
X160807400Y-87198200D02*
X161315400Y-87198200D01*
X160807400Y-86106000D02*
X160807400Y-87198200D01*
X161315400Y-86106000D02*
X160807400Y-86106000D01*
X160045400Y-87198200D02*
X160045400Y-86106000D01*
X159537400Y-87198200D02*
X160045400Y-87198200D01*
X159537400Y-86106000D02*
X159537400Y-87198200D01*
X160045400Y-86106000D02*
X159537400Y-86106000D01*
X159537400Y-81000600D02*
X159537400Y-82092800D01*
X160045400Y-81000600D02*
X159537400Y-81000600D01*
X160045400Y-82092800D02*
X160045400Y-81000600D01*
X159537400Y-82092800D02*
X160045400Y-82092800D01*
X160807400Y-81000600D02*
X160807400Y-82092800D01*
X161315400Y-81000600D02*
X160807400Y-81000600D01*
X161315400Y-82092800D02*
X161315400Y-81000600D01*
X160807400Y-82092800D02*
X161315400Y-82092800D01*
X162077400Y-81000600D02*
X162077400Y-82092800D01*
X162585400Y-81000600D02*
X162077400Y-81000600D01*
X162585400Y-82092800D02*
X162585400Y-81000600D01*
X162077400Y-82092800D02*
X162585400Y-82092800D01*
X163347400Y-81000600D02*
X163347400Y-82092800D01*
X163855400Y-81000600D02*
X163347400Y-81000600D01*
X163855400Y-82092800D02*
X163855400Y-81000600D01*
X163347400Y-82092800D02*
X163855400Y-82092800D01*
D10*
X162736400Y-91166900D02*
X161136400Y-91166900D01*
X162736400Y-90366900D02*
X162736400Y-91166900D01*
X161136400Y-90366900D02*
X162736400Y-90366900D01*
X161136400Y-91166900D02*
X161136400Y-90366900D01*
X157455800Y-102533400D02*
X155855800Y-102533400D01*
X157455800Y-101733400D02*
X157455800Y-102533400D01*
X155855800Y-101733400D02*
X157455800Y-101733400D01*
X155855800Y-102533400D02*
X155855800Y-101733400D01*
X146932600Y-103695600D02*
X146932600Y-105295600D01*
X146132600Y-103695600D02*
X146932600Y-103695600D01*
X146132600Y-105295600D02*
X146132600Y-103695600D01*
X146932600Y-105295600D02*
X146132600Y-105295600D01*
X150414920Y-122726400D02*
X148814920Y-122726400D01*
X150414920Y-121926400D02*
X150414920Y-122726400D01*
X148814920Y-121926400D02*
X150414920Y-121926400D01*
X148814920Y-122726400D02*
X148814920Y-121926400D01*
X161237800Y-122812760D02*
X159637800Y-122812760D01*
X161237800Y-122012760D02*
X161237800Y-122812760D01*
X159637800Y-122012760D02*
X161237800Y-122012760D01*
X159637800Y-122812760D02*
X159637800Y-122012760D01*
X149637700Y-82194500D02*
X149637700Y-83794500D01*
X148837700Y-82194500D02*
X149637700Y-82194500D01*
X148837700Y-83794500D02*
X148837700Y-82194500D01*
X149637700Y-83794500D02*
X148837700Y-83794500D01*
X148075600Y-82193200D02*
X148075600Y-83793200D01*
X147275600Y-82193200D02*
X148075600Y-82193200D01*
X147275600Y-83793200D02*
X147275600Y-82193200D01*
X148075600Y-83793200D02*
X147275600Y-83793200D01*
X157594300Y-124955300D02*
X156324300Y-126225300D01*
X157594300Y-118605300D02*
X157594300Y-124955300D01*
X152514300Y-118605300D02*
X157594300Y-118605300D01*
X152514300Y-126225300D02*
X152514300Y-118605300D01*
X156324300Y-126225300D02*
X152514300Y-126225300D01*
X157289700Y-70199400D02*
X159789700Y-70199400D01*
X157289700Y-67699400D02*
X157289700Y-70199400D01*
X165199700Y-65989400D02*
X157699700Y-65989400D01*
X165199700Y-69789400D02*
X165199700Y-65989400D01*
X157699700Y-69789400D02*
X165199700Y-69789400D01*
X157699700Y-65989400D02*
X157699700Y-69789400D01*
X147224200Y-87160200D02*
X147860200Y-86525200D01*
X147224200Y-91427200D02*
X147224200Y-86525200D01*
X151124200Y-91427200D02*
X147224200Y-91427200D01*
X151124200Y-86525200D02*
X151124200Y-91427200D01*
X147224200Y-86525200D02*
X151124200Y-86525200D01*
X163804500Y-73696700D02*
X163804500Y-76896700D01*
X162204500Y-73696700D02*
X163804500Y-73696700D01*
X162204500Y-76896700D02*
X162204500Y-73696700D01*
X163804500Y-76896700D02*
X162204500Y-76896700D01*
X162754500Y-72426400D02*
X159954500Y-72426400D01*
X159954500Y-72426400D02*
X159954500Y-70626400D01*
X159954500Y-70626400D02*
X162754500Y-70626400D01*
X162754500Y-70626400D02*
X162754500Y-72426400D01*
X162104500Y-71526400D02*
X161704500Y-71526400D01*
X161704500Y-71526400D02*
X161704500Y-72076400D01*
X161704500Y-71526400D02*
X161704500Y-70976400D01*
X161704500Y-71526400D02*
X161104500Y-71926400D01*
X161104500Y-71926400D02*
X161104500Y-71126400D01*
X161104500Y-71126400D02*
X161704500Y-71526400D01*
X161104500Y-71526400D02*
X160604500Y-71526400D01*
X161023200Y-94646700D02*
X159423200Y-94646700D01*
X161023200Y-93846700D02*
X161023200Y-94646700D01*
X159423200Y-93846700D02*
X161023200Y-93846700D01*
X159423200Y-94646700D02*
X159423200Y-93846700D01*
X161011800Y-93033800D02*
X159411800Y-93033800D01*
X161011800Y-92233800D02*
X161011800Y-93033800D01*
X159411800Y-92233800D02*
X161011800Y-92233800D01*
X159411800Y-93033800D02*
X159411800Y-92233800D01*
X160985100Y-89388900D02*
X159385100Y-89388900D01*
X160985100Y-88588900D02*
X160985100Y-89388900D01*
X159385100Y-88588900D02*
X160985100Y-88588900D01*
X159385100Y-89388900D02*
X159385100Y-88588900D01*
X162942200Y-79000300D02*
X161342200Y-79000300D01*
X162942200Y-78200300D02*
X162942200Y-79000300D01*
X161342200Y-78200300D02*
X162942200Y-78200300D01*
X161342200Y-79000300D02*
X161342200Y-78200300D01*
X157455800Y-104209800D02*
X155855800Y-104209800D01*
X157455800Y-103409800D02*
X157455800Y-104209800D01*
X155855800Y-103409800D02*
X157455800Y-103409800D01*
X155855800Y-104209800D02*
X155855800Y-103409800D01*
X155492500Y-88595100D02*
X155492500Y-86995100D01*
X156292500Y-88595100D02*
X155492500Y-88595100D01*
X156292500Y-86995100D02*
X156292500Y-88595100D01*
X155492500Y-86995100D02*
X156292500Y-86995100D01*
X154603400Y-86993800D02*
X154603400Y-88593800D01*
X153803400Y-86993800D02*
X154603400Y-86993800D01*
X153803400Y-88593800D02*
X153803400Y-86993800D01*
X154603400Y-88593800D02*
X153803400Y-88593800D01*
X153803400Y-92035500D02*
X153803400Y-90435500D01*
X154603400Y-92035500D02*
X153803400Y-92035500D01*
X154603400Y-90435500D02*
X154603400Y-92035500D01*
X153803400Y-90435500D02*
X154603400Y-90435500D01*
X150963500Y-80714800D02*
X149363500Y-80714800D01*
X150963500Y-79914800D02*
X150963500Y-80714800D01*
X149363500Y-79914800D02*
X150963500Y-79914800D01*
X149363500Y-80714800D02*
X149363500Y-79914800D01*
X145959900Y-79914800D02*
X147559900Y-79914800D01*
X145959900Y-80714800D02*
X145959900Y-79914800D01*
X147559900Y-80714800D02*
X145959900Y-80714800D01*
X147559900Y-79914800D02*
X147559900Y-80714800D01*
X153353700Y-77450900D02*
X151753700Y-77450900D01*
X153353700Y-76650900D02*
X153353700Y-77450900D01*
X151753700Y-76650900D02*
X153353700Y-76650900D01*
X151753700Y-77450900D02*
X151753700Y-76650900D01*
X160239760Y-101535160D02*
X160239760Y-99935160D01*
X161039760Y-101535160D02*
X160239760Y-101535160D01*
X161039760Y-99935160D02*
X161039760Y-101535160D01*
X160239760Y-99935160D02*
X161039760Y-99935160D01*
X162739120Y-101530080D02*
X162739120Y-99930080D01*
X163539120Y-101530080D02*
X162739120Y-101530080D01*
X163539120Y-99930080D02*
X163539120Y-101530080D01*
X162739120Y-99930080D02*
X163539120Y-99930080D01*
X159223640Y-96544080D02*
X157623640Y-96544080D01*
X159223640Y-95744080D02*
X159223640Y-96544080D01*
X157623640Y-95744080D02*
X159223640Y-95744080D01*
X157623640Y-96544080D02*
X157623640Y-95744080D01*
X159218560Y-98256040D02*
X157618560Y-98256040D01*
X159218560Y-97456040D02*
X159218560Y-98256040D01*
X157618560Y-97456040D02*
X159218560Y-97456040D01*
X157618560Y-98256040D02*
X157618560Y-97456040D01*
X161098360Y-95754240D02*
X162698360Y-95754240D01*
X161098360Y-96554240D02*
X161098360Y-95754240D01*
X162698360Y-96554240D02*
X161098360Y-96554240D01*
X162698360Y-95754240D02*
X162698360Y-96554240D01*
X161100840Y-97450960D02*
X162700840Y-97450960D01*
X161100840Y-98250960D02*
X161100840Y-97450960D01*
X162700840Y-98250960D02*
X161100840Y-98250960D01*
X162700840Y-97450960D02*
X162700840Y-98250960D01*
D15*
X142222942Y-128680695D02*
X142270561Y-128728314D01*
X142318180Y-128871171D01*
X142318180Y-128966409D01*
X142270561Y-129109266D01*
X142175323Y-129204504D01*
X142080085Y-129252123D01*
X141889609Y-129299742D01*
X141746752Y-129299742D01*
X141556276Y-129252123D01*
X141461038Y-129204504D01*
X141365800Y-129109266D01*
X141318180Y-128966409D01*
X141318180Y-128871171D01*
X141365800Y-128728314D01*
X141413419Y-128680695D01*
X142318180Y-128109266D02*
X142270561Y-128204504D01*
X142222942Y-128252123D01*
X142127704Y-128299742D01*
X141841990Y-128299742D01*
X141746752Y-128252123D01*
X141699133Y-128204504D01*
X141651514Y-128109266D01*
X141651514Y-127966409D01*
X141699133Y-127871171D01*
X141746752Y-127823552D01*
X141841990Y-127775933D01*
X142127704Y-127775933D01*
X142222942Y-127823552D01*
X142270561Y-127871171D01*
X142318180Y-127966409D01*
X142318180Y-128109266D01*
X141651514Y-127347361D02*
X142318180Y-127347361D01*
X141746752Y-127347361D02*
X141699133Y-127299742D01*
X141651514Y-127204504D01*
X141651514Y-127061647D01*
X141699133Y-126966409D01*
X141794371Y-126918790D01*
X142318180Y-126918790D01*
X141651514Y-126442600D02*
X142318180Y-126442600D01*
X141746752Y-126442600D02*
X141699133Y-126394980D01*
X141651514Y-126299742D01*
X141651514Y-126156885D01*
X141699133Y-126061647D01*
X141794371Y-126014028D01*
X142318180Y-126014028D01*
X142413419Y-125775933D02*
X142413419Y-125014028D01*
X141318180Y-124585457D02*
X141318180Y-124490219D01*
X141365800Y-124394980D01*
X141413419Y-124347361D01*
X141508657Y-124299742D01*
X141699133Y-124252123D01*
X141937228Y-124252123D01*
X142127704Y-124299742D01*
X142222942Y-124347361D01*
X142270561Y-124394980D01*
X142318180Y-124490219D01*
X142318180Y-124585457D01*
X142270561Y-124680695D01*
X142222942Y-124728314D01*
X142127704Y-124775933D01*
X141937228Y-124823552D01*
X141699133Y-124823552D01*
X141508657Y-124775933D01*
X141413419Y-124728314D01*
X141365800Y-124680695D01*
X141318180Y-124585457D01*
X142318180Y-123299742D02*
X142318180Y-123871171D01*
X142318180Y-123585457D02*
X141318180Y-123585457D01*
X141461038Y-123680695D01*
X141556276Y-123775933D01*
X141603895Y-123871171D01*
X142318180Y-122966409D02*
X141651514Y-122442600D01*
X141651514Y-122966409D02*
X142318180Y-122442600D01*
X141318180Y-121871171D02*
X141318180Y-121775933D01*
X141365800Y-121680695D01*
X141413419Y-121633076D01*
X141508657Y-121585457D01*
X141699133Y-121537838D01*
X141937228Y-121537838D01*
X142127704Y-121585457D01*
X142222942Y-121633076D01*
X142270561Y-121680695D01*
X142318180Y-121775933D01*
X142318180Y-121871171D01*
X142270561Y-121966409D01*
X142222942Y-122014028D01*
X142127704Y-122061647D01*
X141937228Y-122109266D01*
X141699133Y-122109266D01*
X141508657Y-122061647D01*
X141413419Y-122014028D01*
X141365800Y-121966409D01*
X141318180Y-121871171D01*
X141413419Y-121156885D02*
X141365800Y-121109266D01*
X141318180Y-121014028D01*
X141318180Y-120775933D01*
X141365800Y-120680695D01*
X141413419Y-120633076D01*
X141508657Y-120585457D01*
X141603895Y-120585457D01*
X141746752Y-120633076D01*
X142318180Y-121204504D01*
X142318180Y-120585457D01*
X145132466Y-124394980D02*
X145132466Y-125109266D01*
X145084847Y-125252123D01*
X144989609Y-125347361D01*
X144846752Y-125394980D01*
X144751514Y-125394980D01*
X146037228Y-124394980D02*
X145846752Y-124394980D01*
X145751514Y-124442600D01*
X145703895Y-124490219D01*
X145608657Y-124633076D01*
X145561038Y-124823552D01*
X145561038Y-125204504D01*
X145608657Y-125299742D01*
X145656276Y-125347361D01*
X145751514Y-125394980D01*
X145941990Y-125394980D01*
X146037228Y-125347361D01*
X146084847Y-125299742D01*
X146132466Y-125204504D01*
X146132466Y-124966409D01*
X146084847Y-124871171D01*
X146037228Y-124823552D01*
X145941990Y-124775933D01*
X145751514Y-124775933D01*
X145656276Y-124823552D01*
X145608657Y-124871171D01*
X145561038Y-124966409D01*
D16*
X151440847Y-112405533D02*
X151501323Y-112224104D01*
X151501323Y-111921723D01*
X151440847Y-111800771D01*
X151380371Y-111740295D01*
X151259419Y-111679819D01*
X151138466Y-111679819D01*
X151017514Y-111740295D01*
X150957038Y-111800771D01*
X150896561Y-111921723D01*
X150836085Y-112163628D01*
X150775609Y-112284580D01*
X150715133Y-112345057D01*
X150594180Y-112405533D01*
X150473228Y-112405533D01*
X150352276Y-112345057D01*
X150291800Y-112284580D01*
X150231323Y-112163628D01*
X150231323Y-111861247D01*
X150291800Y-111679819D01*
X150231323Y-111256485D02*
X151501323Y-110954104D01*
X150594180Y-110712200D01*
X151501323Y-110470295D01*
X150231323Y-110167914D01*
X151501323Y-109018866D02*
X151501323Y-109744580D01*
X151501323Y-109381723D02*
X150231323Y-109381723D01*
X150412752Y-109502676D01*
X150533704Y-109623628D01*
X150594180Y-109744580D01*
D17*
X136928017Y-63217208D02*
X136928017Y-64027918D01*
X136975706Y-64123296D01*
X137023395Y-64170984D01*
X137118772Y-64218673D01*
X137309527Y-64218673D01*
X137404905Y-64170984D01*
X137452594Y-64123296D01*
X137500283Y-64027918D01*
X137500283Y-63217208D01*
X138263304Y-63217208D02*
X138263304Y-63932540D01*
X138215615Y-64075607D01*
X138120237Y-64170984D01*
X137977171Y-64218673D01*
X137881793Y-64218673D01*
X138692503Y-63312586D02*
X138740192Y-63264897D01*
X138835569Y-63217208D01*
X139074013Y-63217208D01*
X139169391Y-63264897D01*
X139217080Y-63312586D01*
X139264769Y-63407963D01*
X139264769Y-63503341D01*
X139217080Y-63646407D01*
X138644814Y-64218673D01*
X139264769Y-64218673D01*
X139693968Y-63837163D02*
X140456989Y-63837163D01*
X140933877Y-64218673D02*
X140933877Y-63217208D01*
X141267699Y-63932540D01*
X141601520Y-63217208D01*
X141601520Y-64218673D01*
X142412230Y-63694096D02*
X142555297Y-63741785D01*
X142602985Y-63789474D01*
X142650674Y-63884852D01*
X142650674Y-64027918D01*
X142602985Y-64123296D01*
X142555297Y-64170984D01*
X142459919Y-64218673D01*
X142078408Y-64218673D01*
X142078408Y-63217208D01*
X142412230Y-63217208D01*
X142507608Y-63264897D01*
X142555297Y-63312586D01*
X142602985Y-63407963D01*
X142602985Y-63503341D01*
X142555297Y-63598719D01*
X142507608Y-63646407D01*
X142412230Y-63694096D01*
X142078408Y-63694096D01*
X143079873Y-64218673D02*
X143079873Y-63217208D01*
X143079873Y-63694096D02*
X143652139Y-63694096D01*
X143652139Y-64218673D02*
X143652139Y-63217208D01*
X144129027Y-63837163D02*
X144892048Y-63837163D01*
X145273559Y-63217208D02*
X145893513Y-63217208D01*
X145559692Y-63598719D01*
X145702758Y-63598719D01*
X145798136Y-63646407D01*
X145845824Y-63694096D01*
X145893513Y-63789474D01*
X145893513Y-64027918D01*
X145845824Y-64123296D01*
X145798136Y-64170984D01*
X145702758Y-64218673D01*
X145416625Y-64218673D01*
X145321247Y-64170984D01*
X145273559Y-64123296D01*
X146322712Y-63837163D02*
X147085733Y-63837163D01*
X147514933Y-64170984D02*
X147657999Y-64218673D01*
X147896443Y-64218673D01*
X147991821Y-64170984D01*
X148039510Y-64123296D01*
X148087198Y-64027918D01*
X148087198Y-63932540D01*
X148039510Y-63837163D01*
X147991821Y-63789474D01*
X147896443Y-63741785D01*
X147705688Y-63694096D01*
X147610310Y-63646407D01*
X147562622Y-63598719D01*
X147514933Y-63503341D01*
X147514933Y-63407963D01*
X147562622Y-63312586D01*
X147610310Y-63264897D01*
X147705688Y-63217208D01*
X147944132Y-63217208D01*
X148087198Y-63264897D01*
X148516398Y-64218673D02*
X148516398Y-63217208D01*
X148850219Y-63932540D01*
X149184041Y-63217208D01*
X149184041Y-64218673D01*
X149517863Y-63217208D02*
X150090128Y-63217208D01*
X149803996Y-64218673D02*
X149803996Y-63217208D01*
X144242026Y-64920670D02*
X144242026Y-64290072D01*
X144482254Y-64290072D01*
X144542311Y-64320101D01*
X144572339Y-64350129D01*
X144602368Y-64410186D01*
X144602368Y-64500271D01*
X144572339Y-64560328D01*
X144542311Y-64590357D01*
X144482254Y-64620385D01*
X144242026Y-64620385D01*
X145232966Y-64860613D02*
X145202937Y-64890642D01*
X145112852Y-64920670D01*
X145052795Y-64920670D01*
X144962709Y-64890642D01*
X144902652Y-64830585D01*
X144872624Y-64770528D01*
X144842595Y-64650414D01*
X144842595Y-64560328D01*
X144872624Y-64440214D01*
X144902652Y-64380157D01*
X144962709Y-64320101D01*
X145052795Y-64290072D01*
X145112852Y-64290072D01*
X145202937Y-64320101D01*
X145232966Y-64350129D01*
X145713421Y-64590357D02*
X145803507Y-64620385D01*
X145833535Y-64650414D01*
X145863564Y-64710471D01*
X145863564Y-64800556D01*
X145833535Y-64860613D01*
X145803507Y-64890642D01*
X145743450Y-64920670D01*
X145503222Y-64920670D01*
X145503222Y-64290072D01*
X145713421Y-64290072D01*
X145773478Y-64320101D01*
X145803507Y-64350129D01*
X145833535Y-64410186D01*
X145833535Y-64470243D01*
X145803507Y-64530300D01*
X145773478Y-64560328D01*
X145713421Y-64590357D01*
X145503222Y-64590357D01*
X145983677Y-64161869D02*
X146554219Y-64161869D01*
X146133820Y-64590357D02*
X146344019Y-64590357D01*
X146434105Y-64920670D02*
X146133820Y-64920670D01*
X146133820Y-64290072D01*
X146434105Y-64290072D01*
X146554219Y-64161869D02*
X147184817Y-64161869D01*
X146704361Y-64920670D02*
X146704361Y-64290072D01*
X146854503Y-64290072D01*
X146944589Y-64320101D01*
X147004646Y-64380157D01*
X147034674Y-64440214D01*
X147064703Y-64560328D01*
X147064703Y-64650414D01*
X147034674Y-64770528D01*
X147004646Y-64830585D01*
X146944589Y-64890642D01*
X146854503Y-64920670D01*
X146704361Y-64920670D01*
X147184817Y-64161869D02*
X147815415Y-64161869D01*
X147665272Y-64320101D02*
X147605215Y-64290072D01*
X147515130Y-64290072D01*
X147425044Y-64320101D01*
X147364987Y-64380157D01*
X147334959Y-64440214D01*
X147304930Y-64560328D01*
X147304930Y-64650414D01*
X147334959Y-64770528D01*
X147364987Y-64830585D01*
X147425044Y-64890642D01*
X147515130Y-64920670D01*
X147575187Y-64920670D01*
X147665272Y-64890642D01*
X147695301Y-64860613D01*
X147695301Y-64650414D01*
X147575187Y-64650414D01*
X147815415Y-64161869D02*
X148385956Y-64161869D01*
X147965557Y-64590357D02*
X148175756Y-64590357D01*
X148265842Y-64920670D02*
X147965557Y-64920670D01*
X147965557Y-64290072D01*
X148265842Y-64290072D01*
X154091607Y-118719123D02*
X154122083Y-118627695D01*
X154122083Y-118475314D01*
X154091607Y-118414361D01*
X154061131Y-118383885D01*
X154000179Y-118353409D01*
X153939226Y-118353409D01*
X153878274Y-118383885D01*
X153847798Y-118414361D01*
X153817321Y-118475314D01*
X153786845Y-118597219D01*
X153756369Y-118658171D01*
X153725893Y-118688647D01*
X153664940Y-118719123D01*
X153603988Y-118719123D01*
X153543036Y-118688647D01*
X153512560Y-118658171D01*
X153482083Y-118597219D01*
X153482083Y-118444838D01*
X153512560Y-118353409D01*
X153482083Y-118170552D02*
X153482083Y-117804838D01*
X154122083Y-117987695D02*
X153482083Y-117987695D01*
X154122083Y-117591504D02*
X153482083Y-117591504D01*
X153939226Y-117378171D01*
X153482083Y-117164838D01*
X154122083Y-117164838D01*
X153482083Y-116921028D02*
X153482083Y-116524838D01*
X153725893Y-116738171D01*
X153725893Y-116646742D01*
X153756369Y-116585790D01*
X153786845Y-116555314D01*
X153847798Y-116524838D01*
X154000179Y-116524838D01*
X154061131Y-116555314D01*
X154091607Y-116585790D01*
X154122083Y-116646742D01*
X154122083Y-116829600D01*
X154091607Y-116890552D01*
X154061131Y-116921028D01*
X153543036Y-116281028D02*
X153512560Y-116250552D01*
X153482083Y-116189600D01*
X153482083Y-116037219D01*
X153512560Y-115976266D01*
X153543036Y-115945790D01*
X153603988Y-115915314D01*
X153664940Y-115915314D01*
X153756369Y-115945790D01*
X154122083Y-116311504D01*
X154122083Y-115915314D01*
X153512560Y-115305790D02*
X153482083Y-115366742D01*
X153482083Y-115458171D01*
X153512560Y-115549600D01*
X153573512Y-115610552D01*
X153634464Y-115641028D01*
X153756369Y-115671504D01*
X153847798Y-115671504D01*
X153969702Y-115641028D01*
X154030655Y-115610552D01*
X154091607Y-115549600D01*
X154122083Y-115458171D01*
X154122083Y-115397219D01*
X154091607Y-115305790D01*
X154061131Y-115275314D01*
X153847798Y-115275314D01*
X153847798Y-115397219D01*
X153482083Y-114879123D02*
X153482083Y-114818171D01*
X153512560Y-114757219D01*
X153543036Y-114726742D01*
X153603988Y-114696266D01*
X153725893Y-114665790D01*
X153878274Y-114665790D01*
X154000179Y-114696266D01*
X154061131Y-114726742D01*
X154091607Y-114757219D01*
X154122083Y-114818171D01*
X154122083Y-114879123D01*
X154091607Y-114940076D01*
X154061131Y-114970552D01*
X154000179Y-115001028D01*
X153878274Y-115031504D01*
X153725893Y-115031504D01*
X153603988Y-115001028D01*
X153543036Y-114970552D01*
X153512560Y-114940076D01*
X153482083Y-114879123D01*
X153695417Y-114117219D02*
X154122083Y-114117219D01*
X153451607Y-114269600D02*
X153908750Y-114421980D01*
X153908750Y-114025790D01*
X154122083Y-113446742D02*
X154122083Y-113812457D01*
X154122083Y-113629600D02*
X153482083Y-113629600D01*
X153573512Y-113690552D01*
X153634464Y-113751504D01*
X153664940Y-113812457D01*
X154061131Y-112806742D02*
X154091607Y-112837219D01*
X154122083Y-112928647D01*
X154122083Y-112989600D01*
X154091607Y-113081028D01*
X154030655Y-113141980D01*
X153969702Y-113172457D01*
X153847798Y-113202933D01*
X153756369Y-113202933D01*
X153634464Y-113172457D01*
X153573512Y-113141980D01*
X153512560Y-113081028D01*
X153482083Y-112989600D01*
X153482083Y-112928647D01*
X153512560Y-112837219D01*
X153543036Y-112806742D01*
X153756369Y-112441028D02*
X153725893Y-112501980D01*
X153695417Y-112532457D01*
X153634464Y-112562933D01*
X153603988Y-112562933D01*
X153543036Y-112532457D01*
X153512560Y-112501980D01*
X153482083Y-112441028D01*
X153482083Y-112319123D01*
X153512560Y-112258171D01*
X153543036Y-112227695D01*
X153603988Y-112197219D01*
X153634464Y-112197219D01*
X153695417Y-112227695D01*
X153725893Y-112258171D01*
X153756369Y-112319123D01*
X153756369Y-112441028D01*
X153786845Y-112501980D01*
X153817321Y-112532457D01*
X153878274Y-112562933D01*
X154000179Y-112562933D01*
X154061131Y-112532457D01*
X154091607Y-112501980D01*
X154122083Y-112441028D01*
X154122083Y-112319123D01*
X154091607Y-112258171D01*
X154061131Y-112227695D01*
X154000179Y-112197219D01*
X153878274Y-112197219D01*
X153817321Y-112227695D01*
X153786845Y-112258171D01*
X153756369Y-112319123D01*
X153482083Y-112014361D02*
X153482083Y-111648647D01*
X154122083Y-111831504D02*
X153482083Y-111831504D01*
X153482083Y-111161028D02*
X153482083Y-111282933D01*
X153512560Y-111343885D01*
X153543036Y-111374361D01*
X153634464Y-111435314D01*
X153756369Y-111465790D01*
X154000179Y-111465790D01*
X154061131Y-111435314D01*
X154091607Y-111404838D01*
X154122083Y-111343885D01*
X154122083Y-111221980D01*
X154091607Y-111161028D01*
X154061131Y-111130552D01*
X154000179Y-111100076D01*
X153847798Y-111100076D01*
X153786845Y-111130552D01*
X153756369Y-111161028D01*
X153725893Y-111221980D01*
X153725893Y-111343885D01*
X153756369Y-111404838D01*
X153786845Y-111435314D01*
X153847798Y-111465790D01*
D15*
X164633163Y-103287580D02*
X165252211Y-103287580D01*
X164918878Y-103668533D01*
X165061735Y-103668533D01*
X165156973Y-103716152D01*
X165204592Y-103763771D01*
X165252211Y-103859009D01*
X165252211Y-104097104D01*
X165204592Y-104192342D01*
X165156973Y-104239961D01*
X165061735Y-104287580D01*
X164776020Y-104287580D01*
X164680782Y-104239961D01*
X164633163Y-104192342D01*
X165633163Y-103382819D02*
X165680782Y-103335200D01*
X165776020Y-103287580D01*
X166014116Y-103287580D01*
X166109354Y-103335200D01*
X166156973Y-103382819D01*
X166204592Y-103478057D01*
X166204592Y-103573295D01*
X166156973Y-103716152D01*
X165585544Y-104287580D01*
X166204592Y-104287580D01*
X166633163Y-104192342D02*
X166680782Y-104239961D01*
X166633163Y-104287580D01*
X166585544Y-104239961D01*
X166633163Y-104192342D01*
X166633163Y-104287580D01*
X167014116Y-103287580D02*
X167680782Y-103287580D01*
X167252211Y-104287580D01*
X168490306Y-103287580D02*
X168299830Y-103287580D01*
X168204592Y-103335200D01*
X168156973Y-103382819D01*
X168061735Y-103525676D01*
X168014116Y-103716152D01*
X168014116Y-104097104D01*
X168061735Y-104192342D01*
X168109354Y-104239961D01*
X168204592Y-104287580D01*
X168395068Y-104287580D01*
X168490306Y-104239961D01*
X168537925Y-104192342D01*
X168585544Y-104097104D01*
X168585544Y-103859009D01*
X168537925Y-103763771D01*
X168490306Y-103716152D01*
X168395068Y-103668533D01*
X168204592Y-103668533D01*
X168109354Y-103716152D01*
X168061735Y-103763771D01*
X168014116Y-103859009D01*
X169156973Y-103716152D02*
X169061735Y-103668533D01*
X169014116Y-103620914D01*
X168966497Y-103525676D01*
X168966497Y-103478057D01*
X169014116Y-103382819D01*
X169061735Y-103335200D01*
X169156973Y-103287580D01*
X169347449Y-103287580D01*
X169442687Y-103335200D01*
X169490306Y-103382819D01*
X169537925Y-103478057D01*
X169537925Y-103525676D01*
X169490306Y-103620914D01*
X169442687Y-103668533D01*
X169347449Y-103716152D01*
X169156973Y-103716152D01*
X169061735Y-103763771D01*
X169014116Y-103811390D01*
X168966497Y-103906628D01*
X168966497Y-104097104D01*
X169014116Y-104192342D01*
X169061735Y-104239961D01*
X169156973Y-104287580D01*
X169347449Y-104287580D01*
X169442687Y-104239961D01*
X169490306Y-104192342D01*
X169537925Y-104097104D01*
X169537925Y-103906628D01*
X169490306Y-103811390D01*
X169442687Y-103763771D01*
X169347449Y-103716152D01*
X170728401Y-104287580D02*
X170728401Y-103287580D01*
X170823640Y-103906628D02*
X171109354Y-104287580D01*
X171109354Y-103620914D02*
X170728401Y-104001866D01*
X171537925Y-104287580D02*
X171537925Y-103287580D01*
X171537925Y-103763771D02*
X172109354Y-103763771D01*
X172109354Y-104287580D02*
X172109354Y-103287580D01*
X172490306Y-103620914D02*
X173014116Y-103620914D01*
X172490306Y-104287580D01*
X173014116Y-104287580D01*
X158070609Y-102963030D02*
X158070609Y-103439220D01*
X157737276Y-102439220D02*
X158070609Y-102963030D01*
X158403942Y-102439220D01*
X159261085Y-103439220D02*
X158689657Y-103439220D01*
X158975371Y-103439220D02*
X158975371Y-102439220D01*
X158880133Y-102582078D01*
X158784895Y-102677316D01*
X158689657Y-102724935D01*
X164622742Y-82180180D02*
X165194171Y-82180180D01*
X164908457Y-83180180D02*
X164908457Y-82180180D01*
X165527504Y-83180180D02*
X165527504Y-82180180D01*
X165908457Y-82180180D01*
X166003695Y-82227800D01*
X166051314Y-82275419D01*
X166098933Y-82370657D01*
X166098933Y-82513514D01*
X166051314Y-82608752D01*
X166003695Y-82656371D01*
X165908457Y-82703990D01*
X165527504Y-82703990D01*
X166479885Y-83132561D02*
X166622742Y-83180180D01*
X166860838Y-83180180D01*
X166956076Y-83132561D01*
X167003695Y-83084942D01*
X167051314Y-82989704D01*
X167051314Y-82894466D01*
X167003695Y-82799228D01*
X166956076Y-82751609D01*
X166860838Y-82703990D01*
X166670361Y-82656371D01*
X166575123Y-82608752D01*
X166527504Y-82561133D01*
X166479885Y-82465895D01*
X166479885Y-82370657D01*
X166527504Y-82275419D01*
X166575123Y-82227800D01*
X166670361Y-82180180D01*
X166908457Y-82180180D01*
X167051314Y-82227800D01*
X167384647Y-82180180D02*
X168051314Y-82180180D01*
X167622742Y-83180180D01*
X168337028Y-82180180D02*
X169003695Y-82180180D01*
X168575123Y-83180180D01*
X169289409Y-82180180D02*
X169956076Y-82180180D01*
X169527504Y-83180180D01*
X170241790Y-82180180D02*
X170860838Y-82180180D01*
X170527504Y-82561133D01*
X170670361Y-82561133D01*
X170765600Y-82608752D01*
X170813219Y-82656371D01*
X170860838Y-82751609D01*
X170860838Y-82989704D01*
X170813219Y-83084942D01*
X170765600Y-83132561D01*
X170670361Y-83180180D01*
X170384647Y-83180180D01*
X170289409Y-83132561D01*
X170241790Y-83084942D01*
X171194171Y-82180180D02*
X171813219Y-82180180D01*
X171479885Y-82561133D01*
X171622742Y-82561133D01*
X171717980Y-82608752D01*
X171765600Y-82656371D01*
X171813219Y-82751609D01*
X171813219Y-82989704D01*
X171765600Y-83084942D01*
X171717980Y-83132561D01*
X171622742Y-83180180D01*
X171337028Y-83180180D01*
X171241790Y-83132561D01*
X171194171Y-83084942D01*
X172241790Y-83180180D02*
X172241790Y-82180180D01*
X172479885Y-82180180D01*
X172622742Y-82227800D01*
X172717980Y-82323038D01*
X172765600Y-82418276D01*
X172813219Y-82608752D01*
X172813219Y-82751609D01*
X172765600Y-82942085D01*
X172717980Y-83037323D01*
X172622742Y-83132561D01*
X172479885Y-83180180D01*
X172241790Y-83180180D01*
X173813219Y-83180180D02*
X173479885Y-82703990D01*
X173241790Y-83180180D02*
X173241790Y-82180180D01*
X173622742Y-82180180D01*
X173717980Y-82227800D01*
X173765600Y-82275419D01*
X173813219Y-82370657D01*
X173813219Y-82513514D01*
X173765600Y-82608752D01*
X173717980Y-82656371D01*
X173622742Y-82703990D01*
X173241790Y-82703990D01*
X165921014Y-90314519D02*
X165968633Y-90266900D01*
X166063871Y-90219280D01*
X166301966Y-90219280D01*
X166397204Y-90266900D01*
X166444823Y-90314519D01*
X166492442Y-90409757D01*
X166492442Y-90504995D01*
X166444823Y-90647852D01*
X165873395Y-91219280D01*
X166492442Y-91219280D01*
X167397204Y-90219280D02*
X166921014Y-90219280D01*
X166873395Y-90695471D01*
X166921014Y-90647852D01*
X167016252Y-90600233D01*
X167254347Y-90600233D01*
X167349585Y-90647852D01*
X167397204Y-90695471D01*
X167444823Y-90790709D01*
X167444823Y-91028804D01*
X167397204Y-91124042D01*
X167349585Y-91171661D01*
X167254347Y-91219280D01*
X167016252Y-91219280D01*
X166921014Y-91171661D01*
X166873395Y-91124042D01*
X168063871Y-90219280D02*
X168159109Y-90219280D01*
X168254347Y-90266900D01*
X168301966Y-90314519D01*
X168349585Y-90409757D01*
X168397204Y-90600233D01*
X168397204Y-90838328D01*
X168349585Y-91028804D01*
X168301966Y-91124042D01*
X168254347Y-91171661D01*
X168159109Y-91219280D01*
X168063871Y-91219280D01*
X167968633Y-91171661D01*
X167921014Y-91124042D01*
X167873395Y-91028804D01*
X167825776Y-90838328D01*
X167825776Y-90600233D01*
X167873395Y-90409757D01*
X167921014Y-90314519D01*
X167968633Y-90266900D01*
X168063871Y-90219280D01*
X168825776Y-91219280D02*
X168825776Y-90219280D01*
X168921014Y-90838328D02*
X169206728Y-91219280D01*
X169206728Y-90552614D02*
X168825776Y-90933566D01*
X169587680Y-91219280D02*
X169825776Y-91219280D01*
X169825776Y-91028804D01*
X169730538Y-90981185D01*
X169635300Y-90885947D01*
X169587680Y-90743090D01*
X169587680Y-90504995D01*
X169635300Y-90362138D01*
X169730538Y-90266900D01*
X169873395Y-90219280D01*
X170063871Y-90219280D01*
X170206728Y-90266900D01*
X170301966Y-90362138D01*
X170349585Y-90504995D01*
X170349585Y-90743090D01*
X170301966Y-90885947D01*
X170206728Y-90981185D01*
X170111490Y-91028804D01*
X170111490Y-91219280D01*
X170349585Y-91219280D01*
D18*
X161869733Y-90947852D02*
X161736400Y-90757376D01*
X161641161Y-90947852D02*
X161641161Y-90547852D01*
X161793542Y-90547852D01*
X161831638Y-90566900D01*
X161850685Y-90585947D01*
X161869733Y-90624042D01*
X161869733Y-90681185D01*
X161850685Y-90719280D01*
X161831638Y-90738328D01*
X161793542Y-90757376D01*
X161641161Y-90757376D01*
X162003066Y-90547852D02*
X162269733Y-90547852D01*
X162098304Y-90947852D01*
D15*
X155489133Y-104015780D02*
X154917704Y-104015780D01*
X155203419Y-104015780D02*
X155203419Y-103015780D01*
X155108180Y-103158638D01*
X155012942Y-103253876D01*
X154917704Y-103301495D01*
X156108180Y-103015780D02*
X156203419Y-103015780D01*
X156298657Y-103063400D01*
X156346276Y-103111019D01*
X156393895Y-103206257D01*
X156441514Y-103396733D01*
X156441514Y-103634828D01*
X156393895Y-103825304D01*
X156346276Y-103920542D01*
X156298657Y-103968161D01*
X156203419Y-104015780D01*
X156108180Y-104015780D01*
X156012942Y-103968161D01*
X155965323Y-103920542D01*
X155917704Y-103825304D01*
X155870085Y-103634828D01*
X155870085Y-103396733D01*
X155917704Y-103206257D01*
X155965323Y-103111019D01*
X156012942Y-103063400D01*
X156108180Y-103015780D01*
X156870085Y-104015780D02*
X156870085Y-103015780D01*
X156965323Y-103634828D02*
X157251038Y-104015780D01*
X157251038Y-103349114D02*
X156870085Y-103730066D01*
X157631990Y-104015780D02*
X157870085Y-104015780D01*
X157870085Y-103825304D01*
X157774847Y-103777685D01*
X157679609Y-103682447D01*
X157631990Y-103539590D01*
X157631990Y-103301495D01*
X157679609Y-103158638D01*
X157774847Y-103063400D01*
X157917704Y-103015780D01*
X158108180Y-103015780D01*
X158251038Y-103063400D01*
X158346276Y-103158638D01*
X158393895Y-103301495D01*
X158393895Y-103539590D01*
X158346276Y-103682447D01*
X158251038Y-103777685D01*
X158155800Y-103825304D01*
X158155800Y-104015780D01*
X158393895Y-104015780D01*
D18*
X156589133Y-102314352D02*
X156455800Y-102123876D01*
X156360561Y-102314352D02*
X156360561Y-101914352D01*
X156512942Y-101914352D01*
X156551038Y-101933400D01*
X156570085Y-101952447D01*
X156589133Y-101990542D01*
X156589133Y-102047685D01*
X156570085Y-102085780D01*
X156551038Y-102104828D01*
X156512942Y-102123876D01*
X156360561Y-102123876D01*
X156931990Y-101914352D02*
X156855800Y-101914352D01*
X156817704Y-101933400D01*
X156798657Y-101952447D01*
X156760561Y-102009590D01*
X156741514Y-102085780D01*
X156741514Y-102238161D01*
X156760561Y-102276257D01*
X156779609Y-102295304D01*
X156817704Y-102314352D01*
X156893895Y-102314352D01*
X156931990Y-102295304D01*
X156951038Y-102276257D01*
X156970085Y-102238161D01*
X156970085Y-102142923D01*
X156951038Y-102104828D01*
X156931990Y-102085780D01*
X156893895Y-102066733D01*
X156817704Y-102066733D01*
X156779609Y-102085780D01*
X156760561Y-102104828D01*
X156741514Y-102142923D01*
D15*
X148414980Y-105662266D02*
X148414980Y-106233695D01*
X148414980Y-105947980D02*
X147414980Y-105947980D01*
X147557838Y-106043219D01*
X147653076Y-106138457D01*
X147700695Y-106233695D01*
X147414980Y-105043219D02*
X147414980Y-104947980D01*
X147462600Y-104852742D01*
X147510219Y-104805123D01*
X147605457Y-104757504D01*
X147795933Y-104709885D01*
X148034028Y-104709885D01*
X148224504Y-104757504D01*
X148319742Y-104805123D01*
X148367361Y-104852742D01*
X148414980Y-104947980D01*
X148414980Y-105043219D01*
X148367361Y-105138457D01*
X148319742Y-105186076D01*
X148224504Y-105233695D01*
X148034028Y-105281314D01*
X147795933Y-105281314D01*
X147605457Y-105233695D01*
X147510219Y-105186076D01*
X147462600Y-105138457D01*
X147414980Y-105043219D01*
X148414980Y-104281314D02*
X147414980Y-104281314D01*
X148034028Y-104186076D02*
X148414980Y-103900361D01*
X147748314Y-103900361D02*
X148129266Y-104281314D01*
X148414980Y-103519409D02*
X148414980Y-103281314D01*
X148224504Y-103281314D01*
X148176885Y-103376552D01*
X148081647Y-103471790D01*
X147938790Y-103519409D01*
X147700695Y-103519409D01*
X147557838Y-103471790D01*
X147462600Y-103376552D01*
X147414980Y-103233695D01*
X147414980Y-103043219D01*
X147462600Y-102900361D01*
X147557838Y-102805123D01*
X147700695Y-102757504D01*
X147938790Y-102757504D01*
X148081647Y-102805123D01*
X148176885Y-102900361D01*
X148224504Y-102995600D01*
X148414980Y-102995600D01*
X148414980Y-102757504D01*
D18*
X146713552Y-104562266D02*
X146523076Y-104695600D01*
X146713552Y-104790838D02*
X146313552Y-104790838D01*
X146313552Y-104638457D01*
X146332600Y-104600361D01*
X146351647Y-104581314D01*
X146389742Y-104562266D01*
X146446885Y-104562266D01*
X146484980Y-104581314D01*
X146504028Y-104600361D01*
X146523076Y-104638457D01*
X146523076Y-104790838D01*
X146313552Y-104200361D02*
X146313552Y-104390838D01*
X146504028Y-104409885D01*
X146484980Y-104390838D01*
X146465933Y-104352742D01*
X146465933Y-104257504D01*
X146484980Y-104219409D01*
X146504028Y-104200361D01*
X146542123Y-104181314D01*
X146637361Y-104181314D01*
X146675457Y-104200361D01*
X146694504Y-104219409D01*
X146713552Y-104257504D01*
X146713552Y-104352742D01*
X146694504Y-104390838D01*
X146675457Y-104409885D01*
D15*
X148418704Y-124084340D02*
X147847276Y-124084340D01*
X148132990Y-124084340D02*
X148132990Y-123084340D01*
X148037752Y-123227198D01*
X147942514Y-123322436D01*
X147847276Y-123370055D01*
X149037752Y-123084340D02*
X149132990Y-123084340D01*
X149228228Y-123131960D01*
X149275847Y-123179579D01*
X149323466Y-123274817D01*
X149371085Y-123465293D01*
X149371085Y-123703388D01*
X149323466Y-123893864D01*
X149275847Y-123989102D01*
X149228228Y-124036721D01*
X149132990Y-124084340D01*
X149037752Y-124084340D01*
X148942514Y-124036721D01*
X148894895Y-123989102D01*
X148847276Y-123893864D01*
X148799657Y-123703388D01*
X148799657Y-123465293D01*
X148847276Y-123274817D01*
X148894895Y-123179579D01*
X148942514Y-123131960D01*
X149037752Y-123084340D01*
X149990133Y-123084340D02*
X150085371Y-123084340D01*
X150180609Y-123131960D01*
X150228228Y-123179579D01*
X150275847Y-123274817D01*
X150323466Y-123465293D01*
X150323466Y-123703388D01*
X150275847Y-123893864D01*
X150228228Y-123989102D01*
X150180609Y-124036721D01*
X150085371Y-124084340D01*
X149990133Y-124084340D01*
X149894895Y-124036721D01*
X149847276Y-123989102D01*
X149799657Y-123893864D01*
X149752038Y-123703388D01*
X149752038Y-123465293D01*
X149799657Y-123274817D01*
X149847276Y-123179579D01*
X149894895Y-123131960D01*
X149990133Y-123084340D01*
X150704419Y-124084340D02*
X150942514Y-124084340D01*
X150942514Y-123893864D01*
X150847276Y-123846245D01*
X150752038Y-123751007D01*
X150704419Y-123608150D01*
X150704419Y-123370055D01*
X150752038Y-123227198D01*
X150847276Y-123131960D01*
X150990133Y-123084340D01*
X151180609Y-123084340D01*
X151323466Y-123131960D01*
X151418704Y-123227198D01*
X151466323Y-123370055D01*
X151466323Y-123608150D01*
X151418704Y-123751007D01*
X151323466Y-123846245D01*
X151228228Y-123893864D01*
X151228228Y-124084340D01*
X151466323Y-124084340D01*
D18*
X149548253Y-122507352D02*
X149414920Y-122316876D01*
X149319681Y-122507352D02*
X149319681Y-122107352D01*
X149472062Y-122107352D01*
X149510158Y-122126400D01*
X149529205Y-122145447D01*
X149548253Y-122183542D01*
X149548253Y-122240685D01*
X149529205Y-122278780D01*
X149510158Y-122297828D01*
X149472062Y-122316876D01*
X149319681Y-122316876D01*
X149891110Y-122240685D02*
X149891110Y-122507352D01*
X149795872Y-122088304D02*
X149700634Y-122374019D01*
X149948253Y-122374019D01*
D15*
X159199704Y-124295140D02*
X158628276Y-124295140D01*
X158913990Y-124295140D02*
X158913990Y-123295140D01*
X158818752Y-123437998D01*
X158723514Y-123533236D01*
X158628276Y-123580855D01*
X159818752Y-123295140D02*
X159913990Y-123295140D01*
X160009228Y-123342760D01*
X160056847Y-123390379D01*
X160104466Y-123485617D01*
X160152085Y-123676093D01*
X160152085Y-123914188D01*
X160104466Y-124104664D01*
X160056847Y-124199902D01*
X160009228Y-124247521D01*
X159913990Y-124295140D01*
X159818752Y-124295140D01*
X159723514Y-124247521D01*
X159675895Y-124199902D01*
X159628276Y-124104664D01*
X159580657Y-123914188D01*
X159580657Y-123676093D01*
X159628276Y-123485617D01*
X159675895Y-123390379D01*
X159723514Y-123342760D01*
X159818752Y-123295140D01*
X160771133Y-123295140D02*
X160866371Y-123295140D01*
X160961609Y-123342760D01*
X161009228Y-123390379D01*
X161056847Y-123485617D01*
X161104466Y-123676093D01*
X161104466Y-123914188D01*
X161056847Y-124104664D01*
X161009228Y-124199902D01*
X160961609Y-124247521D01*
X160866371Y-124295140D01*
X160771133Y-124295140D01*
X160675895Y-124247521D01*
X160628276Y-124199902D01*
X160580657Y-124104664D01*
X160533038Y-123914188D01*
X160533038Y-123676093D01*
X160580657Y-123485617D01*
X160628276Y-123390379D01*
X160675895Y-123342760D01*
X160771133Y-123295140D01*
X161485419Y-124295140D02*
X161723514Y-124295140D01*
X161723514Y-124104664D01*
X161628276Y-124057045D01*
X161533038Y-123961807D01*
X161485419Y-123818950D01*
X161485419Y-123580855D01*
X161533038Y-123437998D01*
X161628276Y-123342760D01*
X161771133Y-123295140D01*
X161961609Y-123295140D01*
X162104466Y-123342760D01*
X162199704Y-123437998D01*
X162247323Y-123580855D01*
X162247323Y-123818950D01*
X162199704Y-123961807D01*
X162104466Y-124057045D01*
X162009228Y-124104664D01*
X162009228Y-124295140D01*
X162247323Y-124295140D01*
D18*
X160371133Y-122593712D02*
X160237800Y-122403236D01*
X160142561Y-122593712D02*
X160142561Y-122193712D01*
X160294942Y-122193712D01*
X160333038Y-122212760D01*
X160352085Y-122231807D01*
X160371133Y-122269902D01*
X160371133Y-122327045D01*
X160352085Y-122365140D01*
X160333038Y-122384188D01*
X160294942Y-122403236D01*
X160142561Y-122403236D01*
X160504466Y-122193712D02*
X160752085Y-122193712D01*
X160618752Y-122346093D01*
X160675895Y-122346093D01*
X160713990Y-122365140D01*
X160733038Y-122384188D01*
X160752085Y-122422283D01*
X160752085Y-122517521D01*
X160733038Y-122555617D01*
X160713990Y-122574664D01*
X160675895Y-122593712D01*
X160561609Y-122593712D01*
X160523514Y-122574664D01*
X160504466Y-122555617D01*
D15*
X151553919Y-84339233D02*
X151506300Y-84291614D01*
X151458680Y-84196376D01*
X151458680Y-83958280D01*
X151506300Y-83863042D01*
X151553919Y-83815423D01*
X151649157Y-83767804D01*
X151744395Y-83767804D01*
X151887252Y-83815423D01*
X152458680Y-84386852D01*
X152458680Y-83767804D01*
X151458680Y-83434471D02*
X151458680Y-82767804D01*
X152458680Y-83196376D01*
X152458680Y-82434471D02*
X152458680Y-82196376D01*
X152268204Y-82196376D01*
X152220585Y-82291614D01*
X152125347Y-82386852D01*
X151982490Y-82434471D01*
X151744395Y-82434471D01*
X151601538Y-82386852D01*
X151506300Y-82291614D01*
X151458680Y-82148757D01*
X151458680Y-81958280D01*
X151506300Y-81815423D01*
X151601538Y-81720185D01*
X151744395Y-81672566D01*
X151982490Y-81672566D01*
X152125347Y-81720185D01*
X152220585Y-81815423D01*
X152268204Y-81910661D01*
X152458680Y-81910661D01*
X152458680Y-81672566D01*
D18*
X149418652Y-83061166D02*
X149228176Y-83194500D01*
X149418652Y-83289738D02*
X149018652Y-83289738D01*
X149018652Y-83137357D01*
X149037700Y-83099261D01*
X149056747Y-83080214D01*
X149094842Y-83061166D01*
X149151985Y-83061166D01*
X149190080Y-83080214D01*
X149209128Y-83099261D01*
X149228176Y-83137357D01*
X149228176Y-83289738D01*
X149056747Y-82908785D02*
X149037700Y-82889738D01*
X149018652Y-82851642D01*
X149018652Y-82756404D01*
X149037700Y-82718309D01*
X149056747Y-82699261D01*
X149094842Y-82680214D01*
X149132938Y-82680214D01*
X149190080Y-82699261D01*
X149418652Y-82927833D01*
X149418652Y-82680214D01*
D15*
X144403819Y-84428133D02*
X144356200Y-84380514D01*
X144308580Y-84285276D01*
X144308580Y-84047180D01*
X144356200Y-83951942D01*
X144403819Y-83904323D01*
X144499057Y-83856704D01*
X144594295Y-83856704D01*
X144737152Y-83904323D01*
X145308580Y-84475752D01*
X145308580Y-83856704D01*
X144308580Y-83523371D02*
X144308580Y-82856704D01*
X145308580Y-83285276D01*
X145308580Y-82523371D02*
X145308580Y-82285276D01*
X145118104Y-82285276D01*
X145070485Y-82380514D01*
X144975247Y-82475752D01*
X144832390Y-82523371D01*
X144594295Y-82523371D01*
X144451438Y-82475752D01*
X144356200Y-82380514D01*
X144308580Y-82237657D01*
X144308580Y-82047180D01*
X144356200Y-81904323D01*
X144451438Y-81809085D01*
X144594295Y-81761466D01*
X144832390Y-81761466D01*
X144975247Y-81809085D01*
X145070485Y-81904323D01*
X145118104Y-81999561D01*
X145308580Y-81999561D01*
X145308580Y-81761466D01*
D18*
X147856552Y-83086566D02*
X147666076Y-83219900D01*
X147856552Y-83315138D02*
X147456552Y-83315138D01*
X147456552Y-83162757D01*
X147475600Y-83124661D01*
X147494647Y-83105614D01*
X147532742Y-83086566D01*
X147589885Y-83086566D01*
X147627980Y-83105614D01*
X147647028Y-83124661D01*
X147666076Y-83162757D01*
X147666076Y-83315138D01*
X147856552Y-82705614D02*
X147856552Y-82934185D01*
X147856552Y-82819900D02*
X147456552Y-82819900D01*
X147513695Y-82857995D01*
X147551790Y-82896090D01*
X147570838Y-82934185D01*
D15*
X150197157Y-116997680D02*
X150292395Y-116997680D01*
X150387633Y-117045300D01*
X150435252Y-117092919D01*
X150482871Y-117188157D01*
X150530490Y-117378633D01*
X150530490Y-117616728D01*
X150482871Y-117807204D01*
X150435252Y-117902442D01*
X150387633Y-117950061D01*
X150292395Y-117997680D01*
X150197157Y-117997680D01*
X150101919Y-117950061D01*
X150054300Y-117902442D01*
X150006680Y-117807204D01*
X149959061Y-117616728D01*
X149959061Y-117378633D01*
X150006680Y-117188157D01*
X150054300Y-117092919D01*
X150101919Y-117045300D01*
X150197157Y-116997680D01*
X150911442Y-117092919D02*
X150959061Y-117045300D01*
X151054300Y-116997680D01*
X151292395Y-116997680D01*
X151387633Y-117045300D01*
X151435252Y-117092919D01*
X151482871Y-117188157D01*
X151482871Y-117283395D01*
X151435252Y-117426252D01*
X150863823Y-117997680D01*
X151482871Y-117997680D01*
X151816204Y-117997680D02*
X152340014Y-117331014D01*
X151816204Y-117331014D02*
X152340014Y-117997680D01*
X152911442Y-116997680D02*
X153006680Y-116997680D01*
X153101919Y-117045300D01*
X153149538Y-117092919D01*
X153197157Y-117188157D01*
X153244776Y-117378633D01*
X153244776Y-117616728D01*
X153197157Y-117807204D01*
X153149538Y-117902442D01*
X153101919Y-117950061D01*
X153006680Y-117997680D01*
X152911442Y-117997680D01*
X152816204Y-117950061D01*
X152768585Y-117902442D01*
X152720966Y-117807204D01*
X152673347Y-117616728D01*
X152673347Y-117378633D01*
X152720966Y-117188157D01*
X152768585Y-117092919D01*
X152816204Y-117045300D01*
X152911442Y-116997680D01*
X153578109Y-116997680D02*
X154197157Y-116997680D01*
X153863823Y-117378633D01*
X154006680Y-117378633D01*
X154101919Y-117426252D01*
X154149538Y-117473871D01*
X154197157Y-117569109D01*
X154197157Y-117807204D01*
X154149538Y-117902442D01*
X154101919Y-117950061D01*
X154006680Y-117997680D01*
X153720966Y-117997680D01*
X153625728Y-117950061D01*
X153578109Y-117902442D01*
X155387633Y-117997680D02*
X155387633Y-116997680D01*
X155387633Y-117473871D02*
X155959061Y-117473871D01*
X155959061Y-117997680D02*
X155959061Y-116997680D01*
X156816204Y-117950061D02*
X156720966Y-117997680D01*
X156530490Y-117997680D01*
X156435252Y-117950061D01*
X156387633Y-117854823D01*
X156387633Y-117473871D01*
X156435252Y-117378633D01*
X156530490Y-117331014D01*
X156720966Y-117331014D01*
X156816204Y-117378633D01*
X156863823Y-117473871D01*
X156863823Y-117569109D01*
X156387633Y-117664347D01*
X157720966Y-117997680D02*
X157720966Y-117473871D01*
X157673347Y-117378633D01*
X157578109Y-117331014D01*
X157387633Y-117331014D01*
X157292395Y-117378633D01*
X157720966Y-117950061D02*
X157625728Y-117997680D01*
X157387633Y-117997680D01*
X157292395Y-117950061D01*
X157244776Y-117854823D01*
X157244776Y-117759585D01*
X157292395Y-117664347D01*
X157387633Y-117616728D01*
X157625728Y-117616728D01*
X157720966Y-117569109D01*
X158625728Y-117997680D02*
X158625728Y-116997680D01*
X158625728Y-117950061D02*
X158530490Y-117997680D01*
X158340014Y-117997680D01*
X158244776Y-117950061D01*
X158197157Y-117902442D01*
X158149538Y-117807204D01*
X158149538Y-117521490D01*
X158197157Y-117426252D01*
X158244776Y-117378633D01*
X158340014Y-117331014D01*
X158530490Y-117331014D01*
X158625728Y-117378633D01*
X159482871Y-117950061D02*
X159387633Y-117997680D01*
X159197157Y-117997680D01*
X159101919Y-117950061D01*
X159054300Y-117854823D01*
X159054300Y-117473871D01*
X159101919Y-117378633D01*
X159197157Y-117331014D01*
X159387633Y-117331014D01*
X159482871Y-117378633D01*
X159530490Y-117473871D01*
X159530490Y-117569109D01*
X159054300Y-117664347D01*
X159959061Y-117997680D02*
X159959061Y-117331014D01*
X159959061Y-117521490D02*
X160006680Y-117426252D01*
X160054300Y-117378633D01*
X160149538Y-117331014D01*
X160244776Y-117331014D01*
X154506680Y-122748633D02*
X155220966Y-122748633D01*
X155363823Y-122796252D01*
X155459061Y-122891490D01*
X155506680Y-123034347D01*
X155506680Y-123129585D01*
X154506680Y-122367680D02*
X154506680Y-121748633D01*
X154887633Y-122081966D01*
X154887633Y-121939109D01*
X154935252Y-121843871D01*
X154982871Y-121796252D01*
X155078109Y-121748633D01*
X155316204Y-121748633D01*
X155411442Y-121796252D01*
X155459061Y-121843871D01*
X155506680Y-121939109D01*
X155506680Y-122224823D01*
X155459061Y-122320061D01*
X155411442Y-122367680D01*
X166861004Y-66270142D02*
X166813385Y-66317761D01*
X166670528Y-66365380D01*
X166575290Y-66365380D01*
X166432433Y-66317761D01*
X166337195Y-66222523D01*
X166289576Y-66127285D01*
X166241957Y-65936809D01*
X166241957Y-65793952D01*
X166289576Y-65603476D01*
X166337195Y-65508238D01*
X166432433Y-65413000D01*
X166575290Y-65365380D01*
X166670528Y-65365380D01*
X166813385Y-65413000D01*
X166861004Y-65460619D01*
X167432433Y-66365380D02*
X167337195Y-66317761D01*
X167289576Y-66270142D01*
X167241957Y-66174904D01*
X167241957Y-65889190D01*
X167289576Y-65793952D01*
X167337195Y-65746333D01*
X167432433Y-65698714D01*
X167575290Y-65698714D01*
X167670528Y-65746333D01*
X167718147Y-65793952D01*
X167765766Y-65889190D01*
X167765766Y-66174904D01*
X167718147Y-66270142D01*
X167670528Y-66317761D01*
X167575290Y-66365380D01*
X167432433Y-66365380D01*
X168194338Y-65698714D02*
X168194338Y-66365380D01*
X168194338Y-65793952D02*
X168241957Y-65746333D01*
X168337195Y-65698714D01*
X168480052Y-65698714D01*
X168575290Y-65746333D01*
X168622909Y-65841571D01*
X168622909Y-66365380D01*
X169099100Y-65698714D02*
X169099100Y-66365380D01*
X169099100Y-65793952D02*
X169146719Y-65746333D01*
X169241957Y-65698714D01*
X169384814Y-65698714D01*
X169480052Y-65746333D01*
X169527671Y-65841571D01*
X169527671Y-66365380D01*
X169765766Y-66460619D02*
X170527671Y-66460619D01*
X170956242Y-65365380D02*
X171051480Y-65365380D01*
X171146719Y-65413000D01*
X171194338Y-65460619D01*
X171241957Y-65555857D01*
X171289576Y-65746333D01*
X171289576Y-65984428D01*
X171241957Y-66174904D01*
X171194338Y-66270142D01*
X171146719Y-66317761D01*
X171051480Y-66365380D01*
X170956242Y-66365380D01*
X170861004Y-66317761D01*
X170813385Y-66270142D01*
X170765766Y-66174904D01*
X170718147Y-65984428D01*
X170718147Y-65746333D01*
X170765766Y-65555857D01*
X170813385Y-65460619D01*
X170861004Y-65413000D01*
X170956242Y-65365380D01*
X172241957Y-66365380D02*
X171670528Y-66365380D01*
X171956242Y-66365380D02*
X171956242Y-65365380D01*
X171861004Y-65508238D01*
X171765766Y-65603476D01*
X171670528Y-65651095D01*
X172575290Y-66365380D02*
X173099100Y-65698714D01*
X172575290Y-65698714D02*
X173099100Y-66365380D01*
X173670528Y-65365380D02*
X173765766Y-65365380D01*
X173861004Y-65413000D01*
X173908623Y-65460619D01*
X173956242Y-65555857D01*
X174003861Y-65746333D01*
X174003861Y-65984428D01*
X173956242Y-66174904D01*
X173908623Y-66270142D01*
X173861004Y-66317761D01*
X173765766Y-66365380D01*
X173670528Y-66365380D01*
X173575290Y-66317761D01*
X173527671Y-66270142D01*
X173480052Y-66174904D01*
X173432433Y-65984428D01*
X173432433Y-65746333D01*
X173480052Y-65555857D01*
X173527671Y-65460619D01*
X173575290Y-65413000D01*
X173670528Y-65365380D01*
X174384814Y-65460619D02*
X174432433Y-65413000D01*
X174527671Y-65365380D01*
X174765766Y-65365380D01*
X174861004Y-65413000D01*
X174908623Y-65460619D01*
X174956242Y-65555857D01*
X174956242Y-65651095D01*
X174908623Y-65793952D01*
X174337195Y-66365380D01*
X174956242Y-66365380D01*
X161116366Y-68541780D02*
X161116366Y-69256066D01*
X161068747Y-69398923D01*
X160973509Y-69494161D01*
X160830652Y-69541780D01*
X160735414Y-69541780D01*
X161544938Y-68637019D02*
X161592557Y-68589400D01*
X161687795Y-68541780D01*
X161925890Y-68541780D01*
X162021128Y-68589400D01*
X162068747Y-68637019D01*
X162116366Y-68732257D01*
X162116366Y-68827495D01*
X162068747Y-68970352D01*
X161497319Y-69541780D01*
X162116366Y-69541780D01*
D16*
X149875723Y-90266761D02*
X148605723Y-90266761D01*
X149754771Y-88936285D02*
X149815247Y-88996761D01*
X149875723Y-89178190D01*
X149875723Y-89299142D01*
X149815247Y-89480571D01*
X149694295Y-89601523D01*
X149573342Y-89662000D01*
X149331438Y-89722476D01*
X149150009Y-89722476D01*
X148908104Y-89662000D01*
X148787152Y-89601523D01*
X148666200Y-89480571D01*
X148605723Y-89299142D01*
X148605723Y-89178190D01*
X148666200Y-88996761D01*
X148726676Y-88936285D01*
X148726676Y-88452476D02*
X148666200Y-88392000D01*
X148605723Y-88271047D01*
X148605723Y-87968666D01*
X148666200Y-87847714D01*
X148726676Y-87787238D01*
X148847628Y-87726761D01*
X148968580Y-87726761D01*
X149150009Y-87787238D01*
X149875723Y-88512952D01*
X149875723Y-87726761D01*
D15*
X164268447Y-74582380D02*
X164935114Y-74582380D01*
X164506542Y-75582380D01*
X165792257Y-74582380D02*
X165316066Y-74582380D01*
X165268447Y-75058571D01*
X165316066Y-75010952D01*
X165411304Y-74963333D01*
X165649400Y-74963333D01*
X165744638Y-75010952D01*
X165792257Y-75058571D01*
X165839876Y-75153809D01*
X165839876Y-75391904D01*
X165792257Y-75487142D01*
X165744638Y-75534761D01*
X165649400Y-75582380D01*
X165411304Y-75582380D01*
X165316066Y-75534761D01*
X165268447Y-75487142D01*
X166458923Y-74582380D02*
X166554161Y-74582380D01*
X166649400Y-74630000D01*
X166697019Y-74677619D01*
X166744638Y-74772857D01*
X166792257Y-74963333D01*
X166792257Y-75201428D01*
X166744638Y-75391904D01*
X166697019Y-75487142D01*
X166649400Y-75534761D01*
X166554161Y-75582380D01*
X166458923Y-75582380D01*
X166363685Y-75534761D01*
X166316066Y-75487142D01*
X166268447Y-75391904D01*
X166220828Y-75201428D01*
X166220828Y-74963333D01*
X166268447Y-74772857D01*
X166316066Y-74677619D01*
X166363685Y-74630000D01*
X166458923Y-74582380D01*
X167220828Y-75582380D02*
X167220828Y-74915714D01*
X167220828Y-75010952D02*
X167268447Y-74963333D01*
X167363685Y-74915714D01*
X167506542Y-74915714D01*
X167601780Y-74963333D01*
X167649400Y-75058571D01*
X167649400Y-75582380D01*
X167649400Y-75058571D02*
X167697019Y-74963333D01*
X167792257Y-74915714D01*
X167935114Y-74915714D01*
X168030352Y-74963333D01*
X168077971Y-75058571D01*
X168077971Y-75582380D01*
X168506542Y-75296666D02*
X168982733Y-75296666D01*
X168411304Y-75582380D02*
X168744638Y-74582380D01*
X169077971Y-75582380D01*
D19*
X162947357Y-75563366D02*
X162947357Y-75830033D01*
X163366404Y-75830033D02*
X162566404Y-75830033D01*
X162566404Y-75449080D01*
X163366404Y-74725271D02*
X163366404Y-75182414D01*
X163366404Y-74953842D02*
X162566404Y-74953842D01*
X162680690Y-75030033D01*
X162756880Y-75106223D01*
X162794976Y-75182414D01*
D15*
X163961795Y-72474080D02*
X163961795Y-71474080D01*
X164199890Y-71474080D01*
X164342747Y-71521700D01*
X164437985Y-71616938D01*
X164485604Y-71712176D01*
X164533223Y-71902652D01*
X164533223Y-72045509D01*
X164485604Y-72235985D01*
X164437985Y-72331223D01*
X164342747Y-72426461D01*
X164199890Y-72474080D01*
X163961795Y-72474080D01*
X160616404Y-73978780D02*
X160616404Y-72978780D01*
X160854500Y-72978780D01*
X160997357Y-73026400D01*
X161092595Y-73121638D01*
X161140214Y-73216876D01*
X161187833Y-73407352D01*
X161187833Y-73550209D01*
X161140214Y-73740685D01*
X161092595Y-73835923D01*
X160997357Y-73931161D01*
X160854500Y-73978780D01*
X160616404Y-73978780D01*
X162140214Y-73978780D02*
X161568785Y-73978780D01*
X161854500Y-73978780D02*
X161854500Y-72978780D01*
X161759261Y-73121638D01*
X161664023Y-73216876D01*
X161568785Y-73264495D01*
X165387590Y-93826080D02*
X165482828Y-93826080D01*
X165578066Y-93873700D01*
X165625685Y-93921319D01*
X165673304Y-94016557D01*
X165720923Y-94207033D01*
X165720923Y-94445128D01*
X165673304Y-94635604D01*
X165625685Y-94730842D01*
X165578066Y-94778461D01*
X165482828Y-94826080D01*
X165387590Y-94826080D01*
X165292352Y-94778461D01*
X165244733Y-94730842D01*
X165197114Y-94635604D01*
X165149495Y-94445128D01*
X165149495Y-94207033D01*
X165197114Y-94016557D01*
X165244733Y-93921319D01*
X165292352Y-93873700D01*
X165387590Y-93826080D01*
X166149495Y-94730842D02*
X166197114Y-94778461D01*
X166149495Y-94826080D01*
X166101876Y-94778461D01*
X166149495Y-94730842D01*
X166149495Y-94826080D01*
X167149495Y-94826080D02*
X166578066Y-94826080D01*
X166863780Y-94826080D02*
X166863780Y-93826080D01*
X166768542Y-93968938D01*
X166673304Y-94064176D01*
X166578066Y-94111795D01*
X168768542Y-94159414D02*
X168768542Y-94826080D01*
X168339971Y-94159414D02*
X168339971Y-94683223D01*
X168387590Y-94778461D01*
X168482828Y-94826080D01*
X168625685Y-94826080D01*
X168720923Y-94778461D01*
X168768542Y-94730842D01*
X169578066Y-94302271D02*
X169244733Y-94302271D01*
X169244733Y-94826080D02*
X169244733Y-93826080D01*
X169720923Y-93826080D01*
D18*
X159966057Y-94389557D02*
X159947009Y-94408604D01*
X159889866Y-94427652D01*
X159851771Y-94427652D01*
X159794628Y-94408604D01*
X159756533Y-94370509D01*
X159737485Y-94332414D01*
X159718438Y-94256223D01*
X159718438Y-94199080D01*
X159737485Y-94122890D01*
X159756533Y-94084795D01*
X159794628Y-94046700D01*
X159851771Y-94027652D01*
X159889866Y-94027652D01*
X159947009Y-94046700D01*
X159966057Y-94065747D01*
X160347009Y-94427652D02*
X160118438Y-94427652D01*
X160232723Y-94427652D02*
X160232723Y-94027652D01*
X160194628Y-94084795D01*
X160156533Y-94122890D01*
X160118438Y-94141938D01*
X160537485Y-94427652D02*
X160613676Y-94427652D01*
X160651771Y-94408604D01*
X160670819Y-94389557D01*
X160708914Y-94332414D01*
X160727961Y-94256223D01*
X160727961Y-94103842D01*
X160708914Y-94065747D01*
X160689866Y-94046700D01*
X160651771Y-94027652D01*
X160575580Y-94027652D01*
X160537485Y-94046700D01*
X160518438Y-94065747D01*
X160499390Y-94103842D01*
X160499390Y-94199080D01*
X160518438Y-94237176D01*
X160537485Y-94256223D01*
X160575580Y-94275271D01*
X160651771Y-94275271D01*
X160689866Y-94256223D01*
X160708914Y-94237176D01*
X160727961Y-94199080D01*
D15*
X165790785Y-92305214D02*
X165790785Y-92971880D01*
X165552690Y-91924261D02*
X165314595Y-92638547D01*
X165933642Y-92638547D01*
X166314595Y-92876642D02*
X166362214Y-92924261D01*
X166314595Y-92971880D01*
X166266976Y-92924261D01*
X166314595Y-92876642D01*
X166314595Y-92971880D01*
X166695547Y-91971880D02*
X167362214Y-91971880D01*
X166933642Y-92971880D01*
X168933642Y-92305214D02*
X168933642Y-92971880D01*
X168505071Y-92305214D02*
X168505071Y-92829023D01*
X168552690Y-92924261D01*
X168647928Y-92971880D01*
X168790785Y-92971880D01*
X168886023Y-92924261D01*
X168933642Y-92876642D01*
X169743166Y-92448071D02*
X169409833Y-92448071D01*
X169409833Y-92971880D02*
X169409833Y-91971880D01*
X169886023Y-91971880D01*
D18*
X159954657Y-92776657D02*
X159935609Y-92795704D01*
X159878466Y-92814752D01*
X159840371Y-92814752D01*
X159783228Y-92795704D01*
X159745133Y-92757609D01*
X159726085Y-92719514D01*
X159707038Y-92643323D01*
X159707038Y-92586180D01*
X159726085Y-92509990D01*
X159745133Y-92471895D01*
X159783228Y-92433800D01*
X159840371Y-92414752D01*
X159878466Y-92414752D01*
X159935609Y-92433800D01*
X159954657Y-92452847D01*
X160335609Y-92814752D02*
X160107038Y-92814752D01*
X160221323Y-92814752D02*
X160221323Y-92414752D01*
X160183228Y-92471895D01*
X160145133Y-92509990D01*
X160107038Y-92529038D01*
X160564180Y-92586180D02*
X160526085Y-92567133D01*
X160507038Y-92548085D01*
X160487990Y-92509990D01*
X160487990Y-92490942D01*
X160507038Y-92452847D01*
X160526085Y-92433800D01*
X160564180Y-92414752D01*
X160640371Y-92414752D01*
X160678466Y-92433800D01*
X160697514Y-92452847D01*
X160716561Y-92490942D01*
X160716561Y-92509990D01*
X160697514Y-92548085D01*
X160678466Y-92567133D01*
X160640371Y-92586180D01*
X160564180Y-92586180D01*
X160526085Y-92605228D01*
X160507038Y-92624276D01*
X160487990Y-92662371D01*
X160487990Y-92738561D01*
X160507038Y-92776657D01*
X160526085Y-92795704D01*
X160564180Y-92814752D01*
X160640371Y-92814752D01*
X160678466Y-92795704D01*
X160697514Y-92776657D01*
X160716561Y-92738561D01*
X160716561Y-92662371D01*
X160697514Y-92624276D01*
X160678466Y-92605228D01*
X160640371Y-92586180D01*
D15*
X166111419Y-89403180D02*
X165539990Y-89403180D01*
X165825704Y-89403180D02*
X165825704Y-88403180D01*
X165730466Y-88546038D01*
X165635228Y-88641276D01*
X165539990Y-88688895D01*
X166730466Y-88403180D02*
X166825704Y-88403180D01*
X166920942Y-88450800D01*
X166968561Y-88498419D01*
X167016180Y-88593657D01*
X167063800Y-88784133D01*
X167063800Y-89022228D01*
X167016180Y-89212704D01*
X166968561Y-89307942D01*
X166920942Y-89355561D01*
X166825704Y-89403180D01*
X166730466Y-89403180D01*
X166635228Y-89355561D01*
X166587609Y-89307942D01*
X166539990Y-89212704D01*
X166492371Y-89022228D01*
X166492371Y-88784133D01*
X166539990Y-88593657D01*
X166587609Y-88498419D01*
X166635228Y-88450800D01*
X166730466Y-88403180D01*
X168682847Y-88736514D02*
X168682847Y-89403180D01*
X168254276Y-88736514D02*
X168254276Y-89260323D01*
X168301895Y-89355561D01*
X168397133Y-89403180D01*
X168539990Y-89403180D01*
X168635228Y-89355561D01*
X168682847Y-89307942D01*
X169492371Y-88879371D02*
X169159038Y-88879371D01*
X169159038Y-89403180D02*
X169159038Y-88403180D01*
X169635228Y-88403180D01*
D18*
X159927957Y-89131757D02*
X159908909Y-89150804D01*
X159851766Y-89169852D01*
X159813671Y-89169852D01*
X159756528Y-89150804D01*
X159718433Y-89112709D01*
X159699385Y-89074614D01*
X159680338Y-88998423D01*
X159680338Y-88941280D01*
X159699385Y-88865090D01*
X159718433Y-88826995D01*
X159756528Y-88788900D01*
X159813671Y-88769852D01*
X159851766Y-88769852D01*
X159908909Y-88788900D01*
X159927957Y-88807947D01*
X160308909Y-89169852D02*
X160080338Y-89169852D01*
X160194623Y-89169852D02*
X160194623Y-88769852D01*
X160156528Y-88826995D01*
X160118433Y-88865090D01*
X160080338Y-88884138D01*
X160442242Y-88769852D02*
X160708909Y-88769852D01*
X160537480Y-89169852D01*
D15*
X164422390Y-78065380D02*
X164517628Y-78065380D01*
X164612866Y-78113000D01*
X164660485Y-78160619D01*
X164708104Y-78255857D01*
X164755723Y-78446333D01*
X164755723Y-78684428D01*
X164708104Y-78874904D01*
X164660485Y-78970142D01*
X164612866Y-79017761D01*
X164517628Y-79065380D01*
X164422390Y-79065380D01*
X164327152Y-79017761D01*
X164279533Y-78970142D01*
X164231914Y-78874904D01*
X164184295Y-78684428D01*
X164184295Y-78446333D01*
X164231914Y-78255857D01*
X164279533Y-78160619D01*
X164327152Y-78113000D01*
X164422390Y-78065380D01*
X165184295Y-78970142D02*
X165231914Y-79017761D01*
X165184295Y-79065380D01*
X165136676Y-79017761D01*
X165184295Y-78970142D01*
X165184295Y-79065380D01*
X166184295Y-79065380D02*
X165612866Y-79065380D01*
X165898580Y-79065380D02*
X165898580Y-78065380D01*
X165803342Y-78208238D01*
X165708104Y-78303476D01*
X165612866Y-78351095D01*
X167803342Y-78398714D02*
X167803342Y-79065380D01*
X167374771Y-78398714D02*
X167374771Y-78922523D01*
X167422390Y-79017761D01*
X167517628Y-79065380D01*
X167660485Y-79065380D01*
X167755723Y-79017761D01*
X167803342Y-78970142D01*
X168612866Y-78541571D02*
X168279533Y-78541571D01*
X168279533Y-79065380D02*
X168279533Y-78065380D01*
X168755723Y-78065380D01*
D18*
X161885057Y-78743157D02*
X161866009Y-78762204D01*
X161808866Y-78781252D01*
X161770771Y-78781252D01*
X161713628Y-78762204D01*
X161675533Y-78724109D01*
X161656485Y-78686014D01*
X161637438Y-78609823D01*
X161637438Y-78552680D01*
X161656485Y-78476490D01*
X161675533Y-78438395D01*
X161713628Y-78400300D01*
X161770771Y-78381252D01*
X161808866Y-78381252D01*
X161866009Y-78400300D01*
X161885057Y-78419347D01*
X162266009Y-78781252D02*
X162037438Y-78781252D01*
X162151723Y-78781252D02*
X162151723Y-78381252D01*
X162113628Y-78438395D01*
X162075533Y-78476490D01*
X162037438Y-78495538D01*
X162608866Y-78381252D02*
X162532676Y-78381252D01*
X162494580Y-78400300D01*
X162475533Y-78419347D01*
X162437438Y-78476490D01*
X162418390Y-78552680D01*
X162418390Y-78705061D01*
X162437438Y-78743157D01*
X162456485Y-78762204D01*
X162494580Y-78781252D01*
X162570771Y-78781252D01*
X162608866Y-78762204D01*
X162627914Y-78743157D01*
X162646961Y-78705061D01*
X162646961Y-78609823D01*
X162627914Y-78571728D01*
X162608866Y-78552680D01*
X162570771Y-78533633D01*
X162494580Y-78533633D01*
X162456485Y-78552680D01*
X162437438Y-78571728D01*
X162418390Y-78609823D01*
D15*
X154870085Y-105025514D02*
X154870085Y-105692180D01*
X154631990Y-104644561D02*
X154393895Y-105358847D01*
X155012942Y-105358847D01*
X155393895Y-105596942D02*
X155441514Y-105644561D01*
X155393895Y-105692180D01*
X155346276Y-105644561D01*
X155393895Y-105596942D01*
X155393895Y-105692180D01*
X155774847Y-104692180D02*
X156441514Y-104692180D01*
X156012942Y-105692180D01*
X158012942Y-105025514D02*
X158012942Y-105692180D01*
X157584371Y-105025514D02*
X157584371Y-105549323D01*
X157631990Y-105644561D01*
X157727228Y-105692180D01*
X157870085Y-105692180D01*
X157965323Y-105644561D01*
X158012942Y-105596942D01*
X158822466Y-105168371D02*
X158489133Y-105168371D01*
X158489133Y-105692180D02*
X158489133Y-104692180D01*
X158965323Y-104692180D01*
D18*
X156398657Y-103952657D02*
X156379609Y-103971704D01*
X156322466Y-103990752D01*
X156284371Y-103990752D01*
X156227228Y-103971704D01*
X156189133Y-103933609D01*
X156170085Y-103895514D01*
X156151038Y-103819323D01*
X156151038Y-103762180D01*
X156170085Y-103685990D01*
X156189133Y-103647895D01*
X156227228Y-103609800D01*
X156284371Y-103590752D01*
X156322466Y-103590752D01*
X156379609Y-103609800D01*
X156398657Y-103628847D01*
X156779609Y-103990752D02*
X156551038Y-103990752D01*
X156665323Y-103990752D02*
X156665323Y-103590752D01*
X156627228Y-103647895D01*
X156589133Y-103685990D01*
X156551038Y-103705038D01*
X157141514Y-103590752D02*
X156951038Y-103590752D01*
X156931990Y-103781228D01*
X156951038Y-103762180D01*
X156989133Y-103743133D01*
X157084371Y-103743133D01*
X157122466Y-103762180D01*
X157141514Y-103781228D01*
X157160561Y-103819323D01*
X157160561Y-103914561D01*
X157141514Y-103952657D01*
X157122466Y-103971704D01*
X157084371Y-103990752D01*
X156989133Y-103990752D01*
X156951038Y-103971704D01*
X156931990Y-103952657D01*
D15*
X157354614Y-93911514D02*
X158021280Y-93911514D01*
X156973661Y-94149609D02*
X157687947Y-94387704D01*
X157687947Y-93768657D01*
X157926042Y-93387704D02*
X157973661Y-93340085D01*
X158021280Y-93387704D01*
X157973661Y-93435323D01*
X157926042Y-93387704D01*
X158021280Y-93387704D01*
X157021280Y-93006752D02*
X157021280Y-92340085D01*
X158021280Y-92768657D01*
X157354614Y-90768657D02*
X158021280Y-90768657D01*
X157354614Y-91197228D02*
X157878423Y-91197228D01*
X157973661Y-91149609D01*
X158021280Y-91054371D01*
X158021280Y-90911514D01*
X157973661Y-90816276D01*
X157926042Y-90768657D01*
X157497471Y-89959133D02*
X157497471Y-90292466D01*
X158021280Y-90292466D02*
X157021280Y-90292466D01*
X157021280Y-89816276D01*
D18*
X156035357Y-88052242D02*
X156054404Y-88071290D01*
X156073452Y-88128433D01*
X156073452Y-88166528D01*
X156054404Y-88223671D01*
X156016309Y-88261766D01*
X155978214Y-88280814D01*
X155902023Y-88299861D01*
X155844880Y-88299861D01*
X155768690Y-88280814D01*
X155730595Y-88261766D01*
X155692500Y-88223671D01*
X155673452Y-88166528D01*
X155673452Y-88128433D01*
X155692500Y-88071290D01*
X155711547Y-88052242D01*
X156073452Y-87671290D02*
X156073452Y-87899861D01*
X156073452Y-87785576D02*
X155673452Y-87785576D01*
X155730595Y-87823671D01*
X155768690Y-87861766D01*
X155787738Y-87899861D01*
X155806785Y-87328433D02*
X156073452Y-87328433D01*
X155654404Y-87423671D02*
X155940119Y-87518909D01*
X155940119Y-87271290D01*
D15*
X155052780Y-85742209D02*
X155052780Y-85646971D01*
X155100400Y-85551733D01*
X155148019Y-85504114D01*
X155243257Y-85456495D01*
X155433733Y-85408876D01*
X155671828Y-85408876D01*
X155862304Y-85456495D01*
X155957542Y-85504114D01*
X156005161Y-85551733D01*
X156052780Y-85646971D01*
X156052780Y-85742209D01*
X156005161Y-85837447D01*
X155957542Y-85885066D01*
X155862304Y-85932685D01*
X155671828Y-85980304D01*
X155433733Y-85980304D01*
X155243257Y-85932685D01*
X155148019Y-85885066D01*
X155100400Y-85837447D01*
X155052780Y-85742209D01*
X155957542Y-84980304D02*
X156005161Y-84932685D01*
X156052780Y-84980304D01*
X156005161Y-85027923D01*
X155957542Y-84980304D01*
X156052780Y-84980304D01*
X156052780Y-83980304D02*
X156052780Y-84551733D01*
X156052780Y-84266019D02*
X155052780Y-84266019D01*
X155195638Y-84361257D01*
X155290876Y-84456495D01*
X155338495Y-84551733D01*
X155386114Y-82361257D02*
X156052780Y-82361257D01*
X155386114Y-82789828D02*
X155909923Y-82789828D01*
X156005161Y-82742209D01*
X156052780Y-82646971D01*
X156052780Y-82504114D01*
X156005161Y-82408876D01*
X155957542Y-82361257D01*
X155528971Y-81551733D02*
X155528971Y-81885066D01*
X156052780Y-81885066D02*
X155052780Y-81885066D01*
X155052780Y-81408876D01*
D18*
X154346257Y-88050942D02*
X154365304Y-88069990D01*
X154384352Y-88127133D01*
X154384352Y-88165228D01*
X154365304Y-88222371D01*
X154327209Y-88260466D01*
X154289114Y-88279514D01*
X154212923Y-88298561D01*
X154155780Y-88298561D01*
X154079590Y-88279514D01*
X154041495Y-88260466D01*
X154003400Y-88222371D01*
X153984352Y-88165228D01*
X153984352Y-88127133D01*
X154003400Y-88069990D01*
X154022447Y-88050942D01*
X154384352Y-87669990D02*
X154384352Y-87898561D01*
X154384352Y-87784276D02*
X153984352Y-87784276D01*
X154041495Y-87822371D01*
X154079590Y-87860466D01*
X154098638Y-87898561D01*
X153984352Y-87536657D02*
X153984352Y-87289038D01*
X154136733Y-87422371D01*
X154136733Y-87365228D01*
X154155780Y-87327133D01*
X154174828Y-87308085D01*
X154212923Y-87289038D01*
X154308161Y-87289038D01*
X154346257Y-87308085D01*
X154365304Y-87327133D01*
X154384352Y-87365228D01*
X154384352Y-87479514D01*
X154365304Y-87517609D01*
X154346257Y-87536657D01*
D15*
X152385780Y-97337309D02*
X152385780Y-97242071D01*
X152433400Y-97146833D01*
X152481019Y-97099214D01*
X152576257Y-97051595D01*
X152766733Y-97003976D01*
X153004828Y-97003976D01*
X153195304Y-97051595D01*
X153290542Y-97099214D01*
X153338161Y-97146833D01*
X153385780Y-97242071D01*
X153385780Y-97337309D01*
X153338161Y-97432547D01*
X153290542Y-97480166D01*
X153195304Y-97527785D01*
X153004828Y-97575404D01*
X152766733Y-97575404D01*
X152576257Y-97527785D01*
X152481019Y-97480166D01*
X152433400Y-97432547D01*
X152385780Y-97337309D01*
X153290542Y-96575404D02*
X153338161Y-96527785D01*
X153385780Y-96575404D01*
X153338161Y-96623023D01*
X153290542Y-96575404D01*
X153385780Y-96575404D01*
X153385780Y-95575404D02*
X153385780Y-96146833D01*
X153385780Y-95861119D02*
X152385780Y-95861119D01*
X152528638Y-95956357D01*
X152623876Y-96051595D01*
X152671495Y-96146833D01*
X152719114Y-93956357D02*
X153385780Y-93956357D01*
X152719114Y-94384928D02*
X153242923Y-94384928D01*
X153338161Y-94337309D01*
X153385780Y-94242071D01*
X153385780Y-94099214D01*
X153338161Y-94003976D01*
X153290542Y-93956357D01*
X152861971Y-93146833D02*
X152861971Y-93480166D01*
X153385780Y-93480166D02*
X152385780Y-93480166D01*
X152385780Y-93003976D01*
D18*
X154346257Y-91492642D02*
X154365304Y-91511690D01*
X154384352Y-91568833D01*
X154384352Y-91606928D01*
X154365304Y-91664071D01*
X154327209Y-91702166D01*
X154289114Y-91721214D01*
X154212923Y-91740261D01*
X154155780Y-91740261D01*
X154079590Y-91721214D01*
X154041495Y-91702166D01*
X154003400Y-91664071D01*
X153984352Y-91606928D01*
X153984352Y-91568833D01*
X154003400Y-91511690D01*
X154022447Y-91492642D01*
X154384352Y-91111690D02*
X154384352Y-91340261D01*
X154384352Y-91225976D02*
X153984352Y-91225976D01*
X154041495Y-91264071D01*
X154079590Y-91302166D01*
X154098638Y-91340261D01*
X154022447Y-90959309D02*
X154003400Y-90940261D01*
X153984352Y-90902166D01*
X153984352Y-90806928D01*
X154003400Y-90768833D01*
X154022447Y-90749785D01*
X154060542Y-90730738D01*
X154098638Y-90730738D01*
X154155780Y-90749785D01*
X154384352Y-90978357D01*
X154384352Y-90730738D01*
D15*
X154116114Y-82281519D02*
X154782780Y-82281519D01*
X153735161Y-82519614D02*
X154449447Y-82757709D01*
X154449447Y-82138661D01*
X153782780Y-81852947D02*
X153782780Y-81186280D01*
X154782780Y-81614852D01*
X154116114Y-80043423D02*
X155116114Y-80043423D01*
X154163733Y-80043423D02*
X154116114Y-79948185D01*
X154116114Y-79757709D01*
X154163733Y-79662471D01*
X154211352Y-79614852D01*
X154306590Y-79567233D01*
X154592304Y-79567233D01*
X154687542Y-79614852D01*
X154735161Y-79662471D01*
X154782780Y-79757709D01*
X154782780Y-79948185D01*
X154735161Y-80043423D01*
X154258971Y-78805328D02*
X154258971Y-79138661D01*
X154782780Y-79138661D02*
X153782780Y-79138661D01*
X153782780Y-78662471D01*
D18*
X149906357Y-80457657D02*
X149887309Y-80476704D01*
X149830166Y-80495752D01*
X149792071Y-80495752D01*
X149734928Y-80476704D01*
X149696833Y-80438609D01*
X149677785Y-80400514D01*
X149658738Y-80324323D01*
X149658738Y-80267180D01*
X149677785Y-80190990D01*
X149696833Y-80152895D01*
X149734928Y-80114800D01*
X149792071Y-80095752D01*
X149830166Y-80095752D01*
X149887309Y-80114800D01*
X149906357Y-80133847D01*
X150287309Y-80495752D02*
X150058738Y-80495752D01*
X150173023Y-80495752D02*
X150173023Y-80095752D01*
X150134928Y-80152895D01*
X150096833Y-80190990D01*
X150058738Y-80210038D01*
X150668261Y-80495752D02*
X150439690Y-80495752D01*
X150553976Y-80495752D02*
X150553976Y-80095752D01*
X150515880Y-80152895D01*
X150477785Y-80190990D01*
X150439690Y-80210038D01*
D15*
X142559114Y-81290919D02*
X143225780Y-81290919D01*
X142178161Y-81529014D02*
X142892447Y-81767109D01*
X142892447Y-81148061D01*
X142225780Y-80862347D02*
X142225780Y-80195680D01*
X143225780Y-80624252D01*
X142559114Y-79052823D02*
X143559114Y-79052823D01*
X142606733Y-79052823D02*
X142559114Y-78957585D01*
X142559114Y-78767109D01*
X142606733Y-78671871D01*
X142654352Y-78624252D01*
X142749590Y-78576633D01*
X143035304Y-78576633D01*
X143130542Y-78624252D01*
X143178161Y-78671871D01*
X143225780Y-78767109D01*
X143225780Y-78957585D01*
X143178161Y-79052823D01*
X142701971Y-77814728D02*
X142701971Y-78148061D01*
X143225780Y-78148061D02*
X142225780Y-78148061D01*
X142225780Y-77671871D01*
D18*
X146502757Y-80457657D02*
X146483709Y-80476704D01*
X146426566Y-80495752D01*
X146388471Y-80495752D01*
X146331328Y-80476704D01*
X146293233Y-80438609D01*
X146274185Y-80400514D01*
X146255138Y-80324323D01*
X146255138Y-80267180D01*
X146274185Y-80190990D01*
X146293233Y-80152895D01*
X146331328Y-80114800D01*
X146388471Y-80095752D01*
X146426566Y-80095752D01*
X146483709Y-80114800D01*
X146502757Y-80133847D01*
X146883709Y-80495752D02*
X146655138Y-80495752D01*
X146769423Y-80495752D02*
X146769423Y-80095752D01*
X146731328Y-80152895D01*
X146693233Y-80190990D01*
X146655138Y-80210038D01*
X147131328Y-80095752D02*
X147169423Y-80095752D01*
X147207519Y-80114800D01*
X147226566Y-80133847D01*
X147245614Y-80171942D01*
X147264661Y-80248133D01*
X147264661Y-80343371D01*
X147245614Y-80419561D01*
X147226566Y-80457657D01*
X147207519Y-80476704D01*
X147169423Y-80495752D01*
X147131328Y-80495752D01*
X147093233Y-80476704D01*
X147074185Y-80457657D01*
X147055138Y-80419561D01*
X147036090Y-80343371D01*
X147036090Y-80248133D01*
X147055138Y-80171942D01*
X147074185Y-80133847D01*
X147093233Y-80114800D01*
X147131328Y-80095752D01*
D15*
X154662560Y-76363580D02*
X154757798Y-76363580D01*
X154853036Y-76411200D01*
X154900655Y-76458819D01*
X154948274Y-76554057D01*
X154995893Y-76744533D01*
X154995893Y-76982628D01*
X154948274Y-77173104D01*
X154900655Y-77268342D01*
X154853036Y-77315961D01*
X154757798Y-77363580D01*
X154662560Y-77363580D01*
X154567321Y-77315961D01*
X154519702Y-77268342D01*
X154472083Y-77173104D01*
X154424464Y-76982628D01*
X154424464Y-76744533D01*
X154472083Y-76554057D01*
X154519702Y-76458819D01*
X154567321Y-76411200D01*
X154662560Y-76363580D01*
X155424464Y-77268342D02*
X155472083Y-77315961D01*
X155424464Y-77363580D01*
X155376845Y-77315961D01*
X155424464Y-77268342D01*
X155424464Y-77363580D01*
X156091131Y-76363580D02*
X156186369Y-76363580D01*
X156281607Y-76411200D01*
X156329226Y-76458819D01*
X156376845Y-76554057D01*
X156424464Y-76744533D01*
X156424464Y-76982628D01*
X156376845Y-77173104D01*
X156329226Y-77268342D01*
X156281607Y-77315961D01*
X156186369Y-77363580D01*
X156091131Y-77363580D01*
X155995893Y-77315961D01*
X155948274Y-77268342D01*
X155900655Y-77173104D01*
X155853036Y-76982628D01*
X155853036Y-76744533D01*
X155900655Y-76554057D01*
X155948274Y-76458819D01*
X155995893Y-76411200D01*
X156091131Y-76363580D01*
X157376845Y-77363580D02*
X156805417Y-77363580D01*
X157091131Y-77363580D02*
X157091131Y-76363580D01*
X156995893Y-76506438D01*
X156900655Y-76601676D01*
X156805417Y-76649295D01*
X158995893Y-76696914D02*
X158995893Y-77363580D01*
X158567321Y-76696914D02*
X158567321Y-77220723D01*
X158614940Y-77315961D01*
X158710179Y-77363580D01*
X158853036Y-77363580D01*
X158948274Y-77315961D01*
X158995893Y-77268342D01*
X159805417Y-76839771D02*
X159472083Y-76839771D01*
X159472083Y-77363580D02*
X159472083Y-76363580D01*
X159948274Y-76363580D01*
D18*
X152487033Y-77193757D02*
X152467985Y-77212804D01*
X152410842Y-77231852D01*
X152372747Y-77231852D01*
X152315604Y-77212804D01*
X152277509Y-77174709D01*
X152258461Y-77136614D01*
X152239414Y-77060423D01*
X152239414Y-77003280D01*
X152258461Y-76927090D01*
X152277509Y-76888995D01*
X152315604Y-76850900D01*
X152372747Y-76831852D01*
X152410842Y-76831852D01*
X152467985Y-76850900D01*
X152487033Y-76869947D01*
X152677509Y-77231852D02*
X152753700Y-77231852D01*
X152791795Y-77212804D01*
X152810842Y-77193757D01*
X152848938Y-77136614D01*
X152867985Y-77060423D01*
X152867985Y-76908042D01*
X152848938Y-76869947D01*
X152829890Y-76850900D01*
X152791795Y-76831852D01*
X152715604Y-76831852D01*
X152677509Y-76850900D01*
X152658461Y-76869947D01*
X152639414Y-76908042D01*
X152639414Y-77003280D01*
X152658461Y-77041376D01*
X152677509Y-77060423D01*
X152715604Y-77079471D01*
X152791795Y-77079471D01*
X152829890Y-77060423D01*
X152848938Y-77041376D01*
X152867985Y-77003280D01*
D15*
X157749500Y-102760826D02*
X157749500Y-103332255D01*
X157749500Y-103046540D02*
X156749500Y-103046540D01*
X156892358Y-103141779D01*
X156987596Y-103237017D01*
X157035215Y-103332255D01*
X156844739Y-102379874D02*
X156797120Y-102332255D01*
X156749500Y-102237017D01*
X156749500Y-101998921D01*
X156797120Y-101903683D01*
X156844739Y-101856064D01*
X156939977Y-101808445D01*
X157035215Y-101808445D01*
X157178072Y-101856064D01*
X157749500Y-102427493D01*
X157749500Y-101808445D01*
X157654262Y-101379874D02*
X157701881Y-101332255D01*
X157749500Y-101379874D01*
X157701881Y-101427493D01*
X157654262Y-101379874D01*
X157749500Y-101379874D01*
X156749500Y-100427493D02*
X156749500Y-100903683D01*
X157225691Y-100951302D01*
X157178072Y-100903683D01*
X157130453Y-100808445D01*
X157130453Y-100570350D01*
X157178072Y-100475112D01*
X157225691Y-100427493D01*
X157320929Y-100379874D01*
X157559024Y-100379874D01*
X157654262Y-100427493D01*
X157701881Y-100475112D01*
X157749500Y-100570350D01*
X157749500Y-100808445D01*
X157701881Y-100903683D01*
X157654262Y-100951302D01*
X157082834Y-99189398D02*
X158082834Y-99189398D01*
X157130453Y-99189398D02*
X157082834Y-99094160D01*
X157082834Y-98903683D01*
X157130453Y-98808445D01*
X157178072Y-98760826D01*
X157273310Y-98713207D01*
X157559024Y-98713207D01*
X157654262Y-98760826D01*
X157701881Y-98808445D01*
X157749500Y-98903683D01*
X157749500Y-99094160D01*
X157701881Y-99189398D01*
X157225691Y-97951302D02*
X157225691Y-98284636D01*
X157749500Y-98284636D02*
X156749500Y-98284636D01*
X156749500Y-97808445D01*
D18*
X160782617Y-100801826D02*
X160801664Y-100820874D01*
X160820712Y-100878017D01*
X160820712Y-100916112D01*
X160801664Y-100973255D01*
X160763569Y-101011350D01*
X160725474Y-101030398D01*
X160649283Y-101049445D01*
X160592140Y-101049445D01*
X160515950Y-101030398D01*
X160477855Y-101011350D01*
X160439760Y-100973255D01*
X160420712Y-100916112D01*
X160420712Y-100878017D01*
X160439760Y-100820874D01*
X160458807Y-100801826D01*
X160420712Y-100458969D02*
X160420712Y-100535160D01*
X160439760Y-100573255D01*
X160458807Y-100592302D01*
X160515950Y-100630398D01*
X160592140Y-100649445D01*
X160744521Y-100649445D01*
X160782617Y-100630398D01*
X160801664Y-100611350D01*
X160820712Y-100573255D01*
X160820712Y-100497064D01*
X160801664Y-100458969D01*
X160782617Y-100439921D01*
X160744521Y-100420874D01*
X160649283Y-100420874D01*
X160611188Y-100439921D01*
X160592140Y-100458969D01*
X160573093Y-100497064D01*
X160573093Y-100573255D01*
X160592140Y-100611350D01*
X160611188Y-100630398D01*
X160649283Y-100649445D01*
D15*
X166329620Y-102867506D02*
X166329620Y-103438935D01*
X166329620Y-103153220D02*
X165329620Y-103153220D01*
X165472478Y-103248459D01*
X165567716Y-103343697D01*
X165615335Y-103438935D01*
X165424859Y-102486554D02*
X165377240Y-102438935D01*
X165329620Y-102343697D01*
X165329620Y-102105601D01*
X165377240Y-102010363D01*
X165424859Y-101962744D01*
X165520097Y-101915125D01*
X165615335Y-101915125D01*
X165758192Y-101962744D01*
X166329620Y-102534173D01*
X166329620Y-101915125D01*
X166234382Y-101486554D02*
X166282001Y-101438935D01*
X166329620Y-101486554D01*
X166282001Y-101534173D01*
X166234382Y-101486554D01*
X166329620Y-101486554D01*
X165329620Y-100534173D02*
X165329620Y-101010363D01*
X165805811Y-101057982D01*
X165758192Y-101010363D01*
X165710573Y-100915125D01*
X165710573Y-100677030D01*
X165758192Y-100581792D01*
X165805811Y-100534173D01*
X165901049Y-100486554D01*
X166139144Y-100486554D01*
X166234382Y-100534173D01*
X166282001Y-100581792D01*
X166329620Y-100677030D01*
X166329620Y-100915125D01*
X166282001Y-101010363D01*
X166234382Y-101057982D01*
X165662954Y-99296078D02*
X166662954Y-99296078D01*
X165710573Y-99296078D02*
X165662954Y-99200840D01*
X165662954Y-99010363D01*
X165710573Y-98915125D01*
X165758192Y-98867506D01*
X165853430Y-98819887D01*
X166139144Y-98819887D01*
X166234382Y-98867506D01*
X166282001Y-98915125D01*
X166329620Y-99010363D01*
X166329620Y-99200840D01*
X166282001Y-99296078D01*
X165805811Y-98057982D02*
X165805811Y-98391316D01*
X166329620Y-98391316D02*
X165329620Y-98391316D01*
X165329620Y-97915125D01*
D18*
X163281977Y-100796746D02*
X163301024Y-100815794D01*
X163320072Y-100872937D01*
X163320072Y-100911032D01*
X163301024Y-100968175D01*
X163262929Y-101006270D01*
X163224834Y-101025318D01*
X163148643Y-101044365D01*
X163091500Y-101044365D01*
X163015310Y-101025318D01*
X162977215Y-101006270D01*
X162939120Y-100968175D01*
X162920072Y-100911032D01*
X162920072Y-100872937D01*
X162939120Y-100815794D01*
X162958167Y-100796746D01*
X162920072Y-100434841D02*
X162920072Y-100625318D01*
X163110548Y-100644365D01*
X163091500Y-100625318D01*
X163072453Y-100587222D01*
X163072453Y-100491984D01*
X163091500Y-100453889D01*
X163110548Y-100434841D01*
X163148643Y-100415794D01*
X163243881Y-100415794D01*
X163281977Y-100434841D01*
X163301024Y-100453889D01*
X163320072Y-100491984D01*
X163320072Y-100587222D01*
X163301024Y-100625318D01*
X163281977Y-100644365D01*
D15*
X157447449Y-98026460D02*
X156876020Y-98026460D01*
X157161735Y-98026460D02*
X157161735Y-97026460D01*
X157066497Y-97169318D01*
X156971259Y-97264556D01*
X156876020Y-97312175D01*
X159066497Y-97359794D02*
X159066497Y-98026460D01*
X158637925Y-97359794D02*
X158637925Y-97883603D01*
X158685544Y-97978841D01*
X158780782Y-98026460D01*
X158923640Y-98026460D01*
X159018878Y-97978841D01*
X159066497Y-97931222D01*
X159876020Y-97502651D02*
X159542687Y-97502651D01*
X159542687Y-98026460D02*
X159542687Y-97026460D01*
X160018878Y-97026460D01*
D18*
X158356973Y-96286937D02*
X158337925Y-96305984D01*
X158280782Y-96325032D01*
X158242687Y-96325032D01*
X158185544Y-96305984D01*
X158147449Y-96267889D01*
X158128401Y-96229794D01*
X158109354Y-96153603D01*
X158109354Y-96096460D01*
X158128401Y-96020270D01*
X158147449Y-95982175D01*
X158185544Y-95944080D01*
X158242687Y-95925032D01*
X158280782Y-95925032D01*
X158337925Y-95944080D01*
X158356973Y-95963127D01*
X158699830Y-96058365D02*
X158699830Y-96325032D01*
X158604592Y-95905984D02*
X158509354Y-96191699D01*
X158756973Y-96191699D01*
D15*
X156394750Y-98738420D02*
X156489988Y-98738420D01*
X156585226Y-98786040D01*
X156632845Y-98833659D01*
X156680464Y-98928897D01*
X156728083Y-99119373D01*
X156728083Y-99357468D01*
X156680464Y-99547944D01*
X156632845Y-99643182D01*
X156585226Y-99690801D01*
X156489988Y-99738420D01*
X156394750Y-99738420D01*
X156299512Y-99690801D01*
X156251893Y-99643182D01*
X156204274Y-99547944D01*
X156156655Y-99357468D01*
X156156655Y-99119373D01*
X156204274Y-98928897D01*
X156251893Y-98833659D01*
X156299512Y-98786040D01*
X156394750Y-98738420D01*
X157156655Y-99643182D02*
X157204274Y-99690801D01*
X157156655Y-99738420D01*
X157109036Y-99690801D01*
X157156655Y-99643182D01*
X157156655Y-99738420D01*
X158156655Y-99738420D02*
X157585226Y-99738420D01*
X157870940Y-99738420D02*
X157870940Y-98738420D01*
X157775702Y-98881278D01*
X157680464Y-98976516D01*
X157585226Y-99024135D01*
X159775702Y-99071754D02*
X159775702Y-99738420D01*
X159347131Y-99071754D02*
X159347131Y-99595563D01*
X159394750Y-99690801D01*
X159489988Y-99738420D01*
X159632845Y-99738420D01*
X159728083Y-99690801D01*
X159775702Y-99643182D01*
X160585226Y-99214611D02*
X160251893Y-99214611D01*
X160251893Y-99738420D02*
X160251893Y-98738420D01*
X160728083Y-98738420D01*
D18*
X158351893Y-97998897D02*
X158332845Y-98017944D01*
X158275702Y-98036992D01*
X158237607Y-98036992D01*
X158180464Y-98017944D01*
X158142369Y-97979849D01*
X158123321Y-97941754D01*
X158104274Y-97865563D01*
X158104274Y-97808420D01*
X158123321Y-97732230D01*
X158142369Y-97694135D01*
X158180464Y-97656040D01*
X158237607Y-97636992D01*
X158275702Y-97636992D01*
X158332845Y-97656040D01*
X158351893Y-97675087D01*
X158485226Y-97636992D02*
X158732845Y-97636992D01*
X158599512Y-97789373D01*
X158656655Y-97789373D01*
X158694750Y-97808420D01*
X158713798Y-97827468D01*
X158732845Y-97865563D01*
X158732845Y-97960801D01*
X158713798Y-97998897D01*
X158694750Y-98017944D01*
X158656655Y-98036992D01*
X158542369Y-98036992D01*
X158504274Y-98017944D01*
X158485226Y-97998897D01*
D15*
X165814310Y-95997780D02*
X165909548Y-95997780D01*
X166004786Y-96045400D01*
X166052405Y-96093019D01*
X166100024Y-96188257D01*
X166147643Y-96378733D01*
X166147643Y-96616828D01*
X166100024Y-96807304D01*
X166052405Y-96902542D01*
X166004786Y-96950161D01*
X165909548Y-96997780D01*
X165814310Y-96997780D01*
X165719072Y-96950161D01*
X165671453Y-96902542D01*
X165623834Y-96807304D01*
X165576215Y-96616828D01*
X165576215Y-96378733D01*
X165623834Y-96188257D01*
X165671453Y-96093019D01*
X165719072Y-96045400D01*
X165814310Y-95997780D01*
X166576215Y-96902542D02*
X166623834Y-96950161D01*
X166576215Y-96997780D01*
X166528596Y-96950161D01*
X166576215Y-96902542D01*
X166576215Y-96997780D01*
X167576215Y-96997780D02*
X167004786Y-96997780D01*
X167290500Y-96997780D02*
X167290500Y-95997780D01*
X167195262Y-96140638D01*
X167100024Y-96235876D01*
X167004786Y-96283495D01*
X169195262Y-96331114D02*
X169195262Y-96997780D01*
X168766691Y-96331114D02*
X168766691Y-96854923D01*
X168814310Y-96950161D01*
X168909548Y-96997780D01*
X169052405Y-96997780D01*
X169147643Y-96950161D01*
X169195262Y-96902542D01*
X170004786Y-96473971D02*
X169671453Y-96473971D01*
X169671453Y-96997780D02*
X169671453Y-95997780D01*
X170147643Y-95997780D01*
D18*
X161831693Y-96297097D02*
X161812645Y-96316144D01*
X161755502Y-96335192D01*
X161717407Y-96335192D01*
X161660264Y-96316144D01*
X161622169Y-96278049D01*
X161603121Y-96239954D01*
X161584074Y-96163763D01*
X161584074Y-96106620D01*
X161603121Y-96030430D01*
X161622169Y-95992335D01*
X161660264Y-95954240D01*
X161717407Y-95935192D01*
X161755502Y-95935192D01*
X161812645Y-95954240D01*
X161831693Y-95973287D01*
X161984074Y-95973287D02*
X162003121Y-95954240D01*
X162041217Y-95935192D01*
X162136455Y-95935192D01*
X162174550Y-95954240D01*
X162193598Y-95973287D01*
X162212645Y-96011382D01*
X162212645Y-96049478D01*
X162193598Y-96106620D01*
X161965026Y-96335192D01*
X162212645Y-96335192D01*
D15*
X166159085Y-97555394D02*
X166159085Y-98222060D01*
X165920990Y-97174441D02*
X165682895Y-97888727D01*
X166301942Y-97888727D01*
X166682895Y-98126822D02*
X166730514Y-98174441D01*
X166682895Y-98222060D01*
X166635276Y-98174441D01*
X166682895Y-98126822D01*
X166682895Y-98222060D01*
X167063847Y-97222060D02*
X167730514Y-97222060D01*
X167301942Y-98222060D01*
X169301942Y-97555394D02*
X169301942Y-98222060D01*
X168873371Y-97555394D02*
X168873371Y-98079203D01*
X168920990Y-98174441D01*
X169016228Y-98222060D01*
X169159085Y-98222060D01*
X169254323Y-98174441D01*
X169301942Y-98126822D01*
X170111466Y-97698251D02*
X169778133Y-97698251D01*
X169778133Y-98222060D02*
X169778133Y-97222060D01*
X170254323Y-97222060D01*
D18*
X161834173Y-97993817D02*
X161815125Y-98012864D01*
X161757982Y-98031912D01*
X161719887Y-98031912D01*
X161662744Y-98012864D01*
X161624649Y-97974769D01*
X161605601Y-97936674D01*
X161586554Y-97860483D01*
X161586554Y-97803340D01*
X161605601Y-97727150D01*
X161624649Y-97689055D01*
X161662744Y-97650960D01*
X161719887Y-97631912D01*
X161757982Y-97631912D01*
X161815125Y-97650960D01*
X161834173Y-97670007D01*
X162215125Y-98031912D02*
X161986554Y-98031912D01*
X162100840Y-98031912D02*
X162100840Y-97631912D01*
X162062744Y-97689055D01*
X162024649Y-97727150D01*
X161986554Y-97746198D01*
M02*
