M48
; DRILL file {KiCad (5.1.4)-1} date 3/25/2020 1:11:41 PM
; FORMAT={-:-/ absolute / inch / decimal}
; #@! TF.CreationDate,2020-03-25T13:11:41-05:00
; #@! TF.GenerationSoftware,Kicad,Pcbnew,(5.1.4)-1
; #@! TF.FileFunction,Plated,1,2,PTH
FMAT,2
INCH
T1C0.0118
T2C0.0157
T3C0.0394
%
G90
G05
T1
X5.6615Y-4.6505
X5.663Y-4.7385
X5.679Y-4.399
X5.685Y-4.3165
X5.686Y-4.621
X5.6865Y-4.5025
X5.6895Y-4.5845
X5.693Y-4.3615
X5.704Y-3.471
X5.7055Y-4.066
X5.718Y-3.516
X5.76Y-4.6515
X5.7975Y-4.3865
X5.804Y-4.1855
X5.8085Y-4.6215
X5.8115Y-4.4485
X5.814Y-4.7385
X5.829Y-4.5545
X5.839Y-3.4655
X5.839Y-3.544
X5.868Y-4.306
X5.877Y-4.444
X5.8815Y-4.583
X5.9105Y-3.534
X5.9105Y-3.59
X5.915Y-4.054
X5.951Y-4.869
X5.957Y-4.315
X5.967Y-4.033
X6.007Y-4.427
X6.0136Y-4.0422
X6.02Y-4.198
X6.0335Y-4.4535
X6.0416Y-4.023
X6.074Y-4.146
X6.0785Y-4.3785
X6.168Y-4.167
X6.184Y-4.387
X6.197Y-4.418
X6.204Y-3.953
X6.248Y-4.153
X6.268Y-4.173
X6.3055Y-3.8185
X6.3135Y-4.4835
X6.3268Y-4.1634
X6.3295Y-4.6805
X6.349Y-4.65
X6.3615Y-4.604
X6.369Y-4.761
X6.3738Y-4.001
X6.397Y-4.453
X6.572Y-4.405
X6.582Y-4.366
X6.6Y-4.452
T2
X5.743Y-3.206
X5.863Y-2.971
X5.941Y-4.253
X5.948Y-3.206
X6.023Y-3.726
X6.043Y-2.981
X6.058Y-3.761
X6.093Y-3.796
X6.103Y-3.356
X6.118Y-3.661
X6.135Y-4.231
X6.143Y-3.691
X6.168Y-3.726
X6.203Y-3.6785
X6.273Y-3.571
X6.348Y-3.041
X6.355Y-4.305
X6.418Y-3.301
X6.425Y-3.657
T3
X5.526Y-3.238
X5.526Y-3.338
X5.526Y-3.438
X5.526Y-3.538
X5.526Y-3.638
X5.526Y-3.738
X5.526Y-3.838
X5.526Y-3.938
X5.526Y-4.038
X5.526Y-4.138
X5.526Y-4.238
X5.526Y-4.338
X5.526Y-4.438
X5.526Y-4.538
X5.526Y-4.638
X5.526Y-4.738
X5.526Y-4.838
X6.0545Y-4.7195
X6.0545Y-4.8195
X6.0545Y-4.9195
X6.1545Y-4.7195
X6.1545Y-4.8195
X6.1545Y-4.9195
X5.677Y-4.919
X5.777Y-4.919
X6.3071Y-2.661
X6.4055Y-2.661
X6.688Y-3.239
X6.688Y-3.339
X6.688Y-3.439
X6.688Y-3.539
X6.688Y-3.639
X6.688Y-3.739
X6.688Y-3.839
X6.688Y-3.939
X6.688Y-4.039
X6.688Y-4.139
X6.688Y-4.239
X6.688Y-4.339
X6.688Y-4.439
X6.688Y-4.539
X6.688Y-4.639
X6.688Y-4.739
X6.688Y-4.839
T0
M30
