G04 #@! TF.GenerationSoftware,KiCad,Pcbnew,(5.1.4)-1*
G04 #@! TF.CreationDate,2020-03-25T13:11:36-05:00*
G04 #@! TF.ProjectId,ExOneMicrorocessor,45784f6e-654d-4696-9372-6f726f636573,rev?*
G04 #@! TF.SameCoordinates,Original*
G04 #@! TF.FileFunction,Copper,L2,Bot*
G04 #@! TF.FilePolarity,Positive*
%FSLAX46Y46*%
G04 Gerber Fmt 4.6, Leading zero omitted, Abs format (unit mm)*
G04 Created by KiCad (PCBNEW (5.1.4)-1) date 2020-03-25 13:11:36*
%MOMM*%
%LPD*%
G04 APERTURE LIST*
%ADD10O,1.700000X1.700000*%
%ADD11R,1.700000X1.700000*%
%ADD12R,7.875000X2.000000*%
%ADD13O,1.700000X2.000000*%
%ADD14C,0.100000*%
%ADD15C,1.700000*%
%ADD16C,0.950000*%
%ADD17C,0.500000*%
%ADD18C,0.800000*%
%ADD19C,0.250000*%
%ADD20C,0.200000*%
%ADD21C,0.203200*%
%ADD22C,0.254000*%
G04 APERTURE END LIST*
D10*
X169875200Y-122910600D03*
X169875200Y-120370600D03*
X169875200Y-117830600D03*
X169875200Y-115290600D03*
X169875200Y-112750600D03*
X169875200Y-110210600D03*
X169875200Y-107670600D03*
X169875200Y-105130600D03*
X169875200Y-102590600D03*
X169875200Y-100050600D03*
X169875200Y-97510600D03*
X169875200Y-94970600D03*
X169875200Y-92430600D03*
X169875200Y-89890600D03*
X169875200Y-87350600D03*
X169875200Y-84810600D03*
D11*
X169875200Y-82270600D03*
D10*
X140360400Y-122885200D03*
X140360400Y-120345200D03*
X140360400Y-117805200D03*
X140360400Y-115265200D03*
X140360400Y-112725200D03*
X140360400Y-110185200D03*
X140360400Y-107645200D03*
X140360400Y-105105200D03*
X140360400Y-102565200D03*
X140360400Y-100025200D03*
X140360400Y-97485200D03*
X140360400Y-94945200D03*
X140360400Y-92405200D03*
X140360400Y-89865200D03*
X140360400Y-87325200D03*
X140360400Y-84785200D03*
D11*
X140360400Y-82245200D03*
D10*
X144195800Y-124942600D03*
D11*
X146735800Y-124942600D03*
D12*
X150532600Y-99898200D03*
X162407600Y-99898200D03*
D10*
X153784300Y-119875300D03*
X156324300Y-119875300D03*
X153784300Y-122415300D03*
X156324300Y-122415300D03*
X153784300Y-124955300D03*
D11*
X156324300Y-124955300D03*
D13*
X162699700Y-67589400D03*
D14*
G36*
X160824204Y-66590604D02*
G01*
X160848473Y-66594204D01*
X160872271Y-66600165D01*
X160895371Y-66608430D01*
X160917549Y-66618920D01*
X160938593Y-66631533D01*
X160958298Y-66646147D01*
X160976477Y-66662623D01*
X160992953Y-66680802D01*
X161007567Y-66700507D01*
X161020180Y-66721551D01*
X161030670Y-66743729D01*
X161038935Y-66766829D01*
X161044896Y-66790627D01*
X161048496Y-66814896D01*
X161049700Y-66839400D01*
X161049700Y-68339400D01*
X161048496Y-68363904D01*
X161044896Y-68388173D01*
X161038935Y-68411971D01*
X161030670Y-68435071D01*
X161020180Y-68457249D01*
X161007567Y-68478293D01*
X160992953Y-68497998D01*
X160976477Y-68516177D01*
X160958298Y-68532653D01*
X160938593Y-68547267D01*
X160917549Y-68559880D01*
X160895371Y-68570370D01*
X160872271Y-68578635D01*
X160848473Y-68584596D01*
X160824204Y-68588196D01*
X160799700Y-68589400D01*
X159599700Y-68589400D01*
X159575196Y-68588196D01*
X159550927Y-68584596D01*
X159527129Y-68578635D01*
X159504029Y-68570370D01*
X159481851Y-68559880D01*
X159460807Y-68547267D01*
X159441102Y-68532653D01*
X159422923Y-68516177D01*
X159406447Y-68497998D01*
X159391833Y-68478293D01*
X159379220Y-68457249D01*
X159368730Y-68435071D01*
X159360465Y-68411971D01*
X159354504Y-68388173D01*
X159350904Y-68363904D01*
X159349700Y-68339400D01*
X159349700Y-66839400D01*
X159350904Y-66814896D01*
X159354504Y-66790627D01*
X159360465Y-66766829D01*
X159368730Y-66743729D01*
X159379220Y-66721551D01*
X159391833Y-66700507D01*
X159406447Y-66680802D01*
X159422923Y-66662623D01*
X159441102Y-66646147D01*
X159460807Y-66631533D01*
X159481851Y-66618920D01*
X159504029Y-66608430D01*
X159527129Y-66600165D01*
X159550927Y-66594204D01*
X159575196Y-66590604D01*
X159599700Y-66589400D01*
X160799700Y-66589400D01*
X160824204Y-66590604D01*
X160824204Y-66590604D01*
G37*
D15*
X160199700Y-67589400D03*
D14*
G36*
X150806579Y-95843744D02*
G01*
X150829634Y-95847163D01*
X150852243Y-95852827D01*
X150874187Y-95860679D01*
X150895257Y-95870644D01*
X150915248Y-95882626D01*
X150933968Y-95896510D01*
X150951238Y-95912162D01*
X150966890Y-95929432D01*
X150980774Y-95948152D01*
X150992756Y-95968143D01*
X151002721Y-95989213D01*
X151010573Y-96011157D01*
X151016237Y-96033766D01*
X151019656Y-96056821D01*
X151020800Y-96080100D01*
X151020800Y-96655100D01*
X151019656Y-96678379D01*
X151016237Y-96701434D01*
X151010573Y-96724043D01*
X151002721Y-96745987D01*
X150992756Y-96767057D01*
X150980774Y-96787048D01*
X150966890Y-96805768D01*
X150951238Y-96823038D01*
X150933968Y-96838690D01*
X150915248Y-96852574D01*
X150895257Y-96864556D01*
X150874187Y-96874521D01*
X150852243Y-96882373D01*
X150829634Y-96888037D01*
X150806579Y-96891456D01*
X150783300Y-96892600D01*
X150308300Y-96892600D01*
X150285021Y-96891456D01*
X150261966Y-96888037D01*
X150239357Y-96882373D01*
X150217413Y-96874521D01*
X150196343Y-96864556D01*
X150176352Y-96852574D01*
X150157632Y-96838690D01*
X150140362Y-96823038D01*
X150124710Y-96805768D01*
X150110826Y-96787048D01*
X150098844Y-96767057D01*
X150088879Y-96745987D01*
X150081027Y-96724043D01*
X150075363Y-96701434D01*
X150071944Y-96678379D01*
X150070800Y-96655100D01*
X150070800Y-96080100D01*
X150071944Y-96056821D01*
X150075363Y-96033766D01*
X150081027Y-96011157D01*
X150088879Y-95989213D01*
X150098844Y-95968143D01*
X150110826Y-95948152D01*
X150124710Y-95929432D01*
X150140362Y-95912162D01*
X150157632Y-95896510D01*
X150176352Y-95882626D01*
X150196343Y-95870644D01*
X150217413Y-95860679D01*
X150239357Y-95852827D01*
X150261966Y-95847163D01*
X150285021Y-95843744D01*
X150308300Y-95842600D01*
X150783300Y-95842600D01*
X150806579Y-95843744D01*
X150806579Y-95843744D01*
G37*
D16*
X150545800Y-96367600D03*
D14*
G36*
X150806579Y-94093744D02*
G01*
X150829634Y-94097163D01*
X150852243Y-94102827D01*
X150874187Y-94110679D01*
X150895257Y-94120644D01*
X150915248Y-94132626D01*
X150933968Y-94146510D01*
X150951238Y-94162162D01*
X150966890Y-94179432D01*
X150980774Y-94198152D01*
X150992756Y-94218143D01*
X151002721Y-94239213D01*
X151010573Y-94261157D01*
X151016237Y-94283766D01*
X151019656Y-94306821D01*
X151020800Y-94330100D01*
X151020800Y-94905100D01*
X151019656Y-94928379D01*
X151016237Y-94951434D01*
X151010573Y-94974043D01*
X151002721Y-94995987D01*
X150992756Y-95017057D01*
X150980774Y-95037048D01*
X150966890Y-95055768D01*
X150951238Y-95073038D01*
X150933968Y-95088690D01*
X150915248Y-95102574D01*
X150895257Y-95114556D01*
X150874187Y-95124521D01*
X150852243Y-95132373D01*
X150829634Y-95138037D01*
X150806579Y-95141456D01*
X150783300Y-95142600D01*
X150308300Y-95142600D01*
X150285021Y-95141456D01*
X150261966Y-95138037D01*
X150239357Y-95132373D01*
X150217413Y-95124521D01*
X150196343Y-95114556D01*
X150176352Y-95102574D01*
X150157632Y-95088690D01*
X150140362Y-95073038D01*
X150124710Y-95055768D01*
X150110826Y-95037048D01*
X150098844Y-95017057D01*
X150088879Y-94995987D01*
X150081027Y-94974043D01*
X150075363Y-94951434D01*
X150071944Y-94928379D01*
X150070800Y-94905100D01*
X150070800Y-94330100D01*
X150071944Y-94306821D01*
X150075363Y-94283766D01*
X150081027Y-94261157D01*
X150088879Y-94239213D01*
X150098844Y-94218143D01*
X150110826Y-94198152D01*
X150124710Y-94179432D01*
X150140362Y-94162162D01*
X150157632Y-94146510D01*
X150176352Y-94132626D01*
X150196343Y-94120644D01*
X150217413Y-94110679D01*
X150239357Y-94102827D01*
X150261966Y-94097163D01*
X150285021Y-94093744D01*
X150308300Y-94092600D01*
X150783300Y-94092600D01*
X150806579Y-94093744D01*
X150806579Y-94093744D01*
G37*
D16*
X150545800Y-94617600D03*
D14*
G36*
X162668379Y-95818344D02*
G01*
X162691434Y-95821763D01*
X162714043Y-95827427D01*
X162735987Y-95835279D01*
X162757057Y-95845244D01*
X162777048Y-95857226D01*
X162795768Y-95871110D01*
X162813038Y-95886762D01*
X162828690Y-95904032D01*
X162842574Y-95922752D01*
X162854556Y-95942743D01*
X162864521Y-95963813D01*
X162872373Y-95985757D01*
X162878037Y-96008366D01*
X162881456Y-96031421D01*
X162882600Y-96054700D01*
X162882600Y-96629700D01*
X162881456Y-96652979D01*
X162878037Y-96676034D01*
X162872373Y-96698643D01*
X162864521Y-96720587D01*
X162854556Y-96741657D01*
X162842574Y-96761648D01*
X162828690Y-96780368D01*
X162813038Y-96797638D01*
X162795768Y-96813290D01*
X162777048Y-96827174D01*
X162757057Y-96839156D01*
X162735987Y-96849121D01*
X162714043Y-96856973D01*
X162691434Y-96862637D01*
X162668379Y-96866056D01*
X162645100Y-96867200D01*
X162170100Y-96867200D01*
X162146821Y-96866056D01*
X162123766Y-96862637D01*
X162101157Y-96856973D01*
X162079213Y-96849121D01*
X162058143Y-96839156D01*
X162038152Y-96827174D01*
X162019432Y-96813290D01*
X162002162Y-96797638D01*
X161986510Y-96780368D01*
X161972626Y-96761648D01*
X161960644Y-96741657D01*
X161950679Y-96720587D01*
X161942827Y-96698643D01*
X161937163Y-96676034D01*
X161933744Y-96652979D01*
X161932600Y-96629700D01*
X161932600Y-96054700D01*
X161933744Y-96031421D01*
X161937163Y-96008366D01*
X161942827Y-95985757D01*
X161950679Y-95963813D01*
X161960644Y-95942743D01*
X161972626Y-95922752D01*
X161986510Y-95904032D01*
X162002162Y-95886762D01*
X162019432Y-95871110D01*
X162038152Y-95857226D01*
X162058143Y-95845244D01*
X162079213Y-95835279D01*
X162101157Y-95827427D01*
X162123766Y-95821763D01*
X162146821Y-95818344D01*
X162170100Y-95817200D01*
X162645100Y-95817200D01*
X162668379Y-95818344D01*
X162668379Y-95818344D01*
G37*
D16*
X162407600Y-96342200D03*
D14*
G36*
X162668379Y-94068344D02*
G01*
X162691434Y-94071763D01*
X162714043Y-94077427D01*
X162735987Y-94085279D01*
X162757057Y-94095244D01*
X162777048Y-94107226D01*
X162795768Y-94121110D01*
X162813038Y-94136762D01*
X162828690Y-94154032D01*
X162842574Y-94172752D01*
X162854556Y-94192743D01*
X162864521Y-94213813D01*
X162872373Y-94235757D01*
X162878037Y-94258366D01*
X162881456Y-94281421D01*
X162882600Y-94304700D01*
X162882600Y-94879700D01*
X162881456Y-94902979D01*
X162878037Y-94926034D01*
X162872373Y-94948643D01*
X162864521Y-94970587D01*
X162854556Y-94991657D01*
X162842574Y-95011648D01*
X162828690Y-95030368D01*
X162813038Y-95047638D01*
X162795768Y-95063290D01*
X162777048Y-95077174D01*
X162757057Y-95089156D01*
X162735987Y-95099121D01*
X162714043Y-95106973D01*
X162691434Y-95112637D01*
X162668379Y-95116056D01*
X162645100Y-95117200D01*
X162170100Y-95117200D01*
X162146821Y-95116056D01*
X162123766Y-95112637D01*
X162101157Y-95106973D01*
X162079213Y-95099121D01*
X162058143Y-95089156D01*
X162038152Y-95077174D01*
X162019432Y-95063290D01*
X162002162Y-95047638D01*
X161986510Y-95030368D01*
X161972626Y-95011648D01*
X161960644Y-94991657D01*
X161950679Y-94970587D01*
X161942827Y-94948643D01*
X161937163Y-94926034D01*
X161933744Y-94902979D01*
X161932600Y-94879700D01*
X161932600Y-94304700D01*
X161933744Y-94281421D01*
X161937163Y-94258366D01*
X161942827Y-94235757D01*
X161950679Y-94213813D01*
X161960644Y-94192743D01*
X161972626Y-94172752D01*
X161986510Y-94154032D01*
X162002162Y-94136762D01*
X162019432Y-94121110D01*
X162038152Y-94107226D01*
X162058143Y-94095244D01*
X162079213Y-94085279D01*
X162101157Y-94077427D01*
X162123766Y-94071763D01*
X162146821Y-94068344D01*
X162170100Y-94067200D01*
X162645100Y-94067200D01*
X162668379Y-94068344D01*
X162668379Y-94068344D01*
G37*
D16*
X162407600Y-94592200D03*
D17*
X144881600Y-88163400D03*
X160700720Y-105750360D03*
X161894520Y-101625400D03*
D18*
X156667200Y-94640400D03*
X152984200Y-94640400D03*
X154762200Y-96418400D03*
X153873200Y-95529400D03*
X155397200Y-92989400D03*
X156032200Y-93751400D03*
D17*
X145237200Y-89306400D03*
D18*
X155016200Y-85242400D03*
X151079200Y-81432400D03*
X145872200Y-81432400D03*
X153492200Y-75717400D03*
X148920200Y-75463400D03*
X161239200Y-77241400D03*
X163017200Y-83845400D03*
X159334200Y-90703400D03*
X157556200Y-93433900D03*
D17*
X160159700Y-96989900D03*
D18*
X161417000Y-109347000D03*
X150901400Y-108026200D03*
X155829000Y-107467400D03*
D17*
X156667200Y-105841800D03*
D18*
X163195000Y-92887800D03*
D17*
X159207200Y-105994200D03*
X158699200Y-105486200D03*
X161772600Y-120929400D03*
X151155400Y-123672600D03*
X162483800Y-113106200D03*
X161582100Y-116941600D03*
X161264600Y-118110000D03*
X160769300Y-118884700D03*
X147675600Y-120357900D03*
X143840200Y-120357900D03*
X146304000Y-118148100D03*
X143802100Y-118122700D03*
X147535900Y-117386100D03*
X144424400Y-117373400D03*
X149390100Y-116408200D03*
X144513300Y-116446300D03*
X148056600Y-115684300D03*
X144437100Y-114363500D03*
X147612100Y-112991900D03*
X144246600Y-111734600D03*
X160362900Y-113880900D03*
X157581600Y-100406200D03*
X167182800Y-110896400D03*
X166928800Y-111887000D03*
X167640000Y-113080800D03*
X149275800Y-112877600D03*
X144602200Y-110782100D03*
X147256500Y-111417100D03*
X144399000Y-109639100D03*
X153250900Y-113118900D03*
X152577800Y-112445800D03*
X153456640Y-102184200D03*
X157403800Y-112217200D03*
X147421600Y-106311700D03*
X144919700Y-103276400D03*
X154393900Y-111213900D03*
X151561800Y-102438200D03*
X157073600Y-111429800D03*
X149047200Y-109372400D03*
X151307800Y-109601000D03*
X150241000Y-102971600D03*
X152908000Y-106629200D03*
X152745440Y-102671880D03*
X154279600Y-105308400D03*
X150126700Y-89763600D03*
X150126700Y-91186000D03*
X148310600Y-88023700D03*
X148310600Y-90017600D03*
D19*
X161894520Y-104556560D02*
X161894520Y-101625400D01*
X160700720Y-105750360D02*
X161894520Y-104556560D01*
D20*
X161344519Y-100961281D02*
X162407600Y-99898200D01*
X161344519Y-103856881D02*
X161344519Y-100961281D01*
X159207200Y-105994200D02*
X161344519Y-103856881D01*
D19*
X162407600Y-97304800D02*
X162407600Y-96342200D01*
X162407600Y-97304800D02*
X162407600Y-99898200D01*
D20*
X153111200Y-99898200D02*
X150532600Y-99898200D01*
D19*
X150545800Y-99885000D02*
X150532600Y-99898200D01*
X150545800Y-96367600D02*
X150545800Y-99885000D01*
D21*
X158699200Y-105486200D02*
X158699200Y-103205280D01*
X155392120Y-99898200D02*
X150532600Y-99898200D01*
X158699200Y-103205280D02*
X155392120Y-99898200D01*
D19*
X161772600Y-120929400D02*
X159029400Y-123672600D01*
X159029400Y-123672600D02*
X151155400Y-123672600D01*
D20*
X162483800Y-113106200D02*
X165874700Y-113106200D01*
X168059100Y-115290600D02*
X169875200Y-115290600D01*
X165874700Y-113106200D02*
X168059100Y-115290600D01*
X162471100Y-117830600D02*
X169875200Y-117830600D01*
X161582100Y-116941600D02*
X162471100Y-117830600D01*
X168673119Y-120370600D02*
X169875200Y-120370600D01*
X164445401Y-120370600D02*
X168673119Y-120370600D01*
X162184801Y-118110000D02*
X164445401Y-120370600D01*
X161264600Y-118110000D02*
X162184801Y-118110000D01*
X160769300Y-118884700D02*
X161404300Y-118884700D01*
X165430200Y-122910600D02*
X169875200Y-122910600D01*
X161404300Y-118884700D02*
X165430200Y-122910600D01*
X140373100Y-120357900D02*
X140360400Y-120345200D01*
X147322047Y-120357900D02*
X143840200Y-120357900D01*
X147675600Y-120357900D02*
X147322047Y-120357900D01*
X140703300Y-118148100D02*
X140360400Y-117805200D01*
X143827500Y-118148100D02*
X143802100Y-118122700D01*
X146304000Y-118148100D02*
X143827500Y-118148100D01*
X144437100Y-117386100D02*
X144424400Y-117373400D01*
X147535900Y-117386100D02*
X144437100Y-117386100D01*
X149352000Y-116446300D02*
X149390100Y-116408200D01*
X144513300Y-116446300D02*
X149352000Y-116446300D01*
X145757900Y-115684300D02*
X144437100Y-114363500D01*
X148056600Y-115684300D02*
X145757900Y-115684300D01*
X144246600Y-111734600D02*
X145503900Y-112991900D01*
X147612100Y-112991900D02*
X145783300Y-112991900D01*
X145503900Y-112991900D02*
X145783300Y-112991900D01*
X141210399Y-122035201D02*
X140360400Y-122885200D01*
X141980301Y-121265299D02*
X141210399Y-122035201D01*
X154336301Y-121265299D02*
X141980301Y-121265299D01*
X154356002Y-121285000D02*
X154336301Y-121265299D01*
X155752598Y-121285000D02*
X154356002Y-121285000D01*
X155772299Y-121265299D02*
X155752598Y-121285000D01*
X156636303Y-121265299D02*
X155772299Y-121265299D01*
X160362900Y-117538702D02*
X156636303Y-121265299D01*
X160362900Y-113880900D02*
X160362900Y-117538702D01*
D19*
X157581600Y-100406200D02*
X157581600Y-97663000D01*
X157581600Y-97663000D02*
X152400000Y-92481400D01*
X149923398Y-92481400D02*
X149212198Y-91770200D01*
X152400000Y-92481400D02*
X149923398Y-92481400D01*
X141460400Y-82245200D02*
X140360400Y-82245200D01*
X145456601Y-86241401D02*
X141460400Y-82245200D01*
X145456601Y-88052601D02*
X145456601Y-86241401D01*
X147996601Y-90592601D02*
X145456601Y-88052601D01*
X148072801Y-90592601D02*
X147996601Y-90592601D01*
X149212198Y-91731998D02*
X148072801Y-90592601D01*
X149212198Y-91770200D02*
X149212198Y-91731998D01*
D21*
X167182800Y-102743000D02*
X169875200Y-100050600D01*
X167182800Y-110896400D02*
X167182800Y-102743000D01*
X167894000Y-104571800D02*
X169875200Y-102590600D01*
X166928800Y-111887000D02*
X167411400Y-111887000D01*
X167894000Y-111404400D02*
X167894000Y-104571800D01*
X167411400Y-111887000D02*
X167894000Y-111404400D01*
X167640000Y-113080800D02*
X168579800Y-112141000D01*
X168579800Y-108966000D02*
X169875200Y-107670600D01*
X168579800Y-112141000D02*
X168579800Y-108966000D01*
D20*
X148840099Y-112441899D02*
X146261999Y-112441899D01*
X149275800Y-112877600D02*
X148840099Y-112441899D01*
X146261999Y-112441899D02*
X144602200Y-110782100D01*
X147006501Y-111167101D02*
X145927001Y-111167101D01*
X147256500Y-111417100D02*
X147006501Y-111167101D01*
X145927001Y-111167101D02*
X144399000Y-109639100D01*
X153250900Y-113118900D02*
X151745902Y-113118900D01*
D21*
X141782800Y-101447600D02*
X140360400Y-100025200D01*
X141782800Y-104927400D02*
X141782800Y-101447600D01*
X148895690Y-112040290D02*
X141782800Y-104927400D01*
X149911690Y-112040290D02*
X148895690Y-112040290D01*
X151745902Y-113118900D02*
X150990300Y-113118900D01*
X150990300Y-113118900D02*
X149911690Y-112040290D01*
X142824200Y-99949000D02*
X140360400Y-97485200D01*
X152265091Y-112133091D02*
X151579291Y-112133091D01*
X151579291Y-112133091D02*
X150926800Y-111480600D01*
X150926800Y-111480600D02*
X149258500Y-111480600D01*
X149258500Y-111480600D02*
X142824200Y-105046300D01*
X142824200Y-105046300D02*
X142824200Y-99949000D01*
X152577800Y-112445800D02*
X152265091Y-112133091D01*
D19*
X160096200Y-108483400D02*
X160096200Y-109524800D01*
X160096200Y-109524800D02*
X157403800Y-112217200D01*
X159194398Y-107581598D02*
X160096200Y-108483400D01*
X157403800Y-107581598D02*
X159194398Y-107581598D01*
D21*
X153898600Y-102626160D02*
X153456640Y-102184200D01*
X156115599Y-104843159D02*
X153898600Y-102626160D01*
X157403800Y-107581598D02*
X156115599Y-106293397D01*
X156115599Y-106293397D02*
X156115599Y-104843159D01*
D20*
X144919700Y-103809800D02*
X144919700Y-103276400D01*
X147421600Y-106311700D02*
X144919700Y-103809800D01*
X148018500Y-109359700D02*
X149682200Y-111023400D01*
X154143901Y-111463899D02*
X154393900Y-111213900D01*
X154059799Y-111548001D02*
X154143901Y-111463899D01*
X152085199Y-111548001D02*
X154059799Y-111548001D01*
X151560598Y-111023400D02*
X152085199Y-111548001D01*
X149682200Y-111023400D02*
X151560598Y-111023400D01*
D21*
X143649700Y-95694500D02*
X140360400Y-92405200D01*
X144030498Y-96075298D02*
X143649700Y-95694500D01*
X148018500Y-109359700D02*
X144030498Y-105371698D01*
X144030498Y-105371698D02*
X144030498Y-96075298D01*
X151561800Y-103657400D02*
X151561800Y-102438200D01*
X154067201Y-106162801D02*
X151561800Y-103657400D01*
X154067201Y-109185401D02*
X154067201Y-106162801D01*
X157073600Y-111429800D02*
X156311600Y-111429800D01*
X156311600Y-111429800D02*
X154067201Y-109185401D01*
X140360400Y-89865200D02*
X145618200Y-95123000D01*
X149047200Y-106756200D02*
X149047200Y-109372400D01*
X145618200Y-103327200D02*
X149047200Y-106756200D01*
X145618200Y-95123000D02*
X145618200Y-103327200D01*
X146293499Y-93258299D02*
X146293499Y-101843499D01*
X140360400Y-87325200D02*
X146293499Y-93258299D01*
X146293499Y-101843499D02*
X149936200Y-105486200D01*
X149936200Y-108229400D02*
X151307800Y-109601000D01*
X149936200Y-105486200D02*
X149936200Y-108229400D01*
D19*
X150241000Y-102971600D02*
X150241000Y-103325153D01*
D21*
X150241000Y-103962200D02*
X152908000Y-106629200D01*
X150241000Y-103325153D02*
X150241000Y-103962200D01*
X152745440Y-103774240D02*
X152745440Y-102671880D01*
X152755600Y-103784400D02*
X152745440Y-103774240D01*
X152755600Y-103784400D02*
X154279600Y-105308400D01*
D19*
X150126700Y-89763600D02*
X150126700Y-91186000D01*
X148310600Y-88023700D02*
X148310600Y-90017600D01*
D22*
G36*
X166833200Y-67187735D02*
G01*
X166833201Y-75464147D01*
X166830773Y-75488800D01*
X166840465Y-75587209D01*
X166869170Y-75681836D01*
X166915784Y-75769045D01*
X166962801Y-75826335D01*
X166962802Y-75826336D01*
X166978517Y-75845484D01*
X166997663Y-75861197D01*
X171405201Y-80268736D01*
X171405200Y-124683865D01*
X169286266Y-126802800D01*
X141000135Y-126802800D01*
X139496826Y-125299491D01*
X142754319Y-125299491D01*
X142851643Y-125573852D01*
X143000622Y-125823955D01*
X143195531Y-126040188D01*
X143428880Y-126214241D01*
X143691701Y-126339425D01*
X143838910Y-126384076D01*
X144068800Y-126262755D01*
X144068800Y-125069600D01*
X142874986Y-125069600D01*
X142754319Y-125299491D01*
X139496826Y-125299491D01*
X138881200Y-124683866D01*
X138881200Y-124585709D01*
X142754319Y-124585709D01*
X142874986Y-124815600D01*
X144068800Y-124815600D01*
X144068800Y-123622445D01*
X144322800Y-123622445D01*
X144322800Y-124815600D01*
X144342800Y-124815600D01*
X144342800Y-125069600D01*
X144322800Y-125069600D01*
X144322800Y-126262755D01*
X144552690Y-126384076D01*
X144699899Y-126339425D01*
X144962720Y-126214241D01*
X145196069Y-126040188D01*
X145390978Y-125823955D01*
X145406942Y-125797155D01*
X145415703Y-125886108D01*
X145442978Y-125976023D01*
X145487271Y-126058889D01*
X145546879Y-126131521D01*
X145619511Y-126191129D01*
X145702377Y-126235422D01*
X145792292Y-126262697D01*
X145885800Y-126271907D01*
X147585800Y-126271907D01*
X147679308Y-126262697D01*
X147769223Y-126235422D01*
X147852089Y-126191129D01*
X147924721Y-126131521D01*
X147984329Y-126058889D01*
X148028622Y-125976023D01*
X148055897Y-125886108D01*
X148065107Y-125792600D01*
X148065107Y-124092600D01*
X148055897Y-123999092D01*
X148028622Y-123909177D01*
X147984329Y-123826311D01*
X147924721Y-123753679D01*
X147852089Y-123694071D01*
X147769223Y-123649778D01*
X147679308Y-123622503D01*
X147585800Y-123613293D01*
X145885800Y-123613293D01*
X145792292Y-123622503D01*
X145702377Y-123649778D01*
X145619511Y-123694071D01*
X145546879Y-123753679D01*
X145487271Y-123826311D01*
X145442978Y-123909177D01*
X145415703Y-123999092D01*
X145406942Y-124088045D01*
X145390978Y-124061245D01*
X145196069Y-123845012D01*
X144962720Y-123670959D01*
X144699899Y-123545775D01*
X144552690Y-123501124D01*
X144322800Y-123622445D01*
X144068800Y-123622445D01*
X143838910Y-123501124D01*
X143691701Y-123545775D01*
X143428880Y-123670959D01*
X143195531Y-123845012D01*
X143000622Y-124061245D01*
X142851643Y-124311348D01*
X142754319Y-124585709D01*
X138881200Y-124585709D01*
X138881200Y-84912202D01*
X139040244Y-84912202D01*
X138918924Y-85142090D01*
X138963575Y-85289299D01*
X139088759Y-85552120D01*
X139262812Y-85785469D01*
X139479045Y-85980378D01*
X139729148Y-86129357D01*
X139761295Y-86140760D01*
X139619592Y-86216502D01*
X139417530Y-86382330D01*
X139251702Y-86584392D01*
X139128481Y-86814922D01*
X139052601Y-87065063D01*
X139026980Y-87325200D01*
X139052601Y-87585337D01*
X139128481Y-87835478D01*
X139251702Y-88066008D01*
X139417530Y-88268070D01*
X139619592Y-88433898D01*
X139850122Y-88557119D01*
X139975657Y-88595200D01*
X139850122Y-88633281D01*
X139619592Y-88756502D01*
X139417530Y-88922330D01*
X139251702Y-89124392D01*
X139128481Y-89354922D01*
X139052601Y-89605063D01*
X139026980Y-89865200D01*
X139052601Y-90125337D01*
X139128481Y-90375478D01*
X139251702Y-90606008D01*
X139417530Y-90808070D01*
X139619592Y-90973898D01*
X139850122Y-91097119D01*
X139975657Y-91135200D01*
X139850122Y-91173281D01*
X139619592Y-91296502D01*
X139417530Y-91462330D01*
X139251702Y-91664392D01*
X139128481Y-91894922D01*
X139052601Y-92145063D01*
X139026980Y-92405200D01*
X139052601Y-92665337D01*
X139128481Y-92915478D01*
X139251702Y-93146008D01*
X139417530Y-93348070D01*
X139619592Y-93513898D01*
X139850122Y-93637119D01*
X139975657Y-93675200D01*
X139850122Y-93713281D01*
X139619592Y-93836502D01*
X139417530Y-94002330D01*
X139251702Y-94204392D01*
X139128481Y-94434922D01*
X139052601Y-94685063D01*
X139026980Y-94945200D01*
X139052601Y-95205337D01*
X139128481Y-95455478D01*
X139251702Y-95686008D01*
X139417530Y-95888070D01*
X139619592Y-96053898D01*
X139850122Y-96177119D01*
X139975657Y-96215200D01*
X139850122Y-96253281D01*
X139619592Y-96376502D01*
X139417530Y-96542330D01*
X139251702Y-96744392D01*
X139128481Y-96974922D01*
X139052601Y-97225063D01*
X139026980Y-97485200D01*
X139052601Y-97745337D01*
X139128481Y-97995478D01*
X139251702Y-98226008D01*
X139417530Y-98428070D01*
X139619592Y-98593898D01*
X139850122Y-98717119D01*
X139975657Y-98755200D01*
X139850122Y-98793281D01*
X139619592Y-98916502D01*
X139417530Y-99082330D01*
X139251702Y-99284392D01*
X139128481Y-99514922D01*
X139052601Y-99765063D01*
X139026980Y-100025200D01*
X139052601Y-100285337D01*
X139128481Y-100535478D01*
X139251702Y-100766008D01*
X139417530Y-100968070D01*
X139619592Y-101133898D01*
X139850122Y-101257119D01*
X139975657Y-101295200D01*
X139850122Y-101333281D01*
X139619592Y-101456502D01*
X139417530Y-101622330D01*
X139251702Y-101824392D01*
X139128481Y-102054922D01*
X139052601Y-102305063D01*
X139026980Y-102565200D01*
X139052601Y-102825337D01*
X139128481Y-103075478D01*
X139251702Y-103306008D01*
X139417530Y-103508070D01*
X139619592Y-103673898D01*
X139850122Y-103797119D01*
X139975657Y-103835200D01*
X139850122Y-103873281D01*
X139619592Y-103996502D01*
X139417530Y-104162330D01*
X139251702Y-104364392D01*
X139128481Y-104594922D01*
X139052601Y-104845063D01*
X139026980Y-105105200D01*
X139052601Y-105365337D01*
X139128481Y-105615478D01*
X139251702Y-105846008D01*
X139417530Y-106048070D01*
X139619592Y-106213898D01*
X139850122Y-106337119D01*
X139975657Y-106375200D01*
X139850122Y-106413281D01*
X139619592Y-106536502D01*
X139417530Y-106702330D01*
X139251702Y-106904392D01*
X139128481Y-107134922D01*
X139052601Y-107385063D01*
X139026980Y-107645200D01*
X139052601Y-107905337D01*
X139128481Y-108155478D01*
X139251702Y-108386008D01*
X139417530Y-108588070D01*
X139619592Y-108753898D01*
X139850122Y-108877119D01*
X139975657Y-108915200D01*
X139850122Y-108953281D01*
X139619592Y-109076502D01*
X139417530Y-109242330D01*
X139251702Y-109444392D01*
X139128481Y-109674922D01*
X139052601Y-109925063D01*
X139026980Y-110185200D01*
X139052601Y-110445337D01*
X139128481Y-110695478D01*
X139251702Y-110926008D01*
X139417530Y-111128070D01*
X139619592Y-111293898D01*
X139850122Y-111417119D01*
X139975657Y-111455200D01*
X139850122Y-111493281D01*
X139619592Y-111616502D01*
X139417530Y-111782330D01*
X139251702Y-111984392D01*
X139128481Y-112214922D01*
X139052601Y-112465063D01*
X139026980Y-112725200D01*
X139052601Y-112985337D01*
X139128481Y-113235478D01*
X139251702Y-113466008D01*
X139417530Y-113668070D01*
X139619592Y-113833898D01*
X139850122Y-113957119D01*
X139975657Y-113995200D01*
X139850122Y-114033281D01*
X139619592Y-114156502D01*
X139417530Y-114322330D01*
X139251702Y-114524392D01*
X139128481Y-114754922D01*
X139052601Y-115005063D01*
X139026980Y-115265200D01*
X139052601Y-115525337D01*
X139128481Y-115775478D01*
X139251702Y-116006008D01*
X139417530Y-116208070D01*
X139619592Y-116373898D01*
X139850122Y-116497119D01*
X139975657Y-116535200D01*
X139850122Y-116573281D01*
X139619592Y-116696502D01*
X139417530Y-116862330D01*
X139251702Y-117064392D01*
X139128481Y-117294922D01*
X139052601Y-117545063D01*
X139026980Y-117805200D01*
X139052601Y-118065337D01*
X139128481Y-118315478D01*
X139251702Y-118546008D01*
X139417530Y-118748070D01*
X139619592Y-118913898D01*
X139850122Y-119037119D01*
X139975657Y-119075200D01*
X139850122Y-119113281D01*
X139619592Y-119236502D01*
X139417530Y-119402330D01*
X139251702Y-119604392D01*
X139128481Y-119834922D01*
X139052601Y-120085063D01*
X139026980Y-120345200D01*
X139052601Y-120605337D01*
X139128481Y-120855478D01*
X139251702Y-121086008D01*
X139417530Y-121288070D01*
X139619592Y-121453898D01*
X139850122Y-121577119D01*
X139975657Y-121615200D01*
X139850122Y-121653281D01*
X139619592Y-121776502D01*
X139417530Y-121942330D01*
X139251702Y-122144392D01*
X139128481Y-122374922D01*
X139052601Y-122625063D01*
X139026980Y-122885200D01*
X139052601Y-123145337D01*
X139128481Y-123395478D01*
X139251702Y-123626008D01*
X139417530Y-123828070D01*
X139619592Y-123993898D01*
X139850122Y-124117119D01*
X140100263Y-124192999D01*
X140295216Y-124212200D01*
X140425584Y-124212200D01*
X140620537Y-124192999D01*
X140870678Y-124117119D01*
X141101208Y-123993898D01*
X141303270Y-123828070D01*
X141469098Y-123626008D01*
X141592319Y-123395478D01*
X141668199Y-123145337D01*
X141693820Y-122885200D01*
X141668199Y-122625063D01*
X141614281Y-122447321D01*
X141638436Y-122423166D01*
X141638441Y-122423160D01*
X142219302Y-121842299D01*
X152585907Y-121842299D01*
X152552381Y-121905022D01*
X152476501Y-122155163D01*
X152450880Y-122415300D01*
X152476501Y-122675437D01*
X152552381Y-122925578D01*
X152629897Y-123070600D01*
X151563009Y-123070600D01*
X151499764Y-123028341D01*
X151367458Y-122973538D01*
X151227003Y-122945600D01*
X151083797Y-122945600D01*
X150943342Y-122973538D01*
X150811036Y-123028341D01*
X150691964Y-123107902D01*
X150590702Y-123209164D01*
X150511141Y-123328236D01*
X150456338Y-123460542D01*
X150428400Y-123600997D01*
X150428400Y-123744203D01*
X150456338Y-123884658D01*
X150511141Y-124016964D01*
X150590702Y-124136036D01*
X150691964Y-124237298D01*
X150811036Y-124316859D01*
X150943342Y-124371662D01*
X151083797Y-124399600D01*
X151227003Y-124399600D01*
X151367458Y-124371662D01*
X151499764Y-124316859D01*
X151563009Y-124274600D01*
X152643474Y-124274600D01*
X152552381Y-124445022D01*
X152476501Y-124695163D01*
X152450880Y-124955300D01*
X152476501Y-125215437D01*
X152552381Y-125465578D01*
X152675602Y-125696108D01*
X152841430Y-125898170D01*
X153043492Y-126063998D01*
X153274022Y-126187219D01*
X153524163Y-126263099D01*
X153719116Y-126282300D01*
X153849484Y-126282300D01*
X154044437Y-126263099D01*
X154294578Y-126187219D01*
X154525108Y-126063998D01*
X154727170Y-125898170D01*
X154892998Y-125696108D01*
X154994993Y-125505289D01*
X154994993Y-125805300D01*
X155004203Y-125898808D01*
X155031478Y-125988723D01*
X155075771Y-126071589D01*
X155135379Y-126144221D01*
X155208011Y-126203829D01*
X155290877Y-126248122D01*
X155380792Y-126275397D01*
X155474300Y-126284607D01*
X157174300Y-126284607D01*
X157267808Y-126275397D01*
X157357723Y-126248122D01*
X157440589Y-126203829D01*
X157513221Y-126144221D01*
X157572829Y-126071589D01*
X157617122Y-125988723D01*
X157644397Y-125898808D01*
X157653607Y-125805300D01*
X157653607Y-124274600D01*
X158999844Y-124274600D01*
X159029400Y-124277511D01*
X159058956Y-124274600D01*
X159058966Y-124274600D01*
X159147412Y-124265889D01*
X159260890Y-124231466D01*
X159365471Y-124175566D01*
X159457137Y-124100337D01*
X159475989Y-124077366D01*
X161910054Y-121643301D01*
X161984658Y-121628462D01*
X162116964Y-121573659D01*
X162236036Y-121494098D01*
X162337298Y-121392836D01*
X162416859Y-121273764D01*
X162471662Y-121141458D01*
X162499600Y-121001003D01*
X162499600Y-120857797D01*
X162484256Y-120780657D01*
X165002161Y-123298562D01*
X165020226Y-123320574D01*
X165108085Y-123392679D01*
X165208324Y-123446257D01*
X165317088Y-123479250D01*
X165401864Y-123487600D01*
X165401870Y-123487600D01*
X165430199Y-123490390D01*
X165458528Y-123487600D01*
X168678945Y-123487600D01*
X168766502Y-123651408D01*
X168932330Y-123853470D01*
X169134392Y-124019298D01*
X169364922Y-124142519D01*
X169615063Y-124218399D01*
X169810016Y-124237600D01*
X169940384Y-124237600D01*
X170135337Y-124218399D01*
X170385478Y-124142519D01*
X170616008Y-124019298D01*
X170818070Y-123853470D01*
X170983898Y-123651408D01*
X171107119Y-123420878D01*
X171182999Y-123170737D01*
X171208620Y-122910600D01*
X171182999Y-122650463D01*
X171107119Y-122400322D01*
X170983898Y-122169792D01*
X170818070Y-121967730D01*
X170616008Y-121801902D01*
X170385478Y-121678681D01*
X170259943Y-121640600D01*
X170385478Y-121602519D01*
X170616008Y-121479298D01*
X170818070Y-121313470D01*
X170983898Y-121111408D01*
X171107119Y-120880878D01*
X171182999Y-120630737D01*
X171208620Y-120370600D01*
X171182999Y-120110463D01*
X171107119Y-119860322D01*
X170983898Y-119629792D01*
X170818070Y-119427730D01*
X170616008Y-119261902D01*
X170385478Y-119138681D01*
X170259943Y-119100600D01*
X170385478Y-119062519D01*
X170616008Y-118939298D01*
X170818070Y-118773470D01*
X170983898Y-118571408D01*
X171107119Y-118340878D01*
X171182999Y-118090737D01*
X171208620Y-117830600D01*
X171182999Y-117570463D01*
X171107119Y-117320322D01*
X170983898Y-117089792D01*
X170818070Y-116887730D01*
X170616008Y-116721902D01*
X170385478Y-116598681D01*
X170259943Y-116560600D01*
X170385478Y-116522519D01*
X170616008Y-116399298D01*
X170818070Y-116233470D01*
X170983898Y-116031408D01*
X171107119Y-115800878D01*
X171182999Y-115550737D01*
X171208620Y-115290600D01*
X171182999Y-115030463D01*
X171107119Y-114780322D01*
X170983898Y-114549792D01*
X170818070Y-114347730D01*
X170616008Y-114181902D01*
X170385478Y-114058681D01*
X170259943Y-114020600D01*
X170385478Y-113982519D01*
X170616008Y-113859298D01*
X170818070Y-113693470D01*
X170983898Y-113491408D01*
X171107119Y-113260878D01*
X171182999Y-113010737D01*
X171208620Y-112750600D01*
X171182999Y-112490463D01*
X171107119Y-112240322D01*
X170983898Y-112009792D01*
X170818070Y-111807730D01*
X170616008Y-111641902D01*
X170385478Y-111518681D01*
X170259943Y-111480600D01*
X170385478Y-111442519D01*
X170616008Y-111319298D01*
X170818070Y-111153470D01*
X170983898Y-110951408D01*
X171107119Y-110720878D01*
X171182999Y-110470737D01*
X171208620Y-110210600D01*
X171182999Y-109950463D01*
X171107119Y-109700322D01*
X170983898Y-109469792D01*
X170818070Y-109267730D01*
X170616008Y-109101902D01*
X170385478Y-108978681D01*
X170259943Y-108940600D01*
X170385478Y-108902519D01*
X170616008Y-108779298D01*
X170818070Y-108613470D01*
X170983898Y-108411408D01*
X171107119Y-108180878D01*
X171182999Y-107930737D01*
X171208620Y-107670600D01*
X171182999Y-107410463D01*
X171107119Y-107160322D01*
X170983898Y-106929792D01*
X170818070Y-106727730D01*
X170616008Y-106561902D01*
X170385478Y-106438681D01*
X170259943Y-106400600D01*
X170385478Y-106362519D01*
X170616008Y-106239298D01*
X170818070Y-106073470D01*
X170983898Y-105871408D01*
X171107119Y-105640878D01*
X171182999Y-105390737D01*
X171208620Y-105130600D01*
X171182999Y-104870463D01*
X171107119Y-104620322D01*
X170983898Y-104389792D01*
X170818070Y-104187730D01*
X170616008Y-104021902D01*
X170385478Y-103898681D01*
X170259943Y-103860600D01*
X170385478Y-103822519D01*
X170616008Y-103699298D01*
X170818070Y-103533470D01*
X170983898Y-103331408D01*
X171107119Y-103100878D01*
X171182999Y-102850737D01*
X171208620Y-102590600D01*
X171182999Y-102330463D01*
X171107119Y-102080322D01*
X170983898Y-101849792D01*
X170818070Y-101647730D01*
X170616008Y-101481902D01*
X170385478Y-101358681D01*
X170259943Y-101320600D01*
X170385478Y-101282519D01*
X170616008Y-101159298D01*
X170818070Y-100993470D01*
X170983898Y-100791408D01*
X171107119Y-100560878D01*
X171182999Y-100310737D01*
X171208620Y-100050600D01*
X171182999Y-99790463D01*
X171107119Y-99540322D01*
X170983898Y-99309792D01*
X170818070Y-99107730D01*
X170616008Y-98941902D01*
X170385478Y-98818681D01*
X170259943Y-98780600D01*
X170385478Y-98742519D01*
X170616008Y-98619298D01*
X170818070Y-98453470D01*
X170983898Y-98251408D01*
X171107119Y-98020878D01*
X171182999Y-97770737D01*
X171208620Y-97510600D01*
X171182999Y-97250463D01*
X171107119Y-97000322D01*
X170983898Y-96769792D01*
X170818070Y-96567730D01*
X170616008Y-96401902D01*
X170385478Y-96278681D01*
X170259943Y-96240600D01*
X170385478Y-96202519D01*
X170616008Y-96079298D01*
X170818070Y-95913470D01*
X170983898Y-95711408D01*
X171107119Y-95480878D01*
X171182999Y-95230737D01*
X171208620Y-94970600D01*
X171182999Y-94710463D01*
X171107119Y-94460322D01*
X170983898Y-94229792D01*
X170818070Y-94027730D01*
X170616008Y-93861902D01*
X170385478Y-93738681D01*
X170259943Y-93700600D01*
X170385478Y-93662519D01*
X170616008Y-93539298D01*
X170818070Y-93373470D01*
X170983898Y-93171408D01*
X171107119Y-92940878D01*
X171182999Y-92690737D01*
X171208620Y-92430600D01*
X171182999Y-92170463D01*
X171107119Y-91920322D01*
X170983898Y-91689792D01*
X170818070Y-91487730D01*
X170616008Y-91321902D01*
X170385478Y-91198681D01*
X170259943Y-91160600D01*
X170385478Y-91122519D01*
X170616008Y-90999298D01*
X170818070Y-90833470D01*
X170983898Y-90631408D01*
X171107119Y-90400878D01*
X171182999Y-90150737D01*
X171208620Y-89890600D01*
X171182999Y-89630463D01*
X171107119Y-89380322D01*
X170983898Y-89149792D01*
X170818070Y-88947730D01*
X170616008Y-88781902D01*
X170385478Y-88658681D01*
X170259943Y-88620600D01*
X170385478Y-88582519D01*
X170616008Y-88459298D01*
X170818070Y-88293470D01*
X170983898Y-88091408D01*
X171107119Y-87860878D01*
X171182999Y-87610737D01*
X171208620Y-87350600D01*
X171182999Y-87090463D01*
X171107119Y-86840322D01*
X170983898Y-86609792D01*
X170818070Y-86407730D01*
X170616008Y-86241902D01*
X170385478Y-86118681D01*
X170259943Y-86080600D01*
X170385478Y-86042519D01*
X170616008Y-85919298D01*
X170818070Y-85753470D01*
X170983898Y-85551408D01*
X171107119Y-85320878D01*
X171182999Y-85070737D01*
X171208620Y-84810600D01*
X171182999Y-84550463D01*
X171107119Y-84300322D01*
X170983898Y-84069792D01*
X170818070Y-83867730D01*
X170616008Y-83701902D01*
X170425189Y-83599907D01*
X170725200Y-83599907D01*
X170818708Y-83590697D01*
X170908623Y-83563422D01*
X170991489Y-83519129D01*
X171064121Y-83459521D01*
X171123729Y-83386889D01*
X171168022Y-83304023D01*
X171195297Y-83214108D01*
X171204507Y-83120600D01*
X171204507Y-81420600D01*
X171195297Y-81327092D01*
X171168022Y-81237177D01*
X171123729Y-81154311D01*
X171064121Y-81081679D01*
X170991489Y-81022071D01*
X170908623Y-80977778D01*
X170818708Y-80950503D01*
X170725200Y-80941293D01*
X169025200Y-80941293D01*
X168931692Y-80950503D01*
X168841777Y-80977778D01*
X168758911Y-81022071D01*
X168686279Y-81081679D01*
X168626671Y-81154311D01*
X168582378Y-81237177D01*
X168555103Y-81327092D01*
X168545893Y-81420600D01*
X168545893Y-83120600D01*
X168555103Y-83214108D01*
X168582378Y-83304023D01*
X168626671Y-83386889D01*
X168686279Y-83459521D01*
X168758911Y-83519129D01*
X168841777Y-83563422D01*
X168931692Y-83590697D01*
X169025200Y-83599907D01*
X169325211Y-83599907D01*
X169134392Y-83701902D01*
X168932330Y-83867730D01*
X168766502Y-84069792D01*
X168643281Y-84300322D01*
X168567401Y-84550463D01*
X168541780Y-84810600D01*
X168567401Y-85070737D01*
X168643281Y-85320878D01*
X168766502Y-85551408D01*
X168932330Y-85753470D01*
X169134392Y-85919298D01*
X169364922Y-86042519D01*
X169490457Y-86080600D01*
X169364922Y-86118681D01*
X169134392Y-86241902D01*
X168932330Y-86407730D01*
X168766502Y-86609792D01*
X168643281Y-86840322D01*
X168567401Y-87090463D01*
X168541780Y-87350600D01*
X168567401Y-87610737D01*
X168643281Y-87860878D01*
X168766502Y-88091408D01*
X168932330Y-88293470D01*
X169134392Y-88459298D01*
X169364922Y-88582519D01*
X169490457Y-88620600D01*
X169364922Y-88658681D01*
X169134392Y-88781902D01*
X168932330Y-88947730D01*
X168766502Y-89149792D01*
X168643281Y-89380322D01*
X168567401Y-89630463D01*
X168541780Y-89890600D01*
X168567401Y-90150737D01*
X168643281Y-90400878D01*
X168766502Y-90631408D01*
X168932330Y-90833470D01*
X169134392Y-90999298D01*
X169364922Y-91122519D01*
X169490457Y-91160600D01*
X169364922Y-91198681D01*
X169134392Y-91321902D01*
X168932330Y-91487730D01*
X168766502Y-91689792D01*
X168643281Y-91920322D01*
X168567401Y-92170463D01*
X168541780Y-92430600D01*
X168567401Y-92690737D01*
X168643281Y-92940878D01*
X168766502Y-93171408D01*
X168932330Y-93373470D01*
X169134392Y-93539298D01*
X169364922Y-93662519D01*
X169490457Y-93700600D01*
X169364922Y-93738681D01*
X169134392Y-93861902D01*
X168932330Y-94027730D01*
X168766502Y-94229792D01*
X168643281Y-94460322D01*
X168567401Y-94710463D01*
X168541780Y-94970600D01*
X168567401Y-95230737D01*
X168643281Y-95480878D01*
X168766502Y-95711408D01*
X168932330Y-95913470D01*
X169134392Y-96079298D01*
X169364922Y-96202519D01*
X169490457Y-96240600D01*
X169364922Y-96278681D01*
X169134392Y-96401902D01*
X168932330Y-96567730D01*
X168766502Y-96769792D01*
X168643281Y-97000322D01*
X168567401Y-97250463D01*
X168541780Y-97510600D01*
X168567401Y-97770737D01*
X168643281Y-98020878D01*
X168766502Y-98251408D01*
X168932330Y-98453470D01*
X169134392Y-98619298D01*
X169364922Y-98742519D01*
X169490457Y-98780600D01*
X169364922Y-98818681D01*
X169134392Y-98941902D01*
X168932330Y-99107730D01*
X168766502Y-99309792D01*
X168643281Y-99540322D01*
X168567401Y-99790463D01*
X168541780Y-100050600D01*
X168567401Y-100310737D01*
X168620792Y-100486744D01*
X166793763Y-102313774D01*
X166771690Y-102331889D01*
X166753575Y-102353962D01*
X166753573Y-102353964D01*
X166699385Y-102419992D01*
X166645657Y-102520509D01*
X166612573Y-102629575D01*
X166601402Y-102743000D01*
X166604201Y-102771420D01*
X166604200Y-110453770D01*
X166538541Y-110552036D01*
X166483738Y-110684342D01*
X166455800Y-110824797D01*
X166455800Y-110968003D01*
X166483738Y-111108458D01*
X166538541Y-111240764D01*
X166553620Y-111263331D01*
X166465364Y-111322302D01*
X166364102Y-111423564D01*
X166284541Y-111542636D01*
X166229738Y-111674942D01*
X166201800Y-111815397D01*
X166201800Y-111958603D01*
X166229738Y-112099058D01*
X166284541Y-112231364D01*
X166364102Y-112350436D01*
X166465364Y-112451698D01*
X166584436Y-112531259D01*
X166716742Y-112586062D01*
X166857197Y-112614000D01*
X167000403Y-112614000D01*
X167098099Y-112594567D01*
X167075302Y-112617364D01*
X166995741Y-112736436D01*
X166940938Y-112868742D01*
X166913000Y-113009197D01*
X166913000Y-113152403D01*
X166940938Y-113292858D01*
X166985895Y-113401394D01*
X166302739Y-112718238D01*
X166284674Y-112696226D01*
X166196815Y-112624121D01*
X166096576Y-112570543D01*
X166024477Y-112548672D01*
X165987811Y-112537549D01*
X165932745Y-112532126D01*
X165903036Y-112529200D01*
X165903031Y-112529200D01*
X165874700Y-112526410D01*
X165846369Y-112529200D01*
X162928825Y-112529200D01*
X162828164Y-112461941D01*
X162695858Y-112407138D01*
X162555403Y-112379200D01*
X162412197Y-112379200D01*
X162271742Y-112407138D01*
X162139436Y-112461941D01*
X162020364Y-112541502D01*
X161919102Y-112642764D01*
X161839541Y-112761836D01*
X161784738Y-112894142D01*
X161756800Y-113034597D01*
X161756800Y-113177803D01*
X161784738Y-113318258D01*
X161839541Y-113450564D01*
X161919102Y-113569636D01*
X162020364Y-113670898D01*
X162139436Y-113750459D01*
X162271742Y-113805262D01*
X162412197Y-113833200D01*
X162555403Y-113833200D01*
X162695858Y-113805262D01*
X162828164Y-113750459D01*
X162928825Y-113683200D01*
X165635699Y-113683200D01*
X167631065Y-115678567D01*
X167649126Y-115700574D01*
X167671133Y-115718635D01*
X167671135Y-115718637D01*
X167671943Y-115719300D01*
X167736985Y-115772679D01*
X167837224Y-115826257D01*
X167945988Y-115859250D01*
X168030764Y-115867600D01*
X168030770Y-115867600D01*
X168059099Y-115870390D01*
X168087428Y-115867600D01*
X168678945Y-115867600D01*
X168766502Y-116031408D01*
X168932330Y-116233470D01*
X169134392Y-116399298D01*
X169364922Y-116522519D01*
X169490457Y-116560600D01*
X169364922Y-116598681D01*
X169134392Y-116721902D01*
X168932330Y-116887730D01*
X168766502Y-117089792D01*
X168678945Y-117253600D01*
X162710101Y-117253600D01*
X162304780Y-116848279D01*
X162281162Y-116729542D01*
X162226359Y-116597236D01*
X162146798Y-116478164D01*
X162045536Y-116376902D01*
X161926464Y-116297341D01*
X161794158Y-116242538D01*
X161653703Y-116214600D01*
X161510497Y-116214600D01*
X161370042Y-116242538D01*
X161237736Y-116297341D01*
X161118664Y-116376902D01*
X161017402Y-116478164D01*
X160939900Y-116594154D01*
X160939900Y-114325925D01*
X161007159Y-114225264D01*
X161061962Y-114092958D01*
X161089900Y-113952503D01*
X161089900Y-113809297D01*
X161061962Y-113668842D01*
X161007159Y-113536536D01*
X160927598Y-113417464D01*
X160826336Y-113316202D01*
X160707264Y-113236641D01*
X160574958Y-113181838D01*
X160434503Y-113153900D01*
X160291297Y-113153900D01*
X160150842Y-113181838D01*
X160018536Y-113236641D01*
X159899464Y-113316202D01*
X159798202Y-113417464D01*
X159718641Y-113536536D01*
X159663838Y-113668842D01*
X159635900Y-113809297D01*
X159635900Y-113952503D01*
X159663838Y-114092958D01*
X159718641Y-114225264D01*
X159785900Y-114325925D01*
X159785901Y-117299699D01*
X157718955Y-119366645D01*
X157595941Y-119108380D01*
X157421888Y-118875031D01*
X157205655Y-118680122D01*
X156955552Y-118531143D01*
X156681191Y-118433819D01*
X156451300Y-118554486D01*
X156451300Y-119748300D01*
X156471300Y-119748300D01*
X156471300Y-120002300D01*
X156451300Y-120002300D01*
X156451300Y-120022300D01*
X156197300Y-120022300D01*
X156197300Y-120002300D01*
X153911300Y-120002300D01*
X153911300Y-120022300D01*
X153657300Y-120022300D01*
X153657300Y-120002300D01*
X152464145Y-120002300D01*
X152342824Y-120232190D01*
X152387475Y-120379399D01*
X152512659Y-120642220D01*
X152547029Y-120688299D01*
X148325643Y-120688299D01*
X148374662Y-120569958D01*
X148402600Y-120429503D01*
X148402600Y-120286297D01*
X148374662Y-120145842D01*
X148319859Y-120013536D01*
X148240298Y-119894464D01*
X148139036Y-119793202D01*
X148019964Y-119713641D01*
X147887658Y-119658838D01*
X147747203Y-119630900D01*
X147603997Y-119630900D01*
X147463542Y-119658838D01*
X147331236Y-119713641D01*
X147230575Y-119780900D01*
X144285225Y-119780900D01*
X144184564Y-119713641D01*
X144052258Y-119658838D01*
X143911803Y-119630900D01*
X143768597Y-119630900D01*
X143628142Y-119658838D01*
X143495836Y-119713641D01*
X143376764Y-119793202D01*
X143275502Y-119894464D01*
X143195941Y-120013536D01*
X143141138Y-120145842D01*
X143113200Y-120286297D01*
X143113200Y-120429503D01*
X143141138Y-120569958D01*
X143190157Y-120688299D01*
X142008632Y-120688299D01*
X141980301Y-120685509D01*
X141951970Y-120688299D01*
X141951965Y-120688299D01*
X141925187Y-120690936D01*
X141867189Y-120696648D01*
X141803083Y-120716095D01*
X141758425Y-120729642D01*
X141658186Y-120783220D01*
X141599671Y-120831243D01*
X141668199Y-120605337D01*
X141693820Y-120345200D01*
X141668199Y-120085063D01*
X141592319Y-119834922D01*
X141469098Y-119604392D01*
X141398535Y-119518410D01*
X152342824Y-119518410D01*
X152464145Y-119748300D01*
X153657300Y-119748300D01*
X153657300Y-118554486D01*
X153911300Y-118554486D01*
X153911300Y-119748300D01*
X156197300Y-119748300D01*
X156197300Y-118554486D01*
X155967409Y-118433819D01*
X155693048Y-118531143D01*
X155442945Y-118680122D01*
X155226712Y-118875031D01*
X155054300Y-119106180D01*
X154881888Y-118875031D01*
X154665655Y-118680122D01*
X154415552Y-118531143D01*
X154141191Y-118433819D01*
X153911300Y-118554486D01*
X153657300Y-118554486D01*
X153427409Y-118433819D01*
X153153048Y-118531143D01*
X152902945Y-118680122D01*
X152686712Y-118875031D01*
X152512659Y-119108380D01*
X152387475Y-119371201D01*
X152342824Y-119518410D01*
X141398535Y-119518410D01*
X141303270Y-119402330D01*
X141101208Y-119236502D01*
X140870678Y-119113281D01*
X140745143Y-119075200D01*
X140870678Y-119037119D01*
X141101208Y-118913898D01*
X141303270Y-118748070D01*
X141469098Y-118546008D01*
X141592319Y-118315478D01*
X141668199Y-118065337D01*
X141669601Y-118051097D01*
X143075100Y-118051097D01*
X143075100Y-118194303D01*
X143103038Y-118334758D01*
X143157841Y-118467064D01*
X143237402Y-118586136D01*
X143338664Y-118687398D01*
X143457736Y-118766959D01*
X143590042Y-118821762D01*
X143730497Y-118849700D01*
X143873703Y-118849700D01*
X144014158Y-118821762D01*
X144146464Y-118766959D01*
X144209111Y-118725100D01*
X145858975Y-118725100D01*
X145959636Y-118792359D01*
X146091942Y-118847162D01*
X146232397Y-118875100D01*
X146375603Y-118875100D01*
X146516058Y-118847162D01*
X146648364Y-118792359D01*
X146767436Y-118712798D01*
X146868698Y-118611536D01*
X146948259Y-118492464D01*
X147003062Y-118360158D01*
X147031000Y-118219703D01*
X147031000Y-118076497D01*
X147008444Y-117963100D01*
X147090875Y-117963100D01*
X147191536Y-118030359D01*
X147323842Y-118085162D01*
X147464297Y-118113100D01*
X147607503Y-118113100D01*
X147747958Y-118085162D01*
X147880264Y-118030359D01*
X147999336Y-117950798D01*
X148100598Y-117849536D01*
X148180159Y-117730464D01*
X148234962Y-117598158D01*
X148262900Y-117457703D01*
X148262900Y-117314497D01*
X148234962Y-117174042D01*
X148180159Y-117041736D01*
X148167841Y-117023300D01*
X149002096Y-117023300D01*
X149045736Y-117052459D01*
X149178042Y-117107262D01*
X149318497Y-117135200D01*
X149461703Y-117135200D01*
X149602158Y-117107262D01*
X149734464Y-117052459D01*
X149853536Y-116972898D01*
X149954798Y-116871636D01*
X150034359Y-116752564D01*
X150089162Y-116620258D01*
X150117100Y-116479803D01*
X150117100Y-116336597D01*
X150089162Y-116196142D01*
X150034359Y-116063836D01*
X149954798Y-115944764D01*
X149853536Y-115843502D01*
X149734464Y-115763941D01*
X149602158Y-115709138D01*
X149461703Y-115681200D01*
X149318497Y-115681200D01*
X149178042Y-115709138D01*
X149045736Y-115763941D01*
X148926664Y-115843502D01*
X148900866Y-115869300D01*
X148761044Y-115869300D01*
X148783600Y-115755903D01*
X148783600Y-115612697D01*
X148755662Y-115472242D01*
X148700859Y-115339936D01*
X148621298Y-115220864D01*
X148520036Y-115119602D01*
X148400964Y-115040041D01*
X148268658Y-114985238D01*
X148128203Y-114957300D01*
X147984997Y-114957300D01*
X147844542Y-114985238D01*
X147712236Y-115040041D01*
X147611575Y-115107300D01*
X145996901Y-115107300D01*
X145159780Y-114270179D01*
X145136162Y-114151442D01*
X145081359Y-114019136D01*
X145001798Y-113900064D01*
X144900536Y-113798802D01*
X144781464Y-113719241D01*
X144649158Y-113664438D01*
X144508703Y-113636500D01*
X144365497Y-113636500D01*
X144225042Y-113664438D01*
X144092736Y-113719241D01*
X143973664Y-113798802D01*
X143872402Y-113900064D01*
X143792841Y-114019136D01*
X143738038Y-114151442D01*
X143710100Y-114291897D01*
X143710100Y-114435103D01*
X143738038Y-114575558D01*
X143792841Y-114707864D01*
X143872402Y-114826936D01*
X143973664Y-114928198D01*
X144092736Y-115007759D01*
X144225042Y-115062562D01*
X144343779Y-115086180D01*
X145126899Y-115869300D01*
X144958325Y-115869300D01*
X144857664Y-115802041D01*
X144725358Y-115747238D01*
X144584903Y-115719300D01*
X144441697Y-115719300D01*
X144301242Y-115747238D01*
X144168936Y-115802041D01*
X144049864Y-115881602D01*
X143948602Y-115982864D01*
X143869041Y-116101936D01*
X143814238Y-116234242D01*
X143786300Y-116374697D01*
X143786300Y-116517903D01*
X143814238Y-116658358D01*
X143869041Y-116790664D01*
X143913085Y-116856581D01*
X143859702Y-116909964D01*
X143780141Y-117029036D01*
X143725338Y-117161342D01*
X143697400Y-117301797D01*
X143697400Y-117402283D01*
X143590042Y-117423638D01*
X143457736Y-117478441D01*
X143338664Y-117558002D01*
X143237402Y-117659264D01*
X143157841Y-117778336D01*
X143103038Y-117910642D01*
X143075100Y-118051097D01*
X141669601Y-118051097D01*
X141693820Y-117805200D01*
X141668199Y-117545063D01*
X141592319Y-117294922D01*
X141469098Y-117064392D01*
X141303270Y-116862330D01*
X141101208Y-116696502D01*
X140870678Y-116573281D01*
X140745143Y-116535200D01*
X140870678Y-116497119D01*
X141101208Y-116373898D01*
X141303270Y-116208070D01*
X141469098Y-116006008D01*
X141592319Y-115775478D01*
X141668199Y-115525337D01*
X141693820Y-115265200D01*
X141668199Y-115005063D01*
X141592319Y-114754922D01*
X141469098Y-114524392D01*
X141303270Y-114322330D01*
X141101208Y-114156502D01*
X140870678Y-114033281D01*
X140745143Y-113995200D01*
X140870678Y-113957119D01*
X141101208Y-113833898D01*
X141303270Y-113668070D01*
X141469098Y-113466008D01*
X141592319Y-113235478D01*
X141668199Y-112985337D01*
X141693820Y-112725200D01*
X141668199Y-112465063D01*
X141592319Y-112214922D01*
X141469098Y-111984392D01*
X141303270Y-111782330D01*
X141101208Y-111616502D01*
X140870678Y-111493281D01*
X140745143Y-111455200D01*
X140870678Y-111417119D01*
X141101208Y-111293898D01*
X141303270Y-111128070D01*
X141469098Y-110926008D01*
X141592319Y-110695478D01*
X141668199Y-110445337D01*
X141693820Y-110185200D01*
X141668199Y-109925063D01*
X141592319Y-109674922D01*
X141469098Y-109444392D01*
X141303270Y-109242330D01*
X141101208Y-109076502D01*
X140870678Y-108953281D01*
X140745143Y-108915200D01*
X140870678Y-108877119D01*
X141101208Y-108753898D01*
X141303270Y-108588070D01*
X141469098Y-108386008D01*
X141592319Y-108155478D01*
X141668199Y-107905337D01*
X141693820Y-107645200D01*
X141668199Y-107385063D01*
X141592319Y-107134922D01*
X141469098Y-106904392D01*
X141303270Y-106702330D01*
X141101208Y-106536502D01*
X140870678Y-106413281D01*
X140745143Y-106375200D01*
X140870678Y-106337119D01*
X141101208Y-106213898D01*
X141303270Y-106048070D01*
X141469098Y-105846008D01*
X141592319Y-105615478D01*
X141606353Y-105569216D01*
X146627237Y-110590101D01*
X146166002Y-110590101D01*
X145121680Y-109545779D01*
X145098062Y-109427042D01*
X145043259Y-109294736D01*
X144963698Y-109175664D01*
X144862436Y-109074402D01*
X144743364Y-108994841D01*
X144611058Y-108940038D01*
X144470603Y-108912100D01*
X144327397Y-108912100D01*
X144186942Y-108940038D01*
X144054636Y-108994841D01*
X143935564Y-109074402D01*
X143834302Y-109175664D01*
X143754741Y-109294736D01*
X143699938Y-109427042D01*
X143672000Y-109567497D01*
X143672000Y-109710703D01*
X143699938Y-109851158D01*
X143754741Y-109983464D01*
X143834302Y-110102536D01*
X143935564Y-110203798D01*
X144054636Y-110283359D01*
X144067485Y-110288681D01*
X144037502Y-110318664D01*
X143957941Y-110437736D01*
X143903138Y-110570042D01*
X143875200Y-110710497D01*
X143875200Y-110853703D01*
X143903138Y-110994158D01*
X143937012Y-111075936D01*
X143902236Y-111090341D01*
X143783164Y-111169902D01*
X143681902Y-111271164D01*
X143602341Y-111390236D01*
X143547538Y-111522542D01*
X143519600Y-111662997D01*
X143519600Y-111806203D01*
X143547538Y-111946658D01*
X143602341Y-112078964D01*
X143681902Y-112198036D01*
X143783164Y-112299298D01*
X143902236Y-112378859D01*
X144034542Y-112433662D01*
X144153279Y-112457280D01*
X145075861Y-113379862D01*
X145093926Y-113401874D01*
X145181785Y-113473979D01*
X145282024Y-113527557D01*
X145326682Y-113541104D01*
X145390788Y-113560551D01*
X145448786Y-113566263D01*
X145475564Y-113568900D01*
X145475569Y-113568900D01*
X145503900Y-113571690D01*
X145532231Y-113568900D01*
X147167075Y-113568900D01*
X147267736Y-113636159D01*
X147400042Y-113690962D01*
X147540497Y-113718900D01*
X147683703Y-113718900D01*
X147824158Y-113690962D01*
X147956464Y-113636159D01*
X148075536Y-113556598D01*
X148176798Y-113455336D01*
X148256359Y-113336264D01*
X148311162Y-113203958D01*
X148339100Y-113063503D01*
X148339100Y-113018899D01*
X148562663Y-113018899D01*
X148576738Y-113089658D01*
X148631541Y-113221964D01*
X148711102Y-113341036D01*
X148812364Y-113442298D01*
X148931436Y-113521859D01*
X149063742Y-113576662D01*
X149204197Y-113604600D01*
X149347403Y-113604600D01*
X149487858Y-113576662D01*
X149620164Y-113521859D01*
X149739236Y-113442298D01*
X149840498Y-113341036D01*
X149920059Y-113221964D01*
X149974862Y-113089658D01*
X150002724Y-112949587D01*
X150561074Y-113507938D01*
X150579189Y-113530011D01*
X150601262Y-113548126D01*
X150601264Y-113548128D01*
X150620866Y-113564215D01*
X150667292Y-113602316D01*
X150767808Y-113656043D01*
X150876875Y-113689128D01*
X150961880Y-113697500D01*
X150961890Y-113697500D01*
X150990300Y-113700298D01*
X151018710Y-113697500D01*
X151774322Y-113697500D01*
X151790568Y-113695900D01*
X152805875Y-113695900D01*
X152906536Y-113763159D01*
X153038842Y-113817962D01*
X153179297Y-113845900D01*
X153322503Y-113845900D01*
X153462958Y-113817962D01*
X153595264Y-113763159D01*
X153714336Y-113683598D01*
X153815598Y-113582336D01*
X153895159Y-113463264D01*
X153949962Y-113330958D01*
X153977900Y-113190503D01*
X153977900Y-113047297D01*
X153949962Y-112906842D01*
X153895159Y-112774536D01*
X153815598Y-112655464D01*
X153714336Y-112554202D01*
X153595264Y-112474641D01*
X153462958Y-112419838D01*
X153322503Y-112391900D01*
X153304800Y-112391900D01*
X153304800Y-112374197D01*
X153276862Y-112233742D01*
X153231820Y-112125001D01*
X154031468Y-112125001D01*
X154059799Y-112127791D01*
X154088130Y-112125001D01*
X154088135Y-112125001D01*
X154117844Y-112122075D01*
X154172910Y-112116652D01*
X154223068Y-112101436D01*
X154281675Y-112083658D01*
X154381914Y-112030080D01*
X154469773Y-111957975D01*
X154487353Y-111936554D01*
X154605958Y-111912962D01*
X154738264Y-111858159D01*
X154857336Y-111778598D01*
X154958598Y-111677336D01*
X155038159Y-111558264D01*
X155092962Y-111425958D01*
X155120900Y-111285503D01*
X155120900Y-111142297D01*
X155099811Y-111036275D01*
X155882374Y-111818838D01*
X155900489Y-111840911D01*
X155922562Y-111859026D01*
X155922564Y-111859028D01*
X155988591Y-111913216D01*
X156089108Y-111966943D01*
X156198174Y-112000028D01*
X156311600Y-112011199D01*
X156340020Y-112008400D01*
X156630970Y-112008400D01*
X156695512Y-112051525D01*
X156676800Y-112145597D01*
X156676800Y-112288803D01*
X156704738Y-112429258D01*
X156759541Y-112561564D01*
X156839102Y-112680636D01*
X156940364Y-112781898D01*
X157059436Y-112861459D01*
X157191742Y-112916262D01*
X157332197Y-112944200D01*
X157475403Y-112944200D01*
X157615858Y-112916262D01*
X157748164Y-112861459D01*
X157867236Y-112781898D01*
X157968498Y-112680636D01*
X158048059Y-112561564D01*
X158102862Y-112429258D01*
X158117702Y-112354653D01*
X160500972Y-109971384D01*
X160523937Y-109952537D01*
X160559222Y-109909543D01*
X160599166Y-109860872D01*
X160655066Y-109756290D01*
X160689489Y-109642813D01*
X160694049Y-109596512D01*
X160698200Y-109554366D01*
X160698200Y-109554359D01*
X160701111Y-109524800D01*
X160698200Y-109495241D01*
X160698200Y-108512959D01*
X160701111Y-108483400D01*
X160698200Y-108453841D01*
X160698200Y-108453834D01*
X160689489Y-108365388D01*
X160655066Y-108251910D01*
X160643034Y-108229400D01*
X160599166Y-108147328D01*
X160542784Y-108078628D01*
X160523937Y-108055663D01*
X160500973Y-108036817D01*
X159640987Y-107176832D01*
X159622135Y-107153861D01*
X159530469Y-107078632D01*
X159425888Y-107022732D01*
X159312410Y-106988309D01*
X159223964Y-106979598D01*
X159223954Y-106979598D01*
X159194398Y-106976687D01*
X159164842Y-106979598D01*
X157620064Y-106979598D01*
X156694199Y-106053734D01*
X156694199Y-104871568D01*
X156696997Y-104843158D01*
X156694199Y-104814748D01*
X156694199Y-104814739D01*
X156685827Y-104729734D01*
X156652742Y-104620667D01*
X156599015Y-104520151D01*
X156526710Y-104432048D01*
X156504637Y-104413933D01*
X154327832Y-102237129D01*
X154327828Y-102237124D01*
X154178758Y-102088055D01*
X154155702Y-101972142D01*
X154100899Y-101839836D01*
X154021338Y-101720764D01*
X153920076Y-101619502D01*
X153801004Y-101539941D01*
X153668698Y-101485138D01*
X153528243Y-101457200D01*
X153385037Y-101457200D01*
X153244582Y-101485138D01*
X153112276Y-101539941D01*
X152993204Y-101619502D01*
X152891942Y-101720764D01*
X152812381Y-101839836D01*
X152768870Y-101944880D01*
X152673837Y-101944880D01*
X152533382Y-101972818D01*
X152401076Y-102027621D01*
X152282004Y-102107182D01*
X152232212Y-102156974D01*
X152206059Y-102093836D01*
X152126498Y-101974764D01*
X152025236Y-101873502D01*
X151906164Y-101793941D01*
X151773858Y-101739138D01*
X151633403Y-101711200D01*
X151490197Y-101711200D01*
X151349742Y-101739138D01*
X151217436Y-101793941D01*
X151098364Y-101873502D01*
X150997102Y-101974764D01*
X150917541Y-102093836D01*
X150862738Y-102226142D01*
X150834800Y-102366597D01*
X150834800Y-102509803D01*
X150846671Y-102569485D01*
X150805698Y-102508164D01*
X150704436Y-102406902D01*
X150585364Y-102327341D01*
X150453058Y-102272538D01*
X150312603Y-102244600D01*
X150169397Y-102244600D01*
X150028942Y-102272538D01*
X149896636Y-102327341D01*
X149777564Y-102406902D01*
X149676302Y-102508164D01*
X149596741Y-102627236D01*
X149541938Y-102759542D01*
X149514000Y-102899997D01*
X149514000Y-103043203D01*
X149541938Y-103183658D01*
X149596741Y-103315964D01*
X149641829Y-103383443D01*
X149647711Y-103443165D01*
X149662400Y-103491588D01*
X149662400Y-103933790D01*
X149659602Y-103962200D01*
X149662400Y-103990610D01*
X149662400Y-103990620D01*
X149670772Y-104075625D01*
X149703857Y-104184692D01*
X149736010Y-104244845D01*
X149757585Y-104285208D01*
X149807031Y-104345457D01*
X149829890Y-104373311D01*
X149851963Y-104391426D01*
X152185882Y-106725346D01*
X152208938Y-106841258D01*
X152263741Y-106973564D01*
X152343302Y-107092636D01*
X152444564Y-107193898D01*
X152563636Y-107273459D01*
X152695942Y-107328262D01*
X152836397Y-107356200D01*
X152979603Y-107356200D01*
X153120058Y-107328262D01*
X153252364Y-107273459D01*
X153371436Y-107193898D01*
X153472698Y-107092636D01*
X153488602Y-107068834D01*
X153488601Y-109156991D01*
X153485803Y-109185401D01*
X153488601Y-109213811D01*
X153488601Y-109213820D01*
X153496973Y-109298825D01*
X153530058Y-109407892D01*
X153583785Y-109508408D01*
X153656090Y-109596512D01*
X153678169Y-109614632D01*
X154571526Y-110507989D01*
X154465503Y-110486900D01*
X154322297Y-110486900D01*
X154181842Y-110514838D01*
X154049536Y-110569641D01*
X153930464Y-110649202D01*
X153829202Y-110750464D01*
X153749641Y-110869536D01*
X153707613Y-110971001D01*
X152324200Y-110971001D01*
X151988637Y-110635438D01*
X151970572Y-110613426D01*
X151882713Y-110541321D01*
X151782474Y-110487743D01*
X151718368Y-110468297D01*
X151673709Y-110454749D01*
X151618643Y-110449326D01*
X151588934Y-110446400D01*
X151588929Y-110446400D01*
X151560598Y-110443610D01*
X151532267Y-110446400D01*
X149921202Y-110446400D01*
X149451448Y-109976646D01*
X149510636Y-109937098D01*
X149611898Y-109835836D01*
X149691459Y-109716764D01*
X149746262Y-109584458D01*
X149774200Y-109444003D01*
X149774200Y-109300797D01*
X149746262Y-109160342D01*
X149691459Y-109028036D01*
X149625800Y-108929770D01*
X149625800Y-108737263D01*
X150585682Y-109697146D01*
X150608738Y-109813058D01*
X150663541Y-109945364D01*
X150743102Y-110064436D01*
X150844364Y-110165698D01*
X150963436Y-110245259D01*
X151095742Y-110300062D01*
X151236197Y-110328000D01*
X151379403Y-110328000D01*
X151519858Y-110300062D01*
X151652164Y-110245259D01*
X151771236Y-110165698D01*
X151872498Y-110064436D01*
X151952059Y-109945364D01*
X152006862Y-109813058D01*
X152034800Y-109672603D01*
X152034800Y-109529397D01*
X152006862Y-109388942D01*
X151952059Y-109256636D01*
X151872498Y-109137564D01*
X151771236Y-109036302D01*
X151652164Y-108956741D01*
X151519858Y-108901938D01*
X151403946Y-108878882D01*
X150514800Y-107989737D01*
X150514800Y-105514609D01*
X150517598Y-105486199D01*
X150514800Y-105457789D01*
X150514800Y-105457780D01*
X150506428Y-105372775D01*
X150473343Y-105263708D01*
X150419616Y-105163192D01*
X150347311Y-105075089D01*
X150325239Y-105056975D01*
X146872099Y-101603836D01*
X146872099Y-101377507D01*
X154470100Y-101377507D01*
X154563608Y-101368297D01*
X154653523Y-101341022D01*
X154736389Y-101296729D01*
X154809021Y-101237121D01*
X154868629Y-101164489D01*
X154912922Y-101081623D01*
X154940197Y-100991708D01*
X154949407Y-100898200D01*
X154949407Y-100476800D01*
X155152457Y-100476800D01*
X158120601Y-103444945D01*
X158120600Y-105043570D01*
X158054941Y-105141836D01*
X158000138Y-105274142D01*
X157972200Y-105414597D01*
X157972200Y-105557803D01*
X158000138Y-105698258D01*
X158054941Y-105830564D01*
X158134502Y-105949636D01*
X158235764Y-106050898D01*
X158354836Y-106130459D01*
X158487142Y-106185262D01*
X158504655Y-106188745D01*
X158508138Y-106206258D01*
X158562941Y-106338564D01*
X158642502Y-106457636D01*
X158743764Y-106558898D01*
X158862836Y-106638459D01*
X158995142Y-106693262D01*
X159135597Y-106721200D01*
X159278803Y-106721200D01*
X159419258Y-106693262D01*
X159551564Y-106638459D01*
X159670636Y-106558898D01*
X159771898Y-106457636D01*
X159851459Y-106338564D01*
X159906262Y-106206258D01*
X159929880Y-106087521D01*
X160017277Y-106000124D01*
X160056461Y-106094724D01*
X160136022Y-106213796D01*
X160237284Y-106315058D01*
X160356356Y-106394619D01*
X160488662Y-106449422D01*
X160629117Y-106477360D01*
X160772323Y-106477360D01*
X160912778Y-106449422D01*
X161045084Y-106394619D01*
X161164156Y-106315058D01*
X161265418Y-106213796D01*
X161344979Y-106094724D01*
X161399782Y-105962418D01*
X161414622Y-105887814D01*
X162299298Y-105003139D01*
X162322257Y-104984297D01*
X162341100Y-104961337D01*
X162341104Y-104961333D01*
X162397485Y-104892632D01*
X162397486Y-104892631D01*
X162453386Y-104788050D01*
X162487809Y-104674572D01*
X162496520Y-104586126D01*
X162496520Y-104586117D01*
X162499431Y-104556561D01*
X162496520Y-104527004D01*
X162496520Y-102033009D01*
X162538779Y-101969764D01*
X162593582Y-101837458D01*
X162621520Y-101697003D01*
X162621520Y-101553797D01*
X162593582Y-101413342D01*
X162578739Y-101377507D01*
X166345100Y-101377507D01*
X166438608Y-101368297D01*
X166528523Y-101341022D01*
X166611389Y-101296729D01*
X166684021Y-101237121D01*
X166743629Y-101164489D01*
X166787922Y-101081623D01*
X166815197Y-100991708D01*
X166824407Y-100898200D01*
X166824407Y-98898200D01*
X166815197Y-98804692D01*
X166787922Y-98714777D01*
X166743629Y-98631911D01*
X166684021Y-98559279D01*
X166611389Y-98499671D01*
X166528523Y-98455378D01*
X166438608Y-98428103D01*
X166345100Y-98418893D01*
X163009600Y-98418893D01*
X163009600Y-97243736D01*
X163043337Y-97225703D01*
X163151959Y-97136559D01*
X163241103Y-97027937D01*
X163307343Y-96904010D01*
X163348134Y-96769542D01*
X163361907Y-96629700D01*
X163361907Y-96054700D01*
X163348134Y-95914858D01*
X163307343Y-95780390D01*
X163241103Y-95656463D01*
X163234903Y-95648908D01*
X163237094Y-95647737D01*
X163333785Y-95568385D01*
X163413137Y-95471694D01*
X163472102Y-95361380D01*
X163508412Y-95241682D01*
X163520672Y-95117200D01*
X163517600Y-94877950D01*
X163358850Y-94719200D01*
X162534600Y-94719200D01*
X162534600Y-94739200D01*
X162280600Y-94739200D01*
X162280600Y-94719200D01*
X161456350Y-94719200D01*
X161297600Y-94877950D01*
X161294528Y-95117200D01*
X161306788Y-95241682D01*
X161343098Y-95361380D01*
X161402063Y-95471694D01*
X161481415Y-95568385D01*
X161578106Y-95647737D01*
X161580297Y-95648908D01*
X161574097Y-95656463D01*
X161507857Y-95780390D01*
X161467066Y-95914858D01*
X161453293Y-96054700D01*
X161453293Y-96629700D01*
X161467066Y-96769542D01*
X161507857Y-96904010D01*
X161574097Y-97027937D01*
X161663241Y-97136559D01*
X161771863Y-97225703D01*
X161805600Y-97243736D01*
X161805600Y-98418893D01*
X158470100Y-98418893D01*
X158376592Y-98428103D01*
X158286677Y-98455378D01*
X158203811Y-98499671D01*
X158183600Y-98516258D01*
X158183600Y-97692556D01*
X158186511Y-97663000D01*
X158183600Y-97633443D01*
X158183600Y-97633434D01*
X158174889Y-97544988D01*
X158140466Y-97431510D01*
X158084566Y-97326929D01*
X158009337Y-97235263D01*
X157986372Y-97216416D01*
X154837156Y-94067200D01*
X161294528Y-94067200D01*
X161297600Y-94306450D01*
X161456350Y-94465200D01*
X162280600Y-94465200D01*
X162280600Y-93590950D01*
X162534600Y-93590950D01*
X162534600Y-94465200D01*
X163358850Y-94465200D01*
X163517600Y-94306450D01*
X163520672Y-94067200D01*
X163508412Y-93942718D01*
X163472102Y-93823020D01*
X163413137Y-93712706D01*
X163333785Y-93616015D01*
X163237094Y-93536663D01*
X163126780Y-93477698D01*
X163007082Y-93441388D01*
X162882600Y-93429128D01*
X162693350Y-93432200D01*
X162534600Y-93590950D01*
X162280600Y-93590950D01*
X162121850Y-93432200D01*
X161932600Y-93429128D01*
X161808118Y-93441388D01*
X161688420Y-93477698D01*
X161578106Y-93536663D01*
X161481415Y-93616015D01*
X161402063Y-93712706D01*
X161343098Y-93823020D01*
X161306788Y-93942718D01*
X161294528Y-94067200D01*
X154837156Y-94067200D01*
X152846589Y-92076634D01*
X152827737Y-92053663D01*
X152736071Y-91978434D01*
X152631490Y-91922534D01*
X152518012Y-91888111D01*
X152429566Y-91879400D01*
X152429556Y-91879400D01*
X152400000Y-91876489D01*
X152370444Y-91879400D01*
X150352427Y-91879400D01*
X150471064Y-91830259D01*
X150590136Y-91750698D01*
X150691398Y-91649436D01*
X150770959Y-91530364D01*
X150825762Y-91398058D01*
X150853700Y-91257603D01*
X150853700Y-91114397D01*
X150825762Y-90973942D01*
X150770959Y-90841636D01*
X150728700Y-90778391D01*
X150728700Y-90171209D01*
X150770959Y-90107964D01*
X150825762Y-89975658D01*
X150853700Y-89835203D01*
X150853700Y-89691997D01*
X150825762Y-89551542D01*
X150770959Y-89419236D01*
X150691398Y-89300164D01*
X150590136Y-89198902D01*
X150471064Y-89119341D01*
X150338758Y-89064538D01*
X150198303Y-89036600D01*
X150055097Y-89036600D01*
X149914642Y-89064538D01*
X149782336Y-89119341D01*
X149663264Y-89198902D01*
X149562002Y-89300164D01*
X149482441Y-89419236D01*
X149427638Y-89551542D01*
X149399700Y-89691997D01*
X149399700Y-89835203D01*
X149427638Y-89975658D01*
X149482441Y-90107964D01*
X149524700Y-90171210D01*
X149524701Y-90778390D01*
X149482441Y-90841636D01*
X149427638Y-90973942D01*
X149407374Y-91075818D01*
X148843945Y-90512389D01*
X148875298Y-90481036D01*
X148954859Y-90361964D01*
X149009662Y-90229658D01*
X149037600Y-90089203D01*
X149037600Y-89945997D01*
X149009662Y-89805542D01*
X148954859Y-89673236D01*
X148912600Y-89609991D01*
X148912600Y-88431309D01*
X148954859Y-88368064D01*
X149009662Y-88235758D01*
X149037600Y-88095303D01*
X149037600Y-87952097D01*
X149009662Y-87811642D01*
X148954859Y-87679336D01*
X148875298Y-87560264D01*
X148774036Y-87459002D01*
X148654964Y-87379441D01*
X148522658Y-87324638D01*
X148382203Y-87296700D01*
X148238997Y-87296700D01*
X148098542Y-87324638D01*
X147966236Y-87379441D01*
X147847164Y-87459002D01*
X147745902Y-87560264D01*
X147666341Y-87679336D01*
X147611538Y-87811642D01*
X147583600Y-87952097D01*
X147583600Y-88095303D01*
X147611538Y-88235758D01*
X147666341Y-88368064D01*
X147708600Y-88431310D01*
X147708601Y-89453244D01*
X146058601Y-87803246D01*
X146058601Y-86270957D01*
X146061512Y-86241401D01*
X146058601Y-86211844D01*
X146058601Y-86211835D01*
X146049890Y-86123389D01*
X146015467Y-86009911D01*
X145999681Y-85980378D01*
X145959567Y-85905329D01*
X145903185Y-85836629D01*
X145884338Y-85813664D01*
X145861373Y-85794817D01*
X141906989Y-81840434D01*
X141888137Y-81817463D01*
X141796471Y-81742234D01*
X141691890Y-81686334D01*
X141689707Y-81685672D01*
X141689707Y-81395200D01*
X141680497Y-81301692D01*
X141653222Y-81211777D01*
X141608929Y-81128911D01*
X141549321Y-81056279D01*
X141476689Y-80996671D01*
X141393823Y-80952378D01*
X141303908Y-80925103D01*
X141210400Y-80915893D01*
X139510400Y-80915893D01*
X139416892Y-80925103D01*
X139326977Y-80952378D01*
X139244111Y-80996671D01*
X139171479Y-81056279D01*
X139111871Y-81128911D01*
X139067578Y-81211777D01*
X139040303Y-81301692D01*
X139031093Y-81395200D01*
X139031093Y-83095200D01*
X139040303Y-83188708D01*
X139067578Y-83278623D01*
X139111871Y-83361489D01*
X139171479Y-83434121D01*
X139244111Y-83493729D01*
X139326977Y-83538022D01*
X139416892Y-83565297D01*
X139505845Y-83574058D01*
X139479045Y-83590022D01*
X139262812Y-83784931D01*
X139088759Y-84018280D01*
X138963575Y-84281101D01*
X138918924Y-84428310D01*
X139040244Y-84658198D01*
X138881200Y-84658198D01*
X138881200Y-80268734D01*
X143288738Y-75861197D01*
X143307884Y-75845484D01*
X143323600Y-75826335D01*
X143370616Y-75769046D01*
X143417230Y-75681837D01*
X143417231Y-75681836D01*
X143445936Y-75587209D01*
X143453200Y-75513453D01*
X143453200Y-75513444D01*
X143455627Y-75488801D01*
X143453200Y-75464158D01*
X143453200Y-70893599D01*
X147368200Y-70893599D01*
X147368200Y-71076201D01*
X147403824Y-71255296D01*
X147473704Y-71423999D01*
X147575152Y-71575828D01*
X147704272Y-71704948D01*
X147856101Y-71806396D01*
X148024804Y-71876276D01*
X148203899Y-71911900D01*
X148386501Y-71911900D01*
X148565596Y-71876276D01*
X148734299Y-71806396D01*
X148886128Y-71704948D01*
X149015248Y-71575828D01*
X149116696Y-71423999D01*
X149186576Y-71255296D01*
X149222200Y-71076201D01*
X149222200Y-70893599D01*
X151768200Y-70893599D01*
X151768200Y-71076201D01*
X151803824Y-71255296D01*
X151873704Y-71423999D01*
X151975152Y-71575828D01*
X152104272Y-71704948D01*
X152256101Y-71806396D01*
X152424804Y-71876276D01*
X152603899Y-71911900D01*
X152786501Y-71911900D01*
X152965596Y-71876276D01*
X153134299Y-71806396D01*
X153286128Y-71704948D01*
X153415248Y-71575828D01*
X153516696Y-71423999D01*
X153586576Y-71255296D01*
X153622200Y-71076201D01*
X153622200Y-70893599D01*
X153586576Y-70714504D01*
X153516696Y-70545801D01*
X153415248Y-70393972D01*
X153286128Y-70264852D01*
X153134299Y-70163404D01*
X152965596Y-70093524D01*
X152786501Y-70057900D01*
X152603899Y-70057900D01*
X152424804Y-70093524D01*
X152256101Y-70163404D01*
X152104272Y-70264852D01*
X151975152Y-70393972D01*
X151873704Y-70545801D01*
X151803824Y-70714504D01*
X151768200Y-70893599D01*
X149222200Y-70893599D01*
X149186576Y-70714504D01*
X149116696Y-70545801D01*
X149015248Y-70393972D01*
X148886128Y-70264852D01*
X148734299Y-70163404D01*
X148565596Y-70093524D01*
X148386501Y-70057900D01*
X148203899Y-70057900D01*
X148024804Y-70093524D01*
X147856101Y-70163404D01*
X147704272Y-70264852D01*
X147575152Y-70393972D01*
X147473704Y-70545801D01*
X147403824Y-70714504D01*
X147368200Y-70893599D01*
X143453200Y-70893599D01*
X143453200Y-68589400D01*
X158711628Y-68589400D01*
X158723888Y-68713882D01*
X158760198Y-68833580D01*
X158819163Y-68943894D01*
X158898515Y-69040585D01*
X158995206Y-69119937D01*
X159105520Y-69178902D01*
X159225218Y-69215212D01*
X159349700Y-69227472D01*
X159913950Y-69224400D01*
X160072700Y-69065650D01*
X160072700Y-67716400D01*
X158873450Y-67716400D01*
X158714700Y-67875150D01*
X158711628Y-68589400D01*
X143453200Y-68589400D01*
X143453200Y-67187734D01*
X144051534Y-66589400D01*
X158711628Y-66589400D01*
X158714700Y-67303650D01*
X158873450Y-67462400D01*
X160072700Y-67462400D01*
X160072700Y-66113150D01*
X160326700Y-66113150D01*
X160326700Y-67462400D01*
X160346700Y-67462400D01*
X160346700Y-67716400D01*
X160326700Y-67716400D01*
X160326700Y-69065650D01*
X160485450Y-69224400D01*
X161049700Y-69227472D01*
X161174182Y-69215212D01*
X161293880Y-69178902D01*
X161404194Y-69119937D01*
X161500885Y-69040585D01*
X161580237Y-68943894D01*
X161639202Y-68833580D01*
X161675512Y-68713882D01*
X161687005Y-68597187D01*
X161756831Y-68682270D01*
X161958893Y-68848098D01*
X162189423Y-68971319D01*
X162439564Y-69047199D01*
X162699700Y-69072820D01*
X162959837Y-69047199D01*
X163209978Y-68971319D01*
X163440508Y-68848098D01*
X163642570Y-68682270D01*
X163808398Y-68480207D01*
X163931619Y-68249677D01*
X164007499Y-67999536D01*
X164026700Y-67804583D01*
X164026700Y-67374216D01*
X164007499Y-67179263D01*
X163931619Y-66929122D01*
X163808398Y-66698592D01*
X163642570Y-66496530D01*
X163440507Y-66330702D01*
X163209977Y-66207481D01*
X162959836Y-66131601D01*
X162699700Y-66105980D01*
X162439563Y-66131601D01*
X162189422Y-66207481D01*
X161958892Y-66330702D01*
X161756830Y-66496530D01*
X161687005Y-66581612D01*
X161675512Y-66464918D01*
X161639202Y-66345220D01*
X161580237Y-66234906D01*
X161500885Y-66138215D01*
X161404194Y-66058863D01*
X161293880Y-65999898D01*
X161174182Y-65963588D01*
X161049700Y-65951328D01*
X160485450Y-65954400D01*
X160326700Y-66113150D01*
X160072700Y-66113150D01*
X159913950Y-65954400D01*
X159349700Y-65951328D01*
X159225218Y-65963588D01*
X159105520Y-65999898D01*
X158995206Y-66058863D01*
X158898515Y-66138215D01*
X158819163Y-66234906D01*
X158760198Y-66345220D01*
X158723888Y-66464918D01*
X158711628Y-66589400D01*
X144051534Y-66589400D01*
X145572135Y-65068800D01*
X164714266Y-65068800D01*
X166833200Y-67187735D01*
X166833200Y-67187735D01*
G37*
X166833200Y-67187735D02*
X166833201Y-75464147D01*
X166830773Y-75488800D01*
X166840465Y-75587209D01*
X166869170Y-75681836D01*
X166915784Y-75769045D01*
X166962801Y-75826335D01*
X166962802Y-75826336D01*
X166978517Y-75845484D01*
X166997663Y-75861197D01*
X171405201Y-80268736D01*
X171405200Y-124683865D01*
X169286266Y-126802800D01*
X141000135Y-126802800D01*
X139496826Y-125299491D01*
X142754319Y-125299491D01*
X142851643Y-125573852D01*
X143000622Y-125823955D01*
X143195531Y-126040188D01*
X143428880Y-126214241D01*
X143691701Y-126339425D01*
X143838910Y-126384076D01*
X144068800Y-126262755D01*
X144068800Y-125069600D01*
X142874986Y-125069600D01*
X142754319Y-125299491D01*
X139496826Y-125299491D01*
X138881200Y-124683866D01*
X138881200Y-124585709D01*
X142754319Y-124585709D01*
X142874986Y-124815600D01*
X144068800Y-124815600D01*
X144068800Y-123622445D01*
X144322800Y-123622445D01*
X144322800Y-124815600D01*
X144342800Y-124815600D01*
X144342800Y-125069600D01*
X144322800Y-125069600D01*
X144322800Y-126262755D01*
X144552690Y-126384076D01*
X144699899Y-126339425D01*
X144962720Y-126214241D01*
X145196069Y-126040188D01*
X145390978Y-125823955D01*
X145406942Y-125797155D01*
X145415703Y-125886108D01*
X145442978Y-125976023D01*
X145487271Y-126058889D01*
X145546879Y-126131521D01*
X145619511Y-126191129D01*
X145702377Y-126235422D01*
X145792292Y-126262697D01*
X145885800Y-126271907D01*
X147585800Y-126271907D01*
X147679308Y-126262697D01*
X147769223Y-126235422D01*
X147852089Y-126191129D01*
X147924721Y-126131521D01*
X147984329Y-126058889D01*
X148028622Y-125976023D01*
X148055897Y-125886108D01*
X148065107Y-125792600D01*
X148065107Y-124092600D01*
X148055897Y-123999092D01*
X148028622Y-123909177D01*
X147984329Y-123826311D01*
X147924721Y-123753679D01*
X147852089Y-123694071D01*
X147769223Y-123649778D01*
X147679308Y-123622503D01*
X147585800Y-123613293D01*
X145885800Y-123613293D01*
X145792292Y-123622503D01*
X145702377Y-123649778D01*
X145619511Y-123694071D01*
X145546879Y-123753679D01*
X145487271Y-123826311D01*
X145442978Y-123909177D01*
X145415703Y-123999092D01*
X145406942Y-124088045D01*
X145390978Y-124061245D01*
X145196069Y-123845012D01*
X144962720Y-123670959D01*
X144699899Y-123545775D01*
X144552690Y-123501124D01*
X144322800Y-123622445D01*
X144068800Y-123622445D01*
X143838910Y-123501124D01*
X143691701Y-123545775D01*
X143428880Y-123670959D01*
X143195531Y-123845012D01*
X143000622Y-124061245D01*
X142851643Y-124311348D01*
X142754319Y-124585709D01*
X138881200Y-124585709D01*
X138881200Y-84912202D01*
X139040244Y-84912202D01*
X138918924Y-85142090D01*
X138963575Y-85289299D01*
X139088759Y-85552120D01*
X139262812Y-85785469D01*
X139479045Y-85980378D01*
X139729148Y-86129357D01*
X139761295Y-86140760D01*
X139619592Y-86216502D01*
X139417530Y-86382330D01*
X139251702Y-86584392D01*
X139128481Y-86814922D01*
X139052601Y-87065063D01*
X139026980Y-87325200D01*
X139052601Y-87585337D01*
X139128481Y-87835478D01*
X139251702Y-88066008D01*
X139417530Y-88268070D01*
X139619592Y-88433898D01*
X139850122Y-88557119D01*
X139975657Y-88595200D01*
X139850122Y-88633281D01*
X139619592Y-88756502D01*
X139417530Y-88922330D01*
X139251702Y-89124392D01*
X139128481Y-89354922D01*
X139052601Y-89605063D01*
X139026980Y-89865200D01*
X139052601Y-90125337D01*
X139128481Y-90375478D01*
X139251702Y-90606008D01*
X139417530Y-90808070D01*
X139619592Y-90973898D01*
X139850122Y-91097119D01*
X139975657Y-91135200D01*
X139850122Y-91173281D01*
X139619592Y-91296502D01*
X139417530Y-91462330D01*
X139251702Y-91664392D01*
X139128481Y-91894922D01*
X139052601Y-92145063D01*
X139026980Y-92405200D01*
X139052601Y-92665337D01*
X139128481Y-92915478D01*
X139251702Y-93146008D01*
X139417530Y-93348070D01*
X139619592Y-93513898D01*
X139850122Y-93637119D01*
X139975657Y-93675200D01*
X139850122Y-93713281D01*
X139619592Y-93836502D01*
X139417530Y-94002330D01*
X139251702Y-94204392D01*
X139128481Y-94434922D01*
X139052601Y-94685063D01*
X139026980Y-94945200D01*
X139052601Y-95205337D01*
X139128481Y-95455478D01*
X139251702Y-95686008D01*
X139417530Y-95888070D01*
X139619592Y-96053898D01*
X139850122Y-96177119D01*
X139975657Y-96215200D01*
X139850122Y-96253281D01*
X139619592Y-96376502D01*
X139417530Y-96542330D01*
X139251702Y-96744392D01*
X139128481Y-96974922D01*
X139052601Y-97225063D01*
X139026980Y-97485200D01*
X139052601Y-97745337D01*
X139128481Y-97995478D01*
X139251702Y-98226008D01*
X139417530Y-98428070D01*
X139619592Y-98593898D01*
X139850122Y-98717119D01*
X139975657Y-98755200D01*
X139850122Y-98793281D01*
X139619592Y-98916502D01*
X139417530Y-99082330D01*
X139251702Y-99284392D01*
X139128481Y-99514922D01*
X139052601Y-99765063D01*
X139026980Y-100025200D01*
X139052601Y-100285337D01*
X139128481Y-100535478D01*
X139251702Y-100766008D01*
X139417530Y-100968070D01*
X139619592Y-101133898D01*
X139850122Y-101257119D01*
X139975657Y-101295200D01*
X139850122Y-101333281D01*
X139619592Y-101456502D01*
X139417530Y-101622330D01*
X139251702Y-101824392D01*
X139128481Y-102054922D01*
X139052601Y-102305063D01*
X139026980Y-102565200D01*
X139052601Y-102825337D01*
X139128481Y-103075478D01*
X139251702Y-103306008D01*
X139417530Y-103508070D01*
X139619592Y-103673898D01*
X139850122Y-103797119D01*
X139975657Y-103835200D01*
X139850122Y-103873281D01*
X139619592Y-103996502D01*
X139417530Y-104162330D01*
X139251702Y-104364392D01*
X139128481Y-104594922D01*
X139052601Y-104845063D01*
X139026980Y-105105200D01*
X139052601Y-105365337D01*
X139128481Y-105615478D01*
X139251702Y-105846008D01*
X139417530Y-106048070D01*
X139619592Y-106213898D01*
X139850122Y-106337119D01*
X139975657Y-106375200D01*
X139850122Y-106413281D01*
X139619592Y-106536502D01*
X139417530Y-106702330D01*
X139251702Y-106904392D01*
X139128481Y-107134922D01*
X139052601Y-107385063D01*
X139026980Y-107645200D01*
X139052601Y-107905337D01*
X139128481Y-108155478D01*
X139251702Y-108386008D01*
X139417530Y-108588070D01*
X139619592Y-108753898D01*
X139850122Y-108877119D01*
X139975657Y-108915200D01*
X139850122Y-108953281D01*
X139619592Y-109076502D01*
X139417530Y-109242330D01*
X139251702Y-109444392D01*
X139128481Y-109674922D01*
X139052601Y-109925063D01*
X139026980Y-110185200D01*
X139052601Y-110445337D01*
X139128481Y-110695478D01*
X139251702Y-110926008D01*
X139417530Y-111128070D01*
X139619592Y-111293898D01*
X139850122Y-111417119D01*
X139975657Y-111455200D01*
X139850122Y-111493281D01*
X139619592Y-111616502D01*
X139417530Y-111782330D01*
X139251702Y-111984392D01*
X139128481Y-112214922D01*
X139052601Y-112465063D01*
X139026980Y-112725200D01*
X139052601Y-112985337D01*
X139128481Y-113235478D01*
X139251702Y-113466008D01*
X139417530Y-113668070D01*
X139619592Y-113833898D01*
X139850122Y-113957119D01*
X139975657Y-113995200D01*
X139850122Y-114033281D01*
X139619592Y-114156502D01*
X139417530Y-114322330D01*
X139251702Y-114524392D01*
X139128481Y-114754922D01*
X139052601Y-115005063D01*
X139026980Y-115265200D01*
X139052601Y-115525337D01*
X139128481Y-115775478D01*
X139251702Y-116006008D01*
X139417530Y-116208070D01*
X139619592Y-116373898D01*
X139850122Y-116497119D01*
X139975657Y-116535200D01*
X139850122Y-116573281D01*
X139619592Y-116696502D01*
X139417530Y-116862330D01*
X139251702Y-117064392D01*
X139128481Y-117294922D01*
X139052601Y-117545063D01*
X139026980Y-117805200D01*
X139052601Y-118065337D01*
X139128481Y-118315478D01*
X139251702Y-118546008D01*
X139417530Y-118748070D01*
X139619592Y-118913898D01*
X139850122Y-119037119D01*
X139975657Y-119075200D01*
X139850122Y-119113281D01*
X139619592Y-119236502D01*
X139417530Y-119402330D01*
X139251702Y-119604392D01*
X139128481Y-119834922D01*
X139052601Y-120085063D01*
X139026980Y-120345200D01*
X139052601Y-120605337D01*
X139128481Y-120855478D01*
X139251702Y-121086008D01*
X139417530Y-121288070D01*
X139619592Y-121453898D01*
X139850122Y-121577119D01*
X139975657Y-121615200D01*
X139850122Y-121653281D01*
X139619592Y-121776502D01*
X139417530Y-121942330D01*
X139251702Y-122144392D01*
X139128481Y-122374922D01*
X139052601Y-122625063D01*
X139026980Y-122885200D01*
X139052601Y-123145337D01*
X139128481Y-123395478D01*
X139251702Y-123626008D01*
X139417530Y-123828070D01*
X139619592Y-123993898D01*
X139850122Y-124117119D01*
X140100263Y-124192999D01*
X140295216Y-124212200D01*
X140425584Y-124212200D01*
X140620537Y-124192999D01*
X140870678Y-124117119D01*
X141101208Y-123993898D01*
X141303270Y-123828070D01*
X141469098Y-123626008D01*
X141592319Y-123395478D01*
X141668199Y-123145337D01*
X141693820Y-122885200D01*
X141668199Y-122625063D01*
X141614281Y-122447321D01*
X141638436Y-122423166D01*
X141638441Y-122423160D01*
X142219302Y-121842299D01*
X152585907Y-121842299D01*
X152552381Y-121905022D01*
X152476501Y-122155163D01*
X152450880Y-122415300D01*
X152476501Y-122675437D01*
X152552381Y-122925578D01*
X152629897Y-123070600D01*
X151563009Y-123070600D01*
X151499764Y-123028341D01*
X151367458Y-122973538D01*
X151227003Y-122945600D01*
X151083797Y-122945600D01*
X150943342Y-122973538D01*
X150811036Y-123028341D01*
X150691964Y-123107902D01*
X150590702Y-123209164D01*
X150511141Y-123328236D01*
X150456338Y-123460542D01*
X150428400Y-123600997D01*
X150428400Y-123744203D01*
X150456338Y-123884658D01*
X150511141Y-124016964D01*
X150590702Y-124136036D01*
X150691964Y-124237298D01*
X150811036Y-124316859D01*
X150943342Y-124371662D01*
X151083797Y-124399600D01*
X151227003Y-124399600D01*
X151367458Y-124371662D01*
X151499764Y-124316859D01*
X151563009Y-124274600D01*
X152643474Y-124274600D01*
X152552381Y-124445022D01*
X152476501Y-124695163D01*
X152450880Y-124955300D01*
X152476501Y-125215437D01*
X152552381Y-125465578D01*
X152675602Y-125696108D01*
X152841430Y-125898170D01*
X153043492Y-126063998D01*
X153274022Y-126187219D01*
X153524163Y-126263099D01*
X153719116Y-126282300D01*
X153849484Y-126282300D01*
X154044437Y-126263099D01*
X154294578Y-126187219D01*
X154525108Y-126063998D01*
X154727170Y-125898170D01*
X154892998Y-125696108D01*
X154994993Y-125505289D01*
X154994993Y-125805300D01*
X155004203Y-125898808D01*
X155031478Y-125988723D01*
X155075771Y-126071589D01*
X155135379Y-126144221D01*
X155208011Y-126203829D01*
X155290877Y-126248122D01*
X155380792Y-126275397D01*
X155474300Y-126284607D01*
X157174300Y-126284607D01*
X157267808Y-126275397D01*
X157357723Y-126248122D01*
X157440589Y-126203829D01*
X157513221Y-126144221D01*
X157572829Y-126071589D01*
X157617122Y-125988723D01*
X157644397Y-125898808D01*
X157653607Y-125805300D01*
X157653607Y-124274600D01*
X158999844Y-124274600D01*
X159029400Y-124277511D01*
X159058956Y-124274600D01*
X159058966Y-124274600D01*
X159147412Y-124265889D01*
X159260890Y-124231466D01*
X159365471Y-124175566D01*
X159457137Y-124100337D01*
X159475989Y-124077366D01*
X161910054Y-121643301D01*
X161984658Y-121628462D01*
X162116964Y-121573659D01*
X162236036Y-121494098D01*
X162337298Y-121392836D01*
X162416859Y-121273764D01*
X162471662Y-121141458D01*
X162499600Y-121001003D01*
X162499600Y-120857797D01*
X162484256Y-120780657D01*
X165002161Y-123298562D01*
X165020226Y-123320574D01*
X165108085Y-123392679D01*
X165208324Y-123446257D01*
X165317088Y-123479250D01*
X165401864Y-123487600D01*
X165401870Y-123487600D01*
X165430199Y-123490390D01*
X165458528Y-123487600D01*
X168678945Y-123487600D01*
X168766502Y-123651408D01*
X168932330Y-123853470D01*
X169134392Y-124019298D01*
X169364922Y-124142519D01*
X169615063Y-124218399D01*
X169810016Y-124237600D01*
X169940384Y-124237600D01*
X170135337Y-124218399D01*
X170385478Y-124142519D01*
X170616008Y-124019298D01*
X170818070Y-123853470D01*
X170983898Y-123651408D01*
X171107119Y-123420878D01*
X171182999Y-123170737D01*
X171208620Y-122910600D01*
X171182999Y-122650463D01*
X171107119Y-122400322D01*
X170983898Y-122169792D01*
X170818070Y-121967730D01*
X170616008Y-121801902D01*
X170385478Y-121678681D01*
X170259943Y-121640600D01*
X170385478Y-121602519D01*
X170616008Y-121479298D01*
X170818070Y-121313470D01*
X170983898Y-121111408D01*
X171107119Y-120880878D01*
X171182999Y-120630737D01*
X171208620Y-120370600D01*
X171182999Y-120110463D01*
X171107119Y-119860322D01*
X170983898Y-119629792D01*
X170818070Y-119427730D01*
X170616008Y-119261902D01*
X170385478Y-119138681D01*
X170259943Y-119100600D01*
X170385478Y-119062519D01*
X170616008Y-118939298D01*
X170818070Y-118773470D01*
X170983898Y-118571408D01*
X171107119Y-118340878D01*
X171182999Y-118090737D01*
X171208620Y-117830600D01*
X171182999Y-117570463D01*
X171107119Y-117320322D01*
X170983898Y-117089792D01*
X170818070Y-116887730D01*
X170616008Y-116721902D01*
X170385478Y-116598681D01*
X170259943Y-116560600D01*
X170385478Y-116522519D01*
X170616008Y-116399298D01*
X170818070Y-116233470D01*
X170983898Y-116031408D01*
X171107119Y-115800878D01*
X171182999Y-115550737D01*
X171208620Y-115290600D01*
X171182999Y-115030463D01*
X171107119Y-114780322D01*
X170983898Y-114549792D01*
X170818070Y-114347730D01*
X170616008Y-114181902D01*
X170385478Y-114058681D01*
X170259943Y-114020600D01*
X170385478Y-113982519D01*
X170616008Y-113859298D01*
X170818070Y-113693470D01*
X170983898Y-113491408D01*
X171107119Y-113260878D01*
X171182999Y-113010737D01*
X171208620Y-112750600D01*
X171182999Y-112490463D01*
X171107119Y-112240322D01*
X170983898Y-112009792D01*
X170818070Y-111807730D01*
X170616008Y-111641902D01*
X170385478Y-111518681D01*
X170259943Y-111480600D01*
X170385478Y-111442519D01*
X170616008Y-111319298D01*
X170818070Y-111153470D01*
X170983898Y-110951408D01*
X171107119Y-110720878D01*
X171182999Y-110470737D01*
X171208620Y-110210600D01*
X171182999Y-109950463D01*
X171107119Y-109700322D01*
X170983898Y-109469792D01*
X170818070Y-109267730D01*
X170616008Y-109101902D01*
X170385478Y-108978681D01*
X170259943Y-108940600D01*
X170385478Y-108902519D01*
X170616008Y-108779298D01*
X170818070Y-108613470D01*
X170983898Y-108411408D01*
X171107119Y-108180878D01*
X171182999Y-107930737D01*
X171208620Y-107670600D01*
X171182999Y-107410463D01*
X171107119Y-107160322D01*
X170983898Y-106929792D01*
X170818070Y-106727730D01*
X170616008Y-106561902D01*
X170385478Y-106438681D01*
X170259943Y-106400600D01*
X170385478Y-106362519D01*
X170616008Y-106239298D01*
X170818070Y-106073470D01*
X170983898Y-105871408D01*
X171107119Y-105640878D01*
X171182999Y-105390737D01*
X171208620Y-105130600D01*
X171182999Y-104870463D01*
X171107119Y-104620322D01*
X170983898Y-104389792D01*
X170818070Y-104187730D01*
X170616008Y-104021902D01*
X170385478Y-103898681D01*
X170259943Y-103860600D01*
X170385478Y-103822519D01*
X170616008Y-103699298D01*
X170818070Y-103533470D01*
X170983898Y-103331408D01*
X171107119Y-103100878D01*
X171182999Y-102850737D01*
X171208620Y-102590600D01*
X171182999Y-102330463D01*
X171107119Y-102080322D01*
X170983898Y-101849792D01*
X170818070Y-101647730D01*
X170616008Y-101481902D01*
X170385478Y-101358681D01*
X170259943Y-101320600D01*
X170385478Y-101282519D01*
X170616008Y-101159298D01*
X170818070Y-100993470D01*
X170983898Y-100791408D01*
X171107119Y-100560878D01*
X171182999Y-100310737D01*
X171208620Y-100050600D01*
X171182999Y-99790463D01*
X171107119Y-99540322D01*
X170983898Y-99309792D01*
X170818070Y-99107730D01*
X170616008Y-98941902D01*
X170385478Y-98818681D01*
X170259943Y-98780600D01*
X170385478Y-98742519D01*
X170616008Y-98619298D01*
X170818070Y-98453470D01*
X170983898Y-98251408D01*
X171107119Y-98020878D01*
X171182999Y-97770737D01*
X171208620Y-97510600D01*
X171182999Y-97250463D01*
X171107119Y-97000322D01*
X170983898Y-96769792D01*
X170818070Y-96567730D01*
X170616008Y-96401902D01*
X170385478Y-96278681D01*
X170259943Y-96240600D01*
X170385478Y-96202519D01*
X170616008Y-96079298D01*
X170818070Y-95913470D01*
X170983898Y-95711408D01*
X171107119Y-95480878D01*
X171182999Y-95230737D01*
X171208620Y-94970600D01*
X171182999Y-94710463D01*
X171107119Y-94460322D01*
X170983898Y-94229792D01*
X170818070Y-94027730D01*
X170616008Y-93861902D01*
X170385478Y-93738681D01*
X170259943Y-93700600D01*
X170385478Y-93662519D01*
X170616008Y-93539298D01*
X170818070Y-93373470D01*
X170983898Y-93171408D01*
X171107119Y-92940878D01*
X171182999Y-92690737D01*
X171208620Y-92430600D01*
X171182999Y-92170463D01*
X171107119Y-91920322D01*
X170983898Y-91689792D01*
X170818070Y-91487730D01*
X170616008Y-91321902D01*
X170385478Y-91198681D01*
X170259943Y-91160600D01*
X170385478Y-91122519D01*
X170616008Y-90999298D01*
X170818070Y-90833470D01*
X170983898Y-90631408D01*
X171107119Y-90400878D01*
X171182999Y-90150737D01*
X171208620Y-89890600D01*
X171182999Y-89630463D01*
X171107119Y-89380322D01*
X170983898Y-89149792D01*
X170818070Y-88947730D01*
X170616008Y-88781902D01*
X170385478Y-88658681D01*
X170259943Y-88620600D01*
X170385478Y-88582519D01*
X170616008Y-88459298D01*
X170818070Y-88293470D01*
X170983898Y-88091408D01*
X171107119Y-87860878D01*
X171182999Y-87610737D01*
X171208620Y-87350600D01*
X171182999Y-87090463D01*
X171107119Y-86840322D01*
X170983898Y-86609792D01*
X170818070Y-86407730D01*
X170616008Y-86241902D01*
X170385478Y-86118681D01*
X170259943Y-86080600D01*
X170385478Y-86042519D01*
X170616008Y-85919298D01*
X170818070Y-85753470D01*
X170983898Y-85551408D01*
X171107119Y-85320878D01*
X171182999Y-85070737D01*
X171208620Y-84810600D01*
X171182999Y-84550463D01*
X171107119Y-84300322D01*
X170983898Y-84069792D01*
X170818070Y-83867730D01*
X170616008Y-83701902D01*
X170425189Y-83599907D01*
X170725200Y-83599907D01*
X170818708Y-83590697D01*
X170908623Y-83563422D01*
X170991489Y-83519129D01*
X171064121Y-83459521D01*
X171123729Y-83386889D01*
X171168022Y-83304023D01*
X171195297Y-83214108D01*
X171204507Y-83120600D01*
X171204507Y-81420600D01*
X171195297Y-81327092D01*
X171168022Y-81237177D01*
X171123729Y-81154311D01*
X171064121Y-81081679D01*
X170991489Y-81022071D01*
X170908623Y-80977778D01*
X170818708Y-80950503D01*
X170725200Y-80941293D01*
X169025200Y-80941293D01*
X168931692Y-80950503D01*
X168841777Y-80977778D01*
X168758911Y-81022071D01*
X168686279Y-81081679D01*
X168626671Y-81154311D01*
X168582378Y-81237177D01*
X168555103Y-81327092D01*
X168545893Y-81420600D01*
X168545893Y-83120600D01*
X168555103Y-83214108D01*
X168582378Y-83304023D01*
X168626671Y-83386889D01*
X168686279Y-83459521D01*
X168758911Y-83519129D01*
X168841777Y-83563422D01*
X168931692Y-83590697D01*
X169025200Y-83599907D01*
X169325211Y-83599907D01*
X169134392Y-83701902D01*
X168932330Y-83867730D01*
X168766502Y-84069792D01*
X168643281Y-84300322D01*
X168567401Y-84550463D01*
X168541780Y-84810600D01*
X168567401Y-85070737D01*
X168643281Y-85320878D01*
X168766502Y-85551408D01*
X168932330Y-85753470D01*
X169134392Y-85919298D01*
X169364922Y-86042519D01*
X169490457Y-86080600D01*
X169364922Y-86118681D01*
X169134392Y-86241902D01*
X168932330Y-86407730D01*
X168766502Y-86609792D01*
X168643281Y-86840322D01*
X168567401Y-87090463D01*
X168541780Y-87350600D01*
X168567401Y-87610737D01*
X168643281Y-87860878D01*
X168766502Y-88091408D01*
X168932330Y-88293470D01*
X169134392Y-88459298D01*
X169364922Y-88582519D01*
X169490457Y-88620600D01*
X169364922Y-88658681D01*
X169134392Y-88781902D01*
X168932330Y-88947730D01*
X168766502Y-89149792D01*
X168643281Y-89380322D01*
X168567401Y-89630463D01*
X168541780Y-89890600D01*
X168567401Y-90150737D01*
X168643281Y-90400878D01*
X168766502Y-90631408D01*
X168932330Y-90833470D01*
X169134392Y-90999298D01*
X169364922Y-91122519D01*
X169490457Y-91160600D01*
X169364922Y-91198681D01*
X169134392Y-91321902D01*
X168932330Y-91487730D01*
X168766502Y-91689792D01*
X168643281Y-91920322D01*
X168567401Y-92170463D01*
X168541780Y-92430600D01*
X168567401Y-92690737D01*
X168643281Y-92940878D01*
X168766502Y-93171408D01*
X168932330Y-93373470D01*
X169134392Y-93539298D01*
X169364922Y-93662519D01*
X169490457Y-93700600D01*
X169364922Y-93738681D01*
X169134392Y-93861902D01*
X168932330Y-94027730D01*
X168766502Y-94229792D01*
X168643281Y-94460322D01*
X168567401Y-94710463D01*
X168541780Y-94970600D01*
X168567401Y-95230737D01*
X168643281Y-95480878D01*
X168766502Y-95711408D01*
X168932330Y-95913470D01*
X169134392Y-96079298D01*
X169364922Y-96202519D01*
X169490457Y-96240600D01*
X169364922Y-96278681D01*
X169134392Y-96401902D01*
X168932330Y-96567730D01*
X168766502Y-96769792D01*
X168643281Y-97000322D01*
X168567401Y-97250463D01*
X168541780Y-97510600D01*
X168567401Y-97770737D01*
X168643281Y-98020878D01*
X168766502Y-98251408D01*
X168932330Y-98453470D01*
X169134392Y-98619298D01*
X169364922Y-98742519D01*
X169490457Y-98780600D01*
X169364922Y-98818681D01*
X169134392Y-98941902D01*
X168932330Y-99107730D01*
X168766502Y-99309792D01*
X168643281Y-99540322D01*
X168567401Y-99790463D01*
X168541780Y-100050600D01*
X168567401Y-100310737D01*
X168620792Y-100486744D01*
X166793763Y-102313774D01*
X166771690Y-102331889D01*
X166753575Y-102353962D01*
X166753573Y-102353964D01*
X166699385Y-102419992D01*
X166645657Y-102520509D01*
X166612573Y-102629575D01*
X166601402Y-102743000D01*
X166604201Y-102771420D01*
X166604200Y-110453770D01*
X166538541Y-110552036D01*
X166483738Y-110684342D01*
X166455800Y-110824797D01*
X166455800Y-110968003D01*
X166483738Y-111108458D01*
X166538541Y-111240764D01*
X166553620Y-111263331D01*
X166465364Y-111322302D01*
X166364102Y-111423564D01*
X166284541Y-111542636D01*
X166229738Y-111674942D01*
X166201800Y-111815397D01*
X166201800Y-111958603D01*
X166229738Y-112099058D01*
X166284541Y-112231364D01*
X166364102Y-112350436D01*
X166465364Y-112451698D01*
X166584436Y-112531259D01*
X166716742Y-112586062D01*
X166857197Y-112614000D01*
X167000403Y-112614000D01*
X167098099Y-112594567D01*
X167075302Y-112617364D01*
X166995741Y-112736436D01*
X166940938Y-112868742D01*
X166913000Y-113009197D01*
X166913000Y-113152403D01*
X166940938Y-113292858D01*
X166985895Y-113401394D01*
X166302739Y-112718238D01*
X166284674Y-112696226D01*
X166196815Y-112624121D01*
X166096576Y-112570543D01*
X166024477Y-112548672D01*
X165987811Y-112537549D01*
X165932745Y-112532126D01*
X165903036Y-112529200D01*
X165903031Y-112529200D01*
X165874700Y-112526410D01*
X165846369Y-112529200D01*
X162928825Y-112529200D01*
X162828164Y-112461941D01*
X162695858Y-112407138D01*
X162555403Y-112379200D01*
X162412197Y-112379200D01*
X162271742Y-112407138D01*
X162139436Y-112461941D01*
X162020364Y-112541502D01*
X161919102Y-112642764D01*
X161839541Y-112761836D01*
X161784738Y-112894142D01*
X161756800Y-113034597D01*
X161756800Y-113177803D01*
X161784738Y-113318258D01*
X161839541Y-113450564D01*
X161919102Y-113569636D01*
X162020364Y-113670898D01*
X162139436Y-113750459D01*
X162271742Y-113805262D01*
X162412197Y-113833200D01*
X162555403Y-113833200D01*
X162695858Y-113805262D01*
X162828164Y-113750459D01*
X162928825Y-113683200D01*
X165635699Y-113683200D01*
X167631065Y-115678567D01*
X167649126Y-115700574D01*
X167671133Y-115718635D01*
X167671135Y-115718637D01*
X167671943Y-115719300D01*
X167736985Y-115772679D01*
X167837224Y-115826257D01*
X167945988Y-115859250D01*
X168030764Y-115867600D01*
X168030770Y-115867600D01*
X168059099Y-115870390D01*
X168087428Y-115867600D01*
X168678945Y-115867600D01*
X168766502Y-116031408D01*
X168932330Y-116233470D01*
X169134392Y-116399298D01*
X169364922Y-116522519D01*
X169490457Y-116560600D01*
X169364922Y-116598681D01*
X169134392Y-116721902D01*
X168932330Y-116887730D01*
X168766502Y-117089792D01*
X168678945Y-117253600D01*
X162710101Y-117253600D01*
X162304780Y-116848279D01*
X162281162Y-116729542D01*
X162226359Y-116597236D01*
X162146798Y-116478164D01*
X162045536Y-116376902D01*
X161926464Y-116297341D01*
X161794158Y-116242538D01*
X161653703Y-116214600D01*
X161510497Y-116214600D01*
X161370042Y-116242538D01*
X161237736Y-116297341D01*
X161118664Y-116376902D01*
X161017402Y-116478164D01*
X160939900Y-116594154D01*
X160939900Y-114325925D01*
X161007159Y-114225264D01*
X161061962Y-114092958D01*
X161089900Y-113952503D01*
X161089900Y-113809297D01*
X161061962Y-113668842D01*
X161007159Y-113536536D01*
X160927598Y-113417464D01*
X160826336Y-113316202D01*
X160707264Y-113236641D01*
X160574958Y-113181838D01*
X160434503Y-113153900D01*
X160291297Y-113153900D01*
X160150842Y-113181838D01*
X160018536Y-113236641D01*
X159899464Y-113316202D01*
X159798202Y-113417464D01*
X159718641Y-113536536D01*
X159663838Y-113668842D01*
X159635900Y-113809297D01*
X159635900Y-113952503D01*
X159663838Y-114092958D01*
X159718641Y-114225264D01*
X159785900Y-114325925D01*
X159785901Y-117299699D01*
X157718955Y-119366645D01*
X157595941Y-119108380D01*
X157421888Y-118875031D01*
X157205655Y-118680122D01*
X156955552Y-118531143D01*
X156681191Y-118433819D01*
X156451300Y-118554486D01*
X156451300Y-119748300D01*
X156471300Y-119748300D01*
X156471300Y-120002300D01*
X156451300Y-120002300D01*
X156451300Y-120022300D01*
X156197300Y-120022300D01*
X156197300Y-120002300D01*
X153911300Y-120002300D01*
X153911300Y-120022300D01*
X153657300Y-120022300D01*
X153657300Y-120002300D01*
X152464145Y-120002300D01*
X152342824Y-120232190D01*
X152387475Y-120379399D01*
X152512659Y-120642220D01*
X152547029Y-120688299D01*
X148325643Y-120688299D01*
X148374662Y-120569958D01*
X148402600Y-120429503D01*
X148402600Y-120286297D01*
X148374662Y-120145842D01*
X148319859Y-120013536D01*
X148240298Y-119894464D01*
X148139036Y-119793202D01*
X148019964Y-119713641D01*
X147887658Y-119658838D01*
X147747203Y-119630900D01*
X147603997Y-119630900D01*
X147463542Y-119658838D01*
X147331236Y-119713641D01*
X147230575Y-119780900D01*
X144285225Y-119780900D01*
X144184564Y-119713641D01*
X144052258Y-119658838D01*
X143911803Y-119630900D01*
X143768597Y-119630900D01*
X143628142Y-119658838D01*
X143495836Y-119713641D01*
X143376764Y-119793202D01*
X143275502Y-119894464D01*
X143195941Y-120013536D01*
X143141138Y-120145842D01*
X143113200Y-120286297D01*
X143113200Y-120429503D01*
X143141138Y-120569958D01*
X143190157Y-120688299D01*
X142008632Y-120688299D01*
X141980301Y-120685509D01*
X141951970Y-120688299D01*
X141951965Y-120688299D01*
X141925187Y-120690936D01*
X141867189Y-120696648D01*
X141803083Y-120716095D01*
X141758425Y-120729642D01*
X141658186Y-120783220D01*
X141599671Y-120831243D01*
X141668199Y-120605337D01*
X141693820Y-120345200D01*
X141668199Y-120085063D01*
X141592319Y-119834922D01*
X141469098Y-119604392D01*
X141398535Y-119518410D01*
X152342824Y-119518410D01*
X152464145Y-119748300D01*
X153657300Y-119748300D01*
X153657300Y-118554486D01*
X153911300Y-118554486D01*
X153911300Y-119748300D01*
X156197300Y-119748300D01*
X156197300Y-118554486D01*
X155967409Y-118433819D01*
X155693048Y-118531143D01*
X155442945Y-118680122D01*
X155226712Y-118875031D01*
X155054300Y-119106180D01*
X154881888Y-118875031D01*
X154665655Y-118680122D01*
X154415552Y-118531143D01*
X154141191Y-118433819D01*
X153911300Y-118554486D01*
X153657300Y-118554486D01*
X153427409Y-118433819D01*
X153153048Y-118531143D01*
X152902945Y-118680122D01*
X152686712Y-118875031D01*
X152512659Y-119108380D01*
X152387475Y-119371201D01*
X152342824Y-119518410D01*
X141398535Y-119518410D01*
X141303270Y-119402330D01*
X141101208Y-119236502D01*
X140870678Y-119113281D01*
X140745143Y-119075200D01*
X140870678Y-119037119D01*
X141101208Y-118913898D01*
X141303270Y-118748070D01*
X141469098Y-118546008D01*
X141592319Y-118315478D01*
X141668199Y-118065337D01*
X141669601Y-118051097D01*
X143075100Y-118051097D01*
X143075100Y-118194303D01*
X143103038Y-118334758D01*
X143157841Y-118467064D01*
X143237402Y-118586136D01*
X143338664Y-118687398D01*
X143457736Y-118766959D01*
X143590042Y-118821762D01*
X143730497Y-118849700D01*
X143873703Y-118849700D01*
X144014158Y-118821762D01*
X144146464Y-118766959D01*
X144209111Y-118725100D01*
X145858975Y-118725100D01*
X145959636Y-118792359D01*
X146091942Y-118847162D01*
X146232397Y-118875100D01*
X146375603Y-118875100D01*
X146516058Y-118847162D01*
X146648364Y-118792359D01*
X146767436Y-118712798D01*
X146868698Y-118611536D01*
X146948259Y-118492464D01*
X147003062Y-118360158D01*
X147031000Y-118219703D01*
X147031000Y-118076497D01*
X147008444Y-117963100D01*
X147090875Y-117963100D01*
X147191536Y-118030359D01*
X147323842Y-118085162D01*
X147464297Y-118113100D01*
X147607503Y-118113100D01*
X147747958Y-118085162D01*
X147880264Y-118030359D01*
X147999336Y-117950798D01*
X148100598Y-117849536D01*
X148180159Y-117730464D01*
X148234962Y-117598158D01*
X148262900Y-117457703D01*
X148262900Y-117314497D01*
X148234962Y-117174042D01*
X148180159Y-117041736D01*
X148167841Y-117023300D01*
X149002096Y-117023300D01*
X149045736Y-117052459D01*
X149178042Y-117107262D01*
X149318497Y-117135200D01*
X149461703Y-117135200D01*
X149602158Y-117107262D01*
X149734464Y-117052459D01*
X149853536Y-116972898D01*
X149954798Y-116871636D01*
X150034359Y-116752564D01*
X150089162Y-116620258D01*
X150117100Y-116479803D01*
X150117100Y-116336597D01*
X150089162Y-116196142D01*
X150034359Y-116063836D01*
X149954798Y-115944764D01*
X149853536Y-115843502D01*
X149734464Y-115763941D01*
X149602158Y-115709138D01*
X149461703Y-115681200D01*
X149318497Y-115681200D01*
X149178042Y-115709138D01*
X149045736Y-115763941D01*
X148926664Y-115843502D01*
X148900866Y-115869300D01*
X148761044Y-115869300D01*
X148783600Y-115755903D01*
X148783600Y-115612697D01*
X148755662Y-115472242D01*
X148700859Y-115339936D01*
X148621298Y-115220864D01*
X148520036Y-115119602D01*
X148400964Y-115040041D01*
X148268658Y-114985238D01*
X148128203Y-114957300D01*
X147984997Y-114957300D01*
X147844542Y-114985238D01*
X147712236Y-115040041D01*
X147611575Y-115107300D01*
X145996901Y-115107300D01*
X145159780Y-114270179D01*
X145136162Y-114151442D01*
X145081359Y-114019136D01*
X145001798Y-113900064D01*
X144900536Y-113798802D01*
X144781464Y-113719241D01*
X144649158Y-113664438D01*
X144508703Y-113636500D01*
X144365497Y-113636500D01*
X144225042Y-113664438D01*
X144092736Y-113719241D01*
X143973664Y-113798802D01*
X143872402Y-113900064D01*
X143792841Y-114019136D01*
X143738038Y-114151442D01*
X143710100Y-114291897D01*
X143710100Y-114435103D01*
X143738038Y-114575558D01*
X143792841Y-114707864D01*
X143872402Y-114826936D01*
X143973664Y-114928198D01*
X144092736Y-115007759D01*
X144225042Y-115062562D01*
X144343779Y-115086180D01*
X145126899Y-115869300D01*
X144958325Y-115869300D01*
X144857664Y-115802041D01*
X144725358Y-115747238D01*
X144584903Y-115719300D01*
X144441697Y-115719300D01*
X144301242Y-115747238D01*
X144168936Y-115802041D01*
X144049864Y-115881602D01*
X143948602Y-115982864D01*
X143869041Y-116101936D01*
X143814238Y-116234242D01*
X143786300Y-116374697D01*
X143786300Y-116517903D01*
X143814238Y-116658358D01*
X143869041Y-116790664D01*
X143913085Y-116856581D01*
X143859702Y-116909964D01*
X143780141Y-117029036D01*
X143725338Y-117161342D01*
X143697400Y-117301797D01*
X143697400Y-117402283D01*
X143590042Y-117423638D01*
X143457736Y-117478441D01*
X143338664Y-117558002D01*
X143237402Y-117659264D01*
X143157841Y-117778336D01*
X143103038Y-117910642D01*
X143075100Y-118051097D01*
X141669601Y-118051097D01*
X141693820Y-117805200D01*
X141668199Y-117545063D01*
X141592319Y-117294922D01*
X141469098Y-117064392D01*
X141303270Y-116862330D01*
X141101208Y-116696502D01*
X140870678Y-116573281D01*
X140745143Y-116535200D01*
X140870678Y-116497119D01*
X141101208Y-116373898D01*
X141303270Y-116208070D01*
X141469098Y-116006008D01*
X141592319Y-115775478D01*
X141668199Y-115525337D01*
X141693820Y-115265200D01*
X141668199Y-115005063D01*
X141592319Y-114754922D01*
X141469098Y-114524392D01*
X141303270Y-114322330D01*
X141101208Y-114156502D01*
X140870678Y-114033281D01*
X140745143Y-113995200D01*
X140870678Y-113957119D01*
X141101208Y-113833898D01*
X141303270Y-113668070D01*
X141469098Y-113466008D01*
X141592319Y-113235478D01*
X141668199Y-112985337D01*
X141693820Y-112725200D01*
X141668199Y-112465063D01*
X141592319Y-112214922D01*
X141469098Y-111984392D01*
X141303270Y-111782330D01*
X141101208Y-111616502D01*
X140870678Y-111493281D01*
X140745143Y-111455200D01*
X140870678Y-111417119D01*
X141101208Y-111293898D01*
X141303270Y-111128070D01*
X141469098Y-110926008D01*
X141592319Y-110695478D01*
X141668199Y-110445337D01*
X141693820Y-110185200D01*
X141668199Y-109925063D01*
X141592319Y-109674922D01*
X141469098Y-109444392D01*
X141303270Y-109242330D01*
X141101208Y-109076502D01*
X140870678Y-108953281D01*
X140745143Y-108915200D01*
X140870678Y-108877119D01*
X141101208Y-108753898D01*
X141303270Y-108588070D01*
X141469098Y-108386008D01*
X141592319Y-108155478D01*
X141668199Y-107905337D01*
X141693820Y-107645200D01*
X141668199Y-107385063D01*
X141592319Y-107134922D01*
X141469098Y-106904392D01*
X141303270Y-106702330D01*
X141101208Y-106536502D01*
X140870678Y-106413281D01*
X140745143Y-106375200D01*
X140870678Y-106337119D01*
X141101208Y-106213898D01*
X141303270Y-106048070D01*
X141469098Y-105846008D01*
X141592319Y-105615478D01*
X141606353Y-105569216D01*
X146627237Y-110590101D01*
X146166002Y-110590101D01*
X145121680Y-109545779D01*
X145098062Y-109427042D01*
X145043259Y-109294736D01*
X144963698Y-109175664D01*
X144862436Y-109074402D01*
X144743364Y-108994841D01*
X144611058Y-108940038D01*
X144470603Y-108912100D01*
X144327397Y-108912100D01*
X144186942Y-108940038D01*
X144054636Y-108994841D01*
X143935564Y-109074402D01*
X143834302Y-109175664D01*
X143754741Y-109294736D01*
X143699938Y-109427042D01*
X143672000Y-109567497D01*
X143672000Y-109710703D01*
X143699938Y-109851158D01*
X143754741Y-109983464D01*
X143834302Y-110102536D01*
X143935564Y-110203798D01*
X144054636Y-110283359D01*
X144067485Y-110288681D01*
X144037502Y-110318664D01*
X143957941Y-110437736D01*
X143903138Y-110570042D01*
X143875200Y-110710497D01*
X143875200Y-110853703D01*
X143903138Y-110994158D01*
X143937012Y-111075936D01*
X143902236Y-111090341D01*
X143783164Y-111169902D01*
X143681902Y-111271164D01*
X143602341Y-111390236D01*
X143547538Y-111522542D01*
X143519600Y-111662997D01*
X143519600Y-111806203D01*
X143547538Y-111946658D01*
X143602341Y-112078964D01*
X143681902Y-112198036D01*
X143783164Y-112299298D01*
X143902236Y-112378859D01*
X144034542Y-112433662D01*
X144153279Y-112457280D01*
X145075861Y-113379862D01*
X145093926Y-113401874D01*
X145181785Y-113473979D01*
X145282024Y-113527557D01*
X145326682Y-113541104D01*
X145390788Y-113560551D01*
X145448786Y-113566263D01*
X145475564Y-113568900D01*
X145475569Y-113568900D01*
X145503900Y-113571690D01*
X145532231Y-113568900D01*
X147167075Y-113568900D01*
X147267736Y-113636159D01*
X147400042Y-113690962D01*
X147540497Y-113718900D01*
X147683703Y-113718900D01*
X147824158Y-113690962D01*
X147956464Y-113636159D01*
X148075536Y-113556598D01*
X148176798Y-113455336D01*
X148256359Y-113336264D01*
X148311162Y-113203958D01*
X148339100Y-113063503D01*
X148339100Y-113018899D01*
X148562663Y-113018899D01*
X148576738Y-113089658D01*
X148631541Y-113221964D01*
X148711102Y-113341036D01*
X148812364Y-113442298D01*
X148931436Y-113521859D01*
X149063742Y-113576662D01*
X149204197Y-113604600D01*
X149347403Y-113604600D01*
X149487858Y-113576662D01*
X149620164Y-113521859D01*
X149739236Y-113442298D01*
X149840498Y-113341036D01*
X149920059Y-113221964D01*
X149974862Y-113089658D01*
X150002724Y-112949587D01*
X150561074Y-113507938D01*
X150579189Y-113530011D01*
X150601262Y-113548126D01*
X150601264Y-113548128D01*
X150620866Y-113564215D01*
X150667292Y-113602316D01*
X150767808Y-113656043D01*
X150876875Y-113689128D01*
X150961880Y-113697500D01*
X150961890Y-113697500D01*
X150990300Y-113700298D01*
X151018710Y-113697500D01*
X151774322Y-113697500D01*
X151790568Y-113695900D01*
X152805875Y-113695900D01*
X152906536Y-113763159D01*
X153038842Y-113817962D01*
X153179297Y-113845900D01*
X153322503Y-113845900D01*
X153462958Y-113817962D01*
X153595264Y-113763159D01*
X153714336Y-113683598D01*
X153815598Y-113582336D01*
X153895159Y-113463264D01*
X153949962Y-113330958D01*
X153977900Y-113190503D01*
X153977900Y-113047297D01*
X153949962Y-112906842D01*
X153895159Y-112774536D01*
X153815598Y-112655464D01*
X153714336Y-112554202D01*
X153595264Y-112474641D01*
X153462958Y-112419838D01*
X153322503Y-112391900D01*
X153304800Y-112391900D01*
X153304800Y-112374197D01*
X153276862Y-112233742D01*
X153231820Y-112125001D01*
X154031468Y-112125001D01*
X154059799Y-112127791D01*
X154088130Y-112125001D01*
X154088135Y-112125001D01*
X154117844Y-112122075D01*
X154172910Y-112116652D01*
X154223068Y-112101436D01*
X154281675Y-112083658D01*
X154381914Y-112030080D01*
X154469773Y-111957975D01*
X154487353Y-111936554D01*
X154605958Y-111912962D01*
X154738264Y-111858159D01*
X154857336Y-111778598D01*
X154958598Y-111677336D01*
X155038159Y-111558264D01*
X155092962Y-111425958D01*
X155120900Y-111285503D01*
X155120900Y-111142297D01*
X155099811Y-111036275D01*
X155882374Y-111818838D01*
X155900489Y-111840911D01*
X155922562Y-111859026D01*
X155922564Y-111859028D01*
X155988591Y-111913216D01*
X156089108Y-111966943D01*
X156198174Y-112000028D01*
X156311600Y-112011199D01*
X156340020Y-112008400D01*
X156630970Y-112008400D01*
X156695512Y-112051525D01*
X156676800Y-112145597D01*
X156676800Y-112288803D01*
X156704738Y-112429258D01*
X156759541Y-112561564D01*
X156839102Y-112680636D01*
X156940364Y-112781898D01*
X157059436Y-112861459D01*
X157191742Y-112916262D01*
X157332197Y-112944200D01*
X157475403Y-112944200D01*
X157615858Y-112916262D01*
X157748164Y-112861459D01*
X157867236Y-112781898D01*
X157968498Y-112680636D01*
X158048059Y-112561564D01*
X158102862Y-112429258D01*
X158117702Y-112354653D01*
X160500972Y-109971384D01*
X160523937Y-109952537D01*
X160559222Y-109909543D01*
X160599166Y-109860872D01*
X160655066Y-109756290D01*
X160689489Y-109642813D01*
X160694049Y-109596512D01*
X160698200Y-109554366D01*
X160698200Y-109554359D01*
X160701111Y-109524800D01*
X160698200Y-109495241D01*
X160698200Y-108512959D01*
X160701111Y-108483400D01*
X160698200Y-108453841D01*
X160698200Y-108453834D01*
X160689489Y-108365388D01*
X160655066Y-108251910D01*
X160643034Y-108229400D01*
X160599166Y-108147328D01*
X160542784Y-108078628D01*
X160523937Y-108055663D01*
X160500973Y-108036817D01*
X159640987Y-107176832D01*
X159622135Y-107153861D01*
X159530469Y-107078632D01*
X159425888Y-107022732D01*
X159312410Y-106988309D01*
X159223964Y-106979598D01*
X159223954Y-106979598D01*
X159194398Y-106976687D01*
X159164842Y-106979598D01*
X157620064Y-106979598D01*
X156694199Y-106053734D01*
X156694199Y-104871568D01*
X156696997Y-104843158D01*
X156694199Y-104814748D01*
X156694199Y-104814739D01*
X156685827Y-104729734D01*
X156652742Y-104620667D01*
X156599015Y-104520151D01*
X156526710Y-104432048D01*
X156504637Y-104413933D01*
X154327832Y-102237129D01*
X154327828Y-102237124D01*
X154178758Y-102088055D01*
X154155702Y-101972142D01*
X154100899Y-101839836D01*
X154021338Y-101720764D01*
X153920076Y-101619502D01*
X153801004Y-101539941D01*
X153668698Y-101485138D01*
X153528243Y-101457200D01*
X153385037Y-101457200D01*
X153244582Y-101485138D01*
X153112276Y-101539941D01*
X152993204Y-101619502D01*
X152891942Y-101720764D01*
X152812381Y-101839836D01*
X152768870Y-101944880D01*
X152673837Y-101944880D01*
X152533382Y-101972818D01*
X152401076Y-102027621D01*
X152282004Y-102107182D01*
X152232212Y-102156974D01*
X152206059Y-102093836D01*
X152126498Y-101974764D01*
X152025236Y-101873502D01*
X151906164Y-101793941D01*
X151773858Y-101739138D01*
X151633403Y-101711200D01*
X151490197Y-101711200D01*
X151349742Y-101739138D01*
X151217436Y-101793941D01*
X151098364Y-101873502D01*
X150997102Y-101974764D01*
X150917541Y-102093836D01*
X150862738Y-102226142D01*
X150834800Y-102366597D01*
X150834800Y-102509803D01*
X150846671Y-102569485D01*
X150805698Y-102508164D01*
X150704436Y-102406902D01*
X150585364Y-102327341D01*
X150453058Y-102272538D01*
X150312603Y-102244600D01*
X150169397Y-102244600D01*
X150028942Y-102272538D01*
X149896636Y-102327341D01*
X149777564Y-102406902D01*
X149676302Y-102508164D01*
X149596741Y-102627236D01*
X149541938Y-102759542D01*
X149514000Y-102899997D01*
X149514000Y-103043203D01*
X149541938Y-103183658D01*
X149596741Y-103315964D01*
X149641829Y-103383443D01*
X149647711Y-103443165D01*
X149662400Y-103491588D01*
X149662400Y-103933790D01*
X149659602Y-103962200D01*
X149662400Y-103990610D01*
X149662400Y-103990620D01*
X149670772Y-104075625D01*
X149703857Y-104184692D01*
X149736010Y-104244845D01*
X149757585Y-104285208D01*
X149807031Y-104345457D01*
X149829890Y-104373311D01*
X149851963Y-104391426D01*
X152185882Y-106725346D01*
X152208938Y-106841258D01*
X152263741Y-106973564D01*
X152343302Y-107092636D01*
X152444564Y-107193898D01*
X152563636Y-107273459D01*
X152695942Y-107328262D01*
X152836397Y-107356200D01*
X152979603Y-107356200D01*
X153120058Y-107328262D01*
X153252364Y-107273459D01*
X153371436Y-107193898D01*
X153472698Y-107092636D01*
X153488602Y-107068834D01*
X153488601Y-109156991D01*
X153485803Y-109185401D01*
X153488601Y-109213811D01*
X153488601Y-109213820D01*
X153496973Y-109298825D01*
X153530058Y-109407892D01*
X153583785Y-109508408D01*
X153656090Y-109596512D01*
X153678169Y-109614632D01*
X154571526Y-110507989D01*
X154465503Y-110486900D01*
X154322297Y-110486900D01*
X154181842Y-110514838D01*
X154049536Y-110569641D01*
X153930464Y-110649202D01*
X153829202Y-110750464D01*
X153749641Y-110869536D01*
X153707613Y-110971001D01*
X152324200Y-110971001D01*
X151988637Y-110635438D01*
X151970572Y-110613426D01*
X151882713Y-110541321D01*
X151782474Y-110487743D01*
X151718368Y-110468297D01*
X151673709Y-110454749D01*
X151618643Y-110449326D01*
X151588934Y-110446400D01*
X151588929Y-110446400D01*
X151560598Y-110443610D01*
X151532267Y-110446400D01*
X149921202Y-110446400D01*
X149451448Y-109976646D01*
X149510636Y-109937098D01*
X149611898Y-109835836D01*
X149691459Y-109716764D01*
X149746262Y-109584458D01*
X149774200Y-109444003D01*
X149774200Y-109300797D01*
X149746262Y-109160342D01*
X149691459Y-109028036D01*
X149625800Y-108929770D01*
X149625800Y-108737263D01*
X150585682Y-109697146D01*
X150608738Y-109813058D01*
X150663541Y-109945364D01*
X150743102Y-110064436D01*
X150844364Y-110165698D01*
X150963436Y-110245259D01*
X151095742Y-110300062D01*
X151236197Y-110328000D01*
X151379403Y-110328000D01*
X151519858Y-110300062D01*
X151652164Y-110245259D01*
X151771236Y-110165698D01*
X151872498Y-110064436D01*
X151952059Y-109945364D01*
X152006862Y-109813058D01*
X152034800Y-109672603D01*
X152034800Y-109529397D01*
X152006862Y-109388942D01*
X151952059Y-109256636D01*
X151872498Y-109137564D01*
X151771236Y-109036302D01*
X151652164Y-108956741D01*
X151519858Y-108901938D01*
X151403946Y-108878882D01*
X150514800Y-107989737D01*
X150514800Y-105514609D01*
X150517598Y-105486199D01*
X150514800Y-105457789D01*
X150514800Y-105457780D01*
X150506428Y-105372775D01*
X150473343Y-105263708D01*
X150419616Y-105163192D01*
X150347311Y-105075089D01*
X150325239Y-105056975D01*
X146872099Y-101603836D01*
X146872099Y-101377507D01*
X154470100Y-101377507D01*
X154563608Y-101368297D01*
X154653523Y-101341022D01*
X154736389Y-101296729D01*
X154809021Y-101237121D01*
X154868629Y-101164489D01*
X154912922Y-101081623D01*
X154940197Y-100991708D01*
X154949407Y-100898200D01*
X154949407Y-100476800D01*
X155152457Y-100476800D01*
X158120601Y-103444945D01*
X158120600Y-105043570D01*
X158054941Y-105141836D01*
X158000138Y-105274142D01*
X157972200Y-105414597D01*
X157972200Y-105557803D01*
X158000138Y-105698258D01*
X158054941Y-105830564D01*
X158134502Y-105949636D01*
X158235764Y-106050898D01*
X158354836Y-106130459D01*
X158487142Y-106185262D01*
X158504655Y-106188745D01*
X158508138Y-106206258D01*
X158562941Y-106338564D01*
X158642502Y-106457636D01*
X158743764Y-106558898D01*
X158862836Y-106638459D01*
X158995142Y-106693262D01*
X159135597Y-106721200D01*
X159278803Y-106721200D01*
X159419258Y-106693262D01*
X159551564Y-106638459D01*
X159670636Y-106558898D01*
X159771898Y-106457636D01*
X159851459Y-106338564D01*
X159906262Y-106206258D01*
X159929880Y-106087521D01*
X160017277Y-106000124D01*
X160056461Y-106094724D01*
X160136022Y-106213796D01*
X160237284Y-106315058D01*
X160356356Y-106394619D01*
X160488662Y-106449422D01*
X160629117Y-106477360D01*
X160772323Y-106477360D01*
X160912778Y-106449422D01*
X161045084Y-106394619D01*
X161164156Y-106315058D01*
X161265418Y-106213796D01*
X161344979Y-106094724D01*
X161399782Y-105962418D01*
X161414622Y-105887814D01*
X162299298Y-105003139D01*
X162322257Y-104984297D01*
X162341100Y-104961337D01*
X162341104Y-104961333D01*
X162397485Y-104892632D01*
X162397486Y-104892631D01*
X162453386Y-104788050D01*
X162487809Y-104674572D01*
X162496520Y-104586126D01*
X162496520Y-104586117D01*
X162499431Y-104556561D01*
X162496520Y-104527004D01*
X162496520Y-102033009D01*
X162538779Y-101969764D01*
X162593582Y-101837458D01*
X162621520Y-101697003D01*
X162621520Y-101553797D01*
X162593582Y-101413342D01*
X162578739Y-101377507D01*
X166345100Y-101377507D01*
X166438608Y-101368297D01*
X166528523Y-101341022D01*
X166611389Y-101296729D01*
X166684021Y-101237121D01*
X166743629Y-101164489D01*
X166787922Y-101081623D01*
X166815197Y-100991708D01*
X166824407Y-100898200D01*
X166824407Y-98898200D01*
X166815197Y-98804692D01*
X166787922Y-98714777D01*
X166743629Y-98631911D01*
X166684021Y-98559279D01*
X166611389Y-98499671D01*
X166528523Y-98455378D01*
X166438608Y-98428103D01*
X166345100Y-98418893D01*
X163009600Y-98418893D01*
X163009600Y-97243736D01*
X163043337Y-97225703D01*
X163151959Y-97136559D01*
X163241103Y-97027937D01*
X163307343Y-96904010D01*
X163348134Y-96769542D01*
X163361907Y-96629700D01*
X163361907Y-96054700D01*
X163348134Y-95914858D01*
X163307343Y-95780390D01*
X163241103Y-95656463D01*
X163234903Y-95648908D01*
X163237094Y-95647737D01*
X163333785Y-95568385D01*
X163413137Y-95471694D01*
X163472102Y-95361380D01*
X163508412Y-95241682D01*
X163520672Y-95117200D01*
X163517600Y-94877950D01*
X163358850Y-94719200D01*
X162534600Y-94719200D01*
X162534600Y-94739200D01*
X162280600Y-94739200D01*
X162280600Y-94719200D01*
X161456350Y-94719200D01*
X161297600Y-94877950D01*
X161294528Y-95117200D01*
X161306788Y-95241682D01*
X161343098Y-95361380D01*
X161402063Y-95471694D01*
X161481415Y-95568385D01*
X161578106Y-95647737D01*
X161580297Y-95648908D01*
X161574097Y-95656463D01*
X161507857Y-95780390D01*
X161467066Y-95914858D01*
X161453293Y-96054700D01*
X161453293Y-96629700D01*
X161467066Y-96769542D01*
X161507857Y-96904010D01*
X161574097Y-97027937D01*
X161663241Y-97136559D01*
X161771863Y-97225703D01*
X161805600Y-97243736D01*
X161805600Y-98418893D01*
X158470100Y-98418893D01*
X158376592Y-98428103D01*
X158286677Y-98455378D01*
X158203811Y-98499671D01*
X158183600Y-98516258D01*
X158183600Y-97692556D01*
X158186511Y-97663000D01*
X158183600Y-97633443D01*
X158183600Y-97633434D01*
X158174889Y-97544988D01*
X158140466Y-97431510D01*
X158084566Y-97326929D01*
X158009337Y-97235263D01*
X157986372Y-97216416D01*
X154837156Y-94067200D01*
X161294528Y-94067200D01*
X161297600Y-94306450D01*
X161456350Y-94465200D01*
X162280600Y-94465200D01*
X162280600Y-93590950D01*
X162534600Y-93590950D01*
X162534600Y-94465200D01*
X163358850Y-94465200D01*
X163517600Y-94306450D01*
X163520672Y-94067200D01*
X163508412Y-93942718D01*
X163472102Y-93823020D01*
X163413137Y-93712706D01*
X163333785Y-93616015D01*
X163237094Y-93536663D01*
X163126780Y-93477698D01*
X163007082Y-93441388D01*
X162882600Y-93429128D01*
X162693350Y-93432200D01*
X162534600Y-93590950D01*
X162280600Y-93590950D01*
X162121850Y-93432200D01*
X161932600Y-93429128D01*
X161808118Y-93441388D01*
X161688420Y-93477698D01*
X161578106Y-93536663D01*
X161481415Y-93616015D01*
X161402063Y-93712706D01*
X161343098Y-93823020D01*
X161306788Y-93942718D01*
X161294528Y-94067200D01*
X154837156Y-94067200D01*
X152846589Y-92076634D01*
X152827737Y-92053663D01*
X152736071Y-91978434D01*
X152631490Y-91922534D01*
X152518012Y-91888111D01*
X152429566Y-91879400D01*
X152429556Y-91879400D01*
X152400000Y-91876489D01*
X152370444Y-91879400D01*
X150352427Y-91879400D01*
X150471064Y-91830259D01*
X150590136Y-91750698D01*
X150691398Y-91649436D01*
X150770959Y-91530364D01*
X150825762Y-91398058D01*
X150853700Y-91257603D01*
X150853700Y-91114397D01*
X150825762Y-90973942D01*
X150770959Y-90841636D01*
X150728700Y-90778391D01*
X150728700Y-90171209D01*
X150770959Y-90107964D01*
X150825762Y-89975658D01*
X150853700Y-89835203D01*
X150853700Y-89691997D01*
X150825762Y-89551542D01*
X150770959Y-89419236D01*
X150691398Y-89300164D01*
X150590136Y-89198902D01*
X150471064Y-89119341D01*
X150338758Y-89064538D01*
X150198303Y-89036600D01*
X150055097Y-89036600D01*
X149914642Y-89064538D01*
X149782336Y-89119341D01*
X149663264Y-89198902D01*
X149562002Y-89300164D01*
X149482441Y-89419236D01*
X149427638Y-89551542D01*
X149399700Y-89691997D01*
X149399700Y-89835203D01*
X149427638Y-89975658D01*
X149482441Y-90107964D01*
X149524700Y-90171210D01*
X149524701Y-90778390D01*
X149482441Y-90841636D01*
X149427638Y-90973942D01*
X149407374Y-91075818D01*
X148843945Y-90512389D01*
X148875298Y-90481036D01*
X148954859Y-90361964D01*
X149009662Y-90229658D01*
X149037600Y-90089203D01*
X149037600Y-89945997D01*
X149009662Y-89805542D01*
X148954859Y-89673236D01*
X148912600Y-89609991D01*
X148912600Y-88431309D01*
X148954859Y-88368064D01*
X149009662Y-88235758D01*
X149037600Y-88095303D01*
X149037600Y-87952097D01*
X149009662Y-87811642D01*
X148954859Y-87679336D01*
X148875298Y-87560264D01*
X148774036Y-87459002D01*
X148654964Y-87379441D01*
X148522658Y-87324638D01*
X148382203Y-87296700D01*
X148238997Y-87296700D01*
X148098542Y-87324638D01*
X147966236Y-87379441D01*
X147847164Y-87459002D01*
X147745902Y-87560264D01*
X147666341Y-87679336D01*
X147611538Y-87811642D01*
X147583600Y-87952097D01*
X147583600Y-88095303D01*
X147611538Y-88235758D01*
X147666341Y-88368064D01*
X147708600Y-88431310D01*
X147708601Y-89453244D01*
X146058601Y-87803246D01*
X146058601Y-86270957D01*
X146061512Y-86241401D01*
X146058601Y-86211844D01*
X146058601Y-86211835D01*
X146049890Y-86123389D01*
X146015467Y-86009911D01*
X145999681Y-85980378D01*
X145959567Y-85905329D01*
X145903185Y-85836629D01*
X145884338Y-85813664D01*
X145861373Y-85794817D01*
X141906989Y-81840434D01*
X141888137Y-81817463D01*
X141796471Y-81742234D01*
X141691890Y-81686334D01*
X141689707Y-81685672D01*
X141689707Y-81395200D01*
X141680497Y-81301692D01*
X141653222Y-81211777D01*
X141608929Y-81128911D01*
X141549321Y-81056279D01*
X141476689Y-80996671D01*
X141393823Y-80952378D01*
X141303908Y-80925103D01*
X141210400Y-80915893D01*
X139510400Y-80915893D01*
X139416892Y-80925103D01*
X139326977Y-80952378D01*
X139244111Y-80996671D01*
X139171479Y-81056279D01*
X139111871Y-81128911D01*
X139067578Y-81211777D01*
X139040303Y-81301692D01*
X139031093Y-81395200D01*
X139031093Y-83095200D01*
X139040303Y-83188708D01*
X139067578Y-83278623D01*
X139111871Y-83361489D01*
X139171479Y-83434121D01*
X139244111Y-83493729D01*
X139326977Y-83538022D01*
X139416892Y-83565297D01*
X139505845Y-83574058D01*
X139479045Y-83590022D01*
X139262812Y-83784931D01*
X139088759Y-84018280D01*
X138963575Y-84281101D01*
X138918924Y-84428310D01*
X139040244Y-84658198D01*
X138881200Y-84658198D01*
X138881200Y-80268734D01*
X143288738Y-75861197D01*
X143307884Y-75845484D01*
X143323600Y-75826335D01*
X143370616Y-75769046D01*
X143417230Y-75681837D01*
X143417231Y-75681836D01*
X143445936Y-75587209D01*
X143453200Y-75513453D01*
X143453200Y-75513444D01*
X143455627Y-75488801D01*
X143453200Y-75464158D01*
X143453200Y-70893599D01*
X147368200Y-70893599D01*
X147368200Y-71076201D01*
X147403824Y-71255296D01*
X147473704Y-71423999D01*
X147575152Y-71575828D01*
X147704272Y-71704948D01*
X147856101Y-71806396D01*
X148024804Y-71876276D01*
X148203899Y-71911900D01*
X148386501Y-71911900D01*
X148565596Y-71876276D01*
X148734299Y-71806396D01*
X148886128Y-71704948D01*
X149015248Y-71575828D01*
X149116696Y-71423999D01*
X149186576Y-71255296D01*
X149222200Y-71076201D01*
X149222200Y-70893599D01*
X151768200Y-70893599D01*
X151768200Y-71076201D01*
X151803824Y-71255296D01*
X151873704Y-71423999D01*
X151975152Y-71575828D01*
X152104272Y-71704948D01*
X152256101Y-71806396D01*
X152424804Y-71876276D01*
X152603899Y-71911900D01*
X152786501Y-71911900D01*
X152965596Y-71876276D01*
X153134299Y-71806396D01*
X153286128Y-71704948D01*
X153415248Y-71575828D01*
X153516696Y-71423999D01*
X153586576Y-71255296D01*
X153622200Y-71076201D01*
X153622200Y-70893599D01*
X153586576Y-70714504D01*
X153516696Y-70545801D01*
X153415248Y-70393972D01*
X153286128Y-70264852D01*
X153134299Y-70163404D01*
X152965596Y-70093524D01*
X152786501Y-70057900D01*
X152603899Y-70057900D01*
X152424804Y-70093524D01*
X152256101Y-70163404D01*
X152104272Y-70264852D01*
X151975152Y-70393972D01*
X151873704Y-70545801D01*
X151803824Y-70714504D01*
X151768200Y-70893599D01*
X149222200Y-70893599D01*
X149186576Y-70714504D01*
X149116696Y-70545801D01*
X149015248Y-70393972D01*
X148886128Y-70264852D01*
X148734299Y-70163404D01*
X148565596Y-70093524D01*
X148386501Y-70057900D01*
X148203899Y-70057900D01*
X148024804Y-70093524D01*
X147856101Y-70163404D01*
X147704272Y-70264852D01*
X147575152Y-70393972D01*
X147473704Y-70545801D01*
X147403824Y-70714504D01*
X147368200Y-70893599D01*
X143453200Y-70893599D01*
X143453200Y-68589400D01*
X158711628Y-68589400D01*
X158723888Y-68713882D01*
X158760198Y-68833580D01*
X158819163Y-68943894D01*
X158898515Y-69040585D01*
X158995206Y-69119937D01*
X159105520Y-69178902D01*
X159225218Y-69215212D01*
X159349700Y-69227472D01*
X159913950Y-69224400D01*
X160072700Y-69065650D01*
X160072700Y-67716400D01*
X158873450Y-67716400D01*
X158714700Y-67875150D01*
X158711628Y-68589400D01*
X143453200Y-68589400D01*
X143453200Y-67187734D01*
X144051534Y-66589400D01*
X158711628Y-66589400D01*
X158714700Y-67303650D01*
X158873450Y-67462400D01*
X160072700Y-67462400D01*
X160072700Y-66113150D01*
X160326700Y-66113150D01*
X160326700Y-67462400D01*
X160346700Y-67462400D01*
X160346700Y-67716400D01*
X160326700Y-67716400D01*
X160326700Y-69065650D01*
X160485450Y-69224400D01*
X161049700Y-69227472D01*
X161174182Y-69215212D01*
X161293880Y-69178902D01*
X161404194Y-69119937D01*
X161500885Y-69040585D01*
X161580237Y-68943894D01*
X161639202Y-68833580D01*
X161675512Y-68713882D01*
X161687005Y-68597187D01*
X161756831Y-68682270D01*
X161958893Y-68848098D01*
X162189423Y-68971319D01*
X162439564Y-69047199D01*
X162699700Y-69072820D01*
X162959837Y-69047199D01*
X163209978Y-68971319D01*
X163440508Y-68848098D01*
X163642570Y-68682270D01*
X163808398Y-68480207D01*
X163931619Y-68249677D01*
X164007499Y-67999536D01*
X164026700Y-67804583D01*
X164026700Y-67374216D01*
X164007499Y-67179263D01*
X163931619Y-66929122D01*
X163808398Y-66698592D01*
X163642570Y-66496530D01*
X163440507Y-66330702D01*
X163209977Y-66207481D01*
X162959836Y-66131601D01*
X162699700Y-66105980D01*
X162439563Y-66131601D01*
X162189422Y-66207481D01*
X161958892Y-66330702D01*
X161756830Y-66496530D01*
X161687005Y-66581612D01*
X161675512Y-66464918D01*
X161639202Y-66345220D01*
X161580237Y-66234906D01*
X161500885Y-66138215D01*
X161404194Y-66058863D01*
X161293880Y-65999898D01*
X161174182Y-65963588D01*
X161049700Y-65951328D01*
X160485450Y-65954400D01*
X160326700Y-66113150D01*
X160072700Y-66113150D01*
X159913950Y-65954400D01*
X159349700Y-65951328D01*
X159225218Y-65963588D01*
X159105520Y-65999898D01*
X158995206Y-66058863D01*
X158898515Y-66138215D01*
X158819163Y-66234906D01*
X158760198Y-66345220D01*
X158723888Y-66464918D01*
X158711628Y-66589400D01*
X144051534Y-66589400D01*
X145572135Y-65068800D01*
X164714266Y-65068800D01*
X166833200Y-67187735D01*
G36*
X153509564Y-103055388D02*
G01*
X153509569Y-103055392D01*
X155537000Y-105082824D01*
X155536999Y-106264987D01*
X155534201Y-106293397D01*
X155536999Y-106321807D01*
X155536999Y-106321816D01*
X155545371Y-106406821D01*
X155578456Y-106515888D01*
X155632183Y-106616404D01*
X155704488Y-106704508D01*
X155726567Y-106722628D01*
X156876980Y-107873042D01*
X156900834Y-107917669D01*
X156976063Y-108009335D01*
X157067729Y-108084564D01*
X157172310Y-108140464D01*
X157285788Y-108174887D01*
X157374234Y-108183598D01*
X158945043Y-108183598D01*
X159494200Y-108732756D01*
X159494201Y-109275443D01*
X157704381Y-111065264D01*
X157638298Y-110966364D01*
X157537036Y-110865102D01*
X157417964Y-110785541D01*
X157285658Y-110730738D01*
X157145203Y-110702800D01*
X157001997Y-110702800D01*
X156861542Y-110730738D01*
X156729236Y-110785541D01*
X156630970Y-110851200D01*
X156551264Y-110851200D01*
X154645801Y-108945738D01*
X154645801Y-106191210D01*
X154648599Y-106162800D01*
X154645801Y-106134390D01*
X154645801Y-106134381D01*
X154637429Y-106049376D01*
X154609862Y-105958500D01*
X154623964Y-105952659D01*
X154743036Y-105873098D01*
X154844298Y-105771836D01*
X154923859Y-105652764D01*
X154978662Y-105520458D01*
X155006600Y-105380003D01*
X155006600Y-105236797D01*
X154978662Y-105096342D01*
X154923859Y-104964036D01*
X154844298Y-104844964D01*
X154743036Y-104743702D01*
X154623964Y-104664141D01*
X154491658Y-104609338D01*
X154375746Y-104586282D01*
X153324040Y-103534577D01*
X153324040Y-103114510D01*
X153389699Y-103016244D01*
X153413342Y-102959166D01*
X153509564Y-103055388D01*
X153509564Y-103055388D01*
G37*
X153509564Y-103055388D02*
X153509569Y-103055392D01*
X155537000Y-105082824D01*
X155536999Y-106264987D01*
X155534201Y-106293397D01*
X155536999Y-106321807D01*
X155536999Y-106321816D01*
X155545371Y-106406821D01*
X155578456Y-106515888D01*
X155632183Y-106616404D01*
X155704488Y-106704508D01*
X155726567Y-106722628D01*
X156876980Y-107873042D01*
X156900834Y-107917669D01*
X156976063Y-108009335D01*
X157067729Y-108084564D01*
X157172310Y-108140464D01*
X157285788Y-108174887D01*
X157374234Y-108183598D01*
X158945043Y-108183598D01*
X159494200Y-108732756D01*
X159494201Y-109275443D01*
X157704381Y-111065264D01*
X157638298Y-110966364D01*
X157537036Y-110865102D01*
X157417964Y-110785541D01*
X157285658Y-110730738D01*
X157145203Y-110702800D01*
X157001997Y-110702800D01*
X156861542Y-110730738D01*
X156729236Y-110785541D01*
X156630970Y-110851200D01*
X156551264Y-110851200D01*
X154645801Y-108945738D01*
X154645801Y-106191210D01*
X154648599Y-106162800D01*
X154645801Y-106134390D01*
X154645801Y-106134381D01*
X154637429Y-106049376D01*
X154609862Y-105958500D01*
X154623964Y-105952659D01*
X154743036Y-105873098D01*
X154844298Y-105771836D01*
X154923859Y-105652764D01*
X154978662Y-105520458D01*
X155006600Y-105380003D01*
X155006600Y-105236797D01*
X154978662Y-105096342D01*
X154923859Y-104964036D01*
X154844298Y-104844964D01*
X154743036Y-104743702D01*
X154623964Y-104664141D01*
X154491658Y-104609338D01*
X154375746Y-104586282D01*
X153324040Y-103534577D01*
X153324040Y-103114510D01*
X153389699Y-103016244D01*
X153413342Y-102959166D01*
X153509564Y-103055388D01*
G36*
X144854602Y-86490758D02*
G01*
X144854601Y-87436400D01*
X144809997Y-87436400D01*
X144669542Y-87464338D01*
X144537236Y-87519141D01*
X144418164Y-87598702D01*
X144316902Y-87699964D01*
X144237341Y-87819036D01*
X144182538Y-87951342D01*
X144154600Y-88091797D01*
X144154600Y-88235003D01*
X144182538Y-88375458D01*
X144237341Y-88507764D01*
X144316902Y-88626836D01*
X144418164Y-88728098D01*
X144537236Y-88807659D01*
X144669542Y-88862462D01*
X144809997Y-88890400D01*
X144953203Y-88890400D01*
X145093658Y-88862462D01*
X145225964Y-88807659D01*
X145306495Y-88753850D01*
X147550021Y-90997378D01*
X147568864Y-91020338D01*
X147591824Y-91039181D01*
X147591828Y-91039185D01*
X147639368Y-91078200D01*
X147660530Y-91095567D01*
X147765111Y-91151467D01*
X147786931Y-91158086D01*
X148679512Y-92050668D01*
X148709232Y-92106270D01*
X148784461Y-92197937D01*
X148807432Y-92216789D01*
X149476813Y-92886171D01*
X149495661Y-92909137D01*
X149587327Y-92984366D01*
X149691908Y-93040266D01*
X149805386Y-93074689D01*
X149893832Y-93083400D01*
X149893841Y-93083400D01*
X149923398Y-93086311D01*
X149952954Y-93083400D01*
X152150645Y-93083400D01*
X156979601Y-97912357D01*
X156979600Y-99998590D01*
X156937341Y-100061836D01*
X156882538Y-100194142D01*
X156854600Y-100334597D01*
X156854600Y-100477803D01*
X156870644Y-100558460D01*
X155821351Y-99509168D01*
X155803231Y-99487089D01*
X155715128Y-99414784D01*
X155614612Y-99361057D01*
X155505545Y-99327972D01*
X155420540Y-99319600D01*
X155420530Y-99319600D01*
X155392120Y-99316802D01*
X155363710Y-99319600D01*
X154949407Y-99319600D01*
X154949407Y-98898200D01*
X154940197Y-98804692D01*
X154912922Y-98714777D01*
X154868629Y-98631911D01*
X154809021Y-98559279D01*
X154736389Y-98499671D01*
X154653523Y-98455378D01*
X154563608Y-98428103D01*
X154470100Y-98418893D01*
X151147800Y-98418893D01*
X151147800Y-97269136D01*
X151181537Y-97251103D01*
X151290159Y-97161959D01*
X151379303Y-97053337D01*
X151445543Y-96929410D01*
X151486334Y-96794942D01*
X151500107Y-96655100D01*
X151500107Y-96080100D01*
X151486334Y-95940258D01*
X151445543Y-95805790D01*
X151379303Y-95681863D01*
X151373103Y-95674308D01*
X151375294Y-95673137D01*
X151471985Y-95593785D01*
X151551337Y-95497094D01*
X151610302Y-95386780D01*
X151646612Y-95267082D01*
X151658872Y-95142600D01*
X151655800Y-94903350D01*
X151497050Y-94744600D01*
X150672800Y-94744600D01*
X150672800Y-94764600D01*
X150418800Y-94764600D01*
X150418800Y-94744600D01*
X149594550Y-94744600D01*
X149435800Y-94903350D01*
X149432728Y-95142600D01*
X149444988Y-95267082D01*
X149481298Y-95386780D01*
X149540263Y-95497094D01*
X149619615Y-95593785D01*
X149716306Y-95673137D01*
X149718497Y-95674308D01*
X149712297Y-95681863D01*
X149646057Y-95805790D01*
X149605266Y-95940258D01*
X149591493Y-96080100D01*
X149591493Y-96655100D01*
X149605266Y-96794942D01*
X149646057Y-96929410D01*
X149712297Y-97053337D01*
X149801441Y-97161959D01*
X149910063Y-97251103D01*
X149943800Y-97269136D01*
X149943801Y-98418893D01*
X146872099Y-98418893D01*
X146872099Y-94092600D01*
X149432728Y-94092600D01*
X149435800Y-94331850D01*
X149594550Y-94490600D01*
X150418800Y-94490600D01*
X150418800Y-93616350D01*
X150672800Y-93616350D01*
X150672800Y-94490600D01*
X151497050Y-94490600D01*
X151655800Y-94331850D01*
X151658872Y-94092600D01*
X151646612Y-93968118D01*
X151610302Y-93848420D01*
X151551337Y-93738106D01*
X151471985Y-93641415D01*
X151375294Y-93562063D01*
X151264980Y-93503098D01*
X151145282Y-93466788D01*
X151020800Y-93454528D01*
X150831550Y-93457600D01*
X150672800Y-93616350D01*
X150418800Y-93616350D01*
X150260050Y-93457600D01*
X150070800Y-93454528D01*
X149946318Y-93466788D01*
X149826620Y-93503098D01*
X149716306Y-93562063D01*
X149619615Y-93641415D01*
X149540263Y-93738106D01*
X149481298Y-93848420D01*
X149444988Y-93968118D01*
X149432728Y-94092600D01*
X146872099Y-94092600D01*
X146872099Y-93286708D01*
X146874897Y-93258298D01*
X146872099Y-93229888D01*
X146872099Y-93229879D01*
X146863727Y-93144874D01*
X146830642Y-93035807D01*
X146776915Y-92935291D01*
X146704610Y-92847188D01*
X146682538Y-92829074D01*
X141614807Y-87761344D01*
X141668199Y-87585337D01*
X141693820Y-87325200D01*
X141668199Y-87065063D01*
X141592319Y-86814922D01*
X141469098Y-86584392D01*
X141303270Y-86382330D01*
X141101208Y-86216502D01*
X140959505Y-86140760D01*
X140991652Y-86129357D01*
X141241755Y-85980378D01*
X141457988Y-85785469D01*
X141632041Y-85552120D01*
X141757225Y-85289299D01*
X141801876Y-85142090D01*
X141680555Y-84912200D01*
X140487400Y-84912200D01*
X140487400Y-84932200D01*
X140233400Y-84932200D01*
X140233400Y-84912200D01*
X140213400Y-84912200D01*
X140213400Y-84658200D01*
X140233400Y-84658200D01*
X140233400Y-84638200D01*
X140487400Y-84638200D01*
X140487400Y-84658200D01*
X141680555Y-84658200D01*
X141801876Y-84428310D01*
X141757225Y-84281101D01*
X141632041Y-84018280D01*
X141457988Y-83784931D01*
X141241755Y-83590022D01*
X141214955Y-83574058D01*
X141303908Y-83565297D01*
X141393823Y-83538022D01*
X141476689Y-83493729D01*
X141549321Y-83434121D01*
X141608929Y-83361489D01*
X141649476Y-83285631D01*
X144854602Y-86490758D01*
X144854602Y-86490758D01*
G37*
X144854602Y-86490758D02*
X144854601Y-87436400D01*
X144809997Y-87436400D01*
X144669542Y-87464338D01*
X144537236Y-87519141D01*
X144418164Y-87598702D01*
X144316902Y-87699964D01*
X144237341Y-87819036D01*
X144182538Y-87951342D01*
X144154600Y-88091797D01*
X144154600Y-88235003D01*
X144182538Y-88375458D01*
X144237341Y-88507764D01*
X144316902Y-88626836D01*
X144418164Y-88728098D01*
X144537236Y-88807659D01*
X144669542Y-88862462D01*
X144809997Y-88890400D01*
X144953203Y-88890400D01*
X145093658Y-88862462D01*
X145225964Y-88807659D01*
X145306495Y-88753850D01*
X147550021Y-90997378D01*
X147568864Y-91020338D01*
X147591824Y-91039181D01*
X147591828Y-91039185D01*
X147639368Y-91078200D01*
X147660530Y-91095567D01*
X147765111Y-91151467D01*
X147786931Y-91158086D01*
X148679512Y-92050668D01*
X148709232Y-92106270D01*
X148784461Y-92197937D01*
X148807432Y-92216789D01*
X149476813Y-92886171D01*
X149495661Y-92909137D01*
X149587327Y-92984366D01*
X149691908Y-93040266D01*
X149805386Y-93074689D01*
X149893832Y-93083400D01*
X149893841Y-93083400D01*
X149923398Y-93086311D01*
X149952954Y-93083400D01*
X152150645Y-93083400D01*
X156979601Y-97912357D01*
X156979600Y-99998590D01*
X156937341Y-100061836D01*
X156882538Y-100194142D01*
X156854600Y-100334597D01*
X156854600Y-100477803D01*
X156870644Y-100558460D01*
X155821351Y-99509168D01*
X155803231Y-99487089D01*
X155715128Y-99414784D01*
X155614612Y-99361057D01*
X155505545Y-99327972D01*
X155420540Y-99319600D01*
X155420530Y-99319600D01*
X155392120Y-99316802D01*
X155363710Y-99319600D01*
X154949407Y-99319600D01*
X154949407Y-98898200D01*
X154940197Y-98804692D01*
X154912922Y-98714777D01*
X154868629Y-98631911D01*
X154809021Y-98559279D01*
X154736389Y-98499671D01*
X154653523Y-98455378D01*
X154563608Y-98428103D01*
X154470100Y-98418893D01*
X151147800Y-98418893D01*
X151147800Y-97269136D01*
X151181537Y-97251103D01*
X151290159Y-97161959D01*
X151379303Y-97053337D01*
X151445543Y-96929410D01*
X151486334Y-96794942D01*
X151500107Y-96655100D01*
X151500107Y-96080100D01*
X151486334Y-95940258D01*
X151445543Y-95805790D01*
X151379303Y-95681863D01*
X151373103Y-95674308D01*
X151375294Y-95673137D01*
X151471985Y-95593785D01*
X151551337Y-95497094D01*
X151610302Y-95386780D01*
X151646612Y-95267082D01*
X151658872Y-95142600D01*
X151655800Y-94903350D01*
X151497050Y-94744600D01*
X150672800Y-94744600D01*
X150672800Y-94764600D01*
X150418800Y-94764600D01*
X150418800Y-94744600D01*
X149594550Y-94744600D01*
X149435800Y-94903350D01*
X149432728Y-95142600D01*
X149444988Y-95267082D01*
X149481298Y-95386780D01*
X149540263Y-95497094D01*
X149619615Y-95593785D01*
X149716306Y-95673137D01*
X149718497Y-95674308D01*
X149712297Y-95681863D01*
X149646057Y-95805790D01*
X149605266Y-95940258D01*
X149591493Y-96080100D01*
X149591493Y-96655100D01*
X149605266Y-96794942D01*
X149646057Y-96929410D01*
X149712297Y-97053337D01*
X149801441Y-97161959D01*
X149910063Y-97251103D01*
X149943800Y-97269136D01*
X149943801Y-98418893D01*
X146872099Y-98418893D01*
X146872099Y-94092600D01*
X149432728Y-94092600D01*
X149435800Y-94331850D01*
X149594550Y-94490600D01*
X150418800Y-94490600D01*
X150418800Y-93616350D01*
X150672800Y-93616350D01*
X150672800Y-94490600D01*
X151497050Y-94490600D01*
X151655800Y-94331850D01*
X151658872Y-94092600D01*
X151646612Y-93968118D01*
X151610302Y-93848420D01*
X151551337Y-93738106D01*
X151471985Y-93641415D01*
X151375294Y-93562063D01*
X151264980Y-93503098D01*
X151145282Y-93466788D01*
X151020800Y-93454528D01*
X150831550Y-93457600D01*
X150672800Y-93616350D01*
X150418800Y-93616350D01*
X150260050Y-93457600D01*
X150070800Y-93454528D01*
X149946318Y-93466788D01*
X149826620Y-93503098D01*
X149716306Y-93562063D01*
X149619615Y-93641415D01*
X149540263Y-93738106D01*
X149481298Y-93848420D01*
X149444988Y-93968118D01*
X149432728Y-94092600D01*
X146872099Y-94092600D01*
X146872099Y-93286708D01*
X146874897Y-93258298D01*
X146872099Y-93229888D01*
X146872099Y-93229879D01*
X146863727Y-93144874D01*
X146830642Y-93035807D01*
X146776915Y-92935291D01*
X146704610Y-92847188D01*
X146682538Y-92829074D01*
X141614807Y-87761344D01*
X141668199Y-87585337D01*
X141693820Y-87325200D01*
X141668199Y-87065063D01*
X141592319Y-86814922D01*
X141469098Y-86584392D01*
X141303270Y-86382330D01*
X141101208Y-86216502D01*
X140959505Y-86140760D01*
X140991652Y-86129357D01*
X141241755Y-85980378D01*
X141457988Y-85785469D01*
X141632041Y-85552120D01*
X141757225Y-85289299D01*
X141801876Y-85142090D01*
X141680555Y-84912200D01*
X140487400Y-84912200D01*
X140487400Y-84932200D01*
X140233400Y-84932200D01*
X140233400Y-84912200D01*
X140213400Y-84912200D01*
X140213400Y-84658200D01*
X140233400Y-84658200D01*
X140233400Y-84638200D01*
X140487400Y-84638200D01*
X140487400Y-84658200D01*
X141680555Y-84658200D01*
X141801876Y-84428310D01*
X141757225Y-84281101D01*
X141632041Y-84018280D01*
X141457988Y-83784931D01*
X141241755Y-83590022D01*
X141214955Y-83574058D01*
X141303908Y-83565297D01*
X141393823Y-83538022D01*
X141476689Y-83493729D01*
X141549321Y-83434121D01*
X141608929Y-83361489D01*
X141649476Y-83285631D01*
X144854602Y-86490758D01*
M02*
