G04 #@! TF.GenerationSoftware,KiCad,Pcbnew,(5.1.4)-1*
G04 #@! TF.CreationDate,2020-03-25T13:11:36-05:00*
G04 #@! TF.ProjectId,ExOneMicrorocessor,45784f6e-654d-4696-9372-6f726f636573,rev?*
G04 #@! TF.SameCoordinates,Original*
G04 #@! TF.FileFunction,Legend,Top*
G04 #@! TF.FilePolarity,Positive*
%FSLAX46Y46*%
G04 Gerber Fmt 4.6, Leading zero omitted, Abs format (unit mm)*
G04 Created by KiCad (PCBNEW (5.1.4)-1) date 2020-03-25 13:11:36*
%MOMM*%
%LPD*%
G04 APERTURE LIST*
%ADD10C,0.150000*%
%ADD11C,0.120000*%
%ADD12C,0.200000*%
%ADD13C,0.100000*%
%ADD14C,0.160000*%
%ADD15C,0.127000*%
%ADD16C,0.152400*%
%ADD17C,0.015000*%
G04 APERTURE END LIST*
D10*
X165868504Y-100452180D02*
X165868504Y-99452180D01*
X166249457Y-99452180D01*
X166344695Y-99499800D01*
X166392314Y-99547419D01*
X166439933Y-99642657D01*
X166439933Y-99785514D01*
X166392314Y-99880752D01*
X166344695Y-99928371D01*
X166249457Y-99975990D01*
X165868504Y-99975990D01*
X167201838Y-99928371D02*
X167344695Y-99975990D01*
X167392314Y-100023609D01*
X167439933Y-100118847D01*
X167439933Y-100261704D01*
X167392314Y-100356942D01*
X167344695Y-100404561D01*
X167249457Y-100452180D01*
X166868504Y-100452180D01*
X166868504Y-99452180D01*
X167201838Y-99452180D01*
X167297076Y-99499800D01*
X167344695Y-99547419D01*
X167392314Y-99642657D01*
X167392314Y-99737895D01*
X167344695Y-99833133D01*
X167297076Y-99880752D01*
X167201838Y-99928371D01*
X166868504Y-99928371D01*
X167773266Y-99452180D02*
X168392314Y-99452180D01*
X168058980Y-99833133D01*
X168201838Y-99833133D01*
X168297076Y-99880752D01*
X168344695Y-99928371D01*
X168392314Y-100023609D01*
X168392314Y-100261704D01*
X168344695Y-100356942D01*
X168297076Y-100404561D01*
X168201838Y-100452180D01*
X167916123Y-100452180D01*
X167820885Y-100404561D01*
X167773266Y-100356942D01*
X165893904Y-98013780D02*
X165893904Y-97013780D01*
X166274857Y-97013780D01*
X166370095Y-97061400D01*
X166417714Y-97109019D01*
X166465333Y-97204257D01*
X166465333Y-97347114D01*
X166417714Y-97442352D01*
X166370095Y-97489971D01*
X166274857Y-97537590D01*
X165893904Y-97537590D01*
X167227238Y-97489971D02*
X167370095Y-97537590D01*
X167417714Y-97585209D01*
X167465333Y-97680447D01*
X167465333Y-97823304D01*
X167417714Y-97918542D01*
X167370095Y-97966161D01*
X167274857Y-98013780D01*
X166893904Y-98013780D01*
X166893904Y-97013780D01*
X167227238Y-97013780D01*
X167322476Y-97061400D01*
X167370095Y-97109019D01*
X167417714Y-97204257D01*
X167417714Y-97299495D01*
X167370095Y-97394733D01*
X167322476Y-97442352D01*
X167227238Y-97489971D01*
X166893904Y-97489971D01*
X168322476Y-97347114D02*
X168322476Y-98013780D01*
X168084380Y-96966161D02*
X167846285Y-97680447D01*
X168465333Y-97680447D01*
D11*
X148065800Y-123612600D02*
X148065800Y-124942600D01*
X146735800Y-123612600D02*
X148065800Y-123612600D01*
X145465800Y-123612600D02*
X145465800Y-126272600D01*
X145465800Y-126272600D02*
X142865800Y-126272600D01*
X145465800Y-123612600D02*
X142865800Y-123612600D01*
X142865800Y-123612600D02*
X142865800Y-126272600D01*
D12*
X151026800Y-115512200D02*
G75*
G02X151026800Y-115612200I0J-50000D01*
G01*
X151026800Y-115612200D02*
G75*
G02X151026800Y-115512200I0J50000D01*
G01*
X151026800Y-115512200D02*
G75*
G02X151026800Y-115612200I0J-50000D01*
G01*
X151026800Y-115612200D02*
X151026800Y-115612200D01*
X151026800Y-115512200D02*
X151026800Y-115512200D01*
X151026800Y-115612200D02*
X151026800Y-115612200D01*
D13*
X152776800Y-113362200D02*
X149076800Y-113362200D01*
X152776800Y-107262200D02*
X152776800Y-113362200D01*
X149076800Y-107262200D02*
X152776800Y-107262200D01*
X149076800Y-113362200D02*
X149076800Y-107262200D01*
D14*
X153075200Y-74894900D02*
G75*
G03X153075200Y-74894900I-80000J0D01*
G01*
D15*
X146635200Y-65044900D02*
X146635200Y-66514900D01*
X154355200Y-65044900D02*
X146635200Y-65044900D01*
X154355200Y-66514900D02*
X154355200Y-65044900D01*
X148395200Y-74244900D02*
X147285200Y-74244900D01*
X153705200Y-74244900D02*
X152595200Y-74244900D01*
X146635200Y-69514900D02*
X146635200Y-71994900D01*
X154355200Y-69514900D02*
X154355200Y-71994900D01*
X163503960Y-107905200D02*
X163163960Y-107905200D01*
X156403960Y-107905200D02*
X156743960Y-107905200D01*
X163503960Y-115005200D02*
X163163960Y-115005200D01*
X156403960Y-115005200D02*
X156743960Y-115005200D01*
X163503960Y-107905200D02*
X163503960Y-108245200D01*
X156403960Y-107905200D02*
X156403960Y-108245200D01*
X163503960Y-115005200D02*
X163503960Y-114665200D01*
X156403960Y-115005200D02*
X156403960Y-114665200D01*
D12*
X162803960Y-105595200D02*
G75*
G03X162803960Y-105595200I-100000J0D01*
G01*
D11*
X161214440Y-102960200D02*
X162564440Y-102960200D01*
X161214440Y-104710200D02*
X162564440Y-104710200D01*
D13*
X164185600Y-84404200D02*
G75*
G02X164185600Y-83794600I0J304800D01*
G01*
D16*
X164185600Y-83794600D02*
X164185600Y-82727800D01*
X164185600Y-84404200D02*
X164185600Y-83794600D01*
X164185600Y-85471000D02*
X164185600Y-84404200D01*
X159207200Y-82727800D02*
X159207200Y-85471000D01*
D11*
X161765133Y-91276900D02*
X162107667Y-91276900D01*
X161765133Y-90256900D02*
X162107667Y-90256900D01*
X156484533Y-102643400D02*
X156827067Y-102643400D01*
X156484533Y-101623400D02*
X156827067Y-101623400D01*
X147042600Y-104666867D02*
X147042600Y-104324333D01*
X146022600Y-104666867D02*
X146022600Y-104324333D01*
X149443653Y-122836400D02*
X149786187Y-122836400D01*
X149443653Y-121816400D02*
X149786187Y-121816400D01*
X160266533Y-122922760D02*
X160609067Y-122922760D01*
X160266533Y-121902760D02*
X160609067Y-121902760D01*
X149747700Y-83165767D02*
X149747700Y-82823233D01*
X148727700Y-83165767D02*
X148727700Y-82823233D01*
X148185600Y-83164467D02*
X148185600Y-82821933D01*
X147165600Y-83164467D02*
X147165600Y-82821933D01*
X157654300Y-126285300D02*
X156324300Y-126285300D01*
X157654300Y-124955300D02*
X157654300Y-126285300D01*
X155054300Y-126285300D02*
X152454300Y-126285300D01*
X155054300Y-123685300D02*
X155054300Y-126285300D01*
X157654300Y-123685300D02*
X155054300Y-123685300D01*
X152454300Y-126285300D02*
X152454300Y-118545300D01*
X157654300Y-123685300D02*
X157654300Y-118545300D01*
X157654300Y-118545300D02*
X152454300Y-118545300D01*
X157289700Y-70199400D02*
X159789700Y-70199400D01*
X157289700Y-67699400D02*
X157289700Y-70199400D01*
X164309700Y-68399400D02*
X164309700Y-69899400D01*
X165309700Y-68399400D02*
X164309700Y-68399400D01*
X158589700Y-68399400D02*
X158589700Y-69899400D01*
X157589700Y-68399400D02*
X158589700Y-68399400D01*
X164809700Y-67589400D02*
X165309700Y-67589400D01*
X164809700Y-66379400D02*
X164809700Y-67589400D01*
X158089700Y-66379400D02*
X164809700Y-66379400D01*
X158089700Y-67589400D02*
X158089700Y-66379400D01*
X157589700Y-67589400D02*
X158089700Y-67589400D01*
X165309700Y-65879400D02*
X157589700Y-65879400D01*
X165309700Y-69899400D02*
X165309700Y-65879400D01*
X157589700Y-69899400D02*
X165309700Y-69899400D01*
X157589700Y-65879400D02*
X157589700Y-69899400D01*
D12*
X145699200Y-86186200D02*
X147224200Y-86186200D01*
X147574200Y-91427200D02*
X147574200Y-86525200D01*
X150774200Y-91427200D02*
X147574200Y-91427200D01*
X150774200Y-86525200D02*
X150774200Y-91427200D01*
X147574200Y-86525200D02*
X150774200Y-86525200D01*
D11*
X163914500Y-75898764D02*
X163914500Y-74694636D01*
X162094500Y-75898764D02*
X162094500Y-74694636D01*
X163604500Y-72526400D02*
X159704500Y-72526400D01*
X163604500Y-70526400D02*
X159704500Y-70526400D01*
X163604500Y-72526400D02*
X163604500Y-70526400D01*
X160051933Y-94756700D02*
X160394467Y-94756700D01*
X160051933Y-93736700D02*
X160394467Y-93736700D01*
X160040533Y-93143800D02*
X160383067Y-93143800D01*
X160040533Y-92123800D02*
X160383067Y-92123800D01*
X160013833Y-89498900D02*
X160356367Y-89498900D01*
X160013833Y-88478900D02*
X160356367Y-88478900D01*
X161970933Y-79110300D02*
X162313467Y-79110300D01*
X161970933Y-78090300D02*
X162313467Y-78090300D01*
X156484533Y-104319800D02*
X156827067Y-104319800D01*
X156484533Y-103299800D02*
X156827067Y-103299800D01*
X155382500Y-87623833D02*
X155382500Y-87966367D01*
X156402500Y-87623833D02*
X156402500Y-87966367D01*
X154713400Y-87965067D02*
X154713400Y-87622533D01*
X153693400Y-87965067D02*
X153693400Y-87622533D01*
X153693400Y-91064233D02*
X153693400Y-91406767D01*
X154713400Y-91064233D02*
X154713400Y-91406767D01*
X149992233Y-80824800D02*
X150334767Y-80824800D01*
X149992233Y-79804800D02*
X150334767Y-79804800D01*
X146931167Y-79804800D02*
X146588633Y-79804800D01*
X146931167Y-80824800D02*
X146588633Y-80824800D01*
X152382433Y-77560900D02*
X152724967Y-77560900D01*
X152382433Y-76540900D02*
X152724967Y-76540900D01*
X160129760Y-100563893D02*
X160129760Y-100906427D01*
X161149760Y-100563893D02*
X161149760Y-100906427D01*
X162629120Y-100558813D02*
X162629120Y-100901347D01*
X163649120Y-100558813D02*
X163649120Y-100901347D01*
X158252373Y-96654080D02*
X158594907Y-96654080D01*
X158252373Y-95634080D02*
X158594907Y-95634080D01*
X158247293Y-98366040D02*
X158589827Y-98366040D01*
X158247293Y-97346040D02*
X158589827Y-97346040D01*
X162069627Y-95644240D02*
X161727093Y-95644240D01*
X162069627Y-96664240D02*
X161727093Y-96664240D01*
X162072107Y-97340960D02*
X161729573Y-97340960D01*
X162072107Y-98360960D02*
X161729573Y-98360960D01*
D10*
X148518180Y-125275933D02*
X149232466Y-125275933D01*
X149375323Y-125323552D01*
X149470561Y-125418790D01*
X149518180Y-125561647D01*
X149518180Y-125656885D01*
X148518180Y-124371171D02*
X148518180Y-124561647D01*
X148565800Y-124656885D01*
X148613419Y-124704504D01*
X148756276Y-124799742D01*
X148946752Y-124847361D01*
X149327704Y-124847361D01*
X149422942Y-124799742D01*
X149470561Y-124752123D01*
X149518180Y-124656885D01*
X149518180Y-124466409D01*
X149470561Y-124371171D01*
X149422942Y-124323552D01*
X149327704Y-124275933D01*
X149089609Y-124275933D01*
X148994371Y-124323552D01*
X148946752Y-124371171D01*
X148899133Y-124466409D01*
X148899133Y-124656885D01*
X148946752Y-124752123D01*
X148994371Y-124799742D01*
X149089609Y-124847361D01*
X153922361Y-111594733D02*
X153969980Y-111451876D01*
X153969980Y-111213780D01*
X153922361Y-111118542D01*
X153874742Y-111070923D01*
X153779504Y-111023304D01*
X153684266Y-111023304D01*
X153589028Y-111070923D01*
X153541409Y-111118542D01*
X153493790Y-111213780D01*
X153446171Y-111404257D01*
X153398552Y-111499495D01*
X153350933Y-111547114D01*
X153255695Y-111594733D01*
X153160457Y-111594733D01*
X153065219Y-111547114D01*
X153017600Y-111499495D01*
X152969980Y-111404257D01*
X152969980Y-111166161D01*
X153017600Y-111023304D01*
X152969980Y-110689971D02*
X153969980Y-110451876D01*
X153255695Y-110261400D01*
X153969980Y-110070923D01*
X152969980Y-109832828D01*
X153969980Y-108928066D02*
X153969980Y-109499495D01*
X153969980Y-109213780D02*
X152969980Y-109213780D01*
X153112838Y-109309019D01*
X153208076Y-109404257D01*
X153255695Y-109499495D01*
X145526135Y-75499929D02*
X145526135Y-76214282D01*
X145478511Y-76357152D01*
X145383264Y-76452399D01*
X145240394Y-76500023D01*
X145145147Y-76500023D01*
X146526229Y-76500023D02*
X145954747Y-76500023D01*
X146240488Y-76500023D02*
X146240488Y-75499929D01*
X146145241Y-75642800D01*
X146049994Y-75738047D01*
X145954747Y-75785670D01*
D17*
X166364883Y-109031961D02*
X165724883Y-109031961D01*
X166303931Y-108361485D02*
X166334407Y-108391961D01*
X166364883Y-108483390D01*
X166364883Y-108544342D01*
X166334407Y-108635771D01*
X166273455Y-108696723D01*
X166212502Y-108727200D01*
X166090598Y-108757676D01*
X165999169Y-108757676D01*
X165877264Y-108727200D01*
X165816312Y-108696723D01*
X165755360Y-108635771D01*
X165724883Y-108544342D01*
X165724883Y-108483390D01*
X165755360Y-108391961D01*
X165785836Y-108361485D01*
X166364883Y-107751961D02*
X166364883Y-108117676D01*
X166364883Y-107934819D02*
X165724883Y-107934819D01*
X165816312Y-107995771D01*
X165877264Y-108056723D01*
X165907740Y-108117676D01*
D10*
X164395209Y-103938390D02*
X164395209Y-104414580D01*
X164061876Y-103414580D02*
X164395209Y-103938390D01*
X164728542Y-103414580D01*
X165585685Y-104414580D02*
X165014257Y-104414580D01*
X165299971Y-104414580D02*
X165299971Y-103414580D01*
X165204733Y-103557438D01*
X165109495Y-103652676D01*
X165014257Y-103700295D01*
X165580595Y-85396169D02*
X166390119Y-85396169D01*
X166485357Y-85348550D01*
X166532976Y-85300931D01*
X166580595Y-85205693D01*
X166580595Y-85015217D01*
X166532976Y-84919979D01*
X166485357Y-84872360D01*
X166390119Y-84824741D01*
X165580595Y-84824741D01*
X166580595Y-83824741D02*
X166580595Y-84396169D01*
X166580595Y-84110455D02*
X165580595Y-84110455D01*
X165723453Y-84205693D01*
X165818691Y-84300931D01*
X165866310Y-84396169D01*
X164438033Y-91168480D02*
X164104700Y-90692290D01*
X163866604Y-91168480D02*
X163866604Y-90168480D01*
X164247557Y-90168480D01*
X164342795Y-90216100D01*
X164390414Y-90263719D01*
X164438033Y-90358957D01*
X164438033Y-90501814D01*
X164390414Y-90597052D01*
X164342795Y-90644671D01*
X164247557Y-90692290D01*
X163866604Y-90692290D01*
X164771366Y-90168480D02*
X165438033Y-90168480D01*
X165009461Y-91168480D01*
X155789333Y-100934780D02*
X155456000Y-100458590D01*
X155217904Y-100934780D02*
X155217904Y-99934780D01*
X155598857Y-99934780D01*
X155694095Y-99982400D01*
X155741714Y-100030019D01*
X155789333Y-100125257D01*
X155789333Y-100268114D01*
X155741714Y-100363352D01*
X155694095Y-100410971D01*
X155598857Y-100458590D01*
X155217904Y-100458590D01*
X156646476Y-99934780D02*
X156456000Y-99934780D01*
X156360761Y-99982400D01*
X156313142Y-100030019D01*
X156217904Y-100172876D01*
X156170285Y-100363352D01*
X156170285Y-100744304D01*
X156217904Y-100839542D01*
X156265523Y-100887161D01*
X156360761Y-100934780D01*
X156551238Y-100934780D01*
X156646476Y-100887161D01*
X156694095Y-100839542D01*
X156741714Y-100744304D01*
X156741714Y-100506209D01*
X156694095Y-100410971D01*
X156646476Y-100363352D01*
X156551238Y-100315733D01*
X156360761Y-100315733D01*
X156265523Y-100363352D01*
X156217904Y-100410971D01*
X156170285Y-100506209D01*
X145554980Y-104662266D02*
X145078790Y-104995600D01*
X145554980Y-105233695D02*
X144554980Y-105233695D01*
X144554980Y-104852742D01*
X144602600Y-104757504D01*
X144650219Y-104709885D01*
X144745457Y-104662266D01*
X144888314Y-104662266D01*
X144983552Y-104709885D01*
X145031171Y-104757504D01*
X145078790Y-104852742D01*
X145078790Y-105233695D01*
X144554980Y-103757504D02*
X144554980Y-104233695D01*
X145031171Y-104281314D01*
X144983552Y-104233695D01*
X144935933Y-104138457D01*
X144935933Y-103900361D01*
X144983552Y-103805123D01*
X145031171Y-103757504D01*
X145126409Y-103709885D01*
X145364504Y-103709885D01*
X145459742Y-103757504D01*
X145507361Y-103805123D01*
X145554980Y-103900361D01*
X145554980Y-104138457D01*
X145507361Y-104233695D01*
X145459742Y-104281314D01*
X149448253Y-121348780D02*
X149114920Y-120872590D01*
X148876824Y-121348780D02*
X148876824Y-120348780D01*
X149257777Y-120348780D01*
X149353015Y-120396400D01*
X149400634Y-120444019D01*
X149448253Y-120539257D01*
X149448253Y-120682114D01*
X149400634Y-120777352D01*
X149353015Y-120824971D01*
X149257777Y-120872590D01*
X148876824Y-120872590D01*
X150305396Y-120682114D02*
X150305396Y-121348780D01*
X150067300Y-120301161D02*
X149829205Y-121015447D01*
X150448253Y-121015447D01*
X160271133Y-121435140D02*
X159937800Y-120958950D01*
X159699704Y-121435140D02*
X159699704Y-120435140D01*
X160080657Y-120435140D01*
X160175895Y-120482760D01*
X160223514Y-120530379D01*
X160271133Y-120625617D01*
X160271133Y-120768474D01*
X160223514Y-120863712D01*
X160175895Y-120911331D01*
X160080657Y-120958950D01*
X159699704Y-120958950D01*
X160604466Y-120435140D02*
X161223514Y-120435140D01*
X160890180Y-120816093D01*
X161033038Y-120816093D01*
X161128276Y-120863712D01*
X161175895Y-120911331D01*
X161223514Y-121006569D01*
X161223514Y-121244664D01*
X161175895Y-121339902D01*
X161128276Y-121387521D01*
X161033038Y-121435140D01*
X160747323Y-121435140D01*
X160652085Y-121387521D01*
X160604466Y-121339902D01*
X151163280Y-83161166D02*
X150687090Y-83494500D01*
X151163280Y-83732595D02*
X150163280Y-83732595D01*
X150163280Y-83351642D01*
X150210900Y-83256404D01*
X150258519Y-83208785D01*
X150353757Y-83161166D01*
X150496614Y-83161166D01*
X150591852Y-83208785D01*
X150639471Y-83256404D01*
X150687090Y-83351642D01*
X150687090Y-83732595D01*
X150258519Y-82780214D02*
X150210900Y-82732595D01*
X150163280Y-82637357D01*
X150163280Y-82399261D01*
X150210900Y-82304023D01*
X150258519Y-82256404D01*
X150353757Y-82208785D01*
X150448995Y-82208785D01*
X150591852Y-82256404D01*
X151163280Y-82827833D01*
X151163280Y-82208785D01*
X146697980Y-83159866D02*
X146221790Y-83493200D01*
X146697980Y-83731295D02*
X145697980Y-83731295D01*
X145697980Y-83350342D01*
X145745600Y-83255104D01*
X145793219Y-83207485D01*
X145888457Y-83159866D01*
X146031314Y-83159866D01*
X146126552Y-83207485D01*
X146174171Y-83255104D01*
X146221790Y-83350342D01*
X146221790Y-83731295D01*
X146697980Y-82207485D02*
X146697980Y-82778914D01*
X146697980Y-82493200D02*
X145697980Y-82493200D01*
X145840838Y-82588438D01*
X145936076Y-82683676D01*
X145983695Y-82778914D01*
X154555866Y-116825780D02*
X154555866Y-117540066D01*
X154508247Y-117682923D01*
X154413009Y-117778161D01*
X154270152Y-117825780D01*
X154174914Y-117825780D01*
X154936819Y-116825780D02*
X155555866Y-116825780D01*
X155222533Y-117206733D01*
X155365390Y-117206733D01*
X155460628Y-117254352D01*
X155508247Y-117301971D01*
X155555866Y-117397209D01*
X155555866Y-117635304D01*
X155508247Y-117730542D01*
X155460628Y-117778161D01*
X155365390Y-117825780D01*
X155079676Y-117825780D01*
X154984438Y-117778161D01*
X154936819Y-117730542D01*
X155952866Y-65136780D02*
X155952866Y-65851066D01*
X155905247Y-65993923D01*
X155810009Y-66089161D01*
X155667152Y-66136780D01*
X155571914Y-66136780D01*
X156381438Y-65232019D02*
X156429057Y-65184400D01*
X156524295Y-65136780D01*
X156762390Y-65136780D01*
X156857628Y-65184400D01*
X156905247Y-65232019D01*
X156952866Y-65327257D01*
X156952866Y-65422495D01*
X156905247Y-65565352D01*
X156333819Y-66136780D01*
X156952866Y-66136780D01*
X148238649Y-85938620D02*
X148238649Y-84938620D01*
X149286268Y-85843382D02*
X149238649Y-85891001D01*
X149095792Y-85938620D01*
X149000554Y-85938620D01*
X148857697Y-85891001D01*
X148762459Y-85795763D01*
X148714840Y-85700525D01*
X148667220Y-85510049D01*
X148667220Y-85367192D01*
X148714840Y-85176716D01*
X148762459Y-85081478D01*
X148857697Y-84986240D01*
X149000554Y-84938620D01*
X149095792Y-84938620D01*
X149238649Y-84986240D01*
X149286268Y-85033859D01*
X149667220Y-85033859D02*
X149714840Y-84986240D01*
X149810078Y-84938620D01*
X150048173Y-84938620D01*
X150143411Y-84986240D01*
X150191030Y-85033859D01*
X150238649Y-85129097D01*
X150238649Y-85224335D01*
X150191030Y-85367192D01*
X149619601Y-85938620D01*
X150238649Y-85938620D01*
X164830166Y-73432971D02*
X164496833Y-73432971D01*
X164496833Y-73956780D02*
X164496833Y-72956780D01*
X164973023Y-72956780D01*
X165877785Y-73956780D02*
X165306357Y-73956780D01*
X165592071Y-73956780D02*
X165592071Y-72956780D01*
X165496833Y-73099638D01*
X165401595Y-73194876D01*
X165306357Y-73242495D01*
X157034004Y-72029580D02*
X157034004Y-71029580D01*
X157272100Y-71029580D01*
X157414957Y-71077200D01*
X157510195Y-71172438D01*
X157557814Y-71267676D01*
X157605433Y-71458152D01*
X157605433Y-71601009D01*
X157557814Y-71791485D01*
X157510195Y-71886723D01*
X157414957Y-71981961D01*
X157272100Y-72029580D01*
X157034004Y-72029580D01*
X158557814Y-72029580D02*
X157986385Y-72029580D01*
X158272100Y-72029580D02*
X158272100Y-71029580D01*
X158176861Y-71172438D01*
X158081623Y-71267676D01*
X157986385Y-71315295D01*
X162793442Y-94756242D02*
X162745823Y-94803861D01*
X162602966Y-94851480D01*
X162507728Y-94851480D01*
X162364871Y-94803861D01*
X162269633Y-94708623D01*
X162222014Y-94613385D01*
X162174395Y-94422909D01*
X162174395Y-94280052D01*
X162222014Y-94089576D01*
X162269633Y-93994338D01*
X162364871Y-93899100D01*
X162507728Y-93851480D01*
X162602966Y-93851480D01*
X162745823Y-93899100D01*
X162793442Y-93946719D01*
X163745823Y-94851480D02*
X163174395Y-94851480D01*
X163460109Y-94851480D02*
X163460109Y-93851480D01*
X163364871Y-93994338D01*
X163269633Y-94089576D01*
X163174395Y-94137195D01*
X164222014Y-94851480D02*
X164412490Y-94851480D01*
X164507728Y-94803861D01*
X164555347Y-94756242D01*
X164650585Y-94613385D01*
X164698204Y-94422909D01*
X164698204Y-94041957D01*
X164650585Y-93946719D01*
X164602966Y-93899100D01*
X164507728Y-93851480D01*
X164317252Y-93851480D01*
X164222014Y-93899100D01*
X164174395Y-93946719D01*
X164126776Y-94041957D01*
X164126776Y-94280052D01*
X164174395Y-94375290D01*
X164222014Y-94422909D01*
X164317252Y-94470528D01*
X164507728Y-94470528D01*
X164602966Y-94422909D01*
X164650585Y-94375290D01*
X164698204Y-94280052D01*
X164380942Y-92965542D02*
X164333323Y-93013161D01*
X164190466Y-93060780D01*
X164095228Y-93060780D01*
X163952371Y-93013161D01*
X163857133Y-92917923D01*
X163809514Y-92822685D01*
X163761895Y-92632209D01*
X163761895Y-92489352D01*
X163809514Y-92298876D01*
X163857133Y-92203638D01*
X163952371Y-92108400D01*
X164095228Y-92060780D01*
X164190466Y-92060780D01*
X164333323Y-92108400D01*
X164380942Y-92156019D01*
X165333323Y-93060780D02*
X164761895Y-93060780D01*
X165047609Y-93060780D02*
X165047609Y-92060780D01*
X164952371Y-92203638D01*
X164857133Y-92298876D01*
X164761895Y-92346495D01*
X165904752Y-92489352D02*
X165809514Y-92441733D01*
X165761895Y-92394114D01*
X165714276Y-92298876D01*
X165714276Y-92251257D01*
X165761895Y-92156019D01*
X165809514Y-92108400D01*
X165904752Y-92060780D01*
X166095228Y-92060780D01*
X166190466Y-92108400D01*
X166238085Y-92156019D01*
X166285704Y-92251257D01*
X166285704Y-92298876D01*
X166238085Y-92394114D01*
X166190466Y-92441733D01*
X166095228Y-92489352D01*
X165904752Y-92489352D01*
X165809514Y-92536971D01*
X165761895Y-92584590D01*
X165714276Y-92679828D01*
X165714276Y-92870304D01*
X165761895Y-92965542D01*
X165809514Y-93013161D01*
X165904752Y-93060780D01*
X166095228Y-93060780D01*
X166190466Y-93013161D01*
X166238085Y-92965542D01*
X166285704Y-92870304D01*
X166285704Y-92679828D01*
X166238085Y-92584590D01*
X166190466Y-92536971D01*
X166095228Y-92489352D01*
X162882342Y-89282542D02*
X162834723Y-89330161D01*
X162691866Y-89377780D01*
X162596628Y-89377780D01*
X162453771Y-89330161D01*
X162358533Y-89234923D01*
X162310914Y-89139685D01*
X162263295Y-88949209D01*
X162263295Y-88806352D01*
X162310914Y-88615876D01*
X162358533Y-88520638D01*
X162453771Y-88425400D01*
X162596628Y-88377780D01*
X162691866Y-88377780D01*
X162834723Y-88425400D01*
X162882342Y-88473019D01*
X163834723Y-89377780D02*
X163263295Y-89377780D01*
X163549009Y-89377780D02*
X163549009Y-88377780D01*
X163453771Y-88520638D01*
X163358533Y-88615876D01*
X163263295Y-88663495D01*
X164168057Y-88377780D02*
X164834723Y-88377780D01*
X164406152Y-89377780D01*
X157853142Y-78919342D02*
X157805523Y-78966961D01*
X157662666Y-79014580D01*
X157567428Y-79014580D01*
X157424571Y-78966961D01*
X157329333Y-78871723D01*
X157281714Y-78776485D01*
X157234095Y-78586009D01*
X157234095Y-78443152D01*
X157281714Y-78252676D01*
X157329333Y-78157438D01*
X157424571Y-78062200D01*
X157567428Y-78014580D01*
X157662666Y-78014580D01*
X157805523Y-78062200D01*
X157853142Y-78109819D01*
X158805523Y-79014580D02*
X158234095Y-79014580D01*
X158519809Y-79014580D02*
X158519809Y-78014580D01*
X158424571Y-78157438D01*
X158329333Y-78252676D01*
X158234095Y-78300295D01*
X159662666Y-78014580D02*
X159472190Y-78014580D01*
X159376952Y-78062200D01*
X159329333Y-78109819D01*
X159234095Y-78252676D01*
X159186476Y-78443152D01*
X159186476Y-78824104D01*
X159234095Y-78919342D01*
X159281714Y-78966961D01*
X159376952Y-79014580D01*
X159567428Y-79014580D01*
X159662666Y-78966961D01*
X159710285Y-78919342D01*
X159757904Y-78824104D01*
X159757904Y-78586009D01*
X159710285Y-78490771D01*
X159662666Y-78443152D01*
X159567428Y-78395533D01*
X159376952Y-78395533D01*
X159281714Y-78443152D01*
X159234095Y-78490771D01*
X159186476Y-78586009D01*
X152722342Y-104192342D02*
X152674723Y-104239961D01*
X152531866Y-104287580D01*
X152436628Y-104287580D01*
X152293771Y-104239961D01*
X152198533Y-104144723D01*
X152150914Y-104049485D01*
X152103295Y-103859009D01*
X152103295Y-103716152D01*
X152150914Y-103525676D01*
X152198533Y-103430438D01*
X152293771Y-103335200D01*
X152436628Y-103287580D01*
X152531866Y-103287580D01*
X152674723Y-103335200D01*
X152722342Y-103382819D01*
X153674723Y-104287580D02*
X153103295Y-104287580D01*
X153389009Y-104287580D02*
X153389009Y-103287580D01*
X153293771Y-103430438D01*
X153198533Y-103525676D01*
X153103295Y-103573295D01*
X154579485Y-103287580D02*
X154103295Y-103287580D01*
X154055676Y-103763771D01*
X154103295Y-103716152D01*
X154198533Y-103668533D01*
X154436628Y-103668533D01*
X154531866Y-103716152D01*
X154579485Y-103763771D01*
X154627104Y-103859009D01*
X154627104Y-104097104D01*
X154579485Y-104192342D01*
X154531866Y-104239961D01*
X154436628Y-104287580D01*
X154198533Y-104287580D01*
X154103295Y-104239961D01*
X154055676Y-104192342D01*
X156414742Y-91752657D02*
X156462361Y-91800276D01*
X156509980Y-91943133D01*
X156509980Y-92038371D01*
X156462361Y-92181228D01*
X156367123Y-92276466D01*
X156271885Y-92324085D01*
X156081409Y-92371704D01*
X155938552Y-92371704D01*
X155748076Y-92324085D01*
X155652838Y-92276466D01*
X155557600Y-92181228D01*
X155509980Y-92038371D01*
X155509980Y-91943133D01*
X155557600Y-91800276D01*
X155605219Y-91752657D01*
X156509980Y-90800276D02*
X156509980Y-91371704D01*
X156509980Y-91085990D02*
X155509980Y-91085990D01*
X155652838Y-91181228D01*
X155748076Y-91276466D01*
X155795695Y-91371704D01*
X155843314Y-89943133D02*
X156509980Y-89943133D01*
X155462361Y-90181228D02*
X156176647Y-90419323D01*
X156176647Y-89800276D01*
X154573242Y-85097857D02*
X154620861Y-85145476D01*
X154668480Y-85288333D01*
X154668480Y-85383571D01*
X154620861Y-85526428D01*
X154525623Y-85621666D01*
X154430385Y-85669285D01*
X154239909Y-85716904D01*
X154097052Y-85716904D01*
X153906576Y-85669285D01*
X153811338Y-85621666D01*
X153716100Y-85526428D01*
X153668480Y-85383571D01*
X153668480Y-85288333D01*
X153716100Y-85145476D01*
X153763719Y-85097857D01*
X154668480Y-84145476D02*
X154668480Y-84716904D01*
X154668480Y-84431190D02*
X153668480Y-84431190D01*
X153811338Y-84526428D01*
X153906576Y-84621666D01*
X153954195Y-84716904D01*
X153668480Y-83812142D02*
X153668480Y-83193095D01*
X154049433Y-83526428D01*
X154049433Y-83383571D01*
X154097052Y-83288333D01*
X154144671Y-83240714D01*
X154239909Y-83193095D01*
X154478004Y-83193095D01*
X154573242Y-83240714D01*
X154620861Y-83288333D01*
X154668480Y-83383571D01*
X154668480Y-83669285D01*
X154620861Y-83764523D01*
X154573242Y-83812142D01*
D13*
X153315942Y-93505257D02*
X153363561Y-93552876D01*
X153411180Y-93695733D01*
X153411180Y-93790971D01*
X153363561Y-93933828D01*
X153268323Y-94029066D01*
X153173085Y-94076685D01*
X152982609Y-94124304D01*
X152839752Y-94124304D01*
X152649276Y-94076685D01*
X152554038Y-94029066D01*
X152458800Y-93933828D01*
X152411180Y-93790971D01*
X152411180Y-93695733D01*
X152458800Y-93552876D01*
X152506419Y-93505257D01*
X153411180Y-92552876D02*
X153411180Y-93124304D01*
X153411180Y-92838590D02*
X152411180Y-92838590D01*
X152554038Y-92933828D01*
X152649276Y-93029066D01*
X152696895Y-93124304D01*
X152506419Y-92171923D02*
X152458800Y-92124304D01*
X152411180Y-92029066D01*
X152411180Y-91790971D01*
X152458800Y-91695733D01*
X152506419Y-91648114D01*
X152601657Y-91600495D01*
X152696895Y-91600495D01*
X152839752Y-91648114D01*
X153411180Y-92219542D01*
X153411180Y-91600495D01*
D10*
X152666462Y-80758302D02*
X152618843Y-80805921D01*
X152475986Y-80853540D01*
X152380748Y-80853540D01*
X152237891Y-80805921D01*
X152142653Y-80710683D01*
X152095034Y-80615445D01*
X152047415Y-80424969D01*
X152047415Y-80282112D01*
X152095034Y-80091636D01*
X152142653Y-79996398D01*
X152237891Y-79901160D01*
X152380748Y-79853540D01*
X152475986Y-79853540D01*
X152618843Y-79901160D01*
X152666462Y-79948779D01*
X153618843Y-80853540D02*
X153047415Y-80853540D01*
X153333129Y-80853540D02*
X153333129Y-79853540D01*
X153237891Y-79996398D01*
X153142653Y-80091636D01*
X153047415Y-80139255D01*
X154571224Y-80853540D02*
X153999796Y-80853540D01*
X154285510Y-80853540D02*
X154285510Y-79853540D01*
X154190272Y-79996398D01*
X154095034Y-80091636D01*
X153999796Y-80139255D01*
X142846822Y-80585582D02*
X142799203Y-80633201D01*
X142656346Y-80680820D01*
X142561108Y-80680820D01*
X142418251Y-80633201D01*
X142323013Y-80537963D01*
X142275394Y-80442725D01*
X142227775Y-80252249D01*
X142227775Y-80109392D01*
X142275394Y-79918916D01*
X142323013Y-79823678D01*
X142418251Y-79728440D01*
X142561108Y-79680820D01*
X142656346Y-79680820D01*
X142799203Y-79728440D01*
X142846822Y-79776059D01*
X143799203Y-80680820D02*
X143227775Y-80680820D01*
X143513489Y-80680820D02*
X143513489Y-79680820D01*
X143418251Y-79823678D01*
X143323013Y-79918916D01*
X143227775Y-79966535D01*
X144418251Y-79680820D02*
X144513489Y-79680820D01*
X144608727Y-79728440D01*
X144656346Y-79776059D01*
X144703965Y-79871297D01*
X144751584Y-80061773D01*
X144751584Y-80299868D01*
X144703965Y-80490344D01*
X144656346Y-80585582D01*
X144608727Y-80633201D01*
X144513489Y-80680820D01*
X144418251Y-80680820D01*
X144323013Y-80633201D01*
X144275394Y-80585582D01*
X144227775Y-80490344D01*
X144180156Y-80299868D01*
X144180156Y-80061773D01*
X144227775Y-79871297D01*
X144275394Y-79776059D01*
X144323013Y-79728440D01*
X144418251Y-79680820D01*
X149568933Y-77425822D02*
X149521314Y-77473441D01*
X149378457Y-77521060D01*
X149283219Y-77521060D01*
X149140361Y-77473441D01*
X149045123Y-77378203D01*
X148997504Y-77282965D01*
X148949885Y-77092489D01*
X148949885Y-76949632D01*
X148997504Y-76759156D01*
X149045123Y-76663918D01*
X149140361Y-76568680D01*
X149283219Y-76521060D01*
X149378457Y-76521060D01*
X149521314Y-76568680D01*
X149568933Y-76616299D01*
X150045123Y-77521060D02*
X150235600Y-77521060D01*
X150330838Y-77473441D01*
X150378457Y-77425822D01*
X150473695Y-77282965D01*
X150521314Y-77092489D01*
X150521314Y-76711537D01*
X150473695Y-76616299D01*
X150426076Y-76568680D01*
X150330838Y-76521060D01*
X150140361Y-76521060D01*
X150045123Y-76568680D01*
X149997504Y-76616299D01*
X149949885Y-76711537D01*
X149949885Y-76949632D01*
X149997504Y-77044870D01*
X150045123Y-77092489D01*
X150140361Y-77140108D01*
X150330838Y-77140108D01*
X150426076Y-77092489D01*
X150473695Y-77044870D01*
X150521314Y-76949632D01*
X159538942Y-100847186D02*
X159586561Y-100894805D01*
X159634180Y-101037662D01*
X159634180Y-101132900D01*
X159586561Y-101275758D01*
X159491323Y-101370996D01*
X159396085Y-101418615D01*
X159205609Y-101466234D01*
X159062752Y-101466234D01*
X158872276Y-101418615D01*
X158777038Y-101370996D01*
X158681800Y-101275758D01*
X158634180Y-101132900D01*
X158634180Y-101037662D01*
X158681800Y-100894805D01*
X158729419Y-100847186D01*
X158634180Y-99990043D02*
X158634180Y-100180520D01*
X158681800Y-100275758D01*
X158729419Y-100323377D01*
X158872276Y-100418615D01*
X159062752Y-100466234D01*
X159443704Y-100466234D01*
X159538942Y-100418615D01*
X159586561Y-100370996D01*
X159634180Y-100275758D01*
X159634180Y-100085281D01*
X159586561Y-99990043D01*
X159538942Y-99942424D01*
X159443704Y-99894805D01*
X159205609Y-99894805D01*
X159110371Y-99942424D01*
X159062752Y-99990043D01*
X159015133Y-100085281D01*
X159015133Y-100275758D01*
X159062752Y-100370996D01*
X159110371Y-100418615D01*
X159205609Y-100466234D01*
X164893262Y-100877666D02*
X164940881Y-100925285D01*
X164988500Y-101068142D01*
X164988500Y-101163380D01*
X164940881Y-101306238D01*
X164845643Y-101401476D01*
X164750405Y-101449095D01*
X164559929Y-101496714D01*
X164417072Y-101496714D01*
X164226596Y-101449095D01*
X164131358Y-101401476D01*
X164036120Y-101306238D01*
X163988500Y-101163380D01*
X163988500Y-101068142D01*
X164036120Y-100925285D01*
X164083739Y-100877666D01*
X163988500Y-99972904D02*
X163988500Y-100449095D01*
X164464691Y-100496714D01*
X164417072Y-100449095D01*
X164369453Y-100353857D01*
X164369453Y-100115761D01*
X164417072Y-100020523D01*
X164464691Y-99972904D01*
X164559929Y-99925285D01*
X164798024Y-99925285D01*
X164893262Y-99972904D01*
X164940881Y-100020523D01*
X164988500Y-100115761D01*
X164988500Y-100353857D01*
X164940881Y-100449095D01*
X164893262Y-100496714D01*
X155840133Y-96496142D02*
X155792514Y-96543761D01*
X155649657Y-96591380D01*
X155554419Y-96591380D01*
X155411561Y-96543761D01*
X155316323Y-96448523D01*
X155268704Y-96353285D01*
X155221085Y-96162809D01*
X155221085Y-96019952D01*
X155268704Y-95829476D01*
X155316323Y-95734238D01*
X155411561Y-95639000D01*
X155554419Y-95591380D01*
X155649657Y-95591380D01*
X155792514Y-95639000D01*
X155840133Y-95686619D01*
X156697276Y-95924714D02*
X156697276Y-96591380D01*
X156459180Y-95543761D02*
X156221085Y-96258047D01*
X156840133Y-96258047D01*
X155545493Y-98218262D02*
X155497874Y-98265881D01*
X155355017Y-98313500D01*
X155259779Y-98313500D01*
X155116921Y-98265881D01*
X155021683Y-98170643D01*
X154974064Y-98075405D01*
X154926445Y-97884929D01*
X154926445Y-97742072D01*
X154974064Y-97551596D01*
X155021683Y-97456358D01*
X155116921Y-97361120D01*
X155259779Y-97313500D01*
X155355017Y-97313500D01*
X155497874Y-97361120D01*
X155545493Y-97408739D01*
X155878826Y-97313500D02*
X156497874Y-97313500D01*
X156164540Y-97694453D01*
X156307398Y-97694453D01*
X156402636Y-97742072D01*
X156450255Y-97789691D01*
X156497874Y-97884929D01*
X156497874Y-98123024D01*
X156450255Y-98218262D01*
X156402636Y-98265881D01*
X156307398Y-98313500D01*
X156021683Y-98313500D01*
X155926445Y-98265881D01*
X155878826Y-98218262D01*
X164435493Y-96511382D02*
X164387874Y-96559001D01*
X164245017Y-96606620D01*
X164149779Y-96606620D01*
X164006921Y-96559001D01*
X163911683Y-96463763D01*
X163864064Y-96368525D01*
X163816445Y-96178049D01*
X163816445Y-96035192D01*
X163864064Y-95844716D01*
X163911683Y-95749478D01*
X164006921Y-95654240D01*
X164149779Y-95606620D01*
X164245017Y-95606620D01*
X164387874Y-95654240D01*
X164435493Y-95701859D01*
X164816445Y-95701859D02*
X164864064Y-95654240D01*
X164959302Y-95606620D01*
X165197398Y-95606620D01*
X165292636Y-95654240D01*
X165340255Y-95701859D01*
X165387874Y-95797097D01*
X165387874Y-95892335D01*
X165340255Y-96035192D01*
X164768826Y-96606620D01*
X165387874Y-96606620D01*
X164450733Y-98208102D02*
X164403114Y-98255721D01*
X164260257Y-98303340D01*
X164165019Y-98303340D01*
X164022161Y-98255721D01*
X163926923Y-98160483D01*
X163879304Y-98065245D01*
X163831685Y-97874769D01*
X163831685Y-97731912D01*
X163879304Y-97541436D01*
X163926923Y-97446198D01*
X164022161Y-97350960D01*
X164165019Y-97303340D01*
X164260257Y-97303340D01*
X164403114Y-97350960D01*
X164450733Y-97398579D01*
X165403114Y-98303340D02*
X164831685Y-98303340D01*
X165117400Y-98303340D02*
X165117400Y-97303340D01*
X165022161Y-97446198D01*
X164926923Y-97541436D01*
X164831685Y-97589055D01*
M02*
