G04 #@! TF.GenerationSoftware,KiCad,Pcbnew,(5.1.4)-1*
G04 #@! TF.CreationDate,2020-03-25T13:11:36-05:00*
G04 #@! TF.ProjectId,ExOneMicrorocessor,45784f6e-654d-4696-9372-6f726f636573,rev?*
G04 #@! TF.SameCoordinates,Original*
G04 #@! TF.FileFunction,Paste,Bot*
G04 #@! TF.FilePolarity,Positive*
%FSLAX46Y46*%
G04 Gerber Fmt 4.6, Leading zero omitted, Abs format (unit mm)*
G04 Created by KiCad (PCBNEW (5.1.4)-1) date 2020-03-25 13:11:36*
%MOMM*%
%LPD*%
G04 APERTURE LIST*
%ADD10R,7.875000X2.000000*%
%ADD11C,0.100000*%
%ADD12C,0.950000*%
G04 APERTURE END LIST*
D10*
X150532600Y-99898200D03*
X162407600Y-99898200D03*
D11*
G36*
X150806579Y-95843744D02*
G01*
X150829634Y-95847163D01*
X150852243Y-95852827D01*
X150874187Y-95860679D01*
X150895257Y-95870644D01*
X150915248Y-95882626D01*
X150933968Y-95896510D01*
X150951238Y-95912162D01*
X150966890Y-95929432D01*
X150980774Y-95948152D01*
X150992756Y-95968143D01*
X151002721Y-95989213D01*
X151010573Y-96011157D01*
X151016237Y-96033766D01*
X151019656Y-96056821D01*
X151020800Y-96080100D01*
X151020800Y-96655100D01*
X151019656Y-96678379D01*
X151016237Y-96701434D01*
X151010573Y-96724043D01*
X151002721Y-96745987D01*
X150992756Y-96767057D01*
X150980774Y-96787048D01*
X150966890Y-96805768D01*
X150951238Y-96823038D01*
X150933968Y-96838690D01*
X150915248Y-96852574D01*
X150895257Y-96864556D01*
X150874187Y-96874521D01*
X150852243Y-96882373D01*
X150829634Y-96888037D01*
X150806579Y-96891456D01*
X150783300Y-96892600D01*
X150308300Y-96892600D01*
X150285021Y-96891456D01*
X150261966Y-96888037D01*
X150239357Y-96882373D01*
X150217413Y-96874521D01*
X150196343Y-96864556D01*
X150176352Y-96852574D01*
X150157632Y-96838690D01*
X150140362Y-96823038D01*
X150124710Y-96805768D01*
X150110826Y-96787048D01*
X150098844Y-96767057D01*
X150088879Y-96745987D01*
X150081027Y-96724043D01*
X150075363Y-96701434D01*
X150071944Y-96678379D01*
X150070800Y-96655100D01*
X150070800Y-96080100D01*
X150071944Y-96056821D01*
X150075363Y-96033766D01*
X150081027Y-96011157D01*
X150088879Y-95989213D01*
X150098844Y-95968143D01*
X150110826Y-95948152D01*
X150124710Y-95929432D01*
X150140362Y-95912162D01*
X150157632Y-95896510D01*
X150176352Y-95882626D01*
X150196343Y-95870644D01*
X150217413Y-95860679D01*
X150239357Y-95852827D01*
X150261966Y-95847163D01*
X150285021Y-95843744D01*
X150308300Y-95842600D01*
X150783300Y-95842600D01*
X150806579Y-95843744D01*
X150806579Y-95843744D01*
G37*
D12*
X150545800Y-96367600D03*
D11*
G36*
X150806579Y-94093744D02*
G01*
X150829634Y-94097163D01*
X150852243Y-94102827D01*
X150874187Y-94110679D01*
X150895257Y-94120644D01*
X150915248Y-94132626D01*
X150933968Y-94146510D01*
X150951238Y-94162162D01*
X150966890Y-94179432D01*
X150980774Y-94198152D01*
X150992756Y-94218143D01*
X151002721Y-94239213D01*
X151010573Y-94261157D01*
X151016237Y-94283766D01*
X151019656Y-94306821D01*
X151020800Y-94330100D01*
X151020800Y-94905100D01*
X151019656Y-94928379D01*
X151016237Y-94951434D01*
X151010573Y-94974043D01*
X151002721Y-94995987D01*
X150992756Y-95017057D01*
X150980774Y-95037048D01*
X150966890Y-95055768D01*
X150951238Y-95073038D01*
X150933968Y-95088690D01*
X150915248Y-95102574D01*
X150895257Y-95114556D01*
X150874187Y-95124521D01*
X150852243Y-95132373D01*
X150829634Y-95138037D01*
X150806579Y-95141456D01*
X150783300Y-95142600D01*
X150308300Y-95142600D01*
X150285021Y-95141456D01*
X150261966Y-95138037D01*
X150239357Y-95132373D01*
X150217413Y-95124521D01*
X150196343Y-95114556D01*
X150176352Y-95102574D01*
X150157632Y-95088690D01*
X150140362Y-95073038D01*
X150124710Y-95055768D01*
X150110826Y-95037048D01*
X150098844Y-95017057D01*
X150088879Y-94995987D01*
X150081027Y-94974043D01*
X150075363Y-94951434D01*
X150071944Y-94928379D01*
X150070800Y-94905100D01*
X150070800Y-94330100D01*
X150071944Y-94306821D01*
X150075363Y-94283766D01*
X150081027Y-94261157D01*
X150088879Y-94239213D01*
X150098844Y-94218143D01*
X150110826Y-94198152D01*
X150124710Y-94179432D01*
X150140362Y-94162162D01*
X150157632Y-94146510D01*
X150176352Y-94132626D01*
X150196343Y-94120644D01*
X150217413Y-94110679D01*
X150239357Y-94102827D01*
X150261966Y-94097163D01*
X150285021Y-94093744D01*
X150308300Y-94092600D01*
X150783300Y-94092600D01*
X150806579Y-94093744D01*
X150806579Y-94093744D01*
G37*
D12*
X150545800Y-94617600D03*
D11*
G36*
X162668379Y-95818344D02*
G01*
X162691434Y-95821763D01*
X162714043Y-95827427D01*
X162735987Y-95835279D01*
X162757057Y-95845244D01*
X162777048Y-95857226D01*
X162795768Y-95871110D01*
X162813038Y-95886762D01*
X162828690Y-95904032D01*
X162842574Y-95922752D01*
X162854556Y-95942743D01*
X162864521Y-95963813D01*
X162872373Y-95985757D01*
X162878037Y-96008366D01*
X162881456Y-96031421D01*
X162882600Y-96054700D01*
X162882600Y-96629700D01*
X162881456Y-96652979D01*
X162878037Y-96676034D01*
X162872373Y-96698643D01*
X162864521Y-96720587D01*
X162854556Y-96741657D01*
X162842574Y-96761648D01*
X162828690Y-96780368D01*
X162813038Y-96797638D01*
X162795768Y-96813290D01*
X162777048Y-96827174D01*
X162757057Y-96839156D01*
X162735987Y-96849121D01*
X162714043Y-96856973D01*
X162691434Y-96862637D01*
X162668379Y-96866056D01*
X162645100Y-96867200D01*
X162170100Y-96867200D01*
X162146821Y-96866056D01*
X162123766Y-96862637D01*
X162101157Y-96856973D01*
X162079213Y-96849121D01*
X162058143Y-96839156D01*
X162038152Y-96827174D01*
X162019432Y-96813290D01*
X162002162Y-96797638D01*
X161986510Y-96780368D01*
X161972626Y-96761648D01*
X161960644Y-96741657D01*
X161950679Y-96720587D01*
X161942827Y-96698643D01*
X161937163Y-96676034D01*
X161933744Y-96652979D01*
X161932600Y-96629700D01*
X161932600Y-96054700D01*
X161933744Y-96031421D01*
X161937163Y-96008366D01*
X161942827Y-95985757D01*
X161950679Y-95963813D01*
X161960644Y-95942743D01*
X161972626Y-95922752D01*
X161986510Y-95904032D01*
X162002162Y-95886762D01*
X162019432Y-95871110D01*
X162038152Y-95857226D01*
X162058143Y-95845244D01*
X162079213Y-95835279D01*
X162101157Y-95827427D01*
X162123766Y-95821763D01*
X162146821Y-95818344D01*
X162170100Y-95817200D01*
X162645100Y-95817200D01*
X162668379Y-95818344D01*
X162668379Y-95818344D01*
G37*
D12*
X162407600Y-96342200D03*
D11*
G36*
X162668379Y-94068344D02*
G01*
X162691434Y-94071763D01*
X162714043Y-94077427D01*
X162735987Y-94085279D01*
X162757057Y-94095244D01*
X162777048Y-94107226D01*
X162795768Y-94121110D01*
X162813038Y-94136762D01*
X162828690Y-94154032D01*
X162842574Y-94172752D01*
X162854556Y-94192743D01*
X162864521Y-94213813D01*
X162872373Y-94235757D01*
X162878037Y-94258366D01*
X162881456Y-94281421D01*
X162882600Y-94304700D01*
X162882600Y-94879700D01*
X162881456Y-94902979D01*
X162878037Y-94926034D01*
X162872373Y-94948643D01*
X162864521Y-94970587D01*
X162854556Y-94991657D01*
X162842574Y-95011648D01*
X162828690Y-95030368D01*
X162813038Y-95047638D01*
X162795768Y-95063290D01*
X162777048Y-95077174D01*
X162757057Y-95089156D01*
X162735987Y-95099121D01*
X162714043Y-95106973D01*
X162691434Y-95112637D01*
X162668379Y-95116056D01*
X162645100Y-95117200D01*
X162170100Y-95117200D01*
X162146821Y-95116056D01*
X162123766Y-95112637D01*
X162101157Y-95106973D01*
X162079213Y-95099121D01*
X162058143Y-95089156D01*
X162038152Y-95077174D01*
X162019432Y-95063290D01*
X162002162Y-95047638D01*
X161986510Y-95030368D01*
X161972626Y-95011648D01*
X161960644Y-94991657D01*
X161950679Y-94970587D01*
X161942827Y-94948643D01*
X161937163Y-94926034D01*
X161933744Y-94902979D01*
X161932600Y-94879700D01*
X161932600Y-94304700D01*
X161933744Y-94281421D01*
X161937163Y-94258366D01*
X161942827Y-94235757D01*
X161950679Y-94213813D01*
X161960644Y-94192743D01*
X161972626Y-94172752D01*
X161986510Y-94154032D01*
X162002162Y-94136762D01*
X162019432Y-94121110D01*
X162038152Y-94107226D01*
X162058143Y-94095244D01*
X162079213Y-94085279D01*
X162101157Y-94077427D01*
X162123766Y-94071763D01*
X162146821Y-94068344D01*
X162170100Y-94067200D01*
X162645100Y-94067200D01*
X162668379Y-94068344D01*
X162668379Y-94068344D01*
G37*
D12*
X162407600Y-94592200D03*
M02*
