G04 #@! TF.GenerationSoftware,KiCad,Pcbnew,(5.1.4)-1*
G04 #@! TF.CreationDate,2020-03-25T13:11:36-05:00*
G04 #@! TF.ProjectId,ExOneMicrorocessor,45784f6e-654d-4696-9372-6f726f636573,rev?*
G04 #@! TF.SameCoordinates,Original*
G04 #@! TF.FileFunction,Legend,Bot*
G04 #@! TF.FilePolarity,Positive*
%FSLAX46Y46*%
G04 Gerber Fmt 4.6, Leading zero omitted, Abs format (unit mm)*
G04 Created by KiCad (PCBNEW (5.1.4)-1) date 2020-03-25 13:11:36*
%MOMM*%
%LPD*%
G04 APERTURE LIST*
%ADD10C,0.150000*%
%ADD11C,0.120000*%
G04 APERTURE END LIST*
D10*
X150518975Y-124598180D02*
X149899927Y-124598180D01*
X150233260Y-124979133D01*
X150090403Y-124979133D01*
X149995165Y-125026752D01*
X149947546Y-125074371D01*
X149899927Y-125169609D01*
X149899927Y-125407704D01*
X149947546Y-125502942D01*
X149995165Y-125550561D01*
X150090403Y-125598180D01*
X150376118Y-125598180D01*
X150471356Y-125550561D01*
X150518975Y-125502942D01*
X149614213Y-124598180D02*
X149280880Y-125598180D01*
X148947546Y-124598180D01*
X148709451Y-124598180D02*
X148090403Y-124598180D01*
X148423737Y-124979133D01*
X148280880Y-124979133D01*
X148185641Y-125026752D01*
X148138022Y-125074371D01*
X148090403Y-125169609D01*
X148090403Y-125407704D01*
X148138022Y-125502942D01*
X148185641Y-125550561D01*
X148280880Y-125598180D01*
X148566594Y-125598180D01*
X148661832Y-125550561D01*
X148709451Y-125502942D01*
D11*
X142062104Y-124503560D02*
X142157342Y-124455940D01*
X142300200Y-124455940D01*
X142443057Y-124503560D01*
X142538295Y-124598798D01*
X142585914Y-124694036D01*
X142633533Y-124884512D01*
X142633533Y-125027369D01*
X142585914Y-125217845D01*
X142538295Y-125313083D01*
X142443057Y-125408321D01*
X142300200Y-125455940D01*
X142204961Y-125455940D01*
X142062104Y-125408321D01*
X142014485Y-125360702D01*
X142014485Y-125027369D01*
X142204961Y-125027369D01*
X141585914Y-125455940D02*
X141585914Y-124455940D01*
X141014485Y-125455940D01*
X141014485Y-124455940D01*
X140538295Y-125455940D02*
X140538295Y-124455940D01*
X140300200Y-124455940D01*
X140157342Y-124503560D01*
X140062104Y-124598798D01*
X140014485Y-124694036D01*
X139966866Y-124884512D01*
X139966866Y-125027369D01*
X140014485Y-125217845D01*
X140062104Y-125313083D01*
X140157342Y-125408321D01*
X140300200Y-125455940D01*
X140538295Y-125455940D01*
D10*
X144234706Y-123230900D02*
X144234706Y-122230900D01*
X143853754Y-122230900D01*
X143758516Y-122278520D01*
X143710897Y-122326139D01*
X143663278Y-122421377D01*
X143663278Y-122564234D01*
X143710897Y-122659472D01*
X143758516Y-122707091D01*
X143853754Y-122754710D01*
X144234706Y-122754710D01*
X143282325Y-122945186D02*
X142806135Y-122945186D01*
X143377563Y-123230900D02*
X143044230Y-122230900D01*
X142710897Y-123230900D01*
X141853754Y-123230900D02*
X142425182Y-123230900D01*
X142139468Y-123230900D02*
X142139468Y-122230900D01*
X142234706Y-122373758D01*
X142329944Y-122468996D01*
X142425182Y-122516615D01*
X146907095Y-120767100D02*
X146907095Y-119767100D01*
X146526142Y-119767100D01*
X146430904Y-119814720D01*
X146383285Y-119862339D01*
X146335666Y-119957577D01*
X146335666Y-120100434D01*
X146383285Y-120195672D01*
X146430904Y-120243291D01*
X146526142Y-120290910D01*
X146907095Y-120290910D01*
X145335666Y-120671862D02*
X145383285Y-120719481D01*
X145526142Y-120767100D01*
X145621380Y-120767100D01*
X145764238Y-120719481D01*
X145859476Y-120624243D01*
X145907095Y-120529005D01*
X145954714Y-120338529D01*
X145954714Y-120195672D01*
X145907095Y-120005196D01*
X145859476Y-119909958D01*
X145764238Y-119814720D01*
X145621380Y-119767100D01*
X145526142Y-119767100D01*
X145383285Y-119814720D01*
X145335666Y-119862339D01*
X144478523Y-119767100D02*
X144669000Y-119767100D01*
X144764238Y-119814720D01*
X144811857Y-119862339D01*
X144907095Y-120005196D01*
X144954714Y-120195672D01*
X144954714Y-120576624D01*
X144907095Y-120671862D01*
X144859476Y-120719481D01*
X144764238Y-120767100D01*
X144573761Y-120767100D01*
X144478523Y-120719481D01*
X144430904Y-120671862D01*
X144383285Y-120576624D01*
X144383285Y-120338529D01*
X144430904Y-120243291D01*
X144478523Y-120195672D01*
X144573761Y-120148053D01*
X144764238Y-120148053D01*
X144859476Y-120195672D01*
X144907095Y-120243291D01*
X144954714Y-120338529D01*
X150528826Y-118328700D02*
X150528826Y-117328700D01*
X150147874Y-117328700D01*
X150052636Y-117376320D01*
X150005017Y-117423939D01*
X149957398Y-117519177D01*
X149957398Y-117662034D01*
X150005017Y-117757272D01*
X150052636Y-117804891D01*
X150147874Y-117852510D01*
X150528826Y-117852510D01*
X149576445Y-118042986D02*
X149100255Y-118042986D01*
X149671683Y-118328700D02*
X149338350Y-117328700D01*
X149005017Y-118328700D01*
X148624064Y-118328700D02*
X148433588Y-118328700D01*
X148338350Y-118281081D01*
X148290731Y-118233462D01*
X148195493Y-118090605D01*
X148147874Y-117900129D01*
X148147874Y-117519177D01*
X148195493Y-117423939D01*
X148243112Y-117376320D01*
X148338350Y-117328700D01*
X148528826Y-117328700D01*
X148624064Y-117376320D01*
X148671683Y-117423939D01*
X148719302Y-117519177D01*
X148719302Y-117757272D01*
X148671683Y-117852510D01*
X148624064Y-117900129D01*
X148528826Y-117947748D01*
X148338350Y-117947748D01*
X148243112Y-117900129D01*
X148195493Y-117852510D01*
X148147874Y-117757272D01*
X144742706Y-115788700D02*
X144742706Y-114788700D01*
X144361754Y-114788700D01*
X144266516Y-114836320D01*
X144218897Y-114883939D01*
X144171278Y-114979177D01*
X144171278Y-115122034D01*
X144218897Y-115217272D01*
X144266516Y-115264891D01*
X144361754Y-115312510D01*
X144742706Y-115312510D01*
X143790325Y-115502986D02*
X143314135Y-115502986D01*
X143885563Y-115788700D02*
X143552230Y-114788700D01*
X143218897Y-115788700D01*
X142742706Y-115217272D02*
X142837944Y-115169653D01*
X142885563Y-115122034D01*
X142933182Y-115026796D01*
X142933182Y-114979177D01*
X142885563Y-114883939D01*
X142837944Y-114836320D01*
X142742706Y-114788700D01*
X142552230Y-114788700D01*
X142456992Y-114836320D01*
X142409373Y-114883939D01*
X142361754Y-114979177D01*
X142361754Y-115026796D01*
X142409373Y-115122034D01*
X142456992Y-115169653D01*
X142552230Y-115217272D01*
X142742706Y-115217272D01*
X142837944Y-115264891D01*
X142885563Y-115312510D01*
X142933182Y-115407748D01*
X142933182Y-115598224D01*
X142885563Y-115693462D01*
X142837944Y-115741081D01*
X142742706Y-115788700D01*
X142552230Y-115788700D01*
X142456992Y-115741081D01*
X142409373Y-115693462D01*
X142361754Y-115598224D01*
X142361754Y-115407748D01*
X142409373Y-115312510D01*
X142456992Y-115264891D01*
X142552230Y-115217272D01*
X145498605Y-113289340D02*
X145498605Y-112289340D01*
X145117653Y-112289340D01*
X145022415Y-112336960D01*
X144974796Y-112384579D01*
X144927177Y-112479817D01*
X144927177Y-112622674D01*
X144974796Y-112717912D01*
X145022415Y-112765531D01*
X145117653Y-112813150D01*
X145498605Y-112813150D01*
X144165272Y-112765531D02*
X144022415Y-112813150D01*
X143974796Y-112860769D01*
X143927177Y-112956007D01*
X143927177Y-113098864D01*
X143974796Y-113194102D01*
X144022415Y-113241721D01*
X144117653Y-113289340D01*
X144498605Y-113289340D01*
X144498605Y-112289340D01*
X144165272Y-112289340D01*
X144070034Y-112336960D01*
X144022415Y-112384579D01*
X143974796Y-112479817D01*
X143974796Y-112575055D01*
X144022415Y-112670293D01*
X144070034Y-112717912D01*
X144165272Y-112765531D01*
X144498605Y-112765531D01*
X142974796Y-113289340D02*
X143546224Y-113289340D01*
X143260510Y-113289340D02*
X143260510Y-112289340D01*
X143355748Y-112432198D01*
X143450986Y-112527436D01*
X143546224Y-112575055D01*
X142070034Y-112289340D02*
X142546224Y-112289340D01*
X142593843Y-112765531D01*
X142546224Y-112717912D01*
X142450986Y-112670293D01*
X142212891Y-112670293D01*
X142117653Y-112717912D01*
X142070034Y-112765531D01*
X142022415Y-112860769D01*
X142022415Y-113098864D01*
X142070034Y-113194102D01*
X142117653Y-113241721D01*
X142212891Y-113289340D01*
X142450986Y-113289340D01*
X142546224Y-113241721D01*
X142593843Y-113194102D01*
X148470405Y-110581700D02*
X148470405Y-109581700D01*
X148089453Y-109581700D01*
X147994215Y-109629320D01*
X147946596Y-109676939D01*
X147898977Y-109772177D01*
X147898977Y-109915034D01*
X147946596Y-110010272D01*
X147994215Y-110057891D01*
X148089453Y-110105510D01*
X148470405Y-110105510D01*
X147137072Y-110057891D02*
X146994215Y-110105510D01*
X146946596Y-110153129D01*
X146898977Y-110248367D01*
X146898977Y-110391224D01*
X146946596Y-110486462D01*
X146994215Y-110534081D01*
X147089453Y-110581700D01*
X147470405Y-110581700D01*
X147470405Y-109581700D01*
X147137072Y-109581700D01*
X147041834Y-109629320D01*
X146994215Y-109676939D01*
X146946596Y-109772177D01*
X146946596Y-109867415D01*
X146994215Y-109962653D01*
X147041834Y-110010272D01*
X147137072Y-110057891D01*
X147470405Y-110057891D01*
X145946596Y-110581700D02*
X146518024Y-110581700D01*
X146232310Y-110581700D02*
X146232310Y-109581700D01*
X146327548Y-109724558D01*
X146422786Y-109819796D01*
X146518024Y-109867415D01*
X145089453Y-109915034D02*
X145089453Y-110581700D01*
X145327548Y-109534081D02*
X145565643Y-110248367D01*
X144946596Y-110248367D01*
X145879605Y-108051860D02*
X145879605Y-107051860D01*
X145498653Y-107051860D01*
X145403415Y-107099480D01*
X145355796Y-107147099D01*
X145308177Y-107242337D01*
X145308177Y-107385194D01*
X145355796Y-107480432D01*
X145403415Y-107528051D01*
X145498653Y-107575670D01*
X145879605Y-107575670D01*
X144546272Y-107528051D02*
X144403415Y-107575670D01*
X144355796Y-107623289D01*
X144308177Y-107718527D01*
X144308177Y-107861384D01*
X144355796Y-107956622D01*
X144403415Y-108004241D01*
X144498653Y-108051860D01*
X144879605Y-108051860D01*
X144879605Y-107051860D01*
X144546272Y-107051860D01*
X144451034Y-107099480D01*
X144403415Y-107147099D01*
X144355796Y-107242337D01*
X144355796Y-107337575D01*
X144403415Y-107432813D01*
X144451034Y-107480432D01*
X144546272Y-107528051D01*
X144879605Y-107528051D01*
X143355796Y-108051860D02*
X143927224Y-108051860D01*
X143641510Y-108051860D02*
X143641510Y-107051860D01*
X143736748Y-107194718D01*
X143831986Y-107289956D01*
X143927224Y-107337575D01*
X143022462Y-107051860D02*
X142403415Y-107051860D01*
X142736748Y-107432813D01*
X142593891Y-107432813D01*
X142498653Y-107480432D01*
X142451034Y-107528051D01*
X142403415Y-107623289D01*
X142403415Y-107861384D01*
X142451034Y-107956622D01*
X142498653Y-108004241D01*
X142593891Y-108051860D01*
X142879605Y-108051860D01*
X142974843Y-108004241D01*
X143022462Y-107956622D01*
X145508765Y-105608380D02*
X145508765Y-104608380D01*
X145127813Y-104608380D01*
X145032575Y-104656000D01*
X144984956Y-104703619D01*
X144937337Y-104798857D01*
X144937337Y-104941714D01*
X144984956Y-105036952D01*
X145032575Y-105084571D01*
X145127813Y-105132190D01*
X145508765Y-105132190D01*
X144175432Y-105084571D02*
X144032575Y-105132190D01*
X143984956Y-105179809D01*
X143937337Y-105275047D01*
X143937337Y-105417904D01*
X143984956Y-105513142D01*
X144032575Y-105560761D01*
X144127813Y-105608380D01*
X144508765Y-105608380D01*
X144508765Y-104608380D01*
X144175432Y-104608380D01*
X144080194Y-104656000D01*
X144032575Y-104703619D01*
X143984956Y-104798857D01*
X143984956Y-104894095D01*
X144032575Y-104989333D01*
X144080194Y-105036952D01*
X144175432Y-105084571D01*
X144508765Y-105084571D01*
X142984956Y-105608380D02*
X143556384Y-105608380D01*
X143270670Y-105608380D02*
X143270670Y-104608380D01*
X143365908Y-104751238D01*
X143461146Y-104846476D01*
X143556384Y-104894095D01*
X142604003Y-104703619D02*
X142556384Y-104656000D01*
X142461146Y-104608380D01*
X142223051Y-104608380D01*
X142127813Y-104656000D01*
X142080194Y-104703619D01*
X142032575Y-104798857D01*
X142032575Y-104894095D01*
X142080194Y-105036952D01*
X142651622Y-105608380D01*
X142032575Y-105608380D01*
X145600205Y-102941380D02*
X145600205Y-101941380D01*
X145219253Y-101941380D01*
X145124015Y-101989000D01*
X145076396Y-102036619D01*
X145028777Y-102131857D01*
X145028777Y-102274714D01*
X145076396Y-102369952D01*
X145124015Y-102417571D01*
X145219253Y-102465190D01*
X145600205Y-102465190D01*
X144266872Y-102417571D02*
X144124015Y-102465190D01*
X144076396Y-102512809D01*
X144028777Y-102608047D01*
X144028777Y-102750904D01*
X144076396Y-102846142D01*
X144124015Y-102893761D01*
X144219253Y-102941380D01*
X144600205Y-102941380D01*
X144600205Y-101941380D01*
X144266872Y-101941380D01*
X144171634Y-101989000D01*
X144124015Y-102036619D01*
X144076396Y-102131857D01*
X144076396Y-102227095D01*
X144124015Y-102322333D01*
X144171634Y-102369952D01*
X144266872Y-102417571D01*
X144600205Y-102417571D01*
X143076396Y-102941380D02*
X143647824Y-102941380D01*
X143362110Y-102941380D02*
X143362110Y-101941380D01*
X143457348Y-102084238D01*
X143552586Y-102179476D01*
X143647824Y-102227095D01*
X142124015Y-102941380D02*
X142695443Y-102941380D01*
X142409729Y-102941380D02*
X142409729Y-101941380D01*
X142504967Y-102084238D01*
X142600205Y-102179476D01*
X142695443Y-102227095D01*
X145706885Y-100513140D02*
X145706885Y-99513140D01*
X145325933Y-99513140D01*
X145230695Y-99560760D01*
X145183076Y-99608379D01*
X145135457Y-99703617D01*
X145135457Y-99846474D01*
X145183076Y-99941712D01*
X145230695Y-99989331D01*
X145325933Y-100036950D01*
X145706885Y-100036950D01*
X144373552Y-99989331D02*
X144230695Y-100036950D01*
X144183076Y-100084569D01*
X144135457Y-100179807D01*
X144135457Y-100322664D01*
X144183076Y-100417902D01*
X144230695Y-100465521D01*
X144325933Y-100513140D01*
X144706885Y-100513140D01*
X144706885Y-99513140D01*
X144373552Y-99513140D01*
X144278314Y-99560760D01*
X144230695Y-99608379D01*
X144183076Y-99703617D01*
X144183076Y-99798855D01*
X144230695Y-99894093D01*
X144278314Y-99941712D01*
X144373552Y-99989331D01*
X144706885Y-99989331D01*
X143183076Y-100513140D02*
X143754504Y-100513140D01*
X143468790Y-100513140D02*
X143468790Y-99513140D01*
X143564028Y-99655998D01*
X143659266Y-99751236D01*
X143754504Y-99798855D01*
X142564028Y-99513140D02*
X142468790Y-99513140D01*
X142373552Y-99560760D01*
X142325933Y-99608379D01*
X142278314Y-99703617D01*
X142230695Y-99894093D01*
X142230695Y-100132188D01*
X142278314Y-100322664D01*
X142325933Y-100417902D01*
X142373552Y-100465521D01*
X142468790Y-100513140D01*
X142564028Y-100513140D01*
X142659266Y-100465521D01*
X142706885Y-100417902D01*
X142754504Y-100322664D01*
X142802123Y-100132188D01*
X142802123Y-99894093D01*
X142754504Y-99703617D01*
X142706885Y-99608379D01*
X142659266Y-99560760D01*
X142564028Y-99513140D01*
X144651575Y-98211900D02*
X144651575Y-97211900D01*
X144270622Y-97211900D01*
X144175384Y-97259520D01*
X144127765Y-97307139D01*
X144080146Y-97402377D01*
X144080146Y-97545234D01*
X144127765Y-97640472D01*
X144175384Y-97688091D01*
X144270622Y-97735710D01*
X144651575Y-97735710D01*
X143318241Y-97688091D02*
X143175384Y-97735710D01*
X143127765Y-97783329D01*
X143080146Y-97878567D01*
X143080146Y-98021424D01*
X143127765Y-98116662D01*
X143175384Y-98164281D01*
X143270622Y-98211900D01*
X143651575Y-98211900D01*
X143651575Y-97211900D01*
X143318241Y-97211900D01*
X143223003Y-97259520D01*
X143175384Y-97307139D01*
X143127765Y-97402377D01*
X143127765Y-97497615D01*
X143175384Y-97592853D01*
X143223003Y-97640472D01*
X143318241Y-97688091D01*
X143651575Y-97688091D01*
X142699194Y-97307139D02*
X142651575Y-97259520D01*
X142556337Y-97211900D01*
X142318241Y-97211900D01*
X142223003Y-97259520D01*
X142175384Y-97307139D01*
X142127765Y-97402377D01*
X142127765Y-97497615D01*
X142175384Y-97640472D01*
X142746813Y-98211900D01*
X142127765Y-98211900D01*
X144676975Y-95529660D02*
X144676975Y-94529660D01*
X144296022Y-94529660D01*
X144200784Y-94577280D01*
X144153165Y-94624899D01*
X144105546Y-94720137D01*
X144105546Y-94862994D01*
X144153165Y-94958232D01*
X144200784Y-95005851D01*
X144296022Y-95053470D01*
X144676975Y-95053470D01*
X143343641Y-95005851D02*
X143200784Y-95053470D01*
X143153165Y-95101089D01*
X143105546Y-95196327D01*
X143105546Y-95339184D01*
X143153165Y-95434422D01*
X143200784Y-95482041D01*
X143296022Y-95529660D01*
X143676975Y-95529660D01*
X143676975Y-94529660D01*
X143343641Y-94529660D01*
X143248403Y-94577280D01*
X143200784Y-94624899D01*
X143153165Y-94720137D01*
X143153165Y-94815375D01*
X143200784Y-94910613D01*
X143248403Y-94958232D01*
X143343641Y-95005851D01*
X143676975Y-95005851D01*
X142486499Y-94529660D02*
X142391260Y-94529660D01*
X142296022Y-94577280D01*
X142248403Y-94624899D01*
X142200784Y-94720137D01*
X142153165Y-94910613D01*
X142153165Y-95148708D01*
X142200784Y-95339184D01*
X142248403Y-95434422D01*
X142296022Y-95482041D01*
X142391260Y-95529660D01*
X142486499Y-95529660D01*
X142581737Y-95482041D01*
X142629356Y-95434422D01*
X142676975Y-95339184D01*
X142724594Y-95148708D01*
X142724594Y-94910613D01*
X142676975Y-94720137D01*
X142629356Y-94624899D01*
X142581737Y-94577280D01*
X142486499Y-94529660D01*
X144625866Y-92888060D02*
X144625866Y-91888060D01*
X144244914Y-91888060D01*
X144149676Y-91935680D01*
X144102057Y-91983299D01*
X144054438Y-92078537D01*
X144054438Y-92221394D01*
X144102057Y-92316632D01*
X144149676Y-92364251D01*
X144244914Y-92411870D01*
X144625866Y-92411870D01*
X143673485Y-92602346D02*
X143197295Y-92602346D01*
X143768723Y-92888060D02*
X143435390Y-91888060D01*
X143102057Y-92888060D01*
X142863961Y-91888060D02*
X142197295Y-91888060D01*
X142625866Y-92888060D01*
X144666506Y-90266780D02*
X144666506Y-89266780D01*
X144285554Y-89266780D01*
X144190316Y-89314400D01*
X144142697Y-89362019D01*
X144095078Y-89457257D01*
X144095078Y-89600114D01*
X144142697Y-89695352D01*
X144190316Y-89742971D01*
X144285554Y-89790590D01*
X144666506Y-89790590D01*
X143714125Y-89981066D02*
X143237935Y-89981066D01*
X143809363Y-90266780D02*
X143476030Y-89266780D01*
X143142697Y-90266780D01*
X142333173Y-89266780D02*
X142809363Y-89266780D01*
X142856982Y-89742971D01*
X142809363Y-89695352D01*
X142714125Y-89647733D01*
X142476030Y-89647733D01*
X142380792Y-89695352D01*
X142333173Y-89742971D01*
X142285554Y-89838209D01*
X142285554Y-90076304D01*
X142333173Y-90171542D01*
X142380792Y-90219161D01*
X142476030Y-90266780D01*
X142714125Y-90266780D01*
X142809363Y-90219161D01*
X142856982Y-90171542D01*
X144676666Y-87599780D02*
X144676666Y-86599780D01*
X144295714Y-86599780D01*
X144200476Y-86647400D01*
X144152857Y-86695019D01*
X144105238Y-86790257D01*
X144105238Y-86933114D01*
X144152857Y-87028352D01*
X144200476Y-87075971D01*
X144295714Y-87123590D01*
X144676666Y-87123590D01*
X143724285Y-87314066D02*
X143248095Y-87314066D01*
X143819523Y-87599780D02*
X143486190Y-86599780D01*
X143152857Y-87599780D01*
X142390952Y-86933114D02*
X142390952Y-87599780D01*
X142629047Y-86552161D02*
X142867142Y-87266447D01*
X142248095Y-87266447D01*
X144251584Y-84219160D02*
X144346822Y-84171540D01*
X144489680Y-84171540D01*
X144632537Y-84219160D01*
X144727775Y-84314398D01*
X144775394Y-84409636D01*
X144823013Y-84600112D01*
X144823013Y-84742969D01*
X144775394Y-84933445D01*
X144727775Y-85028683D01*
X144632537Y-85123921D01*
X144489680Y-85171540D01*
X144394441Y-85171540D01*
X144251584Y-85123921D01*
X144203965Y-85076302D01*
X144203965Y-84742969D01*
X144394441Y-84742969D01*
X143775394Y-85171540D02*
X143775394Y-84171540D01*
X143203965Y-85171540D01*
X143203965Y-84171540D01*
X142727775Y-85171540D02*
X142727775Y-84171540D01*
X142489680Y-84171540D01*
X142346822Y-84219160D01*
X142251584Y-84314398D01*
X142203965Y-84409636D01*
X142156346Y-84600112D01*
X142156346Y-84742969D01*
X142203965Y-84933445D01*
X142251584Y-85028683D01*
X142346822Y-85123921D01*
X142489680Y-85171540D01*
X142727775Y-85171540D01*
X145411937Y-82789020D02*
X145411937Y-81789020D01*
X145030984Y-81789020D01*
X144935746Y-81836640D01*
X144888127Y-81884259D01*
X144840508Y-81979497D01*
X144840508Y-82122354D01*
X144888127Y-82217592D01*
X144935746Y-82265211D01*
X145030984Y-82312830D01*
X145411937Y-82312830D01*
X144459556Y-82503306D02*
X143983365Y-82503306D01*
X144554794Y-82789020D02*
X144221460Y-81789020D01*
X143888127Y-82789020D01*
X143030984Y-82789020D02*
X143602413Y-82789020D01*
X143316699Y-82789020D02*
X143316699Y-81789020D01*
X143411937Y-81931878D01*
X143507175Y-82027116D01*
X143602413Y-82074735D01*
X142411937Y-81789020D02*
X142316699Y-81789020D01*
X142221460Y-81836640D01*
X142173841Y-81884259D01*
X142126222Y-81979497D01*
X142078603Y-82169973D01*
X142078603Y-82408068D01*
X142126222Y-82598544D01*
X142173841Y-82693782D01*
X142221460Y-82741401D01*
X142316699Y-82789020D01*
X142411937Y-82789020D01*
X142507175Y-82741401D01*
X142554794Y-82693782D01*
X142602413Y-82598544D01*
X142650032Y-82408068D01*
X142650032Y-82169973D01*
X142602413Y-81979497D01*
X142554794Y-81884259D01*
X142507175Y-81836640D01*
X142411937Y-81789020D01*
X167872255Y-123276620D02*
X167872255Y-122276620D01*
X167491302Y-122276620D01*
X167396064Y-122324240D01*
X167348445Y-122371859D01*
X167300826Y-122467097D01*
X167300826Y-122609954D01*
X167348445Y-122705192D01*
X167396064Y-122752811D01*
X167491302Y-122800430D01*
X167872255Y-122800430D01*
X166300826Y-123181382D02*
X166348445Y-123229001D01*
X166491302Y-123276620D01*
X166586540Y-123276620D01*
X166729398Y-123229001D01*
X166824636Y-123133763D01*
X166872255Y-123038525D01*
X166919874Y-122848049D01*
X166919874Y-122705192D01*
X166872255Y-122514716D01*
X166824636Y-122419478D01*
X166729398Y-122324240D01*
X166586540Y-122276620D01*
X166491302Y-122276620D01*
X166348445Y-122324240D01*
X166300826Y-122371859D01*
X165967493Y-122276620D02*
X165300826Y-122276620D01*
X165729398Y-123276620D01*
X168104297Y-120838220D02*
X168104297Y-119838220D01*
X167723344Y-119838220D01*
X167628106Y-119885840D01*
X167580487Y-119933459D01*
X167532868Y-120028697D01*
X167532868Y-120171554D01*
X167580487Y-120266792D01*
X167628106Y-120314411D01*
X167723344Y-120362030D01*
X168104297Y-120362030D01*
X167151916Y-120552506D02*
X166675725Y-120552506D01*
X167247154Y-120838220D02*
X166913820Y-119838220D01*
X166580487Y-120838220D01*
X165723344Y-120838220D02*
X166294773Y-120838220D01*
X166009059Y-120838220D02*
X166009059Y-119838220D01*
X166104297Y-119981078D01*
X166199535Y-120076316D01*
X166294773Y-120123935D01*
X165104297Y-119838220D02*
X165009059Y-119838220D01*
X164913820Y-119885840D01*
X164866201Y-119933459D01*
X164818582Y-120028697D01*
X164770963Y-120219173D01*
X164770963Y-120457268D01*
X164818582Y-120647744D01*
X164866201Y-120742982D01*
X164913820Y-120790601D01*
X165009059Y-120838220D01*
X165104297Y-120838220D01*
X165199535Y-120790601D01*
X165247154Y-120742982D01*
X165294773Y-120647744D01*
X165342392Y-120457268D01*
X165342392Y-120219173D01*
X165294773Y-120028697D01*
X165247154Y-119933459D01*
X165199535Y-119885840D01*
X165104297Y-119838220D01*
X168078897Y-118282980D02*
X168078897Y-117282980D01*
X167697944Y-117282980D01*
X167602706Y-117330600D01*
X167555087Y-117378219D01*
X167507468Y-117473457D01*
X167507468Y-117616314D01*
X167555087Y-117711552D01*
X167602706Y-117759171D01*
X167697944Y-117806790D01*
X168078897Y-117806790D01*
X167126516Y-117997266D02*
X166650325Y-117997266D01*
X167221754Y-118282980D02*
X166888420Y-117282980D01*
X166555087Y-118282980D01*
X165697944Y-118282980D02*
X166269373Y-118282980D01*
X165983659Y-118282980D02*
X165983659Y-117282980D01*
X166078897Y-117425838D01*
X166174135Y-117521076D01*
X166269373Y-117568695D01*
X164745563Y-118282980D02*
X165316992Y-118282980D01*
X165031278Y-118282980D02*
X165031278Y-117282980D01*
X165126516Y-117425838D01*
X165221754Y-117521076D01*
X165316992Y-117568695D01*
X168114457Y-115809020D02*
X168114457Y-114809020D01*
X167733504Y-114809020D01*
X167638266Y-114856640D01*
X167590647Y-114904259D01*
X167543028Y-114999497D01*
X167543028Y-115142354D01*
X167590647Y-115237592D01*
X167638266Y-115285211D01*
X167733504Y-115332830D01*
X168114457Y-115332830D01*
X167162076Y-115523306D02*
X166685885Y-115523306D01*
X167257314Y-115809020D02*
X166923980Y-114809020D01*
X166590647Y-115809020D01*
X165733504Y-115809020D02*
X166304933Y-115809020D01*
X166019219Y-115809020D02*
X166019219Y-114809020D01*
X166114457Y-114951878D01*
X166209695Y-115047116D01*
X166304933Y-115094735D01*
X165352552Y-114904259D02*
X165304933Y-114856640D01*
X165209695Y-114809020D01*
X164971600Y-114809020D01*
X164876361Y-114856640D01*
X164828742Y-114904259D01*
X164781123Y-114999497D01*
X164781123Y-115094735D01*
X164828742Y-115237592D01*
X165400171Y-115809020D01*
X164781123Y-115809020D01*
X166778417Y-113304580D02*
X166778417Y-112304580D01*
X166397464Y-112304580D01*
X166302226Y-112352200D01*
X166254607Y-112399819D01*
X166206988Y-112495057D01*
X166206988Y-112637914D01*
X166254607Y-112733152D01*
X166302226Y-112780771D01*
X166397464Y-112828390D01*
X166778417Y-112828390D01*
X165826036Y-113018866D02*
X165349845Y-113018866D01*
X165921274Y-113304580D02*
X165587940Y-112304580D01*
X165254607Y-113304580D01*
X164397464Y-113304580D02*
X164968893Y-113304580D01*
X164683179Y-113304580D02*
X164683179Y-112304580D01*
X164778417Y-112447438D01*
X164873655Y-112542676D01*
X164968893Y-112590295D01*
X163492702Y-112304580D02*
X163968893Y-112304580D01*
X164016512Y-112780771D01*
X163968893Y-112733152D01*
X163873655Y-112685533D01*
X163635560Y-112685533D01*
X163540321Y-112733152D01*
X163492702Y-112780771D01*
X163445083Y-112876009D01*
X163445083Y-113114104D01*
X163492702Y-113209342D01*
X163540321Y-113256961D01*
X163635560Y-113304580D01*
X163873655Y-113304580D01*
X163968893Y-113256961D01*
X164016512Y-113209342D01*
X168060215Y-110530900D02*
X168060215Y-109530900D01*
X167679262Y-109530900D01*
X167584024Y-109578520D01*
X167536405Y-109626139D01*
X167488786Y-109721377D01*
X167488786Y-109864234D01*
X167536405Y-109959472D01*
X167584024Y-110007091D01*
X167679262Y-110054710D01*
X168060215Y-110054710D01*
X167060215Y-110530900D02*
X167060215Y-109530900D01*
X166822120Y-109530900D01*
X166679262Y-109578520D01*
X166584024Y-109673758D01*
X166536405Y-109768996D01*
X166488786Y-109959472D01*
X166488786Y-110102329D01*
X166536405Y-110292805D01*
X166584024Y-110388043D01*
X166679262Y-110483281D01*
X166822120Y-110530900D01*
X167060215Y-110530900D01*
X165869739Y-109530900D02*
X165774500Y-109530900D01*
X165679262Y-109578520D01*
X165631643Y-109626139D01*
X165584024Y-109721377D01*
X165536405Y-109911853D01*
X165536405Y-110149948D01*
X165584024Y-110340424D01*
X165631643Y-110435662D01*
X165679262Y-110483281D01*
X165774500Y-110530900D01*
X165869739Y-110530900D01*
X165964977Y-110483281D01*
X166012596Y-110435662D01*
X166060215Y-110340424D01*
X166107834Y-110149948D01*
X166107834Y-109911853D01*
X166060215Y-109721377D01*
X166012596Y-109626139D01*
X165964977Y-109578520D01*
X165869739Y-109530900D01*
X167989095Y-108097580D02*
X167989095Y-107097580D01*
X167608142Y-107097580D01*
X167512904Y-107145200D01*
X167465285Y-107192819D01*
X167417666Y-107288057D01*
X167417666Y-107430914D01*
X167465285Y-107526152D01*
X167512904Y-107573771D01*
X167608142Y-107621390D01*
X167989095Y-107621390D01*
X166989095Y-108097580D02*
X166989095Y-107097580D01*
X166751000Y-107097580D01*
X166608142Y-107145200D01*
X166512904Y-107240438D01*
X166465285Y-107335676D01*
X166417666Y-107526152D01*
X166417666Y-107669009D01*
X166465285Y-107859485D01*
X166512904Y-107954723D01*
X166608142Y-108049961D01*
X166751000Y-108097580D01*
X166989095Y-108097580D01*
X165465285Y-108097580D02*
X166036714Y-108097580D01*
X165751000Y-108097580D02*
X165751000Y-107097580D01*
X165846238Y-107240438D01*
X165941476Y-107335676D01*
X166036714Y-107383295D01*
X168060215Y-105618540D02*
X168060215Y-104618540D01*
X167679262Y-104618540D01*
X167584024Y-104666160D01*
X167536405Y-104713779D01*
X167488786Y-104809017D01*
X167488786Y-104951874D01*
X167536405Y-105047112D01*
X167584024Y-105094731D01*
X167679262Y-105142350D01*
X168060215Y-105142350D01*
X167060215Y-105618540D02*
X167060215Y-104618540D01*
X166822120Y-104618540D01*
X166679262Y-104666160D01*
X166584024Y-104761398D01*
X166536405Y-104856636D01*
X166488786Y-105047112D01*
X166488786Y-105189969D01*
X166536405Y-105380445D01*
X166584024Y-105475683D01*
X166679262Y-105570921D01*
X166822120Y-105618540D01*
X167060215Y-105618540D01*
X166107834Y-104713779D02*
X166060215Y-104666160D01*
X165964977Y-104618540D01*
X165726881Y-104618540D01*
X165631643Y-104666160D01*
X165584024Y-104713779D01*
X165536405Y-104809017D01*
X165536405Y-104904255D01*
X165584024Y-105047112D01*
X166155453Y-105618540D01*
X165536405Y-105618540D01*
X168039895Y-103804980D02*
X168039895Y-102804980D01*
X167658942Y-102804980D01*
X167563704Y-102852600D01*
X167516085Y-102900219D01*
X167468466Y-102995457D01*
X167468466Y-103138314D01*
X167516085Y-103233552D01*
X167563704Y-103281171D01*
X167658942Y-103328790D01*
X168039895Y-103328790D01*
X167039895Y-103804980D02*
X167039895Y-102804980D01*
X166801800Y-102804980D01*
X166658942Y-102852600D01*
X166563704Y-102947838D01*
X166516085Y-103043076D01*
X166468466Y-103233552D01*
X166468466Y-103376409D01*
X166516085Y-103566885D01*
X166563704Y-103662123D01*
X166658942Y-103757361D01*
X166801800Y-103804980D01*
X167039895Y-103804980D01*
X166135133Y-102804980D02*
X165516085Y-102804980D01*
X165849419Y-103185933D01*
X165706561Y-103185933D01*
X165611323Y-103233552D01*
X165563704Y-103281171D01*
X165516085Y-103376409D01*
X165516085Y-103614504D01*
X165563704Y-103709742D01*
X165611323Y-103757361D01*
X165706561Y-103804980D01*
X165992276Y-103804980D01*
X166087514Y-103757361D01*
X166135133Y-103709742D01*
X167806215Y-95473780D02*
X167806215Y-94473780D01*
X167425262Y-94473780D01*
X167330024Y-94521400D01*
X167282405Y-94569019D01*
X167234786Y-94664257D01*
X167234786Y-94807114D01*
X167282405Y-94902352D01*
X167330024Y-94949971D01*
X167425262Y-94997590D01*
X167806215Y-94997590D01*
X166472881Y-94949971D02*
X166330024Y-94997590D01*
X166282405Y-95045209D01*
X166234786Y-95140447D01*
X166234786Y-95283304D01*
X166282405Y-95378542D01*
X166330024Y-95426161D01*
X166425262Y-95473780D01*
X166806215Y-95473780D01*
X166806215Y-94473780D01*
X166472881Y-94473780D01*
X166377643Y-94521400D01*
X166330024Y-94569019D01*
X166282405Y-94664257D01*
X166282405Y-94759495D01*
X166330024Y-94854733D01*
X166377643Y-94902352D01*
X166472881Y-94949971D01*
X166806215Y-94949971D01*
X165330024Y-94473780D02*
X165806215Y-94473780D01*
X165853834Y-94949971D01*
X165806215Y-94902352D01*
X165710977Y-94854733D01*
X165472881Y-94854733D01*
X165377643Y-94902352D01*
X165330024Y-94949971D01*
X165282405Y-95045209D01*
X165282405Y-95283304D01*
X165330024Y-95378542D01*
X165377643Y-95426161D01*
X165472881Y-95473780D01*
X165710977Y-95473780D01*
X165806215Y-95426161D01*
X165853834Y-95378542D01*
X167775735Y-93015060D02*
X167775735Y-92015060D01*
X167394782Y-92015060D01*
X167299544Y-92062680D01*
X167251925Y-92110299D01*
X167204306Y-92205537D01*
X167204306Y-92348394D01*
X167251925Y-92443632D01*
X167299544Y-92491251D01*
X167394782Y-92538870D01*
X167775735Y-92538870D01*
X166442401Y-92491251D02*
X166299544Y-92538870D01*
X166251925Y-92586489D01*
X166204306Y-92681727D01*
X166204306Y-92824584D01*
X166251925Y-92919822D01*
X166299544Y-92967441D01*
X166394782Y-93015060D01*
X166775735Y-93015060D01*
X166775735Y-92015060D01*
X166442401Y-92015060D01*
X166347163Y-92062680D01*
X166299544Y-92110299D01*
X166251925Y-92205537D01*
X166251925Y-92300775D01*
X166299544Y-92396013D01*
X166347163Y-92443632D01*
X166442401Y-92491251D01*
X166775735Y-92491251D01*
X165347163Y-92015060D02*
X165537640Y-92015060D01*
X165632878Y-92062680D01*
X165680497Y-92110299D01*
X165775735Y-92253156D01*
X165823354Y-92443632D01*
X165823354Y-92824584D01*
X165775735Y-92919822D01*
X165728116Y-92967441D01*
X165632878Y-93015060D01*
X165442401Y-93015060D01*
X165347163Y-92967441D01*
X165299544Y-92919822D01*
X165251925Y-92824584D01*
X165251925Y-92586489D01*
X165299544Y-92491251D01*
X165347163Y-92443632D01*
X165442401Y-92396013D01*
X165632878Y-92396013D01*
X165728116Y-92443632D01*
X165775735Y-92491251D01*
X165823354Y-92586489D01*
X167648735Y-90414100D02*
X167648735Y-89414100D01*
X167267782Y-89414100D01*
X167172544Y-89461720D01*
X167124925Y-89509339D01*
X167077306Y-89604577D01*
X167077306Y-89747434D01*
X167124925Y-89842672D01*
X167172544Y-89890291D01*
X167267782Y-89937910D01*
X167648735Y-89937910D01*
X166315401Y-89890291D02*
X166172544Y-89937910D01*
X166124925Y-89985529D01*
X166077306Y-90080767D01*
X166077306Y-90223624D01*
X166124925Y-90318862D01*
X166172544Y-90366481D01*
X166267782Y-90414100D01*
X166648735Y-90414100D01*
X166648735Y-89414100D01*
X166315401Y-89414100D01*
X166220163Y-89461720D01*
X166172544Y-89509339D01*
X166124925Y-89604577D01*
X166124925Y-89699815D01*
X166172544Y-89795053D01*
X166220163Y-89842672D01*
X166315401Y-89890291D01*
X166648735Y-89890291D01*
X165743973Y-89414100D02*
X165077306Y-89414100D01*
X165505878Y-90414100D01*
X167770655Y-87833460D02*
X167770655Y-86833460D01*
X167389702Y-86833460D01*
X167294464Y-86881080D01*
X167246845Y-86928699D01*
X167199226Y-87023937D01*
X167199226Y-87166794D01*
X167246845Y-87262032D01*
X167294464Y-87309651D01*
X167389702Y-87357270D01*
X167770655Y-87357270D01*
X166437321Y-87309651D02*
X166294464Y-87357270D01*
X166246845Y-87404889D01*
X166199226Y-87500127D01*
X166199226Y-87642984D01*
X166246845Y-87738222D01*
X166294464Y-87785841D01*
X166389702Y-87833460D01*
X166770655Y-87833460D01*
X166770655Y-86833460D01*
X166437321Y-86833460D01*
X166342083Y-86881080D01*
X166294464Y-86928699D01*
X166246845Y-87023937D01*
X166246845Y-87119175D01*
X166294464Y-87214413D01*
X166342083Y-87262032D01*
X166437321Y-87309651D01*
X166770655Y-87309651D01*
X165627798Y-87262032D02*
X165723036Y-87214413D01*
X165770655Y-87166794D01*
X165818274Y-87071556D01*
X165818274Y-87023937D01*
X165770655Y-86928699D01*
X165723036Y-86881080D01*
X165627798Y-86833460D01*
X165437321Y-86833460D01*
X165342083Y-86881080D01*
X165294464Y-86928699D01*
X165246845Y-87023937D01*
X165246845Y-87071556D01*
X165294464Y-87166794D01*
X165342083Y-87214413D01*
X165437321Y-87262032D01*
X165627798Y-87262032D01*
X165723036Y-87309651D01*
X165770655Y-87357270D01*
X165818274Y-87452508D01*
X165818274Y-87642984D01*
X165770655Y-87738222D01*
X165723036Y-87785841D01*
X165627798Y-87833460D01*
X165437321Y-87833460D01*
X165342083Y-87785841D01*
X165294464Y-87738222D01*
X165246845Y-87642984D01*
X165246845Y-87452508D01*
X165294464Y-87357270D01*
X165342083Y-87309651D01*
X165437321Y-87262032D01*
X167714775Y-85298540D02*
X167714775Y-84298540D01*
X167333822Y-84298540D01*
X167238584Y-84346160D01*
X167190965Y-84393779D01*
X167143346Y-84489017D01*
X167143346Y-84631874D01*
X167190965Y-84727112D01*
X167238584Y-84774731D01*
X167333822Y-84822350D01*
X167714775Y-84822350D01*
X166381441Y-84774731D02*
X166238584Y-84822350D01*
X166190965Y-84869969D01*
X166143346Y-84965207D01*
X166143346Y-85108064D01*
X166190965Y-85203302D01*
X166238584Y-85250921D01*
X166333822Y-85298540D01*
X166714775Y-85298540D01*
X166714775Y-84298540D01*
X166381441Y-84298540D01*
X166286203Y-84346160D01*
X166238584Y-84393779D01*
X166190965Y-84489017D01*
X166190965Y-84584255D01*
X166238584Y-84679493D01*
X166286203Y-84727112D01*
X166381441Y-84774731D01*
X166714775Y-84774731D01*
X165667156Y-85298540D02*
X165476680Y-85298540D01*
X165381441Y-85250921D01*
X165333822Y-85203302D01*
X165238584Y-85060445D01*
X165190965Y-84869969D01*
X165190965Y-84489017D01*
X165238584Y-84393779D01*
X165286203Y-84346160D01*
X165381441Y-84298540D01*
X165571918Y-84298540D01*
X165667156Y-84346160D01*
X165714775Y-84393779D01*
X165762394Y-84489017D01*
X165762394Y-84727112D01*
X165714775Y-84822350D01*
X165667156Y-84869969D01*
X165571918Y-84917588D01*
X165381441Y-84917588D01*
X165286203Y-84869969D01*
X165238584Y-84822350D01*
X165190965Y-84727112D01*
X168018245Y-82733140D02*
X168018245Y-81733140D01*
X167637293Y-81733140D01*
X167542055Y-81780760D01*
X167494436Y-81828379D01*
X167446817Y-81923617D01*
X167446817Y-82066474D01*
X167494436Y-82161712D01*
X167542055Y-82209331D01*
X167637293Y-82256950D01*
X168018245Y-82256950D01*
X166446817Y-82637902D02*
X166494436Y-82685521D01*
X166637293Y-82733140D01*
X166732531Y-82733140D01*
X166875388Y-82685521D01*
X166970626Y-82590283D01*
X167018245Y-82495045D01*
X167065864Y-82304569D01*
X167065864Y-82161712D01*
X167018245Y-81971236D01*
X166970626Y-81875998D01*
X166875388Y-81780760D01*
X166732531Y-81733140D01*
X166637293Y-81733140D01*
X166494436Y-81780760D01*
X166446817Y-81828379D01*
X165494436Y-82733140D02*
X166065864Y-82733140D01*
X165780150Y-82733140D02*
X165780150Y-81733140D01*
X165875388Y-81875998D01*
X165970626Y-81971236D01*
X166065864Y-82018855D01*
X165161102Y-81733140D02*
X164542055Y-81733140D01*
X164875388Y-82114093D01*
X164732531Y-82114093D01*
X164637293Y-82161712D01*
X164589674Y-82209331D01*
X164542055Y-82304569D01*
X164542055Y-82542664D01*
X164589674Y-82637902D01*
X164637293Y-82685521D01*
X164732531Y-82733140D01*
X165018245Y-82733140D01*
X165113483Y-82685521D01*
X165161102Y-82637902D01*
D11*
X171205200Y-80940600D02*
X169875200Y-80940600D01*
X171205200Y-82270600D02*
X171205200Y-80940600D01*
X171205200Y-83540600D02*
X168545200Y-83540600D01*
X168545200Y-83540600D02*
X168545200Y-124240600D01*
X171205200Y-83540600D02*
X171205200Y-124240600D01*
X171205200Y-124240600D02*
X168545200Y-124240600D01*
X141690400Y-80915200D02*
X140360400Y-80915200D01*
X141690400Y-82245200D02*
X141690400Y-80915200D01*
X141690400Y-83515200D02*
X139030400Y-83515200D01*
X139030400Y-83515200D02*
X139030400Y-124215200D01*
X141690400Y-83515200D02*
X141690400Y-124215200D01*
X141690400Y-124215200D02*
X139030400Y-124215200D01*
X166545100Y-102448200D02*
X150570100Y-102448200D01*
X166545100Y-97348200D02*
X166545100Y-102448200D01*
X150570100Y-97348200D02*
X166545100Y-97348200D01*
X151055800Y-95321333D02*
X151055800Y-95663867D01*
X150035800Y-95321333D02*
X150035800Y-95663867D01*
X162917600Y-95295933D02*
X162917600Y-95638467D01*
X161897600Y-95295933D02*
X161897600Y-95638467D01*
D10*
X170208533Y-79233780D02*
X170208533Y-79948066D01*
X170256152Y-80090923D01*
X170351390Y-80186161D01*
X170494247Y-80233780D01*
X170589485Y-80233780D01*
X169303771Y-79567114D02*
X169303771Y-80233780D01*
X169541866Y-79186161D02*
X169779961Y-79900447D01*
X169160914Y-79900447D01*
X140998533Y-79233780D02*
X140998533Y-79948066D01*
X141046152Y-80090923D01*
X141141390Y-80186161D01*
X141284247Y-80233780D01*
X141379485Y-80233780D01*
X140046152Y-79233780D02*
X140522342Y-79233780D01*
X140569961Y-79709971D01*
X140522342Y-79662352D01*
X140427104Y-79614733D01*
X140189009Y-79614733D01*
X140093771Y-79662352D01*
X140046152Y-79709971D01*
X139998533Y-79805209D01*
X139998533Y-80043304D01*
X140046152Y-80138542D01*
X140093771Y-80186161D01*
X140189009Y-80233780D01*
X140427104Y-80233780D01*
X140522342Y-80186161D01*
X140569961Y-80138542D01*
X156946290Y-96324390D02*
X156946290Y-96800580D01*
X157279623Y-95800580D02*
X156946290Y-96324390D01*
X156612957Y-95800580D01*
X156327242Y-95895819D02*
X156279623Y-95848200D01*
X156184385Y-95800580D01*
X155946290Y-95800580D01*
X155851052Y-95848200D01*
X155803433Y-95895819D01*
X155755814Y-95991057D01*
X155755814Y-96086295D01*
X155803433Y-96229152D01*
X156374861Y-96800580D01*
X155755814Y-96800580D01*
X149472942Y-95325933D02*
X149520561Y-95278314D01*
X149568180Y-95135457D01*
X149568180Y-95040219D01*
X149520561Y-94897361D01*
X149425323Y-94802123D01*
X149330085Y-94754504D01*
X149139609Y-94706885D01*
X148996752Y-94706885D01*
X148806276Y-94754504D01*
X148711038Y-94802123D01*
X148615800Y-94897361D01*
X148568180Y-95040219D01*
X148568180Y-95135457D01*
X148615800Y-95278314D01*
X148663419Y-95325933D01*
X148996752Y-95897361D02*
X148949133Y-95802123D01*
X148901514Y-95754504D01*
X148806276Y-95706885D01*
X148758657Y-95706885D01*
X148663419Y-95754504D01*
X148615800Y-95802123D01*
X148568180Y-95897361D01*
X148568180Y-96087838D01*
X148615800Y-96183076D01*
X148663419Y-96230695D01*
X148758657Y-96278314D01*
X148806276Y-96278314D01*
X148901514Y-96230695D01*
X148949133Y-96183076D01*
X148996752Y-96087838D01*
X148996752Y-95897361D01*
X149044371Y-95802123D01*
X149091990Y-95754504D01*
X149187228Y-95706885D01*
X149377704Y-95706885D01*
X149472942Y-95754504D01*
X149520561Y-95802123D01*
X149568180Y-95897361D01*
X149568180Y-96087838D01*
X149520561Y-96183076D01*
X149472942Y-96230695D01*
X149377704Y-96278314D01*
X149187228Y-96278314D01*
X149091990Y-96230695D01*
X149044371Y-96183076D01*
X148996752Y-96087838D01*
X160593066Y-95784942D02*
X160640685Y-95832561D01*
X160783542Y-95880180D01*
X160878780Y-95880180D01*
X161021638Y-95832561D01*
X161116876Y-95737323D01*
X161164495Y-95642085D01*
X161212114Y-95451609D01*
X161212114Y-95308752D01*
X161164495Y-95118276D01*
X161116876Y-95023038D01*
X161021638Y-94927800D01*
X160878780Y-94880180D01*
X160783542Y-94880180D01*
X160640685Y-94927800D01*
X160593066Y-94975419D01*
X160259733Y-94880180D02*
X159593066Y-94880180D01*
X160021638Y-95880180D01*
M02*
